<svg width="670" height="505" viewBox="0 0 670 505" fill="none" xmlns="http://www.w3.org/2000/svg">
<g clip-path="url(#clip0_3_2)">
<path d="M496.286 412.896C581.069 328.014 581.069 190.393 496.286 105.512C411.502 20.6299 274.041 20.6299 189.258 105.512C104.474 190.393 104.474 328.014 189.258 412.896C274.041 497.777 411.502 497.777 496.286 412.896Z" fill="#5EA7EF"/>
<path d="M505.892 422.513C595.981 332.32 595.981 186.088 505.892 95.8945C415.803 5.70128 269.74 5.70131 179.652 95.8945C89.5629 186.088 89.5629 332.32 179.652 422.513C269.74 512.706 415.803 512.706 505.892 422.513Z" stroke="#5EA7EF" stroke-width="0.5" stroke-miterlimit="10"/>
<path d="M416.486 496.797H267.908C256.158 496.797 246.626 487.267 246.626 475.49C246.626 463.727 256.145 454.184 267.908 454.184H416.486C428.235 454.184 437.768 463.714 437.768 475.49C437.768 487.253 428.249 496.797 416.486 496.797Z" fill="#7BB7FF" stroke="white" stroke-width="0.46" stroke-miterlimit="10"/>
<path d="M340.742 454.197V416.431" stroke="white" stroke-width="0.46" stroke-miterlimit="10"/>
<path d="M132.139 120.496H553.41C562.712 120.496 570.259 128.051 570.259 137.364V404.736H115.29V137.364C115.29 128.051 122.838 120.496 132.139 120.496Z" fill="white"/>
<path d="M570.259 392.551H115.29V404.736H570.259V392.551Z" fill="#DCECF4"/>
<path d="M134.41 127.098H551.126C557.884 127.098 563.365 132.585 563.365 139.351V398.12H122.171V139.351C122.171 132.585 127.652 127.098 134.41 127.098Z" fill="#365C9E"/>
<path d="M134.41 127.098H160.873V398.12H122.171V139.351C122.171 132.585 127.652 127.098 134.41 127.098Z" fill="#3D68A5"/>
<path d="M134.41 127.098H551.126C557.884 127.098 563.365 132.585 563.365 139.351V151.21H122.171V139.351C122.171 132.585 127.652 127.098 134.41 127.098Z" fill="#26508C"/>
<path d="M564.833 421.482H120.703C109.416 421.482 99.788 413.313 97.9386 402.163L97.7346 400.91H587.801L587.597 402.163C585.748 413.313 576.12 421.482 564.833 421.482Z" fill="white"/>
<path d="M582.743 400.897C579.574 410.059 570.912 416.431 560.958 416.431H116.827C110.572 416.431 104.833 413.912 100.645 409.774C104.643 416.826 112.204 421.468 120.703 421.468H564.833C576.12 421.468 585.748 413.3 587.597 402.15L587.801 400.897H582.743Z" fill="#DCECF4"/>
<path d="M179 171.849H334.146" stroke="#54EAC3" stroke-width="1.08" stroke-miterlimit="10" stroke-linecap="round"/>
<path d="M346.943 171.849H398.536" stroke="#54EAC3" stroke-width="1.08" stroke-miterlimit="10" stroke-linecap="round"/>
<path d="M179 282.411H334.146" stroke="#69CDFF" stroke-width="1.08" stroke-miterlimit="10" stroke-linecap="round"/>
<path d="M346.943 282.411H377.58" stroke="#69CDFF" stroke-width="1.08" stroke-miterlimit="10" stroke-linecap="round"/>
<path d="M179 314.201H334.146" stroke="#54EAC3" stroke-width="1.08" stroke-miterlimit="10" stroke-linecap="round"/>
<path d="M346.943 314.201H377.58" stroke="#54EAC3" stroke-width="1.08" stroke-miterlimit="10" stroke-linecap="round"/>
<path d="M179 370.714H334.146" stroke="#69CDFF" stroke-width="1.08" stroke-miterlimit="10" stroke-linecap="round"/>
<path d="M346.943 370.714H398.536" stroke="#69CDFF" stroke-width="1.08" stroke-miterlimit="10" stroke-linecap="round"/>
<path d="M285.667 379.536H334.146" stroke="#54EAC3" stroke-width="1.08" stroke-miterlimit="10" stroke-linecap="round"/>
<path d="M346.943 379.536H398.536" stroke="#54EAC3" stroke-width="1.08" stroke-miterlimit="10" stroke-linecap="round"/>
<path d="M213.527 184.565H334.146" stroke="#69CDFF" stroke-width="1.08" stroke-miterlimit="10" stroke-linecap="round"/>
<path d="M346.943 184.565H365.954" stroke="#69CDFF" stroke-width="1.08" stroke-miterlimit="10" stroke-linecap="round"/>
<path d="M213.527 192.339H334.146" stroke="#69CDFF" stroke-width="1.08" stroke-miterlimit="10" stroke-linecap="round"/>
<path d="M346.943 192.339H379.919" stroke="#69CDFF" stroke-width="1.08" stroke-miterlimit="10" stroke-linecap="round"/>
<path d="M213.527 200.112H334.146" stroke="#54EAC3" stroke-width="1.08" stroke-miterlimit="10" stroke-linecap="round"/>
<path d="M346.943 200.112H365.954" stroke="#54EAC3" stroke-width="1.08" stroke-miterlimit="10" stroke-linecap="round"/>
<path d="M213.527 207.873H334.146" stroke="#69CDFF" stroke-width="1.08" stroke-miterlimit="10" stroke-linecap="round"/>
<path d="M346.943 207.873H379.919" stroke="#69CDFF" stroke-width="1.08" stroke-miterlimit="10" stroke-linecap="round"/>
<path d="M213.527 215.646H334.146" stroke="#69CDFF" stroke-width="1.08" stroke-miterlimit="10" stroke-linecap="round"/>
<path d="M346.943 215.646H365.954" stroke="#69CDFF" stroke-width="1.08" stroke-miterlimit="10" stroke-linecap="round"/>
<path d="M258.905 225.19H334.146" stroke="#69CDFF" stroke-width="1.08" stroke-miterlimit="10" stroke-linecap="round"/>
<path d="M346.943 225.19H386.895" stroke="#69CDFF" stroke-width="1.08" stroke-miterlimit="10" stroke-linecap="round"/>
<path d="M258.905 234.72H334.146" stroke="#69CDFF" stroke-width="1.08" stroke-miterlimit="10" stroke-linecap="round"/>
<path d="M346.943 234.72H386.895" stroke="#69CDFF" stroke-width="1.08" stroke-miterlimit="10" stroke-linecap="round"/>
<path d="M258.905 244.264H318.63" stroke="#69CDFF" stroke-width="1.08" stroke-miterlimit="10" stroke-linecap="round"/>
<path d="M331.427 244.264H386.895" stroke="#69CDFF" stroke-width="1.08" stroke-miterlimit="10" stroke-linecap="round"/>
<path d="M258.905 253.794H334.146" stroke="#69CDFF" stroke-width="1.08" stroke-miterlimit="10" stroke-linecap="round"/>
<path d="M346.943 253.794H386.895" stroke="#69CDFF" stroke-width="1.08" stroke-miterlimit="10" stroke-linecap="round"/>
<path d="M258.905 263.337H318.63" stroke="#69CDFF" stroke-width="1.08" stroke-miterlimit="10" stroke-linecap="round"/>
<path d="M331.427 263.337H386.895" stroke="#69CDFF" stroke-width="1.08" stroke-miterlimit="10" stroke-linecap="round"/>
<path d="M258.905 272.868H334.146" stroke="#69CDFF" stroke-width="1.08" stroke-miterlimit="10" stroke-linecap="round"/>
<path d="M346.943 272.868H386.895" stroke="#69CDFF" stroke-width="1.08" stroke-miterlimit="10" stroke-linecap="round"/>
<path d="M277.903 295.127H353.157" stroke="#69CDFF" stroke-width="1.08" stroke-miterlimit="10" stroke-linecap="round"/>
<path d="M365.954 295.127H405.906" stroke="#69CDFF" stroke-width="1.08" stroke-miterlimit="10" stroke-linecap="round"/>
<path d="M277.903 304.657H331.427" stroke="#69CDFF" stroke-width="1.08" stroke-miterlimit="10" stroke-linecap="round"/>
<path d="M344.237 304.657H405.906" stroke="#69CDFF" stroke-width="1.08" stroke-miterlimit="10" stroke-linecap="round"/>
<path d="M308.554 326.563H331.427" stroke="#69CDFF" stroke-width="1.08" stroke-miterlimit="10" stroke-linecap="round"/>
<path d="M344.237 326.563H386.895" stroke="#69CDFF" stroke-width="1.08" stroke-miterlimit="10" stroke-linecap="round"/>
<path d="M315.53 335.385H331.427" stroke="#69CDFF" stroke-width="1.08" stroke-miterlimit="10" stroke-linecap="round"/>
<path d="M344.237 335.385H398.536" stroke="#69CDFF" stroke-width="1.08" stroke-miterlimit="10" stroke-linecap="round"/>
<path d="M308.554 344.22H331.427" stroke="#54EAC3" stroke-width="1.08" stroke-miterlimit="10" stroke-linecap="round"/>
<path d="M344.237 344.22H386.895" stroke="#54EAC3" stroke-width="1.08" stroke-miterlimit="10" stroke-linecap="round"/>
<path d="M315.53 353.043H331.427" stroke="#69CDFF" stroke-width="1.08" stroke-miterlimit="10" stroke-linecap="round"/>
<path d="M344.237 353.042H398.536" stroke="#69CDFF" stroke-width="1.08" stroke-miterlimit="10" stroke-linecap="round"/>
<path d="M148.444 171.849C148.444 175.675 145.343 178.779 141.522 178.779C137.701 178.779 134.6 175.675 134.6 171.849C134.6 168.023 137.701 164.919 141.522 164.919C145.343 164.919 148.444 168.023 148.444 171.849Z" fill="#26508C"/>
<path d="M145.942 139.161C145.942 140.931 144.514 142.36 142.746 142.36C140.978 142.36 139.55 140.931 139.55 139.161C139.55 137.391 140.978 135.961 142.746 135.961C144.514 135.961 145.942 137.391 145.942 139.161Z" fill="#54EAC3"/>
<path d="M157.677 139.161C157.677 140.931 156.249 142.36 154.482 142.36C152.714 142.36 151.286 140.931 151.286 139.161C151.286 137.391 152.714 135.961 154.482 135.961C156.249 135.961 157.677 137.391 157.677 139.161Z" fill="#54EAC3"/>
<path d="M169.399 139.161C169.399 140.931 167.971 142.36 166.204 142.36C164.436 142.36 163.008 140.931 163.008 139.161C163.008 137.391 164.436 135.961 166.204 135.961C167.971 135.961 169.399 137.391 169.399 139.161Z" fill="#54EAC3"/>
<path d="M148.444 199.268C148.444 203.094 145.343 206.198 141.522 206.198C137.701 206.198 134.6 203.094 134.6 199.268C134.6 195.443 137.701 192.339 141.522 192.339C145.343 192.339 148.444 195.443 148.444 199.268Z" fill="#26508C"/>
<path d="M141.522 233.617C145.345 233.617 148.444 230.515 148.444 226.688C148.444 222.86 145.345 219.758 141.522 219.758C137.699 219.758 134.6 222.86 134.6 226.688C134.6 230.515 137.699 233.617 141.522 233.617Z" fill="#26508C"/>
<path d="M148.444 254.107C148.444 257.933 145.343 261.037 141.522 261.037C137.701 261.037 134.6 257.933 134.6 254.107C134.6 250.281 137.701 247.177 141.522 247.177C145.343 247.177 148.444 250.281 148.444 254.107Z" fill="#26508C"/>
<path d="M586.781 174.899H621.349C630.664 174.899 638.225 182.455 638.225 191.794V362.654C638.225 371.98 630.678 379.55 621.349 379.55H569.09" stroke="white" stroke-width="1.13" stroke-miterlimit="10"/>
<path opacity="0.05" d="M518.299 295.944C584.54 295.944 638.238 242.183 638.238 175.865C638.238 109.548 584.54 55.7864 518.299 55.7864C452.058 55.7864 398.359 109.548 398.359 175.865C398.359 242.183 452.058 295.944 518.299 295.944Z" fill="white"/>
<path opacity="0.15" d="M518.299 287.217C579.726 287.217 629.522 237.363 629.522 175.865C629.522 114.367 579.726 64.5132 518.299 64.5132C456.872 64.5132 407.076 114.367 407.076 175.865C407.076 237.363 456.872 287.217 518.299 287.217Z" fill="white"/>
<path opacity="0.5" d="M607.829 197.005C619.502 147.492 588.872 97.8798 539.416 86.1937C489.961 74.5075 440.406 105.172 428.733 154.686C417.061 204.199 447.69 253.811 497.146 265.497C546.602 277.183 596.156 246.518 607.829 197.005Z" fill="white"/>
<path d="M582.267 41.2191H454.29C451.233 41.2191 448.755 43.6999 448.755 46.7601V296.951C448.755 300.012 451.233 302.492 454.29 302.492H582.267C585.323 302.492 587.801 300.012 587.801 296.951V46.7601C587.801 43.6999 585.323 41.2191 582.267 41.2191Z" fill="#5492DD"/>
<path d="M578.541 45.7935H458.016C455.102 45.7935 452.74 48.1585 452.74 51.0759V292.636C452.74 295.553 455.102 297.918 458.016 297.918H578.541C581.455 297.918 583.817 295.553 583.817 292.636V51.0759C583.817 48.1585 581.455 45.7935 578.541 45.7935Z" fill="white"/>
<path d="M495.113 44.2823H541.457V46.2155C541.457 47.7267 540.233 48.952 538.724 48.952H497.833C496.323 48.952 495.1 47.7267 495.1 46.2155V44.2823H495.113Z" fill="#5492DD"/>
<path d="M508.685 45.7935H527.872" stroke="white" stroke-width="0.73" stroke-miterlimit="10" stroke-linecap="round"/>
<path d="M547.702 110.404C551.54 94.1219 541.468 77.8071 525.204 73.9641C508.941 70.1211 492.645 80.2052 488.806 96.4876C484.968 112.77 495.04 129.085 511.304 132.928C527.567 136.771 543.863 126.687 547.702 110.404Z" fill="#9FDFFF"/>
<path d="M526.077 103.137H522.909C526.036 101.476 528.185 98.1816 528.185 94.3832C528.185 88.9102 523.752 84.4855 518.299 84.4855C512.846 84.4855 508.413 88.9238 508.413 94.3832C508.413 98.1816 510.548 101.476 513.689 103.137H510.52C505.298 103.137 501.056 107.385 501.056 112.613V115.771C501.056 117.813 502.715 119.474 504.755 119.474H531.87C533.91 119.474 535.569 117.813 535.569 115.771V112.613C535.569 107.385 531.326 103.137 526.104 103.137H526.077Z" fill="white"/>
<path d="M532.632 283.024H503.925C502.32 283.024 501.029 281.73 501.029 280.124C501.029 278.517 502.32 277.224 503.925 277.224H532.632C534.236 277.224 535.528 278.517 535.528 280.124C535.528 281.73 534.236 283.024 532.632 283.024Z" fill="#9FDFFF"/>
<path d="M552.254 222.358H484.302C478.169 222.358 473.192 217.375 473.192 211.235C473.192 205.095 478.169 200.112 484.302 200.112H552.254C558.387 200.112 563.365 205.095 563.365 211.235C563.365 217.375 558.387 222.358 552.254 222.358V222.358Z" stroke="#9FDFFF" stroke-width="1.04" stroke-miterlimit="10"/>
<path d="M501.314 211.235C501.314 212.243 500.498 213.073 499.478 213.073C498.458 213.073 497.643 212.256 497.643 211.235C497.643 210.214 498.458 209.397 499.478 209.397C500.498 209.397 501.314 210.214 501.314 211.235Z" fill="#E1E8EA"/>
<path d="M510.724 211.235C510.724 212.243 509.908 213.073 508.889 213.073C507.869 213.073 507.053 212.256 507.053 211.235C507.053 210.214 507.869 209.397 508.889 209.397C509.908 209.397 510.724 210.214 510.724 211.235Z" fill="#E1E8EA"/>
<path d="M520.121 211.235C520.121 212.243 519.305 213.073 518.285 213.073C517.265 213.073 516.449 212.256 516.449 211.235C516.449 210.214 517.265 209.397 518.285 209.397C519.305 209.397 520.121 210.214 520.121 211.235Z" fill="#E1E8EA"/>
<path d="M529.531 211.235C529.531 212.243 528.715 213.073 527.695 213.073C526.676 213.073 525.86 212.256 525.86 211.235C525.86 210.214 526.676 209.397 527.695 209.397C528.715 209.397 529.531 210.214 529.531 211.235Z" fill="#E1E8EA"/>
<path d="M538.941 211.235C538.941 212.243 538.126 213.073 537.106 213.073C536.086 213.073 535.27 212.256 535.27 211.235C535.27 210.214 536.086 209.397 537.106 209.397C538.126 209.397 538.941 210.214 538.941 211.235Z" fill="#E1E8EA"/>
<path d="M552.254 188.132H484.302C478.169 188.132 473.192 183.149 473.192 177.009C473.192 170.869 478.169 165.886 484.302 165.886H552.254C558.387 165.886 563.365 170.869 563.365 177.009C563.365 183.149 558.387 188.132 552.254 188.132V188.132Z" stroke="#9FDFFF" stroke-width="1.04" stroke-miterlimit="10"/>
<path d="M546.217 178.166H490.367C489.728 178.166 489.211 177.649 489.211 177.009C489.211 176.369 489.728 175.852 490.367 175.852H546.217C546.856 175.852 547.373 176.369 547.373 177.009C547.373 177.649 546.856 178.166 546.217 178.166Z" fill="#E1E8EA"/>
<path d="M613.027 375.316H570.259V382.79H613.027V375.316Z" fill="url(#paint0_linear_3_2)"/>
<path d="M597.266 374.254H570.259V376.391H597.266V374.254Z" fill="url(#paint1_linear_3_2)"/>
<path d="M597.266 381.728H570.259V383.865H597.266V381.728Z" fill="url(#paint2_linear_3_2)"/>
<path d="M630.569 171.168H587.801V178.642H630.569V171.168Z" fill="url(#paint3_linear_3_2)"/>
<path d="M614.808 170.093H587.801V172.23H614.808V170.093Z" fill="url(#paint4_linear_3_2)"/>
<path d="M614.808 177.567H587.801V179.704H614.808V177.567Z" fill="url(#paint5_linear_3_2)"/>
<path d="M106.519 346.753V382.109C106.519 383.675 105.255 384.927 103.704 384.927H80.274" stroke="white" stroke-width="0.5" stroke-miterlimit="10"/>
<path d="M106.519 346.753C107.541 346.753 108.369 345.924 108.369 344.901C108.369 343.879 107.541 343.05 106.519 343.05C105.498 343.05 104.67 343.879 104.67 344.901C104.67 345.924 105.498 346.753 106.519 346.753Z" stroke="white" stroke-width="0.5" stroke-miterlimit="10"/>
<path d="M78.4246 386.779C79.446 386.779 80.274 385.95 80.274 384.927C80.274 383.905 79.446 383.076 78.4246 383.076C77.4032 383.076 76.5752 383.905 76.5752 384.927C76.5752 385.95 77.4032 386.779 78.4246 386.779Z" stroke="white" stroke-width="0.5" stroke-miterlimit="10"/>
<path d="M86.8422 407.051C87.8636 407.051 88.6916 406.222 88.6916 405.199C88.6916 404.177 87.8636 403.348 86.8422 403.348C85.8208 403.348 84.9928 404.177 84.9928 405.199C84.9928 406.222 85.8208 407.051 86.8422 407.051Z" stroke="white" stroke-width="0.5" stroke-miterlimit="10"/>
<path d="M108.369 391.503C109.39 391.503 110.218 390.674 110.218 389.652C110.218 388.629 109.39 387.8 108.369 387.8C107.347 387.8 106.519 388.629 106.519 389.652C106.519 390.674 107.347 391.503 108.369 391.503Z" stroke="white" stroke-width="0.5" stroke-miterlimit="10"/>
<path d="M106.519 389.652H89.6571C88.0932 389.652 86.8422 390.918 86.8422 392.47V403.579" stroke="white" stroke-width="0.5" stroke-miterlimit="10"/>
<path d="M145.167 114.628C146.188 114.628 147.016 113.799 147.016 112.776C147.016 111.754 146.188 110.925 145.167 110.925C144.145 110.925 143.317 111.754 143.317 112.776C143.317 113.799 144.145 114.628 145.167 114.628Z" stroke="white" stroke-width="0.5" stroke-miterlimit="10"/>
<path d="M228.839 112.776C228.839 113.797 228.009 114.628 226.989 114.628C225.97 114.628 225.14 113.797 225.14 112.776C225.14 111.755 225.97 110.925 226.989 110.925C228.009 110.925 228.839 111.755 228.839 112.776Z" stroke="white" stroke-width="0.5" stroke-miterlimit="10"/>
<path d="M225.154 112.776H146.866" stroke="white" stroke-width="0.5" stroke-miterlimit="10"/>
<path d="M481.651 34.902C482.672 34.902 483.5 34.073 483.5 33.0504C483.5 32.0279 482.672 31.1989 481.651 31.1989C480.629 31.1989 479.801 32.0279 479.801 33.0504C479.801 34.073 480.629 34.902 481.651 34.902Z" stroke="white" stroke-width="0.5" stroke-miterlimit="10"/>
<path d="M493.957 33.0504C493.957 34.0715 493.128 34.902 492.108 34.902C491.088 34.902 490.258 34.0715 490.258 33.0504C490.258 32.0294 491.088 31.1989 492.108 31.1989C493.128 31.1989 493.957 32.0294 493.957 33.0504Z" stroke="white" stroke-width="0.5" stroke-miterlimit="10"/>
<path d="M441.671 80.1698V39.5853C441.671 35.9775 444.594 33.0504 448.198 33.0504H479.801" stroke="white" stroke-width="0.5" stroke-miterlimit="10"/>
<path d="M493.957 33.0504H522.378" stroke="white" stroke-width="0.5" stroke-miterlimit="10"/>
<path d="M446.906 429.855C447.927 429.855 448.755 429.026 448.755 428.003C448.755 426.981 447.927 426.152 446.906 426.152C445.885 426.152 445.057 426.981 445.057 428.003C445.057 429.026 445.885 429.855 446.906 429.855Z" stroke="white" stroke-width="0.5" stroke-miterlimit="10"/>
<path d="M566.125 429.855C567.146 429.855 567.974 429.026 567.974 428.003C567.974 426.981 567.146 426.152 566.125 426.152C565.104 426.152 564.276 426.981 564.276 428.003C564.276 429.026 565.104 429.855 566.125 429.855Z" stroke="white" stroke-width="0.5" stroke-miterlimit="10"/>
<path d="M448.755 428.003H564.276" stroke="white" stroke-width="0.5" stroke-miterlimit="10"/>
<path d="M598.068 366.398C598.068 367.419 597.239 368.25 596.219 368.25C595.199 368.25 594.369 367.419 594.369 366.398C594.369 365.377 595.199 364.547 596.219 364.547C597.239 364.547 598.068 365.377 598.068 366.398Z" stroke="white" stroke-width="0.5" stroke-miterlimit="10"/>
<path d="M597.252 290.512C598.274 290.512 599.102 289.683 599.102 288.66C599.102 287.638 598.274 286.809 597.252 286.809C596.231 286.809 595.403 287.638 595.403 288.66C595.403 289.683 596.231 290.512 597.252 290.512Z" stroke="white" stroke-width="0.5" stroke-miterlimit="10"/>
<path d="M578.187 350.183C579.208 350.183 580.036 349.355 580.036 348.332C580.036 347.309 579.208 346.48 578.187 346.48C577.166 346.48 576.338 347.309 576.338 348.332C576.338 349.355 577.166 350.183 578.187 350.183Z" stroke="white" stroke-width="0.5" stroke-miterlimit="10"/>
<path d="M578.187 346.494V326.413C578.187 325.528 578.894 324.82 579.778 324.82H595.661C596.545 324.82 597.252 324.112 597.252 323.227V290.512" stroke="white" stroke-width="0.5" stroke-miterlimit="10"/>
<path d="M578.187 333.329H594.628C595.512 333.329 596.219 334.037 596.219 334.922V364.547" stroke="white" stroke-width="0.5" stroke-miterlimit="10"/>
<path d="M124.515 326.947C136.81 321.849 142.649 307.736 137.556 295.427C132.463 283.117 118.368 277.272 106.072 282.371C93.7771 287.469 87.9384 301.582 93.0313 313.891C98.1241 326.201 112.22 332.046 124.515 326.947Z" fill="white"/>
<path d="M136.056 286.686C140.217 291.506 142.732 297.782 142.732 304.657C142.732 319.837 130.439 332.144 115.277 332.144C111.578 332.144 108.042 331.409 104.82 330.089" stroke="white" stroke-width="0.64" stroke-miterlimit="10" stroke-linecap="round"/>
<path d="M96.7148 324.888C91.2617 319.864 87.8349 312.662 87.8349 304.657C87.8349 289.477 100.128 277.17 115.29 277.17" stroke="white" stroke-width="0.64" stroke-miterlimit="10" stroke-linecap="round"/>
<path d="M118.445 293.425H120.431L112.911 314.922H110.925L118.445 293.425Z" fill="#365C9E"/>
<path d="M131.323 303.663V305.624L121.111 309.667V307.775L129.229 304.643L121.111 301.512V299.62L131.323 303.663Z" fill="#365C9E"/>
<path d="M99.2577 305.624V303.663L109.47 299.62V301.512L101.352 304.643L109.47 307.775V309.667L99.2577 305.624Z" fill="#365C9E"/>
<path d="M213.672 81.0518C228.955 65.7503 228.955 40.9415 213.672 25.6399C198.388 10.3383 173.608 10.3383 158.324 25.6399C143.04 40.9415 143.04 65.7502 158.324 81.0518C173.608 96.3534 198.388 96.3534 213.672 81.0518Z" fill="white"/>
<path d="M219.741 24.1602C226.5 31.9885 230.593 42.1857 230.593 53.3358C230.593 77.9915 210.63 97.9637 186.017 97.9637C180.006 97.9637 174.281 96.7793 169.046 94.6146" stroke="white" stroke-width="1.04" stroke-miterlimit="10" stroke-linecap="round"/>
<path d="M155.842 86.2009C146.975 78.0459 141.427 66.3376 141.427 53.3358C141.427 28.6938 161.39 8.70795 186.003 8.70795" stroke="white" stroke-width="1.04" stroke-miterlimit="10" stroke-linecap="round"/>
<path d="M169.535 60.674L171.901 57.8286C173.125 59.4895 174.594 60.3881 176.348 60.3881C178.66 60.3881 179.843 59.013 179.843 56.2493V44.6499H171.874V41.151H184.004V56.0179C184.004 61.3002 181.38 63.9006 176.457 63.9006C173.642 63.9006 171.086 62.7434 169.535 60.6604V60.674Z" fill="#F29141"/>
<path d="M187.499 61.8857L189.036 58.836C190.545 59.8299 192.843 60.5378 194.992 60.5378C197.521 60.5378 198.582 59.8299 198.582 58.6454C198.582 55.378 188.016 58.4548 188.016 51.634C188.016 48.3938 190.926 46.2836 195.536 46.2836C197.807 46.2836 200.404 46.8282 201.941 47.754L200.404 50.8036C198.772 49.8369 197.14 49.5238 195.509 49.5238C193.074 49.5238 191.919 50.3271 191.919 51.4434C191.919 54.9015 202.485 51.8246 202.485 58.5229C202.485 61.7223 199.534 63.8053 194.734 63.8053C191.891 63.8053 189.036 62.9748 187.499 61.8857Z" fill="#F29141"/>
<path d="M296.519 150.502C320.943 150.502 340.742 130.679 340.742 106.228C340.742 81.7758 320.943 61.9537 296.519 61.9537C272.096 61.9537 252.296 81.7758 252.296 106.228C252.296 130.679 272.096 150.502 296.519 150.502Z" fill="white"/>
<path d="M334.636 73.2673C342.265 82.103 346.888 93.6344 346.888 106.228C346.888 134.083 324.342 156.655 296.519 156.655C289.733 156.655 283.247 155.307 277.345 152.87" stroke="white" stroke-width="1.17" stroke-miterlimit="10" stroke-linecap="round"/>
<path d="M262.441 143.354C252.432 134.137 246.163 120.918 246.163 106.228C246.163 78.3727 268.71 55.8 296.533 55.8" stroke="white" stroke-width="1.17" stroke-miterlimit="10" stroke-linecap="round"/>
<path d="M286.116 103.995C286.116 107.398 283.6 109.509 279.521 109.509H276.026V113.988H273.157V98.4946H279.521C283.587 98.4946 286.116 100.578 286.116 104.008V103.995ZM283.22 103.995C283.22 102.048 281.914 100.918 279.398 100.918H276.04V107.072H279.398C281.914 107.072 283.22 105.942 283.22 103.995Z" fill="#9779B7"/>
<path d="M302.761 98.4811V113.974H299.892V107.33H291.882V113.974H289.013V98.4811H291.882V104.88H299.892V98.4811H302.761Z" fill="#9779B7"/>
<path d="M319.881 103.995C319.881 107.398 317.366 109.509 313.286 109.509H309.791V113.988H306.922V98.4947H313.286C317.352 98.4947 319.881 100.578 319.881 104.009V103.995ZM316.985 103.995C316.985 102.048 315.68 100.918 313.164 100.918H309.805V107.072H313.164C315.68 107.072 316.985 105.942 316.985 103.995Z" fill="#9779B7"/>
<path d="M82.6402 270.744C107.77 270.744 128.141 250.349 128.141 225.19C128.141 200.031 107.77 179.636 82.6402 179.636C57.5107 179.636 37.1393 200.031 37.1393 225.19C37.1393 250.349 57.5107 270.744 82.6402 270.744Z" fill="white"/>
<path d="M121.845 191.263C129.705 200.357 134.451 212.215 134.451 225.176C134.451 253.835 111.252 277.061 82.6266 277.061C75.6369 277.061 68.9736 275.672 62.895 273.167" stroke="white" stroke-width="1.21" stroke-miterlimit="10" stroke-linecap="round"/>
<path d="M47.5694 263.378C37.2753 253.903 30.8159 240.288 30.8159 225.176C30.8159 196.518 54.0151 173.292 82.6402 173.292" stroke="white" stroke-width="1.21" stroke-miterlimit="10" stroke-linecap="round"/>
<path d="M66.3083 218.982V233.127H63.6838V227.069H56.3813V233.127H53.7568V218.982H56.3813V224.822H63.6838V218.982H66.3083Z" fill="#FC974C"/>
<path d="M72.958 221.201H68.2801V218.982H80.2741V221.201H75.5825V233.127H72.958V221.201Z" fill="#FC974C"/>
<path d="M95.2189 233.127V223.747L90.5546 231.507H89.3851L84.748 223.869V233.127H82.2458V218.982H84.408L90.0243 228.362L95.5317 218.982H97.6939V233.127H95.2325H95.2189Z" fill="#FC974C"/>
<path d="M101.515 218.982H104.14V230.908H111.524V233.127H101.515V218.982Z" fill="#FC974C"/>
<path d="M104.376 109.895C107.93 94.8198 98.6043 79.7148 83.5468 76.1568C68.4893 72.5988 53.4018 81.9351 49.8479 97.0101C46.294 112.085 55.6195 127.19 70.677 130.748C85.7345 134.306 100.822 124.97 104.376 109.895Z" fill="white"/>
<path d="M101.27 82.5659C106.111 88.1614 109.035 95.4723 109.035 103.45C109.035 121.095 94.743 135.403 77.1192 135.403C72.822 135.403 68.7152 134.546 64.962 133.007" stroke="white" stroke-width="0.74" stroke-miterlimit="10" stroke-linecap="round"/>
<path d="M55.5246 126.976C49.1876 121.135 45.2032 112.763 45.2032 103.45C45.2032 85.8061 59.4954 71.4974 77.1192 71.4974" stroke="white" stroke-width="0.74" stroke-miterlimit="10" stroke-linecap="round"/>
<path d="M60.9912 103.314C60.9912 99.3116 64.0509 96.4117 68.1713 96.4117C70.3607 96.4117 72.2373 97.2013 73.4747 98.6581L71.8701 100.169C70.891 99.1209 69.6807 98.59 68.2937 98.59C65.5196 98.59 63.507 100.55 63.507 103.314C63.507 106.078 65.5196 108.038 68.2937 108.038C69.6943 108.038 70.9046 107.521 71.8701 106.445L73.4747 107.984C72.2237 109.441 70.3471 110.23 68.1441 110.23C64.0373 110.23 60.9776 107.33 60.9776 103.328L60.9912 103.314Z" fill="#4F88DB"/>
<path d="M83.7145 104.131H80.8452V106.976H79.1046V104.131H76.2353V102.511H79.1046V99.6655H80.8452V102.511H83.7145V104.131Z" fill="#4F88DB"/>
<path d="M93.2471 104.131H90.3778V106.976H88.6372V104.131H85.7679V102.511H88.6372V99.6655H90.3778V102.511H93.2471V104.131Z" fill="#4F88DB"/>
<path d="M391.125 91.7284C407.677 91.7284 421.096 78.2942 421.096 61.7223C421.096 45.1504 407.677 31.7162 391.125 31.7162C374.572 31.7162 361.153 45.1504 361.153 61.7223C361.153 78.2942 374.572 91.7284 391.125 91.7284Z" fill="white"/>
<path d="M416.948 39.3811C422.116 45.3714 425.257 53.1861 425.257 61.7223C425.257 80.5918 409.972 95.8943 391.125 95.8943C386.528 95.8943 382.136 94.9822 378.124 93.3349" stroke="white" stroke-width="0.8" stroke-miterlimit="10" stroke-linecap="round"/>
<path d="M368.021 86.8816C361.235 80.6326 356.992 71.6744 356.992 61.7223C356.992 42.8528 372.277 27.5502 391.125 27.5502" stroke="white" stroke-width="0.8" stroke-miterlimit="10" stroke-linecap="round"/>
<path d="M373.147 61.5725C373.147 57.6244 376.166 54.7654 380.232 54.7654C382.381 54.7654 384.244 55.5414 385.468 56.9845L383.877 58.4821C382.911 57.4474 381.728 56.93 380.341 56.93C377.594 56.93 375.609 58.8633 375.609 61.5862C375.609 64.309 377.594 66.2423 380.341 66.2423C381.714 66.2423 382.911 65.7249 383.877 64.6766L385.468 66.1878C384.244 67.6309 382.381 68.4069 380.219 68.4069C376.166 68.4069 373.147 65.5479 373.147 61.5998V61.5725Z" fill="#4F88DB"/>
<path d="M386.651 66.8004L387.507 64.8944C388.568 65.7521 390.241 66.3512 391.872 66.3512C393.939 66.3512 394.796 65.616 394.796 64.6358C394.796 61.7767 386.936 63.6555 386.936 58.7271C386.936 56.5897 388.636 54.779 392.267 54.779C393.858 54.779 395.517 55.201 396.673 55.9498L395.898 57.8558C394.715 57.1615 393.409 56.8211 392.253 56.8211C390.214 56.8211 389.384 57.6107 389.384 58.6182C389.384 61.4364 397.23 59.5984 397.23 64.4724C397.23 66.5962 395.503 68.4069 391.886 68.4069C389.833 68.4069 387.766 67.7671 386.664 66.8141L386.651 66.8004Z" fill="#4F88DB"/>
<path d="M398.536 66.8004L399.379 64.8944C400.44 65.7521 402.126 66.3512 403.744 66.3512C405.811 66.3512 406.668 65.616 406.668 64.6358C406.668 61.7767 398.808 63.6555 398.808 58.7271C398.808 56.5897 400.508 54.779 404.138 54.779C405.729 54.779 407.389 55.201 408.544 55.9498L407.769 57.8558C406.586 57.1615 405.281 56.8211 404.125 56.8211C402.085 56.8211 401.256 57.6107 401.256 58.6182C401.256 61.4364 409.102 59.5984 409.102 64.4724C409.102 66.5962 407.375 68.4069 403.758 68.4069C401.704 68.4069 399.637 67.7671 398.536 66.8141V66.8004Z" fill="#4F88DB"/>
<path d="M337.56 18.0474L332.719 18.2925L332.963 13.4457C331.114 12.1932 328.993 11.3083 326.708 10.859L323.472 14.4532L320.235 10.859C317.964 11.2947 315.843 12.1932 313.98 13.4457L314.224 18.2925L309.383 18.0474C308.132 19.8989 307.248 22.0228 306.8 24.31L310.39 27.5502L306.8 30.7904C307.235 33.0777 308.132 35.1879 309.383 37.053L314.224 36.808L313.98 41.6547C315.829 42.9072 317.95 43.7922 320.235 44.2414L323.472 40.6472L326.708 44.2414C328.993 43.8058 331.1 42.9072 332.963 41.6547L332.719 36.808L337.56 37.053C338.811 35.2015 339.695 33.0777 340.143 30.7904L336.553 27.5502L340.143 24.31C339.708 22.0228 338.811 19.9126 337.56 18.0474V18.0474Z" stroke="white" stroke-width="0.5" stroke-miterlimit="10"/>
<path d="M330.91 27.5502C330.91 31.6618 327.578 34.9837 323.485 34.9837C319.392 34.9837 316.06 31.6481 316.06 27.5502C316.06 23.4523 319.392 20.1168 323.485 20.1168C327.578 20.1168 330.91 23.4523 330.91 27.5502Z" stroke="white" stroke-width="0.5" stroke-miterlimit="10"/>
<path d="M508.032 340.681L503.191 340.926L503.435 336.079C501.586 334.826 499.465 333.942 497.18 333.492L493.944 337.086L490.707 333.492C488.423 333.928 486.315 334.826 484.452 336.079L484.697 340.926L479.855 340.681C478.604 342.532 477.721 344.656 477.272 346.943L480.862 350.184L477.272 353.424C477.707 355.697 478.604 357.821 479.855 359.686L484.697 359.441L484.452 364.288C486.301 365.541 488.423 366.425 490.707 366.875L493.944 363.281L497.18 366.875C499.465 366.439 501.572 365.541 503.435 364.288L503.191 359.441L508.032 359.686C509.283 357.835 510.167 355.711 510.616 353.424L507.026 350.184L510.616 346.943C510.18 344.656 509.283 342.546 508.032 340.681Z" stroke="white" stroke-width="0.5" stroke-miterlimit="10"/>
<path d="M501.382 350.183C501.382 354.295 498.05 357.617 493.957 357.617C489.864 357.617 486.532 354.281 486.532 350.183C486.532 346.086 489.864 342.75 493.957 342.75C498.05 342.75 501.382 346.086 501.382 350.183Z" stroke="white" stroke-width="0.5" stroke-miterlimit="10"/>
<path d="M76.5752 298.789C76.2761 297.21 75.6505 295.74 74.7802 294.446L71.4214 294.623L71.5982 291.26C70.3063 290.389 68.8376 289.777 67.2602 289.463L65.0164 291.955L62.7727 289.463C61.1952 289.763 59.7266 290.389 58.4347 291.26L58.6115 294.623L55.2526 294.446C54.3823 295.74 53.7704 297.21 53.4576 298.789L55.9462 301.036L53.4576 303.282C53.7568 304.861 54.3823 306.332 55.2526 307.625L58.6115 307.448L58.4347 310.811C59.7266 311.682 61.1952 312.295 62.7727 312.608L65.0164 310.116L67.2602 312.608C68.8376 312.308 70.3063 311.682 71.5982 310.811L71.4214 307.448L74.7802 307.625C75.6505 306.332 76.2625 304.861 76.5752 303.282L74.0867 301.036L76.5752 298.789ZM65.0164 306.195C62.1743 306.195 59.8626 303.881 59.8626 301.036C59.8626 298.19 62.1743 295.876 65.0164 295.876C67.8585 295.876 70.1703 298.19 70.1703 301.036C70.1703 303.881 67.8585 306.195 65.0164 306.195Z" fill="white"/>
<path d="M564.575 17.8568C564.276 16.2775 563.65 14.8072 562.78 13.5138L559.421 13.6908L559.598 10.3281C558.306 9.45674 556.837 8.84409 555.26 8.53096L553.016 11.0224L550.772 8.53096C549.195 8.83048 547.726 9.45674 546.434 10.3281L546.611 13.6908L543.252 13.5138C542.382 14.8072 541.77 16.2775 541.457 17.8568L543.946 20.1032L541.457 22.3495C541.756 23.9288 542.382 25.3992 543.252 26.6925L546.611 26.5155L546.434 29.8783C547.726 30.7496 549.195 31.3623 550.772 31.6754L553.016 29.184L555.26 31.6754C556.837 31.3759 558.306 30.7496 559.598 29.8783L559.421 26.5155L562.78 26.6925C563.65 25.3992 564.262 23.9288 564.575 22.3495L562.086 20.1032L564.575 17.8568ZM553.016 25.263C550.174 25.263 547.862 22.9486 547.862 20.1032C547.862 17.2578 550.174 14.9433 553.016 14.9433C555.858 14.9433 558.17 17.2578 558.17 20.1032C558.17 22.9486 555.858 25.263 553.016 25.263Z" fill="white"/>
</g>
<defs>
<linearGradient id="paint0_linear_3_2" x1="570.259" y1="379.06" x2="613.013" y2="379.06" gradientUnits="userSpaceOnUse">
<stop stop-color="white"/>
<stop offset="0.08" stop-color="white" stop-opacity="0.8"/>
<stop offset="0.17" stop-color="white" stop-opacity="0.62"/>
<stop offset="0.26" stop-color="white" stop-opacity="0.45"/>
<stop offset="0.36" stop-color="white" stop-opacity="0.31"/>
<stop offset="0.46" stop-color="white" stop-opacity="0.2"/>
<stop offset="0.57" stop-color="white" stop-opacity="0.11"/>
<stop offset="0.68" stop-color="white" stop-opacity="0.05"/>
<stop offset="0.82" stop-color="white" stop-opacity="0.01"/>
<stop offset="1" stop-color="white" stop-opacity="0"/>
</linearGradient>
<linearGradient id="paint1_linear_3_2" x1="30.0004" y1="375.316" x2="597.252" y2="375.316" gradientUnits="userSpaceOnUse">
<stop stop-color="white"/>
<stop offset="0.08" stop-color="white" stop-opacity="0.8"/>
<stop offset="0.17" stop-color="white" stop-opacity="0.62"/>
<stop offset="0.26" stop-color="white" stop-opacity="0.45"/>
<stop offset="0.36" stop-color="white" stop-opacity="0.31"/>
<stop offset="0.46" stop-color="white" stop-opacity="0.2"/>
<stop offset="0.57" stop-color="white" stop-opacity="0.11"/>
<stop offset="0.68" stop-color="white" stop-opacity="0.05"/>
<stop offset="0.82" stop-color="white" stop-opacity="0.01"/>
<stop offset="1" stop-color="white" stop-opacity="0"/>
</linearGradient>
<linearGradient id="paint2_linear_3_2" x1="30.0004" y1="382.79" x2="597.252" y2="382.79" gradientUnits="userSpaceOnUse">
<stop stop-color="white"/>
<stop offset="0.08" stop-color="white" stop-opacity="0.8"/>
<stop offset="0.17" stop-color="white" stop-opacity="0.62"/>
<stop offset="0.26" stop-color="white" stop-opacity="0.45"/>
<stop offset="0.36" stop-color="white" stop-opacity="0.31"/>
<stop offset="0.46" stop-color="white" stop-opacity="0.2"/>
<stop offset="0.57" stop-color="white" stop-opacity="0.11"/>
<stop offset="0.68" stop-color="white" stop-opacity="0.05"/>
<stop offset="0.82" stop-color="white" stop-opacity="0.01"/>
<stop offset="1" stop-color="white" stop-opacity="0"/>
</linearGradient>
<linearGradient id="paint3_linear_3_2" x1="587.801" y1="174.899" x2="630.569" y2="174.899" gradientUnits="userSpaceOnUse">
<stop stop-color="white"/>
<stop offset="0.08" stop-color="white" stop-opacity="0.8"/>
<stop offset="0.17" stop-color="white" stop-opacity="0.62"/>
<stop offset="0.26" stop-color="white" stop-opacity="0.45"/>
<stop offset="0.36" stop-color="white" stop-opacity="0.31"/>
<stop offset="0.46" stop-color="white" stop-opacity="0.2"/>
<stop offset="0.57" stop-color="white" stop-opacity="0.11"/>
<stop offset="0.68" stop-color="white" stop-opacity="0.05"/>
<stop offset="0.82" stop-color="white" stop-opacity="0.01"/>
<stop offset="1" stop-color="white" stop-opacity="0"/>
</linearGradient>
<linearGradient id="paint4_linear_3_2" x1="587.801" y1="171.168" x2="614.808" y2="171.168" gradientUnits="userSpaceOnUse">
<stop stop-color="white"/>
<stop offset="0.08" stop-color="white" stop-opacity="0.8"/>
<stop offset="0.17" stop-color="white" stop-opacity="0.62"/>
<stop offset="0.26" stop-color="white" stop-opacity="0.45"/>
<stop offset="0.36" stop-color="white" stop-opacity="0.31"/>
<stop offset="0.46" stop-color="white" stop-opacity="0.2"/>
<stop offset="0.57" stop-color="white" stop-opacity="0.11"/>
<stop offset="0.68" stop-color="white" stop-opacity="0.05"/>
<stop offset="0.82" stop-color="white" stop-opacity="0.01"/>
<stop offset="1" stop-color="white" stop-opacity="0"/>
</linearGradient>
<linearGradient id="paint5_linear_3_2" x1="587.801" y1="178.642" x2="614.808" y2="178.642" gradientUnits="userSpaceOnUse">
<stop stop-color="white"/>
<stop offset="0.08" stop-color="white" stop-opacity="0.8"/>
<stop offset="0.17" stop-color="white" stop-opacity="0.62"/>
<stop offset="0.26" stop-color="white" stop-opacity="0.45"/>
<stop offset="0.36" stop-color="white" stop-opacity="0.31"/>
<stop offset="0.46" stop-color="white" stop-opacity="0.2"/>
<stop offset="0.57" stop-color="white" stop-opacity="0.11"/>
<stop offset="0.68" stop-color="white" stop-opacity="0.05"/>
<stop offset="0.82" stop-color="white" stop-opacity="0.01"/>
<stop offset="1" stop-color="white" stop-opacity="0"/>
</linearGradient>
<clipPath id="clip0_3_2">
<rect width="609" height="489.11" fill="white" transform="translate(30 8)"/>
</clipPath>
</defs>
</svg>
