<svg xmlns="http://www.w3.org/2000/svg" xmlns:xlink="http://www.w3.org/1999/xlink" width="410" zoomAndPan="magnify" viewBox="0 0 307.5 299.999988" height="400" preserveAspectRatio="xMidYMid meet" version="1.0"><defs><clipPath id="903e00d9b6"><path d="M 0 0.242188 L 307 0.242188 L 307 299.753906 L 0 299.753906 Z M 0 0.242188 " clip-rule="nonzero"/></clipPath><clipPath id="131dccfa5e"><path d="M 118 56 L 275.59375 56 L 275.59375 188 L 118 188 Z M 118 56 " clip-rule="nonzero"/></clipPath></defs><g clip-path="url(#903e00d9b6)"><path fill="#ffffff" d="M 0 0.242188 L 307 0.242188 L 307 299.757812 L 0 299.757812 Z M 0 0.242188 " fill-opacity="1" fill-rule="nonzero"/><path fill="#ffffff" d="M 0 0.242188 L 307 0.242188 L 307 299.757812 L 0 299.757812 Z M 0 0.242188 " fill-opacity="1" fill-rule="nonzero"/></g><path fill="#caddff" d="M 43.789062 95.03125 C 38.5625 106.527344 31.496094 130.667969 34.605469 158.03125 C 38.597656 193.144531 57.675781 218.6875 76.886719 234.242188 C 140.632812 285.855469 257.328125 252.511719 272.785156 203.890625 C 275.585938 195.070312 274.796875 186.5625 273.828125 176.09375 C 270.746094 142.796875 257.636719 130.453125 246.710938 95.101562 C 236.761719 62.929688 245.535156 60.992188 236.234375 46.691406 C 216.058594 15.664062 157.792969 14.050781 117.726562 28.925781 C 102.335938 34.640625 62.914062 52.976562 43.789062 95.03125 " fill-opacity="1" fill-rule="nonzero"/><path fill="#caddff" d="M 143.488281 67.207031 C 143.488281 59.039062 140.140625 46.882812 124.027344 47.621094 C 124.933594 37.28125 116.113281 23.070312 96.898438 24.371094 C 87.625 24.996094 85.722656 32.269531 84.714844 31.90625 C 71.78125 27.230469 56 38.226562 59.515625 54.851562 C 52.328125 55.644531 46.371094 61.605469 46.539062 69.660156 C 46.644531 74.894531 49.621094 78.917969 54.445312 78.917969 L 132.640625 78.917969 C 138.472656 78.917969 143.335938 73.921875 143.484375 67.597656 C 143.488281 67.46875 143.488281 67.335938 143.488281 67.207031 " fill-opacity="1" fill-rule="nonzero"/><path fill="#ffffff" d="M 145.757812 68.628906 C 145.757812 60.671875 141.039062 45.0625 125.257812 45.785156 C 121.832031 30.097656 114.589844 25.511719 101.699219 25.394531 C 89.113281 25.28125 86.796875 34.496094 85.824219 34.097656 C 72.285156 28.527344 59.722656 41.125 62.476562 55.746094 C 55.4375 56.519531 49.945312 62.933594 49.945312 70.734375 C 49.945312 70.769531 49.945312 70.804688 49.945312 70.839844 C 49.980469 75.9375 53.851562 80.035156 58.574219 80.035156 L 135.136719 80.035156 C 140.847656 80.035156 145.605469 75.167969 145.753906 69.007812 C 145.757812 68.882812 145.757812 68.753906 145.757812 68.628906 " fill-opacity="1" fill-rule="nonzero"/><path fill="#5479f7" d="M 51.828125 63.609375 C 51.757812 63.609375 51.6875 63.589844 51.621094 63.554688 C 51.410156 63.441406 51.332031 63.175781 51.445312 62.964844 C 53.679688 58.820312 57.585938 56.011719 61.964844 55.371094 C 60.71875 47.914062 63.316406 40.558594 68.808594 36.09375 C 73.683594 32.128906 79.890625 31.234375 85.859375 33.636719 C 86.007812 33.488281 86.273438 33.101562 86.507812 32.753906 C 88.117188 30.394531 91.875 24.875 101.703125 24.957031 C 108.675781 25.019531 113.632812 26.4375 117.304688 29.410156 C 121.242188 32.605469 123.886719 37.671875 125.605469 45.335938 C 131.125 45.167969 135.742188 46.949219 139.332031 50.632812 C 139.5 50.804688 139.496094 51.082031 139.324219 51.25 C 139.152344 51.417969 138.875 51.414062 138.707031 51.238281 C 135.21875 47.660156 130.695312 45.976562 125.277344 46.21875 C 125.066406 46.230469 124.878906 46.082031 124.832031 45.878906 C 121.667969 31.386719 115.398438 25.953125 101.695312 25.832031 C 101.621094 25.828125 101.542969 25.828125 101.464844 25.828125 C 92.285156 25.828125 88.875 30.832031 87.230469 33.246094 C 86.601562 34.167969 86.21875 34.726562 85.660156 34.5 C 79.957031 32.15625 74.015625 32.980469 69.359375 36.769531 C 64.003906 41.125 61.53125 48.367188 62.902344 55.667969 C 62.925781 55.785156 62.898438 55.910156 62.824219 56.007812 C 62.753906 56.105469 62.644531 56.167969 62.523438 56.183594 C 58.242188 56.652344 54.390625 59.339844 52.214844 63.378906 C 52.136719 63.523438 51.984375 63.609375 51.828125 63.609375 " fill-opacity="1" fill-rule="nonzero"/><path fill="#5479f7" d="M 113.164062 80.472656 L 78.25 80.472656 C 78.007812 80.472656 77.8125 80.277344 77.8125 80.035156 C 77.8125 79.796875 78.007812 79.601562 78.25 79.601562 L 113.164062 79.601562 C 113.402344 79.601562 113.597656 79.796875 113.597656 80.035156 C 113.597656 80.277344 113.402344 80.472656 113.164062 80.472656 " fill-opacity="1" fill-rule="nonzero"/><path fill="#99b9ff" d="M 215.085938 70.566406 C 210.492188 70.753906 206.613281 67.1875 206.421875 62.59375 C 206.234375 58.003906 209.800781 54.125 214.398438 53.9375 C 218.992188 53.746094 222.871094 57.316406 223.0625 61.90625 C 223.253906 66.5 219.679688 70.375 215.085938 70.566406 Z M 231.527344 63.171875 L 231.394531 59.945312 L 227.921875 59.308594 C 227.753906 58.566406 227.53125 57.847656 227.25 57.160156 L 229.742188 54.664062 L 228.007812 51.933594 L 224.683594 53.121094 C 224.171875 52.566406 223.617188 52.058594 223.027344 51.597656 L 223.9375 48.183594 L 221.070312 46.6875 L 218.785156 49.371094 C 218.074219 49.152344 217.339844 48.988281 216.585938 48.886719 L 215.664062 45.476562 L 212.433594 45.609375 L 211.800781 49.082031 C 211.058594 49.246094 210.335938 49.472656 209.648438 49.75 L 207.148438 47.261719 L 204.417969 48.992188 L 205.605469 52.316406 C 205.054688 52.828125 204.542969 53.378906 204.082031 53.972656 L 200.667969 53.0625 L 199.167969 55.925781 L 201.855469 58.210938 C 201.632812 58.917969 201.46875 59.65625 201.367188 60.410156 L 197.957031 61.328125 L 198.089844 64.558594 L 201.566406 65.191406 C 201.730469 65.933594 201.953125 66.652344 202.234375 67.339844 L 199.742188 69.839844 L 201.472656 72.570312 L 204.804688 71.382812 C 205.3125 71.933594 205.867188 72.445312 206.457031 72.902344 L 205.550781 76.316406 L 208.414062 77.816406 L 210.699219 75.128906 C 211.410156 75.351562 212.144531 75.515625 212.898438 75.617188 L 213.816406 79.027344 L 217.050781 78.890625 L 217.683594 75.417969 C 218.425781 75.253906 219.148438 75.03125 219.835938 74.75 L 222.335938 77.242188 L 225.066406 75.507812 L 223.878906 72.183594 C 224.429688 71.675781 224.941406 71.121094 225.402344 70.53125 L 228.820312 71.4375 L 230.316406 68.574219 L 227.628906 66.292969 C 227.851562 65.582031 228.011719 64.847656 228.117188 64.09375 L 231.527344 63.171875 " fill-opacity="1" fill-rule="nonzero"/><path fill="#5479f7" d="M 213.875 53.492188 C 213.765625 53.492188 213.65625 53.492188 213.542969 53.5 C 211.4375 53.585938 209.492188 54.488281 208.066406 56.039062 C 206.636719 57.585938 205.898438 59.597656 205.984375 61.703125 C 206.074219 63.808594 206.972656 65.753906 208.523438 67.179688 C 210.078125 68.605469 212.089844 69.34375 214.195312 69.253906 C 216.300781 69.167969 218.25 68.265625 219.675781 66.71875 C 221.101562 65.167969 221.839844 63.15625 221.753906 61.050781 C 221.667969 58.945312 220.765625 57 219.214844 55.574219 C 217.746094 54.222656 215.863281 53.492188 213.875 53.492188 Z M 213.859375 70.132812 C 211.65625 70.132812 209.566406 69.320312 207.933594 67.820312 C 206.210938 66.238281 205.210938 64.074219 205.113281 61.738281 C 205.015625 59.402344 205.835938 57.167969 207.421875 55.445312 C 209.007812 53.722656 211.167969 52.722656 213.507812 52.625 C 215.847656 52.53125 218.082031 53.347656 219.804688 54.933594 C 221.527344 56.515625 222.527344 58.675781 222.625 61.015625 C 222.722656 63.351562 221.902344 65.585938 220.316406 67.308594 C 218.730469 69.03125 216.570312 70.03125 214.234375 70.128906 C 214.109375 70.132812 213.984375 70.132812 213.859375 70.132812 Z M 209.824219 73.820312 C 209.871094 73.820312 209.914062 73.824219 209.957031 73.839844 C 210.636719 74.054688 211.355469 74.210938 212.085938 74.3125 C 212.257812 74.335938 212.402344 74.460938 212.445312 74.628906 L 213.277344 77.703125 L 215.808594 77.597656 L 216.382812 74.46875 C 216.414062 74.292969 216.546875 74.160156 216.714844 74.121094 C 217.4375 73.960938 218.136719 73.742188 218.800781 73.472656 C 218.960938 73.40625 219.148438 73.445312 219.269531 73.566406 L 221.523438 75.8125 L 223.667969 74.453125 L 222.59375 71.457031 C 222.535156 71.292969 222.582031 71.109375 222.710938 70.988281 C 223.242188 70.5 223.738281 69.960938 224.183594 69.386719 C 224.292969 69.25 224.472656 69.1875 224.644531 69.234375 L 227.71875 70.050781 L 228.894531 67.808594 L 226.472656 65.75 C 226.339844 65.636719 226.285156 65.453125 226.339844 65.289062 C 226.550781 64.605469 226.714844 63.890625 226.8125 63.160156 C 226.835938 62.984375 226.960938 62.84375 227.132812 62.796875 L 230.207031 61.96875 L 230.101562 59.4375 L 226.96875 58.867188 C 226.796875 58.832031 226.660156 58.703125 226.621094 58.53125 C 226.460938 57.8125 226.242188 57.113281 225.972656 56.449219 C 225.90625 56.289062 225.945312 56.101562 226.070312 55.976562 L 228.3125 53.726562 L 226.953125 51.585938 L 223.953125 52.65625 C 223.792969 52.714844 223.605469 52.671875 223.488281 52.542969 C 222.996094 52.007812 222.457031 51.511719 221.886719 51.066406 C 221.746094 50.960938 221.6875 50.78125 221.730469 50.609375 L 222.550781 47.535156 L 220.300781 46.359375 L 218.246094 48.78125 C 218.132812 48.914062 217.949219 48.96875 217.78125 48.914062 C 217.097656 48.703125 216.382812 48.542969 215.652344 48.441406 C 215.480469 48.417969 215.335938 48.292969 215.292969 48.125 L 214.464844 45.050781 L 211.929688 45.15625 L 211.355469 48.285156 C 211.324219 48.460938 211.191406 48.597656 211.019531 48.632812 C 210.304688 48.792969 209.601562 49.011719 208.941406 49.28125 C 208.777344 49.347656 208.589844 49.308594 208.464844 49.1875 L 206.214844 46.941406 L 204.074219 48.300781 L 205.144531 51.296875 C 205.203125 51.460938 205.15625 51.648438 205.027344 51.765625 C 204.496094 52.257812 203.996094 52.796875 203.550781 53.367188 C 203.445312 53.503906 203.265625 53.5625 203.097656 53.519531 L 200.019531 52.703125 L 198.84375 54.949219 L 201.265625 57.003906 C 201.398438 57.117188 201.453125 57.300781 201.398438 57.46875 C 201.1875 58.148438 201.027344 58.863281 200.925781 59.59375 C 200.902344 59.769531 200.777344 59.910156 200.609375 59.957031 L 197.535156 60.785156 L 197.640625 63.316406 L 200.773438 63.886719 C 200.941406 63.921875 201.082031 64.050781 201.117188 64.222656 C 201.277344 64.941406 201.496094 65.644531 201.765625 66.304688 C 201.832031 66.464844 201.796875 66.652344 201.671875 66.777344 L 199.425781 69.027344 L 200.785156 71.167969 L 203.78125 70.097656 C 203.949219 70.039062 204.132812 70.082031 204.25 70.210938 C 204.742188 70.746094 205.28125 71.242188 205.855469 71.6875 C 205.992188 71.792969 206.054688 71.972656 206.007812 72.144531 L 205.1875 75.21875 L 207.433594 76.394531 L 209.492188 73.972656 C 209.578125 73.875 209.699219 73.820312 209.824219 73.820312 Z M 212.945312 78.589844 C 212.75 78.589844 212.578125 78.457031 212.527344 78.265625 L 211.679688 75.132812 C 211.097656 75.042969 210.527344 74.914062 209.972656 74.753906 L 207.875 77.226562 C 207.742188 77.378906 207.523438 77.425781 207.339844 77.328125 L 204.472656 75.828125 C 204.292969 75.734375 204.203125 75.527344 204.253906 75.332031 L 205.089844 72.195312 C 204.640625 71.828125 204.210938 71.433594 203.808594 71.015625 L 200.75 72.105469 C 200.558594 72.171875 200.339844 72.101562 200.234375 71.929688 L 198.5 69.199219 C 198.390625 69.027344 198.417969 68.800781 198.558594 68.65625 L 200.851562 66.363281 C 200.644531 65.824219 200.472656 65.265625 200.332031 64.695312 L 197.140625 64.113281 C 196.9375 64.074219 196.789062 63.90625 196.78125 63.703125 L 196.648438 60.472656 C 196.636719 60.269531 196.773438 60.085938 196.96875 60.03125 L 200.105469 59.1875 C 200.195312 58.609375 200.320312 58.035156 200.480469 57.484375 L 198.011719 55.386719 C 197.855469 55.253906 197.8125 55.03125 197.90625 54.851562 L 199.40625 51.988281 C 199.5 51.808594 199.710938 51.714844 199.90625 51.769531 L 203.042969 52.605469 C 203.410156 52.152344 203.808594 51.722656 204.226562 51.320312 L 203.132812 48.265625 C 203.066406 48.074219 203.136719 47.859375 203.3125 47.75 L 206.042969 46.019531 C 206.214844 45.910156 206.441406 45.933594 206.585938 46.078125 L 208.882812 48.367188 C 209.417969 48.160156 209.976562 47.988281 210.546875 47.847656 L 211.132812 44.65625 C 211.167969 44.457031 211.339844 44.308594 211.542969 44.300781 L 214.777344 44.164062 C 214.980469 44.15625 215.160156 44.292969 215.214844 44.488281 L 216.058594 47.621094 C 216.640625 47.710938 217.210938 47.839844 217.765625 48 L 219.863281 45.527344 C 219.996094 45.375 220.21875 45.332031 220.398438 45.425781 L 223.265625 46.925781 C 223.445312 47.019531 223.535156 47.226562 223.484375 47.421875 L 222.648438 50.558594 C 223.097656 50.925781 223.527344 51.320312 223.933594 51.738281 L 226.988281 50.648438 C 227.183594 50.578125 227.398438 50.652344 227.503906 50.824219 L 229.238281 53.554688 C 229.347656 53.726562 229.320312 53.953125 229.179688 54.097656 L 226.886719 56.390625 C 227.09375 56.929688 227.265625 57.488281 227.40625 58.058594 L 230.601562 58.640625 C 230.800781 58.679688 230.949219 58.847656 230.957031 59.054688 L 231.089844 62.28125 C 231.101562 62.488281 230.964844 62.667969 230.769531 62.722656 L 227.636719 63.566406 C 227.542969 64.144531 227.417969 64.71875 227.257812 65.269531 L 229.726562 67.367188 C 229.882812 67.5 229.925781 67.722656 229.832031 67.902344 L 228.332031 70.765625 C 228.238281 70.949219 228.03125 71.039062 227.832031 70.984375 L 224.695312 70.152344 C 224.328125 70.601562 223.933594 71.03125 223.511719 71.433594 L 224.605469 74.488281 C 224.675781 74.679688 224.601562 74.894531 224.429688 75.003906 L 221.695312 76.734375 C 221.523438 76.84375 221.300781 76.820312 221.15625 76.675781 L 218.859375 74.386719 C 218.320312 74.59375 217.761719 74.765625 217.1875 74.90625 L 216.605469 78.097656 C 216.570312 78.296875 216.398438 78.445312 216.195312 78.453125 L 212.964844 78.589844 C 212.957031 78.589844 212.949219 78.589844 212.945312 78.589844 " fill-opacity="1" fill-rule="nonzero"/><path fill="#99b9ff" d="M 176.148438 58.765625 C 169.664062 59.773438 163.597656 55.335938 162.59375 48.855469 C 161.585938 42.378906 166.027344 36.3125 172.507812 35.308594 C 178.992188 34.304688 185.0625 38.742188 186.066406 45.21875 C 187.070312 51.699219 182.628906 57.765625 176.148438 58.765625 Z M 198.269531 45.664062 L 197.558594 41.105469 L 192.535156 40.761719 C 192.179688 39.738281 191.746094 38.753906 191.242188 37.824219 L 194.371094 33.882812 L 191.480469 30.292969 L 186.957031 32.507812 C 186.144531 31.808594 185.277344 31.171875 184.363281 30.613281 L 185.105469 25.632812 L 180.804688 23.964844 L 177.996094 28.140625 C 176.953125 27.9375 175.886719 27.824219 174.800781 27.800781 L 172.953125 23.113281 L 168.394531 23.820312 L 168.050781 28.847656 C 167.023438 29.199219 166.039062 29.628906 165.109375 30.136719 L 161.167969 27.007812 L 157.570312 29.898438 L 159.789062 34.421875 C 159.085938 35.230469 158.453125 36.097656 157.894531 37.011719 L 152.910156 36.269531 L 151.242188 40.566406 L 155.417969 43.371094 C 155.214844 44.414062 155.101562 45.480469 155.078125 46.566406 L 150.390625 48.414062 L 151.097656 52.96875 L 156.125 53.3125 C 156.476562 54.339844 156.910156 55.324219 157.417969 56.253906 L 154.285156 60.191406 L 157.175781 63.785156 L 161.703125 61.570312 C 162.511719 62.269531 163.382812 62.902344 164.296875 63.460938 L 163.550781 68.445312 L 167.855469 70.109375 L 170.660156 65.9375 C 171.703125 66.140625 172.773438 66.25 173.859375 66.277344 L 175.707031 70.960938 L 180.265625 70.257812 L 180.609375 65.230469 C 181.632812 64.878906 182.617188 64.445312 183.550781 63.9375 L 187.488281 67.066406 L 191.085938 64.179688 L 188.871094 59.65625 C 189.570312 58.847656 190.203125 57.980469 190.761719 57.066406 L 195.746094 57.808594 L 197.417969 53.507812 L 193.238281 50.703125 C 193.441406 49.660156 193.554688 48.59375 193.582031 47.511719 L 198.269531 45.664062 " fill-opacity="1" fill-rule="nonzero"/><path fill="#5479f7" d="M 173.09375 35.894531 C 172.503906 35.894531 171.910156 35.941406 171.316406 36.03125 C 168.296875 36.5 165.640625 38.113281 163.835938 40.578125 C 162.03125 43.042969 161.292969 46.0625 161.765625 49.078125 C 162.230469 52.097656 163.847656 54.753906 166.316406 56.558594 C 168.78125 58.359375 171.800781 59.09375 174.820312 58.628906 C 181.054688 57.660156 185.339844 51.808594 184.375 45.578125 C 183.90625 42.558594 182.289062 39.90625 179.820312 38.101562 C 177.84375 36.652344 175.503906 35.894531 173.09375 35.894531 Z M 173.042969 59.636719 C 170.449219 59.636719 167.929688 58.820312 165.796875 57.257812 C 163.144531 55.320312 161.402344 52.460938 160.902344 49.214844 C 159.859375 42.511719 164.472656 36.207031 171.183594 35.167969 C 174.433594 34.664062 177.683594 35.457031 180.339844 37.398438 C 182.992188 39.335938 184.730469 42.195312 185.234375 45.445312 C 186.277344 52.148438 181.664062 58.449219 174.953125 59.488281 C 174.316406 59.589844 173.675781 59.636719 173.042969 59.636719 Z M 169.398438 65.792969 C 169.425781 65.792969 169.457031 65.792969 169.484375 65.800781 C 170.492188 65.996094 171.546875 66.105469 172.605469 66.132812 C 172.78125 66.136719 172.941406 66.246094 173.003906 66.40625 L 174.722656 70.765625 L 178.59375 70.167969 L 178.914062 65.492188 C 178.921875 65.316406 179.039062 65.167969 179.207031 65.109375 C 180.207031 64.765625 181.175781 64.339844 182.082031 63.847656 C 182.234375 63.765625 182.425781 63.78125 182.5625 63.886719 L 186.226562 66.800781 L 189.28125 64.347656 L 187.214844 60.136719 C 187.140625 59.980469 187.164062 59.792969 187.277344 59.660156 C 187.960938 58.871094 188.585938 58.019531 189.132812 57.128906 C 189.222656 56.980469 189.394531 56.898438 189.566406 56.925781 L 194.207031 57.617188 L 195.625 53.96875 L 191.734375 51.355469 C 191.589844 51.257812 191.515625 51.082031 191.546875 50.910156 C 191.746094 49.898438 191.859375 48.851562 191.882812 47.789062 C 191.886719 47.617188 191.996094 47.460938 192.160156 47.394531 L 196.523438 45.675781 L 195.921875 41.808594 L 191.242188 41.488281 C 191.070312 41.476562 190.917969 41.363281 190.859375 41.195312 C 190.515625 40.191406 190.089844 39.226562 189.597656 38.320312 C 189.511719 38.167969 189.53125 37.980469 189.640625 37.84375 L 192.550781 34.179688 L 190.097656 31.128906 L 185.886719 33.191406 C 185.726562 33.269531 185.539062 33.242188 185.40625 33.128906 C 184.617188 32.445312 183.765625 31.820312 182.875 31.277344 C 182.726562 31.183594 182.644531 31.015625 182.671875 30.839844 L 183.363281 26.203125 L 179.710938 24.789062 L 177.097656 28.675781 C 177 28.820312 176.824219 28.890625 176.652344 28.859375 C 175.644531 28.664062 174.589844 28.550781 173.53125 28.527344 C 173.355469 28.523438 173.199219 28.414062 173.132812 28.25 L 171.414062 23.890625 L 167.542969 24.492188 L 167.222656 29.164062 C 167.210938 29.339844 167.097656 29.492188 166.929688 29.546875 C 165.929688 29.890625 164.960938 30.316406 164.058594 30.8125 C 163.902344 30.894531 163.710938 30.878906 163.574219 30.769531 L 159.910156 27.855469 L 156.855469 30.308594 L 158.921875 34.519531 C 159 34.679688 158.972656 34.863281 158.859375 35 C 158.171875 35.789062 157.550781 36.640625 157.007812 37.527344 C 156.914062 37.679688 156.742188 37.761719 156.570312 37.734375 L 151.929688 37.042969 L 150.515625 40.691406 L 154.402344 43.300781 C 154.546875 43.398438 154.621094 43.574219 154.585938 43.746094 C 154.390625 44.757812 154.277344 45.808594 154.253906 46.867188 C 154.25 47.042969 154.140625 47.199219 153.976562 47.261719 L 149.617188 48.984375 L 150.214844 52.851562 L 154.894531 53.167969 C 155.070312 53.179688 155.21875 53.296875 155.277344 53.460938 C 155.621094 54.464844 156.046875 55.433594 156.539062 56.335938 C 156.625 56.488281 156.609375 56.679688 156.5 56.816406 L 153.585938 60.480469 L 156.039062 63.53125 L 160.25 61.46875 C 160.410156 61.390625 160.597656 61.414062 160.730469 61.53125 C 161.519531 62.214844 162.371094 62.835938 163.261719 63.382812 C 163.414062 63.472656 163.492188 63.644531 163.464844 63.816406 L 162.773438 68.453125 L 166.425781 69.867188 L 169.039062 65.984375 C 169.121094 65.863281 169.253906 65.792969 169.398438 65.792969 Z M 174.445312 71.6875 C 174.269531 71.6875 174.105469 71.582031 174.039062 71.414062 L 172.296875 66.996094 C 171.382812 66.960938 170.480469 66.863281 169.601562 66.707031 L 166.957031 70.644531 C 166.84375 70.8125 166.625 70.882812 166.4375 70.808594 L 162.132812 69.140625 C 161.945312 69.070312 161.828125 68.875 161.859375 68.671875 L 162.5625 63.972656 C 161.800781 63.492188 161.066406 62.957031 160.378906 62.375 L 156.109375 64.464844 C 155.925781 64.558594 155.703125 64.507812 155.578125 64.347656 L 152.683594 60.757812 C 152.558594 60.597656 152.558594 60.371094 152.683594 60.210938 L 155.636719 56.5 C 155.222656 55.710938 154.855469 54.878906 154.546875 54.019531 L 149.808594 53.695312 C 149.601562 53.683594 149.4375 53.53125 149.40625 53.328125 L 148.699219 48.773438 C 148.667969 48.570312 148.78125 48.375 148.96875 48.300781 L 153.390625 46.558594 C 153.425781 45.644531 153.519531 44.742188 153.675781 43.867188 L 149.738281 41.222656 C 149.566406 41.105469 149.5 40.890625 149.574219 40.703125 L 151.242188 36.402344 C 151.316406 36.210938 151.511719 36.09375 151.710938 36.128906 L 156.414062 36.828125 C 156.894531 36.066406 157.429688 35.335938 158.011719 34.648438 L 155.917969 30.378906 C 155.828125 30.195312 155.878906 29.976562 156.039062 29.847656 L 159.632812 26.957031 C 159.792969 26.832031 160.019531 26.832031 160.175781 26.957031 L 163.894531 29.90625 C 164.683594 29.496094 165.515625 29.128906 166.375 28.820312 L 166.695312 24.082031 C 166.710938 23.878906 166.863281 23.710938 167.066406 23.679688 L 171.625 22.972656 C 171.824219 22.945312 172.023438 23.054688 172.097656 23.246094 L 173.839844 27.664062 C 174.753906 27.699219 175.65625 27.792969 176.535156 27.949219 L 179.179688 24.011719 C 179.296875 23.84375 179.511719 23.777344 179.699219 23.851562 L 184.003906 25.515625 C 184.191406 25.589844 184.308594 25.785156 184.277344 25.988281 L 183.578125 30.683594 C 184.335938 31.167969 185.070312 31.703125 185.757812 32.28125 L 190.027344 30.191406 C 190.210938 30.101562 190.433594 30.148438 190.558594 30.308594 L 193.453125 33.902344 C 193.582031 34.058594 193.582031 34.285156 193.453125 34.445312 L 190.5 38.160156 C 190.914062 38.949219 191.28125 39.78125 191.589844 40.640625 L 196.328125 40.960938 C 196.535156 40.976562 196.699219 41.128906 196.730469 41.328125 L 197.4375 45.886719 C 197.46875 46.085938 197.355469 46.28125 197.167969 46.359375 L 192.746094 48.101562 C 192.710938 49.011719 192.617188 49.917969 192.460938 50.792969 L 196.398438 53.4375 C 196.570312 53.550781 196.636719 53.765625 196.5625 53.957031 L 194.894531 58.257812 C 194.820312 58.445312 194.625 58.5625 194.425781 58.53125 L 189.722656 57.832031 C 189.242188 58.589844 188.707031 59.324219 188.125 60.011719 L 190.21875 64.277344 C 190.308594 64.460938 190.257812 64.683594 190.097656 64.808594 L 186.503906 67.699219 C 186.347656 67.828125 186.117188 67.828125 185.960938 67.699219 L 182.242188 64.75 C 181.453125 65.164062 180.621094 65.53125 179.761719 65.839844 L 179.441406 70.574219 C 179.425781 70.777344 179.273438 70.945312 179.070312 70.976562 L 174.515625 71.683594 C 174.488281 71.6875 174.46875 71.6875 174.445312 71.6875 " fill-opacity="1" fill-rule="nonzero"/><path fill="#000000" d="M 90.859375 87.621094 C 90.617188 87.621094 90.421875 87.425781 90.421875 87.1875 L 90.421875 84.929688 C 90.421875 84.6875 90.617188 84.492188 90.859375 84.492188 C 91.101562 84.492188 91.296875 84.6875 91.296875 84.929688 L 91.296875 87.1875 C 91.296875 87.425781 91.101562 87.621094 90.859375 87.621094 " fill-opacity="1" fill-rule="nonzero"/><path fill="#000000" d="M 90.859375 92.875 C 90.617188 92.875 90.421875 92.679688 90.421875 92.4375 L 90.421875 90.183594 C 90.421875 89.945312 90.617188 89.746094 90.859375 89.746094 C 91.101562 89.746094 91.296875 89.945312 91.296875 90.183594 L 91.296875 92.4375 C 91.296875 92.679688 91.101562 92.875 90.859375 92.875 " fill-opacity="1" fill-rule="nonzero"/><path fill="#000000" d="M 89.359375 89.121094 L 87.105469 89.121094 C 86.863281 89.121094 86.667969 88.925781 86.667969 88.683594 C 86.667969 88.445312 86.863281 88.25 87.105469 88.25 L 89.359375 88.25 C 89.601562 88.25 89.796875 88.445312 89.796875 88.683594 C 89.796875 88.925781 89.601562 89.121094 89.359375 89.121094 " fill-opacity="1" fill-rule="nonzero"/><path fill="#000000" d="M 94.617188 89.121094 L 92.359375 89.121094 C 92.121094 89.121094 91.921875 88.925781 91.921875 88.683594 C 91.921875 88.445312 92.121094 88.25 92.359375 88.25 L 94.617188 88.25 C 94.859375 88.25 95.054688 88.445312 95.054688 88.683594 C 95.054688 88.925781 94.859375 89.121094 94.617188 89.121094 " fill-opacity="1" fill-rule="nonzero"/><path fill="#000000" d="M 210.925781 241.757812 C 210.710938 241.757812 210.523438 241.601562 210.496094 241.378906 L 210.203125 239.144531 C 210.167969 238.90625 210.339844 238.6875 210.578125 238.65625 C 210.816406 238.625 211.035156 238.792969 211.066406 239.03125 L 211.363281 241.265625 C 211.394531 241.503906 211.222656 241.722656 210.984375 241.757812 C 210.964844 241.757812 210.949219 241.757812 210.925781 241.757812 " fill-opacity="1" fill-rule="nonzero"/><path fill="#000000" d="M 211.613281 246.96875 C 211.398438 246.96875 211.210938 246.808594 211.179688 246.589844 L 210.886719 244.355469 C 210.855469 244.113281 211.023438 243.894531 211.261719 243.863281 C 211.5 243.832031 211.71875 244 211.753906 244.238281 L 212.046875 246.476562 C 212.078125 246.714844 211.910156 246.933594 211.671875 246.964844 C 211.652344 246.96875 211.632812 246.96875 211.613281 246.96875 " fill-opacity="1" fill-rule="nonzero"/><path fill="#000000" d="M 207.398438 243.734375 C 207.183594 243.734375 206.996094 243.574219 206.96875 243.355469 C 206.9375 243.117188 207.105469 242.898438 207.34375 242.867188 L 209.582031 242.574219 C 209.820312 242.542969 210.039062 242.710938 210.070312 242.949219 C 210.101562 243.1875 209.933594 243.40625 209.695312 243.4375 L 207.457031 243.730469 C 207.4375 243.734375 207.417969 243.734375 207.398438 243.734375 " fill-opacity="1" fill-rule="nonzero"/><path fill="#000000" d="M 212.609375 243.050781 C 212.394531 243.050781 212.207031 242.890625 212.175781 242.671875 C 212.148438 242.433594 212.3125 242.214844 212.554688 242.183594 L 214.792969 241.890625 C 215.03125 241.855469 215.25 242.027344 215.28125 242.265625 C 215.3125 242.503906 215.144531 242.722656 214.90625 242.753906 L 212.667969 243.046875 C 212.648438 243.050781 212.628906 243.050781 212.609375 243.050781 " fill-opacity="1" fill-rule="nonzero"/><path fill="#000000" d="M 138.359375 26.683594 C 137.652344 26.683594 136.960938 27.050781 136.582031 27.707031 C 136.015625 28.6875 136.355469 29.941406 137.332031 30.507812 C 138.3125 31.070312 139.566406 30.734375 140.132812 29.757812 C 140.40625 29.28125 140.476562 28.730469 140.335938 28.203125 C 140.195312 27.675781 139.855469 27.234375 139.382812 26.960938 C 139.058594 26.773438 138.707031 26.683594 138.359375 26.683594 Z M 138.351562 31.652344 C 137.855469 31.652344 137.355469 31.527344 136.894531 31.261719 C 135.5 30.453125 135.023438 28.664062 135.828125 27.273438 C 136.632812 25.878906 138.421875 25.398438 139.820312 26.203125 C 140.496094 26.59375 140.976562 27.222656 141.179688 27.976562 C 141.382812 28.730469 141.277344 29.519531 140.886719 30.195312 C 140.347656 31.128906 139.363281 31.652344 138.351562 31.652344 " fill-opacity="1" fill-rule="nonzero"/><path fill="#000000" d="M 201.132812 246.503906 C 200.867188 246.503906 200.601562 246.554688 200.347656 246.660156 C 199.84375 246.867188 199.449219 247.261719 199.238281 247.765625 C 198.804688 248.808594 199.304688 250.011719 200.347656 250.441406 C 200.851562 250.652344 201.410156 250.652344 201.914062 250.441406 C 202.421875 250.234375 202.816406 249.839844 203.023438 249.335938 C 203.234375 248.832031 203.234375 248.273438 203.027344 247.769531 C 202.816406 247.265625 202.421875 246.871094 201.917969 246.660156 C 201.664062 246.554688 201.398438 246.503906 201.132812 246.503906 Z M 201.132812 251.472656 C 200.753906 251.472656 200.375 251.398438 200.011719 251.25 C 198.523438 250.632812 197.816406 248.917969 198.433594 247.433594 C 198.730469 246.710938 199.292969 246.152344 200.015625 245.855469 C 200.738281 245.554688 201.53125 245.554688 202.25 245.855469 C 202.972656 246.152344 203.535156 246.714844 203.832031 247.433594 C 204.128906 248.15625 204.128906 248.949219 203.832031 249.671875 C 203.53125 250.390625 202.972656 250.953125 202.25 251.25 C 201.890625 251.398438 201.511719 251.472656 201.132812 251.472656 " fill-opacity="1" fill-rule="nonzero"/><path fill="#000000" d="M 42.132812 143.859375 C 41.898438 143.859375 41.703125 143.671875 41.695312 143.4375 C 41.234375 129.285156 43.789062 115.523438 49.085938 103.636719 C 49.183594 103.417969 49.441406 103.316406 49.660156 103.417969 C 49.882812 103.511719 49.980469 103.773438 49.882812 103.992188 C 44.640625 115.757812 42.113281 129.386719 42.570312 143.40625 C 42.578125 143.648438 42.386719 143.851562 42.148438 143.859375 C 42.144531 143.859375 42.136719 143.859375 42.132812 143.859375 " fill-opacity="1" fill-rule="nonzero"/><path fill="#000000" d="M 37.914062 137.183594 C 37.675781 137.183594 37.480469 136.992188 37.476562 136.753906 C 37.34375 123.652344 39.679688 111.371094 44.425781 100.261719 C 45 98.917969 45.613281 97.585938 46.253906 96.292969 C 46.359375 96.078125 46.621094 95.988281 46.835938 96.097656 C 47.054688 96.203125 47.140625 96.464844 47.035156 96.679688 C 46.402344 97.957031 45.796875 99.277344 45.230469 100.605469 C 40.53125 111.601562 38.21875 123.761719 38.351562 136.742188 C 38.351562 136.984375 38.160156 137.179688 37.917969 137.183594 C 37.917969 137.183594 37.914062 137.183594 37.914062 137.183594 " fill-opacity="1" fill-rule="nonzero"/><path fill="#000000" d="M 241.804688 47.691406 C 241.640625 47.691406 241.484375 47.597656 241.410156 47.4375 C 236.117188 35.972656 224.917969 28.433594 216.941406 25.464844 C 216.710938 25.378906 216.597656 25.128906 216.683594 24.902344 C 216.769531 24.675781 217.019531 24.5625 217.246094 24.644531 C 225.378906 27.675781 236.796875 35.367188 242.203125 47.070312 C 242.304688 47.289062 242.207031 47.550781 241.988281 47.648438 C 241.929688 47.679688 241.867188 47.691406 241.804688 47.691406 " fill-opacity="1" fill-rule="nonzero"/><path fill="#000000" d="M 245.539062 46.019531 C 245.347656 46.019531 245.171875 45.894531 245.117188 45.703125 C 242.746094 37.269531 234.511719 29.105469 223.621094 24.390625 C 223.402344 24.292969 223.300781 24.035156 223.394531 23.816406 C 223.492188 23.59375 223.75 23.492188 223.96875 23.589844 C 235.09375 28.402344 243.519531 36.785156 245.957031 45.464844 C 246.023438 45.695312 245.886719 45.9375 245.65625 46.003906 C 245.617188 46.015625 245.578125 46.019531 245.539062 46.019531 " fill-opacity="1" fill-rule="nonzero"/><g clip-path="url(#131dccfa5e)"><path fill="#5479f7" d="M 125.097656 168.296875 C 121.558594 167.847656 118.910156 164.839844 118.910156 161.277344 L 118.445312 63.988281 L 120.183594 60.234375 C 120.183594 60.234375 123.332031 58.136719 124.988281 57.195312 C 125.980469 56.632812 127.164062 56.367188 128.398438 56.527344 L 268.851562 74.425781 C 272.386719 74.875 275.035156 77.882812 275.035156 81.445312 L 275.035156 177.890625 C 274.867188 183.808594 266.910156 187.375 266.910156 187.375 L 125.097656 168.296875 " fill-opacity="1" fill-rule="nonzero"/></g><path fill="#ffffff" d="M 263.804688 187.972656 L 122.507812 169.964844 C 118.949219 169.511719 116.28125 166.484375 116.28125 162.898438 L 116.28125 65.871094 C 116.28125 62.539062 119.210938 59.960938 122.519531 60.382812 L 263.820312 78.390625 C 267.375 78.84375 270.042969 81.871094 270.042969 85.453125 L 270.042969 182.480469 C 270.042969 185.816406 267.117188 188.394531 263.804688 187.972656 " fill-opacity="1" fill-rule="nonzero"/><path fill="#99b9ff" d="M 258.746094 183.402344 L 127.570312 166.683594 C 124.265625 166.265625 121.789062 163.453125 121.789062 160.125 L 121.789062 70.046875 C 121.789062 66.953125 124.507812 64.558594 127.582031 64.949219 L 258.757812 81.667969 C 262.0625 82.089844 264.539062 84.902344 264.539062 88.226562 L 264.539062 178.308594 C 264.539062 181.402344 261.820312 183.792969 258.746094 183.402344 " fill-opacity="1" fill-rule="nonzero"/><path fill="#caddff" d="M 177.152344 84.355469 C 177.101562 84.355469 177.050781 84.351562 177.003906 84.347656 L 130.097656 78.371094 C 129.460938 78.289062 129.007812 77.707031 129.089844 77.066406 C 129.171875 76.429688 129.753906 75.980469 130.390625 76.0625 L 177.296875 82.039062 C 177.933594 82.121094 178.386719 82.703125 178.304688 83.339844 C 178.230469 83.929688 177.730469 84.355469 177.152344 84.355469 " fill-opacity="1" fill-rule="nonzero"/><path fill="#caddff" d="M 177.148438 92.804688 C 177.101562 92.804688 177.050781 92.800781 177.003906 92.796875 L 157.496094 90.3125 C 156.859375 90.230469 156.410156 89.648438 156.488281 89.007812 C 156.570312 88.371094 157.152344 87.917969 157.789062 88.003906 L 177.296875 90.488281 C 177.933594 90.570312 178.386719 91.152344 178.304688 91.789062 C 178.230469 92.378906 177.726562 92.804688 177.148438 92.804688 " fill-opacity="1" fill-rule="nonzero"/><path fill="#caddff" d="M 177.152344 101.253906 C 177.101562 101.253906 177.050781 101.25 177.003906 101.242188 L 130.097656 95.265625 C 129.460938 95.1875 129.011719 94.601562 129.089844 93.964844 C 129.171875 93.328125 129.753906 92.875 130.394531 92.960938 L 177.296875 98.9375 C 177.933594 99.015625 178.382812 99.601562 178.304688 100.238281 C 178.226562 100.824219 177.726562 101.253906 177.152344 101.253906 " fill-opacity="1" fill-rule="nonzero"/><path fill="#caddff" d="M 177.152344 109.703125 C 177.101562 109.703125 177.050781 109.699219 177.003906 109.691406 L 140.828125 105.082031 C 140.191406 105 139.742188 104.417969 139.824219 103.78125 C 139.902344 103.144531 140.484375 102.691406 141.125 102.773438 L 177.296875 107.382812 C 177.933594 107.464844 178.386719 108.050781 178.304688 108.683594 C 178.226562 109.273438 177.726562 109.703125 177.152344 109.703125 " fill-opacity="1" fill-rule="nonzero"/><path fill="#caddff" d="M 177.152344 134.335938 C 177.105469 134.335938 177.054688 134.332031 177.003906 134.324219 L 130.101562 128.347656 C 129.464844 128.269531 129.011719 127.683594 129.09375 127.046875 C 129.175781 126.410156 129.757812 125.957031 130.394531 126.042969 L 177.300781 132.019531 C 177.9375 132.097656 178.386719 132.683594 178.304688 133.320312 C 178.230469 133.90625 177.730469 134.335938 177.152344 134.335938 " fill-opacity="1" fill-rule="nonzero"/><path fill="#caddff" d="M 163.746094 141.273438 C 163.699219 141.273438 163.648438 141.269531 163.597656 141.261719 L 130.101562 136.996094 C 129.460938 136.914062 129.011719 136.332031 129.09375 135.695312 C 129.175781 135.054688 129.757812 134.601562 130.394531 134.6875 L 163.894531 138.957031 C 164.53125 139.039062 164.984375 139.621094 164.902344 140.257812 C 164.828125 140.84375 164.324219 141.273438 163.746094 141.273438 " fill-opacity="1" fill-rule="nonzero"/><path fill="#caddff" d="M 177.152344 151.429688 C 177.105469 151.429688 177.054688 151.425781 177.003906 151.421875 L 130.101562 145.441406 C 129.460938 145.363281 129.011719 144.777344 129.09375 144.140625 C 129.175781 143.503906 129.757812 143.050781 130.394531 143.136719 L 177.300781 149.113281 C 177.9375 149.195312 178.386719 149.777344 178.304688 150.414062 C 178.230469 151 177.730469 151.429688 177.152344 151.429688 " fill-opacity="1" fill-rule="nonzero"/><path fill="#caddff" d="M 177.152344 159.878906 C 177.105469 159.878906 177.054688 159.875 177.003906 159.867188 L 130.101562 153.890625 C 129.464844 153.808594 129.011719 153.226562 129.09375 152.589844 C 129.175781 151.953125 129.757812 151.5 130.394531 151.585938 L 177.300781 157.5625 C 177.9375 157.640625 178.386719 158.226562 178.304688 158.863281 C 178.230469 159.449219 177.730469 159.878906 177.152344 159.878906 " fill-opacity="1" fill-rule="nonzero"/><path fill="#caddff" d="M 256.625 94.117188 C 256.582031 94.117188 256.542969 94.117188 256.5 94.113281 L 220.875 90.308594 C 220.238281 90.238281 219.773438 89.667969 219.84375 89.027344 C 219.910156 88.390625 220.484375 87.925781 221.125 87.996094 L 256.746094 91.800781 C 257.386719 91.867188 257.847656 92.441406 257.777344 93.082031 C 257.714844 93.675781 257.210938 94.117188 256.625 94.117188 " fill-opacity="1" fill-rule="nonzero"/><path fill="#caddff" d="M 248.265625 101.851562 C 248.222656 101.851562 248.183594 101.851562 248.140625 101.84375 L 219.351562 98.753906 C 218.710938 98.683594 218.25 98.109375 218.316406 97.472656 C 218.386719 96.832031 218.960938 96.371094 219.597656 96.441406 L 248.386719 99.53125 C 249.027344 99.601562 249.488281 100.175781 249.421875 100.8125 C 249.359375 101.410156 248.851562 101.851562 248.265625 101.851562 " fill-opacity="1" fill-rule="nonzero"/><path fill="#000000" d="M 264.507812 188.453125 C 264.257812 188.453125 264.003906 188.4375 263.75 188.402344 L 122.453125 170.394531 C 118.6875 169.914062 115.847656 166.695312 115.847656 162.898438 L 115.847656 156.480469 C 115.847656 156.242188 116.042969 156.046875 116.285156 156.046875 C 116.523438 156.046875 116.71875 156.242188 116.71875 156.480469 L 116.71875 162.898438 C 116.71875 166.253906 119.230469 169.105469 122.5625 169.53125 L 263.863281 187.539062 C 265.316406 187.726562 266.777344 187.277344 267.878906 186.308594 C 268.980469 185.339844 269.609375 183.945312 269.609375 182.480469 L 269.609375 85.453125 C 269.609375 82.097656 267.097656 79.246094 263.765625 78.820312 L 122.464844 60.816406 C 121.015625 60.628906 119.550781 61.078125 118.449219 62.046875 C 117.351562 63.011719 116.71875 64.40625 116.71875 65.871094 L 116.71875 125.367188 C 116.71875 125.609375 116.523438 125.804688 116.285156 125.804688 C 116.042969 125.804688 115.847656 125.609375 115.847656 125.367188 L 115.847656 65.871094 C 115.847656 64.15625 116.585938 62.523438 117.875 61.390625 C 119.160156 60.257812 120.875 59.730469 122.578125 59.949219 L 263.875 77.957031 C 267.640625 78.4375 270.480469 81.660156 270.480469 85.453125 L 270.480469 182.480469 C 270.480469 184.195312 269.742188 185.828125 268.457031 186.960938 C 267.359375 187.925781 265.953125 188.453125 264.507812 188.453125 " fill-opacity="1" fill-rule="nonzero"/><path fill="#5479f7" d="M 181.441406 242.539062 L 36.996094 223.921875 C 35.867188 223.777344 35.230469 222.832031 35.246094 221.886719 C 35.253906 221.234375 35.308594 216.640625 35.308594 216.640625 L 111.683594 173.003906 C 115.511719 170.820312 120.460938 169.976562 124.832031 170.535156 L 267.457031 188.921875 C 268.3125 189.03125 269.050781 189.589844 269.390625 190.386719 L 269.617188 190.921875 C 269.617188 190.921875 269.496094 194.753906 269.546875 195.648438 C 269.585938 196.347656 269.269531 197.070312 268.535156 197.488281 L 194.078125 240.035156 C 190.25 242.21875 185.816406 243.097656 181.441406 242.539062 " fill-opacity="1" fill-rule="nonzero"/><path fill="#ffffff" d="M 181.445312 237.425781 L 37.515625 218.84375 C 35.605469 218.601562 35.101562 216.066406 36.773438 215.113281 L 110.832031 172.84375 C 114.660156 170.660156 119.09375 169.777344 123.464844 170.339844 L 267.394531 188.917969 C 269.304688 189.164062 269.808594 191.695312 268.136719 192.652344 L 194.078125 234.921875 C 190.25 237.105469 185.816406 237.984375 181.445312 237.425781 " fill-opacity="1" fill-rule="nonzero"/><path fill="#caddff" d="M 209.621094 213.960938 L 84.816406 197.734375 C 83.09375 197.511719 82.636719 195.226562 84.148438 194.363281 L 113.496094 177.78125 C 116.949219 175.808594 120.957031 175.015625 124.902344 175.523438 L 249.710938 191.75 C 251.433594 191.972656 251.886719 194.257812 250.378906 195.121094 L 221.03125 211.703125 C 217.574219 213.671875 213.570312 214.46875 209.621094 213.960938 " fill-opacity="1" fill-rule="nonzero"/><path fill="#caddff" d="M 136.382812 223.488281 L 101.648438 219.003906 C 101.1875 218.945312 101.066406 218.332031 101.46875 218.101562 L 118.253906 208.929688 C 119.175781 208.402344 120.246094 208.191406 121.300781 208.324219 L 156.039062 212.808594 C 156.5 212.867188 156.621094 213.480469 156.21875 213.710938 L 139.433594 222.882812 C 138.507812 223.410156 137.4375 223.625 136.382812 223.488281 " fill-opacity="1" fill-rule="nonzero"/><path fill="#000000" d="M 183.988281 238.023438 C 183.121094 238.023438 182.25 237.96875 181.386719 237.859375 L 101.628906 227.5625 C 101.390625 227.53125 101.222656 227.3125 101.253906 227.074219 C 101.285156 226.835938 101.503906 226.664062 101.742188 226.699219 L 181.5 236.992188 C 185.75 237.539062 190.136719 236.667969 193.859375 234.542969 L 267.917969 192.273438 C 268.640625 191.859375 268.789062 191.140625 268.679688 190.605469 C 268.574219 190.070312 268.167969 189.457031 267.339844 189.351562 L 123.410156 170.773438 C 119.160156 170.226562 114.769531 171.097656 111.050781 173.222656 L 103.398438 177.589844 C 103.191406 177.707031 102.921875 177.632812 102.804688 177.425781 C 102.683594 177.214844 102.757812 176.949219 102.964844 176.828125 L 110.617188 172.464844 C 114.5 170.246094 119.082031 169.339844 123.519531 169.90625 L 267.449219 188.488281 C 268.511719 188.625 269.328125 189.386719 269.539062 190.433594 C 269.746094 191.480469 269.28125 192.5 268.351562 193.03125 L 194.292969 235.300781 C 191.164062 237.085938 187.582031 238.023438 183.988281 238.023438 " fill-opacity="1" fill-rule="nonzero"/><path fill="#000000" d="M 64.464844 222.757812 C 64.445312 222.757812 64.425781 222.757812 64.40625 222.757812 L 37.457031 219.277344 C 36.398438 219.144531 35.582031 218.378906 35.371094 217.332031 C 35.164062 216.28125 35.628906 215.261719 36.558594 214.734375 L 59.132812 201.847656 C 59.34375 201.730469 59.609375 201.800781 59.730469 202.011719 C 59.847656 202.21875 59.777344 202.488281 59.566406 202.605469 L 36.988281 215.492188 C 36.265625 215.90625 36.121094 216.625 36.226562 217.160156 C 36.335938 217.695312 36.742188 218.304688 37.570312 218.410156 L 64.519531 221.890625 C 64.757812 221.921875 64.925781 222.140625 64.894531 222.378906 C 64.867188 222.601562 64.679688 222.757812 64.464844 222.757812 " fill-opacity="1" fill-rule="nonzero"/><path fill="#000000" d="M 217.898438 193.023438 C 217.882812 193.023438 217.863281 193.023438 217.847656 193.019531 L 165.636719 186.675781 C 165.398438 186.648438 165.226562 186.433594 165.257812 186.191406 C 165.285156 185.953125 165.503906 185.785156 165.742188 185.8125 L 217.953125 192.15625 C 218.191406 192.183594 218.363281 192.402344 218.332031 192.640625 C 218.308594 192.863281 218.117188 193.023438 217.898438 193.023438 " fill-opacity="1" fill-rule="nonzero"/><path fill="#000000" d="M 195.074219 198.140625 C 195.054688 198.140625 195.039062 198.136719 195.019531 198.136719 L 179.863281 196.292969 C 179.625 196.265625 179.453125 196.050781 179.480469 195.808594 C 179.511719 195.570312 179.726562 195.402344 179.96875 195.429688 L 195.125 197.269531 C 195.363281 197.300781 195.535156 197.515625 195.507812 197.753906 C 195.480469 197.976562 195.292969 198.140625 195.074219 198.140625 " fill-opacity="1" fill-rule="nonzero"/><path fill="#99b9ff" d="M 141.019531 199.058594 C 141.003906 199.058594 140.984375 199.058594 140.96875 199.058594 L 125.8125 197.214844 C 125.570312 197.1875 125.402344 196.96875 125.429688 196.730469 C 125.457031 196.488281 125.675781 196.324219 125.917969 196.347656 L 141.074219 198.191406 C 141.3125 198.21875 141.480469 198.4375 141.453125 198.675781 C 141.425781 198.898438 141.238281 199.058594 141.019531 199.058594 " fill-opacity="1" fill-rule="nonzero"/><path fill="#5479f7" d="M 135.695312 108.070312 L 150.683594 100.570312 C 162.878906 94.46875 174.144531 86.800781 184.207031 77.753906 L 184.691406 73.113281 C 184.691406 73.113281 189.925781 73.167969 191.039062 73.105469 C 192.464844 73.023438 193.949219 73.519531 195.105469 74.582031 C 207.246094 85.722656 220.878906 95.125 235.5625 102.492188 L 245.953125 107.703125 C 248.367188 108.914062 249.355469 111.050781 248.828125 114.117188 L 238.867188 169.269531 C 234.03125 184.695312 212.128906 205.34375 199.75 216.089844 C 197.496094 218.046875 194.660156 219 191.78125 218.984375 C 190.503906 218.976562 185.226562 219.140625 185.226562 219.140625 C 185.226562 219.140625 183.980469 216.933594 182.414062 215.445312 C 170.039062 203.683594 148.210938 181.039062 143.011719 163.207031 L 133.234375 113.914062 C 132.546875 111.558594 133.566406 109.136719 135.695312 108.070312 " fill-opacity="1" fill-rule="nonzero"/><path fill="#ffffff" d="M 129.871094 108.367188 L 144.742188 100.925781 C 156.84375 94.871094 168.023438 87.265625 178.003906 78.289062 L 181.75 74.917969 C 183.699219 73.167969 186.769531 73.261719 188.816406 75.140625 C 200.863281 86.191406 214.390625 95.523438 228.960938 102.832031 L 239.269531 108.003906 C 241.664062 109.207031 242.886719 111.929688 242.121094 114.367188 L 232.234375 169.089844 C 227.4375 184.398438 205.472656 205.074219 193.1875 215.738281 C 188.433594 219.867188 181.058594 219.5 176.222656 214.90625 C 163.945312 203.234375 142.285156 180.769531 137.128906 163.078125 L 127.425781 114.167969 C 126.746094 111.828125 127.757812 109.425781 129.871094 108.367188 " fill-opacity="1" fill-rule="nonzero"/><path fill="#000000" d="M 137.554688 162.972656 C 142.679688 180.527344 164.167969 202.84375 176.523438 214.589844 C 181.160156 219 188.355469 219.359375 192.902344 215.410156 C 205.394531 204.566406 227.050781 184.121094 231.8125 168.984375 L 241.695312 114.292969 C 241.695312 114.273438 241.699219 114.253906 241.707031 114.238281 C 242.40625 112.007812 241.273438 109.496094 239.074219 108.394531 L 228.765625 103.222656 C 214.144531 95.886719 200.609375 86.546875 188.523438 75.460938 C 186.65625 73.75 183.808594 73.652344 182.042969 75.242188 L 178.296875 78.613281 C 168.292969 87.609375 157.066406 95.25 144.9375 101.316406 L 130.066406 108.757812 C 128.132812 109.722656 127.222656 111.898438 127.847656 114.042969 C 127.851562 114.054688 127.851562 114.070312 127.855469 114.082031 Z M 185.371094 219.019531 C 182.003906 219.019531 178.570312 217.738281 175.921875 215.222656 C 163.5 203.414062 141.886719 180.953125 136.710938 163.199219 C 136.707031 163.1875 136.703125 163.171875 136.699219 163.160156 L 127.003906 114.269531 C 126.269531 111.71875 127.367188 109.132812 129.675781 107.976562 L 144.546875 100.535156 C 156.605469 94.503906 167.765625 86.910156 177.710938 77.964844 L 181.457031 74.59375 C 183.589844 72.675781 186.882812 72.773438 189.109375 74.816406 C 201.140625 85.851562 214.613281 95.144531 229.15625 102.441406 L 239.464844 107.613281 C 242.035156 108.902344 243.355469 111.847656 242.546875 114.472656 L 232.667969 169.164062 C 232.664062 169.183594 232.660156 169.199219 232.652344 169.21875 C 227.84375 184.5625 206.042969 205.15625 193.476562 216.070312 C 191.199219 218.042969 188.308594 219.019531 185.371094 219.019531 " fill-opacity="1" fill-rule="nonzero"/><path fill="#caddff" d="M 139.65625 114.863281 L 151.964844 108.703125 C 161.984375 103.691406 171.242188 97.390625 179.503906 89.960938 L 182.609375 87.167969 C 184.21875 85.71875 186.765625 85.796875 188.457031 87.351562 C 198.433594 96.503906 209.632812 104.226562 221.699219 110.28125 L 230.230469 114.5625 C 232.214844 115.558594 233.226562 117.8125 232.59375 119.832031 L 224.410156 165.136719 C 220.4375 177.8125 202.246094 194.9375 192.078125 203.765625 C 188.140625 207.183594 182.035156 206.878906 178.03125 203.074219 C 167.867188 193.414062 149.933594 174.8125 145.664062 160.160156 L 137.628906 119.664062 C 137.066406 117.726562 137.90625 115.742188 139.65625 114.863281 " fill-opacity="1" fill-rule="nonzero"/><path fill="#ffffff" d="M 194.015625 129.609375 L 194.027344 115.058594 C 194 110.355469 190.324219 106.226562 185.613281 105.65625 C 180.417969 105.027344 176.03125 108.933594 176.0625 114.117188 L 176.085938 129.5625 C 176.085938 129.5625 170.46875 130.140625 170.472656 128.691406 L 170.617188 114.035156 C 170.566406 105.707031 177.371094 99.382812 185.992188 100.382812 L 185.992188 100.390625 C 193.113281 101.214844 199.53125 107.945312 199.578125 115.554688 L 199.515625 130.246094 L 194.015625 129.609375 " fill-opacity="1" fill-rule="nonzero"/><path fill="#000000" d="M 194.449219 129.222656 L 199.078125 129.757812 L 199.144531 115.554688 C 199.097656 108.394531 193.050781 101.648438 185.941406 100.824219 C 185.917969 100.820312 185.890625 100.816406 185.863281 100.808594 C 181.894531 100.367188 178.167969 101.503906 175.367188 104.015625 C 172.5625 106.53125 171.027344 110.085938 171.054688 114.035156 L 170.90625 128.695312 C 170.90625 128.707031 170.90625 128.734375 170.964844 128.785156 C 171.511719 129.28125 173.90625 129.308594 175.648438 129.164062 L 175.625 114.117188 C 175.609375 111.527344 176.683594 109.074219 178.574219 107.390625 C 180.472656 105.699219 183.058594 104.90625 185.664062 105.222656 C 190.570312 105.816406 194.4375 110.136719 194.464844 115.054688 Z M 199.515625 130.683594 C 199.496094 130.683594 199.480469 130.683594 199.464844 130.683594 L 193.964844 130.042969 C 193.742188 130.019531 193.578125 129.832031 193.578125 129.609375 L 193.59375 115.058594 C 193.566406 110.574219 190.039062 106.632812 185.558594 106.089844 C 183.167969 105.796875 180.890625 106.492188 179.152344 108.042969 C 177.425781 109.582031 176.484375 111.738281 176.5 114.113281 L 176.519531 129.5625 C 176.519531 129.78125 176.351562 129.972656 176.128906 129.992188 C 175.359375 130.074219 171.46875 130.417969 170.378906 129.433594 C 170.152344 129.230469 170.035156 128.972656 170.035156 128.6875 L 170.179688 114.03125 C 170.15625 109.839844 171.789062 106.050781 174.785156 103.363281 C 177.792969 100.667969 181.789062 99.457031 186.042969 99.949219 C 186.070312 99.953125 186.097656 99.957031 186.125 99.964844 C 193.613281 100.882812 199.96875 108 200.015625 115.554688 L 199.949219 130.25 C 199.949219 130.375 199.894531 130.492188 199.800781 130.574219 C 199.722656 130.644531 199.621094 130.683594 199.515625 130.683594 " fill-opacity="1" fill-rule="nonzero"/><path fill="#5479f7" d="M 190.632812 167.980469 L 184.46875 168.222656 C 175.898438 168.011719 167.738281 157.878906 167.855469 145.972656 L 168.042969 126.921875 L 204.40625 126.632812 C 207.632812 126.621094 210.503906 129.472656 210.46875 132.664062 L 210.285156 148.75 C 210.179688 159.574219 201.589844 167.980469 190.632812 167.980469 " fill-opacity="1" fill-rule="nonzero"/><path fill="#ffffff" d="M 184.660156 167.683594 C 172.609375 167.683594 162.484375 157.578125 162.601562 145.671875 L 162.785156 127.203125 L 201.25 127.203125 C 203.019531 127.203125 204.503906 128.6875 204.488281 130.433594 L 204.308594 148.453125 C 204.203125 159.277344 195.613281 167.683594 184.660156 167.683594 " fill-opacity="1" fill-rule="nonzero"/><path fill="#000000" d="M 184.660156 168.117188 C 179.511719 168.117188 174.4375 166.273438 170.375 162.917969 C 166.375 159.613281 163.613281 155.078125 162.601562 150.148438 C 162.550781 149.910156 162.703125 149.679688 162.941406 149.632812 C 163.175781 149.585938 163.40625 149.734375 163.457031 149.972656 C 165.480469 159.820312 174.59375 167.246094 184.660156 167.246094 C 195.328125 167.246094 203.769531 158.988281 203.871094 148.449219 L 204.050781 130.335938 C 204.058594 129.640625 203.78125 128.972656 203.269531 128.457031 C 202.753906 127.9375 202.054688 127.640625 201.34375 127.640625 L 165.796875 127.640625 C 164.351562 127.640625 163.207031 128.757812 163.191406 130.183594 L 163.167969 132.707031 C 163.164062 132.949219 162.972656 133.140625 162.730469 133.140625 C 162.730469 133.140625 162.726562 133.140625 162.726562 133.140625 C 162.488281 133.136719 162.292969 132.941406 162.296875 132.699219 L 162.320312 130.175781 C 162.339844 128.265625 163.867188 126.769531 165.796875 126.769531 L 201.34375 126.769531 C 202.285156 126.769531 203.210938 127.160156 203.890625 127.84375 C 204.566406 128.523438 204.933594 129.414062 204.925781 130.34375 L 204.746094 148.457031 C 204.636719 159.480469 195.8125 168.117188 184.660156 168.117188 " fill-opacity="1" fill-rule="nonzero"/><path fill="#000000" d="M 183.5 156 C 182.515625 156 181.691406 155.179688 181.695312 154.207031 L 181.78125 139.851562 C 181.789062 138.964844 182.492188 138.273438 183.386719 138.273438 C 184.371094 138.273438 185.195312 139.097656 185.191406 140.066406 L 185.101562 154.421875 C 185.097656 155.308594 184.394531 156 183.5 156 " fill-opacity="1" fill-rule="nonzero"/><path fill="#000000" d="M 189.488281 141.15625 C 189.691406 144.582031 187.046875 147.359375 183.589844 147.359375 C 180.132812 147.359375 177.167969 144.582031 176.96875 141.15625 C 176.765625 137.734375 179.410156 134.957031 182.867188 134.957031 C 186.324219 134.957031 189.289062 137.734375 189.488281 141.15625 " fill-opacity="1" fill-rule="nonzero"/><path fill="#ffffff" d="M 124.496094 155.039062 C 124.496094 154.664062 103.59375 151.367188 102.246094 147.546875 C 100.234375 141.851562 97.726562 135.003906 97.726562 135.003906 L 92.507812 138.296875 L 95.867188 154.6875 L 124.496094 155.039062 " fill-opacity="1" fill-rule="nonzero"/><path fill="#000000" d="M 96.222656 154.253906 L 120.558594 154.554688 C 111.3125 152.570312 102.777344 150.363281 101.835938 147.695312 C 100.160156 142.953125 98.117188 137.351562 97.5 135.660156 L 92.992188 138.503906 Z M 124.496094 155.476562 C 124.492188 155.476562 124.492188 155.476562 124.488281 155.476562 L 95.859375 155.121094 C 95.65625 155.121094 95.480469 154.976562 95.4375 154.773438 L 92.078125 138.386719 C 92.042969 138.207031 92.121094 138.027344 92.273438 137.929688 L 97.492188 134.636719 C 97.605469 134.5625 97.742188 134.546875 97.867188 134.589844 C 97.992188 134.632812 98.089844 134.730469 98.136719 134.855469 C 98.160156 134.921875 100.667969 141.769531 102.65625 147.402344 C 103.59375 150.050781 116.074219 152.707031 121.402344 153.84375 C 124.933594 154.59375 124.933594 154.59375 124.933594 155.039062 C 124.929688 155.15625 124.882812 155.269531 124.800781 155.351562 C 124.71875 155.429688 124.609375 155.476562 124.496094 155.476562 " fill-opacity="1" fill-rule="nonzero"/><path fill="#5479f7" d="M 64.878906 117.394531 C 69.863281 115.765625 77.457031 114.601562 86.535156 117.492188 C 89.847656 118.542969 92.21875 121.457031 92.628906 124.902344 L 100.023438 167.453125 C 100.390625 170.546875 96.253906 173.554688 93.339844 174.660156 C 90.292969 175.8125 85.691406 176.902344 79.175781 176.902344 C 72.1875 176.902344 67.109375 177.304688 64.277344 176.066406 C 61.925781 175.039062 58.382812 172.546875 58.265625 169.984375 L 58.777344 126.25 C 58.59375 122.261719 61.085938 118.632812 64.878906 117.394531 " fill-opacity="1" fill-rule="nonzero"/><path fill="#5479f7" d="M 99.796875 135.675781 C 99.796875 135.675781 93.894531 119.335938 87.277344 117.765625 L 90.640625 140.917969 L 99.796875 135.675781 " fill-opacity="1" fill-rule="nonzero"/><path fill="#5479f7" d="M 51.113281 143.714844 C 51.113281 143.714844 51.761719 132.78125 52.707031 128.558594 C 54.695312 119.671875 63.175781 118.328125 63.175781 118.328125 L 64.207031 142.195312 L 51.113281 143.714844 " fill-opacity="1" fill-rule="nonzero"/><path fill="#ffffff" d="M 52.765625 143.261719 C 52.765625 143.261719 52.128906 151.597656 55.433594 157.195312 C 59.382812 163.878906 79.292969 154.878906 79.292969 154.878906 L 81.609375 153.566406 C 83.175781 152.679688 85.042969 152.488281 86.757812 153.042969 L 90.5 154.25 C 90.5 154.25 87.410156 150.546875 84.78125 149.132812 C 83.550781 148.46875 81.953125 149.097656 80.605469 149.949219 C 78.28125 151.417969 75.554688 152.105469 72.808594 152.027344 L 64.886719 151.789062 C 63.554688 151.75 62.464844 150.722656 62.351562 149.398438 L 61.75 142.5 L 52.765625 143.261719 " fill-opacity="1" fill-rule="nonzero"/><path fill="#000000" d="M 53.183594 143.660156 C 53.109375 145.324219 53.003906 152.21875 55.8125 156.972656 C 56.792969 158.636719 58.878906 159.25 61.417969 159.25 C 68.328125 159.25 78.597656 154.710938 79.097656 154.488281 L 81.394531 153.1875 C 83.0625 152.242188 85.066406 152.039062 86.890625 152.625 L 89.097656 153.339844 C 87.984375 152.148438 86.175781 150.375 84.574219 149.515625 C 83.472656 148.921875 81.933594 149.625 80.835938 150.316406 C 78.484375 151.808594 75.703125 152.546875 72.792969 152.460938 L 64.871094 152.226562 C 63.320312 152.179688 62.050781 150.980469 61.914062 149.4375 L 61.351562 142.972656 Z M 61.472656 160.09375 C 58.617188 160.09375 56.222656 159.382812 55.058594 157.417969 C 51.722656 151.765625 52.304688 143.574219 52.332031 143.226562 C 52.347656 143.011719 52.515625 142.84375 52.730469 142.824219 L 61.710938 142.066406 C 61.953125 142.046875 62.164062 142.222656 62.183594 142.460938 L 62.785156 149.359375 C 62.882812 150.464844 63.789062 151.320312 64.898438 151.355469 L 72.820312 151.589844 C 75.554688 151.667969 78.164062 150.976562 80.371094 149.582031 C 82.25 148.390625 83.804688 148.109375 84.988281 148.746094 C 87.660156 150.1875 90.703125 153.816406 90.832031 153.96875 C 90.957031 154.117188 90.96875 154.332031 90.859375 154.492188 C 90.75 154.652344 90.546875 154.722656 90.363281 154.664062 L 86.625 153.457031 C 85.03125 152.945312 83.28125 153.121094 81.824219 153.945312 L 79.511719 155.257812 C 79.5 155.261719 79.488281 155.269531 79.476562 155.273438 C 78.882812 155.542969 68.699219 160.09375 61.472656 160.09375 " fill-opacity="1" fill-rule="nonzero"/><path fill="#ffffff" d="M 83.324219 234.953125 L 79.007812 247.828125 C 79.007812 247.828125 83.710938 247.425781 84.160156 247.515625 C 84.609375 247.601562 90.109375 235.773438 90.109375 235.773438 L 83.324219 234.953125 " fill-opacity="1" fill-rule="nonzero"/><path fill="#000000" d="M 84.21875 247.082031 C 84.230469 247.082031 84.234375 247.085938 84.242188 247.085938 C 84.234375 247.082031 84.226562 247.082031 84.21875 247.082031 Z M 83.625 235.429688 L 79.632812 247.335938 C 80.949219 247.230469 83.207031 247.0625 84.003906 247.070312 C 84.691406 246.144531 87.570312 240.179688 89.460938 236.136719 Z M 79.007812 248.261719 C 78.875 248.261719 78.746094 248.203125 78.664062 248.09375 C 78.574219 247.980469 78.546875 247.828125 78.59375 247.6875 L 82.910156 234.816406 C 82.976562 234.621094 83.171875 234.496094 83.378906 234.523438 L 90.160156 235.339844 C 90.300781 235.359375 90.421875 235.441406 90.492188 235.5625 C 90.558594 235.683594 90.5625 235.832031 90.503906 235.957031 C 90.492188 235.988281 89.113281 238.953125 87.695312 241.867188 C 84.6875 248.058594 84.496094 248.023438 84.074219 247.941406 C 83.773438 247.898438 81.277344 248.070312 79.046875 248.261719 C 79.03125 248.261719 79.019531 248.261719 79.007812 248.261719 " fill-opacity="1" fill-rule="nonzero"/><path fill="#99b9ff" d="M 79.996094 244.996094 C 79.996094 244.996094 86.488281 242.339844 87.6875 245.675781 C 89.214844 249.921875 91.605469 256.398438 91.605469 256.398438 C 92.007812 257.527344 91.230469 258.730469 90.035156 258.824219 C 87.664062 259.015625 84.125 259.171875 82.476562 258.59375 C 79.875 257.679688 75.554688 249.449219 75.554688 249.449219 L 76.886719 242.441406 C 76.886719 242.441406 79.242188 242.113281 79.996094 244.996094 " fill-opacity="1" fill-rule="nonzero"/><path fill="#000000" d="M 76.011719 249.378906 C 77.253906 251.722656 80.65625 257.492188 82.621094 258.179688 C 83.824219 258.601562 86.445312 258.675781 90 258.390625 C 90.433594 258.355469 90.816406 258.128906 91.054688 257.761719 C 91.289062 257.398438 91.339844 256.957031 91.191406 256.546875 C 91.171875 256.484375 88.789062 250.023438 87.277344 245.824219 C 87.09375 245.308594 86.75 244.945312 86.234375 244.714844 C 84.152344 243.789062 80.203125 245.382812 80.160156 245.402344 C 80.046875 245.449219 79.914062 245.445312 79.800781 245.386719 C 79.6875 245.332031 79.605469 245.230469 79.574219 245.109375 C 79.074219 243.195312 77.828125 242.898438 77.25 242.867188 Z M 86.214844 259.433594 C 84.679688 259.433594 83.246094 259.324219 82.332031 259.003906 C 79.644531 258.0625 75.617188 250.507812 75.167969 249.652344 C 75.125 249.5625 75.109375 249.464844 75.125 249.367188 L 76.457031 242.363281 C 76.492188 242.179688 76.640625 242.039062 76.824219 242.011719 C 76.851562 242.007812 79.304688 241.699219 80.277344 244.425781 C 81.441406 244.007812 84.601562 243.035156 86.589844 243.917969 C 87.324219 244.246094 87.832031 244.785156 88.101562 245.527344 C 89.609375 249.722656 91.988281 256.183594 92.011719 256.25 C 92.253906 256.917969 92.171875 257.640625 91.789062 258.234375 C 91.402344 258.832031 90.777344 259.203125 90.070312 259.261719 C 88.878906 259.355469 87.511719 259.433594 86.214844 259.433594 " fill-opacity="1" fill-rule="nonzero"/><path fill="#000000" d="M 89.941406 256.457031 L 83.273438 256.457031 C 83.03125 256.457031 82.835938 256.261719 82.835938 256.023438 C 82.835938 255.78125 83.03125 255.585938 83.273438 255.585938 L 89.941406 255.585938 C 90.179688 255.585938 90.378906 255.78125 90.378906 256.023438 C 90.378906 256.261719 90.179688 256.457031 89.941406 256.457031 " fill-opacity="1" fill-rule="nonzero"/><path fill="#ffffff" d="M 71.085938 238.117188 L 72.550781 251.066406 L 78.453125 249.449219 L 77.996094 237.78125 L 71.085938 238.117188 " fill-opacity="1" fill-rule="nonzero"/><path fill="#000000" d="M 71.570312 238.53125 L 72.925781 250.511719 L 78.003906 249.117188 L 77.578125 238.238281 Z M 72.550781 251.5 C 72.464844 251.5 72.378906 251.476562 72.304688 251.425781 C 72.199219 251.355469 72.132812 251.242188 72.117188 251.113281 L 70.652344 238.167969 C 70.636719 238.046875 70.675781 237.925781 70.753906 237.835938 C 70.828125 237.742188 70.941406 237.6875 71.0625 237.683594 L 77.976562 237.347656 C 78.09375 237.34375 78.207031 237.378906 78.292969 237.460938 C 78.378906 237.539062 78.429688 237.648438 78.433594 237.765625 L 78.886719 249.429688 C 78.894531 249.632812 78.761719 249.816406 78.566406 249.871094 L 72.667969 251.484375 C 72.628906 251.496094 72.589844 251.5 72.550781 251.5 " fill-opacity="1" fill-rule="nonzero"/><path fill="#99b9ff" d="M 71.996094 260.605469 L 81.332031 260.605469 C 82.59375 260.605469 83.5625 259.484375 83.378906 258.238281 C 83.066406 256.128906 82.050781 252.632812 79.007812 247.828125 C 78.675781 247.300781 78.09375 246.984375 77.472656 246.984375 L 74.632812 246.984375 C 74.144531 246.984375 73.734375 247.351562 73.683594 247.839844 L 73.46875 249.886719 L 72.234375 248.253906 C 72.234375 248.253906 70.027344 252.898438 69.921875 258.5 C 69.902344 259.65625 70.835938 260.605469 71.996094 260.605469 " fill-opacity="1" fill-rule="nonzero"/><path fill="#000000" d="M 72.339844 249.117188 C 71.746094 250.589844 70.4375 254.292969 70.359375 258.507812 C 70.351562 258.949219 70.515625 259.363281 70.828125 259.679688 C 71.136719 259.992188 71.550781 260.167969 71.996094 260.167969 L 81.332031 260.167969 C 81.808594 260.167969 82.257812 259.960938 82.570312 259.601562 C 82.878906 259.242188 83.015625 258.769531 82.945312 258.300781 C 82.644531 256.253906 81.652344 252.816406 78.640625 248.058594 C 78.390625 247.664062 77.941406 247.417969 77.472656 247.417969 L 74.632812 247.417969 C 74.367188 247.417969 74.144531 247.621094 74.117188 247.882812 L 73.902344 249.929688 C 73.882812 250.109375 73.757812 250.257812 73.585938 250.304688 C 73.414062 250.355469 73.230469 250.292969 73.121094 250.148438 Z M 81.332031 261.039062 L 71.996094 261.039062 C 71.316406 261.039062 70.679688 260.773438 70.203125 260.289062 C 69.730469 259.804688 69.472656 259.167969 69.488281 258.492188 C 69.589844 252.863281 71.746094 248.261719 71.839844 248.066406 C 71.902344 247.929688 72.035156 247.835938 72.1875 247.820312 C 72.339844 247.808594 72.488281 247.867188 72.582031 247.992188 L 73.148438 248.742188 L 73.25 247.792969 C 73.324219 247.082031 73.917969 246.546875 74.632812 246.546875 L 77.472656 246.546875 C 78.25 246.546875 78.960938 246.9375 79.375 247.59375 C 82.46875 252.480469 83.496094 256.042969 83.8125 258.171875 C 83.917969 258.890625 83.707031 259.621094 83.230469 260.171875 C 82.753906 260.726562 82.0625 261.039062 81.332031 261.039062 " fill-opacity="1" fill-rule="nonzero"/><path fill="#000000" d="M 82.476562 258.8125 L 71.300781 258.8125 C 71.058594 258.8125 70.863281 258.617188 70.863281 258.375 C 70.863281 258.132812 71.058594 257.9375 71.300781 257.9375 L 82.476562 257.9375 C 82.71875 257.9375 82.914062 258.132812 82.914062 258.375 C 82.914062 258.617188 82.71875 258.8125 82.476562 258.8125 " fill-opacity="1" fill-rule="nonzero"/><path fill="#000000" d="M 93.246094 160.355469 C 93 159.761719 92.503906 159.300781 91.890625 159.109375 C 88.476562 158.039062 76.574219 155.21875 64.320312 163.070312 C 63.742188 163.441406 63.371094 164.0625 63.324219 164.75 C 62.878906 170.96875 61.230469 203.5 71.527344 242.011719 L 78.460938 241.519531 L 79.875 175.667969 C 79.875 175.667969 90.148438 199.808594 81.796875 238.230469 L 89.007812 239.558594 C 89.007812 239.558594 99.566406 225.6875 101.457031 204.488281 C 103.128906 185.734375 95.117188 164.914062 93.246094 160.355469 " fill-opacity="1" fill-rule="nonzero"/><path fill="#ffffff" d="M 73.292969 211.570312 C 73.285156 211.570312 73.28125 211.570312 73.273438 211.570312 C 66.722656 211.285156 65.980469 202.410156 65.976562 202.320312 C 65.957031 202.082031 66.136719 201.871094 66.378906 201.855469 C 66.621094 201.835938 66.828125 202.015625 66.84375 202.253906 C 66.851562 202.335938 67.535156 210.449219 73.3125 210.699219 C 73.550781 210.707031 73.738281 210.914062 73.730469 211.152344 C 73.71875 211.386719 73.523438 211.570312 73.292969 211.570312 " fill-opacity="1" fill-rule="nonzero"/><path fill="#ffffff" d="M 80.480469 182.140625 C 80.242188 182.140625 80.050781 181.953125 80.042969 181.71875 L 79.796875 173.480469 C 79.792969 173.335938 79.863281 173.195312 79.984375 173.109375 L 84.308594 170.074219 C 84.503906 169.933594 84.777344 169.980469 84.914062 170.179688 C 85.054688 170.375 85.007812 170.648438 84.808594 170.785156 L 80.675781 173.691406 L 80.914062 181.691406 C 80.921875 181.929688 80.734375 182.132812 80.492188 182.140625 C 80.488281 182.140625 80.484375 182.140625 80.480469 182.140625 " fill-opacity="1" fill-rule="nonzero"/><path fill="#000000" d="M 77.222656 101.773438 C 79.859375 99.503906 80.460938 99.195312 81.230469 97.898438 C 81.855469 96.839844 83.253906 94.472656 82.308594 91.972656 C 81.488281 89.808594 79.230469 88.503906 77.152344 88.390625 C 75.285156 88.289062 73.921875 89.171875 73.203125 89.640625 C 72.890625 89.84375 70.113281 91.691406 69.566406 94.714844 C 69.417969 95.539062 69.527344 95.914062 69.152344 96.429688 C 68.308594 97.585938 66.785156 96.996094 65.726562 97.957031 C 64.398438 99.164062 65.015625 101.734375 65.066406 101.933594 C 65.757812 104.675781 68.722656 106.492188 71.140625 106.242188 C 72.535156 106.09375 72.386719 105.929688 77.222656 101.773438 " fill-opacity="1" fill-rule="nonzero"/><path fill="#ffffff" d="M 69.953125 115.332031 C 71.226562 114.488281 71.972656 113.042969 71.9375 111.519531 L 71.792969 105.179688 C 71.75 105.136719 71.707031 105.097656 71.664062 105.058594 C 71.664062 105.058594 69.121094 105.226562 68.753906 103.933594 C 68.382812 102.640625 70.179688 102.394531 70.179688 102.394531 C 70.179688 102.394531 68.484375 98.824219 72.871094 98.867188 C 74.050781 98.878906 74.472656 96.925781 76.40625 96.488281 C 76.40625 96.488281 77.363281 96.40625 78.332031 98.910156 L 80.457031 102.054688 L 79.394531 102.636719 C 79.65625 103.828125 79.769531 105.144531 79.609375 106.542969 C 79.5625 106.945312 79.285156 107.285156 78.898438 107.40625 C 78.582031 107.511719 78.152344 107.621094 77.644531 107.679688 L 77.988281 111.921875 C 78.136719 113.78125 79.109375 115.46875 80.636719 116.539062 C 82.113281 117.574219 83.472656 118.304688 83.472656 118.304688 C 83.472656 118.304688 75.644531 119.375 66.644531 117.320312 C 66.644531 117.320312 68.382812 116.371094 69.953125 115.332031 " fill-opacity="1" fill-rule="nonzero"/><path fill="#000000" d="M 76.445312 96.921875 Z M 69.953125 115.332031 L 69.957031 115.332031 Z M 67.859375 117.136719 C 74.074219 118.394531 79.625 118.191406 82.078125 118.003906 C 81.59375 117.707031 81 117.328125 80.386719 116.898438 C 78.746094 115.746094 77.710938 113.945312 77.550781 111.957031 L 77.210938 107.714844 C 77.191406 107.480469 77.359375 107.273438 77.59375 107.246094 C 77.996094 107.199219 78.390625 107.113281 78.765625 106.992188 C 78.988281 106.921875 79.148438 106.726562 79.175781 106.492188 C 79.316406 105.265625 79.246094 104 78.96875 102.726562 C 78.929688 102.539062 79.015625 102.347656 79.1875 102.253906 L 79.828125 101.902344 L 77.972656 99.15625 C 77.953125 99.128906 77.9375 99.101562 77.925781 99.070312 C 77.21875 97.238281 76.574219 96.96875 76.433594 96.929688 C 75.582031 97.144531 75.074219 97.703125 74.585938 98.242188 C 74.109375 98.765625 73.613281 99.316406 72.867188 99.304688 C 71.660156 99.285156 70.863281 99.5625 70.511719 100.109375 C 69.992188 100.925781 70.566406 102.195312 70.574219 102.207031 C 70.632812 102.332031 70.628906 102.480469 70.5625 102.601562 C 70.496094 102.722656 70.378906 102.808594 70.238281 102.828125 C 70.042969 102.855469 69.425781 103.007812 69.214844 103.339844 C 69.160156 103.421875 69.097656 103.558594 69.171875 103.816406 C 69.394531 104.589844 71.066406 104.660156 71.636719 104.625 C 71.757812 104.617188 71.875 104.660156 71.964844 104.742188 L 72.089844 104.859375 C 72.175781 104.9375 72.226562 105.050781 72.230469 105.167969 L 72.375 111.507812 C 72.414062 113.203125 71.597656 114.769531 70.195312 115.695312 C 69.375 116.238281 68.503906 116.761719 67.859375 117.136719 Z M 78.25 119.011719 C 75.148438 119.011719 70.976562 118.757812 66.550781 117.746094 C 66.371094 117.707031 66.238281 117.5625 66.214844 117.382812 C 66.1875 117.203125 66.277344 117.027344 66.4375 116.941406 C 66.453125 116.929688 68.179688 115.984375 69.714844 114.96875 C 70.863281 114.207031 71.53125 112.921875 71.5 111.527344 L 71.363281 105.503906 C 71.355469 105.503906 71.347656 105.503906 71.339844 105.503906 C 70.53125 105.503906 68.707031 105.355469 68.332031 104.054688 C 68.207031 103.617188 68.261719 103.203125 68.484375 102.859375 C 68.757812 102.4375 69.230469 102.207031 69.601562 102.085938 C 69.421875 101.492188 69.242188 100.472656 69.777344 99.640625 C 70.300781 98.824219 71.34375 98.417969 72.875 98.429688 C 72.878906 98.429688 72.878906 98.429688 72.882812 98.429688 C 73.21875 98.429688 73.503906 98.136719 73.9375 97.65625 C 74.476562 97.0625 75.148438 96.324219 76.308594 96.0625 C 76.328125 96.058594 76.347656 96.054688 76.371094 96.050781 C 76.582031 96.027344 77.691406 96.078125 78.722656 98.710938 L 80.816406 101.808594 C 80.886719 101.910156 80.910156 102.035156 80.882812 102.15625 C 80.851562 102.273438 80.773438 102.378906 80.667969 102.433594 L 79.886719 102.863281 C 80.132812 104.121094 80.183594 105.375 80.042969 106.59375 C 79.976562 107.164062 79.582031 107.648438 79.035156 107.824219 C 78.734375 107.917969 78.425781 107.996094 78.113281 108.050781 L 78.421875 111.886719 C 78.5625 113.617188 79.460938 115.183594 80.886719 116.183594 C 82.320312 117.191406 83.664062 117.914062 83.679688 117.921875 C 83.84375 118.011719 83.933594 118.195312 83.902344 118.382812 C 83.867188 118.566406 83.71875 118.710938 83.53125 118.738281 C 83.492188 118.742188 81.433594 119.011719 78.25 119.011719 " fill-opacity="1" fill-rule="nonzero"/><path fill="#ffffff" d="M 77.644531 107.679688 C 77.644531 107.679688 74.859375 107.777344 73.753906 106.261719 L 77.644531 107.679688 " fill-opacity="1" fill-rule="nonzero"/><path fill="#000000" d="M 77.53125 108.117188 C 76.9375 108.117188 74.5 108.023438 73.402344 106.519531 C 73.257812 106.324219 73.300781 106.050781 73.496094 105.910156 C 73.691406 105.769531 73.964844 105.8125 74.105469 106.003906 C 74.902344 107.09375 76.917969 107.265625 77.628906 107.242188 C 77.878906 107.230469 78.074219 107.425781 78.082031 107.664062 C 78.089844 107.90625 77.902344 108.105469 77.660156 108.117188 C 77.648438 108.117188 77.601562 108.117188 77.53125 108.117188 " fill-opacity="1" fill-rule="nonzero"/><path fill="#000000" d="M 129.136719 153.386719 L 102.488281 153.386719 L 122.242188 123.027344 C 122.859375 122.078125 123.933594 121.503906 125.089844 121.503906 L 146.714844 121.503906 C 148.089844 121.503906 148.925781 122.972656 148.191406 124.097656 L 129.136719 153.386719 " fill-opacity="1" fill-rule="nonzero"/><path fill="#caddff" d="M 134.820312 132.148438 C 133.953125 133.480469 132.089844 134.558594 130.660156 134.558594 C 129.230469 134.558594 128.769531 133.480469 129.636719 132.148438 C 130.503906 130.820312 132.363281 129.738281 133.796875 129.738281 C 135.226562 129.738281 135.683594 130.820312 134.820312 132.148438 " fill-opacity="1" fill-rule="nonzero"/><path fill="#000000" d="M 128.375 155.921875 L 80.214844 155.921875 C 79.742188 155.921875 79.359375 155.539062 79.359375 155.066406 L 79.359375 153.171875 L 129.230469 153.171875 L 129.230469 155.066406 C 129.230469 155.539062 128.847656 155.921875 128.375 155.921875 " fill-opacity="1" fill-rule="nonzero"/><path fill="#ffffff" d="M 127.75 153.851562 L 104.863281 153.851562 C 104.625 153.851562 104.429688 153.65625 104.429688 153.414062 C 104.429688 153.175781 104.625 152.980469 104.863281 152.980469 L 127.75 152.980469 C 127.988281 152.980469 128.183594 153.175781 128.183594 153.414062 C 128.183594 153.65625 127.988281 153.851562 127.75 153.851562 " fill-opacity="1" fill-rule="nonzero"/><path fill="#5479f7" d="M 231.371094 242.332031 L 251.9375 242.332031 C 251.9375 242.332031 254.753906 259.46875 242.480469 260.839844 C 230.207031 262.207031 231.371094 242.332031 231.371094 242.332031 " fill-opacity="1" fill-rule="nonzero"/><path fill="#99b9ff" d="M 237.539062 238.144531 C 236.070312 238.1875 232.9375 238.234375 229.988281 236.226562 C 228.898438 235.484375 225.902344 233.445312 226.183594 230.761719 C 226.421875 228.464844 229 226.347656 232.5 225.964844 C 228.347656 226.457031 225.007812 223.347656 225.003906 220.136719 C 225 217.675781 226.953125 215.230469 229.839844 214.421875 C 225.367188 211.042969 223.015625 205.597656 223.757812 200.195312 C 224.480469 194.9375 228.125 189.765625 233.621094 188.167969 C 234.3125 187.964844 240.285156 186.328125 244.589844 189.992188 C 248.199219 193.066406 248.242188 197.839844 248.265625 201.089844 C 248.316406 206.878906 245.992188 211.273438 244.589844 213.480469 C 244.882812 213.460938 247.851562 212.484375 250.625 214.949219 C 253.453125 217.460938 253.59375 223.230469 252.214844 225.515625 C 250.773438 227.90625 247.296875 227.398438 246.679688 227.574219 C 249.277344 229.867188 249.1875 231.78125 249.160156 232.140625 C 248.863281 235.875 242.089844 238.011719 237.539062 238.144531 " fill-opacity="1" fill-rule="nonzero"/><path fill="#ffffff" d="M 239.027344 240.859375 C 239.003906 240.859375 238.984375 240.855469 238.964844 240.855469 C 238.726562 240.824219 238.5625 240.601562 238.589844 240.363281 C 241.210938 221.042969 235.089844 199.230469 235.027344 199.011719 C 234.964844 198.78125 235.097656 198.539062 235.328125 198.472656 C 235.5625 198.40625 235.800781 198.542969 235.867188 198.773438 C 235.933594 198.992188 242.101562 220.972656 239.457031 240.480469 C 239.425781 240.699219 239.238281 240.859375 239.027344 240.859375 " fill-opacity="1" fill-rule="nonzero"/><path fill="#99b9ff" d="M 241.984375 239.035156 C 241.519531 237.894531 239.496094 232.621094 242.117188 228.175781 C 242.65625 227.261719 244.460938 224.207031 247.082031 224.421875 C 249.035156 224.585938 250.265625 226.46875 250.539062 226.90625 C 249.75 224.039062 251.164062 221.136719 253.523438 220.132812 C 256.308594 218.949219 260.007812 220.589844 261.035156 224.023438 C 261.71875 223.824219 263.582031 223.402344 265.460938 224.289062 C 267.929688 225.457031 269.417969 228.410156 269.082031 231.664062 C 268.050781 235.152344 264.859375 237.285156 261.839844 236.890625 C 258.550781 236.460938 256.984375 233.238281 256.875 233.003906 C 257.386719 233.808594 258.140625 235.304688 257.679688 236.757812 C 256.90625 239.199219 253.0625 240.410156 250.300781 239.707031 C 247.738281 239.050781 247 236.972656 244.933594 237.160156 C 243.578125 237.28125 242.570312 238.304688 241.984375 239.035156 " fill-opacity="1" fill-rule="nonzero"/><path fill="#caddff" d="M 241.78125 240.636719 C 241.753906 240.636719 241.726562 240.632812 241.703125 240.628906 C 241.464844 240.589844 241.308594 240.363281 241.351562 240.125 C 241.410156 239.789062 242.882812 231.917969 250.242188 229.121094 C 255.53125 227.109375 260.277344 229.117188 261.605469 229.78125 C 261.820312 229.890625 261.90625 230.152344 261.800781 230.367188 C 261.691406 230.582031 261.429688 230.667969 261.214844 230.5625 C 259.964844 229.9375 255.507812 228.050781 250.550781 229.9375 C 243.648438 232.558594 242.265625 239.960938 242.207031 240.277344 C 242.171875 240.488281 241.988281 240.636719 241.78125 240.636719 " fill-opacity="1" fill-rule="nonzero"/><path fill="#99b9ff" d="M 71.722656 66.054688 L 37.058594 65.519531 C 35.386719 65.496094 34.011719 66.765625 33.988281 68.359375 L 33.777344 82.035156 C 33.75 83.628906 35.085938 84.941406 36.757812 84.96875 L 62.710938 85.371094 L 70.191406 91.027344 L 70.277344 85.484375 L 71.417969 85.503906 C 73.089844 85.53125 74.464844 84.257812 74.492188 82.664062 L 74.703125 68.988281 C 74.726562 67.394531 73.390625 66.082031 71.722656 66.054688 " fill-opacity="1" fill-rule="nonzero"/><path fill="#5479f7" d="M 38.605469 76.070312 L 36.214844 75.382812 L 36.644531 74.058594 L 39.015625 74.972656 L 38.898438 72.28125 L 40.300781 72.28125 L 40.183594 75.023438 L 42.511719 74.121094 L 42.9375 75.46875 L 40.503906 76.15625 L 42.074219 78.242188 L 40.9375 79.074219 L 39.523438 76.816406 L 38.128906 79.003906 L 36.984375 78.203125 L 38.605469 76.070312 " fill-opacity="1" fill-rule="nonzero"/><path fill="#5479f7" d="M 45.707031 76.070312 L 43.3125 75.382812 L 43.746094 74.058594 L 46.113281 74.972656 L 45.996094 72.28125 L 47.398438 72.28125 L 47.28125 75.023438 L 49.613281 74.121094 L 50.035156 75.46875 L 47.605469 76.15625 L 49.171875 78.242188 L 48.035156 79.074219 L 46.625 76.816406 L 45.226562 79.003906 L 44.082031 78.203125 L 45.707031 76.070312 " fill-opacity="1" fill-rule="nonzero"/><path fill="#5479f7" d="M 52.804688 76.070312 L 50.414062 75.382812 L 50.84375 74.058594 L 53.214844 74.972656 L 53.09375 72.28125 L 54.5 72.28125 L 54.382812 75.023438 L 56.710938 74.121094 L 57.136719 75.46875 L 54.703125 76.15625 L 56.273438 78.242188 L 55.136719 79.074219 L 53.722656 76.816406 L 52.328125 79.003906 L 51.179688 78.203125 L 52.804688 76.070312 " fill-opacity="1" fill-rule="nonzero"/><path fill="#5479f7" d="M 59.902344 76.070312 L 57.511719 75.382812 L 57.941406 74.058594 L 60.3125 74.972656 L 60.195312 72.28125 L 61.597656 72.28125 L 61.480469 75.023438 L 63.808594 74.121094 L 64.234375 75.46875 L 61.800781 76.15625 L 63.371094 78.242188 L 62.234375 79.074219 L 60.820312 76.816406 L 59.425781 79.003906 L 58.28125 78.203125 L 59.902344 76.070312 " fill-opacity="1" fill-rule="nonzero"/><path fill="#5479f7" d="M 67.003906 76.070312 L 64.609375 75.382812 L 65.042969 74.058594 L 67.410156 74.972656 L 67.292969 72.28125 L 68.695312 72.28125 L 68.578125 75.023438 L 70.910156 74.121094 L 71.332031 75.46875 L 68.902344 76.15625 L 70.46875 78.242188 L 69.332031 79.074219 L 67.921875 76.816406 L 66.523438 79.003906 L 65.378906 78.203125 L 67.003906 76.070312 " fill-opacity="1" fill-rule="nonzero"/></svg>