<svg xmlns="http://www.w3.org/2000/svg" xmlns:xlink="http://www.w3.org/1999/xlink" width="410" zoomAndPan="magnify" viewBox="0 0 307.5 299.999988" height="400" preserveAspectRatio="xMidYMid meet" version="1.0"><defs><clipPath id="887c21664f"><path d="M 0 0.242188 L 307 0.242188 L 307 299.753906 L 0 299.753906 Z M 0 0.242188 " clip-rule="nonzero"/></clipPath></defs><g clip-path="url(#887c21664f)"><path fill="#ffffff" d="M 0 0.242188 L 307 0.242188 L 307 299.757812 L 0 299.757812 Z M 0 0.242188 " fill-opacity="1" fill-rule="nonzero"/><path fill="#ffffff" d="M 0 0.242188 L 307 0.242188 L 307 299.757812 L 0 299.757812 Z M 0 0.242188 " fill-opacity="1" fill-rule="nonzero"/></g><path fill="#99b9ff" d="M 48.253906 75.996094 C 53.578125 66.804688 65.351562 63.664062 74.550781 68.984375 C 83.746094 74.308594 86.886719 86.074219 81.566406 95.269531 C 76.242188 104.46875 64.46875 107.605469 55.269531 102.285156 C 46.070312 96.960938 42.929688 85.195312 48.253906 75.996094 Z M 35.558594 75.046875 C 34.960938 76.699219 34.503906 78.378906 34.199219 80.070312 L 26.242188 81.859375 L 26.234375 89.328125 L 34.199219 91.136719 C 34.503906 92.84375 34.953125 94.523438 35.539062 96.160156 L 29.53125 101.691406 L 33.261719 108.167969 L 41.050781 105.75 C 42.160156 107.066406 43.394531 108.296875 44.738281 109.429688 L 42.300781 117.21875 L 48.773438 120.964844 L 54.316406 114.972656 C 55.96875 115.570312 57.652344 116.027344 59.34375 116.335938 L 61.128906 124.289062 L 68.605469 124.296875 L 70.410156 116.335938 C 72.121094 116.027344 73.800781 115.582031 75.4375 114.996094 L 80.96875 121 L 87.449219 117.269531 L 85.035156 109.484375 C 86.347656 108.375 87.578125 107.140625 88.714844 105.800781 L 96.507812 108.234375 L 100.25 101.765625 L 94.257812 96.222656 C 94.855469 94.570312 95.3125 92.890625 95.621094 91.199219 L 103.578125 89.414062 L 103.585938 81.941406 L 95.621094 80.136719 C 95.3125 78.425781 94.863281 76.746094 94.28125 75.109375 L 100.285156 69.578125 L 96.554688 63.101562 L 88.765625 65.519531 C 87.65625 64.203125 86.425781 62.972656 85.082031 61.839844 L 87.515625 54.046875 L 81.046875 50.304688 L 75.5 56.296875 C 73.847656 55.699219 72.167969 55.242188 70.472656 54.933594 L 68.6875 46.980469 L 61.214844 46.972656 L 59.40625 54.933594 C 57.699219 55.242188 56.015625 55.691406 54.382812 56.273438 L 48.847656 50.269531 L 42.371094 54 L 44.785156 61.789062 C 43.46875 62.894531 42.242188 64.128906 41.105469 65.472656 L 33.3125 63.035156 L 29.566406 69.503906 L 35.558594 75.046875 " fill-opacity="1" fill-rule="nonzero"/><path fill="#caddff" d="M 82.300781 88.441406 C 109.121094 61.449219 101.441406 44.53125 119.792969 32.035156 C 148.03125 12.804688 200.734375 29.347656 231.828125 55.796875 C 269.910156 88.195312 289.558594 147.34375 267.175781 200.855469 C 243.339844 257.84375 180.625 287.425781 124.664062 278.511719 C 74.6875 270.550781 25.5625 231.167969 20.640625 183.929688 C 20.105469 178.8125 17.75 151.136719 34.269531 127.273438 C 47.921875 107.550781 61.039062 109.835938 82.300781 88.441406 " fill-opacity="1" fill-rule="nonzero"/><path fill="#5479f7" d="M 242.097656 99.339844 L 50.597656 91.949219 C 46.046875 91.949219 42.339844 95.652344 42.339844 100.207031 L 42.339844 233.84375 C 42.339844 238.394531 46.046875 242.101562 50.597656 242.101562 L 119.792969 237.414062 L 110.910156 269.828125 L 101.511719 269.902344 C 98.578125 269.902344 96.195312 272.285156 96.195312 275.214844 C 96.195312 278.144531 98.578125 280.53125 101.511719 280.53125 L 180.230469 276.773438 C 183.160156 276.773438 177.675781 242.101562 177.675781 242.101562 C 177.675781 242.101562 246.652344 99.339844 242.097656 99.339844 " fill-opacity="1" fill-rule="nonzero"/><path fill="#ffffff" d="M 176.4375 225.015625 L 127.605469 225.015625 L 113.75 275.5625 L 190.292969 275.5625 L 176.4375 225.015625 " fill-opacity="1" fill-rule="nonzero"/><path fill="#000000" d="M 114.363281 275.097656 L 189.683594 275.097656 L 176.082031 225.480469 L 127.960938 225.480469 Z M 190.292969 276.027344 L 113.75 276.027344 C 113.605469 276.027344 113.46875 275.957031 113.382812 275.84375 C 113.292969 275.730469 113.265625 275.578125 113.304688 275.4375 L 127.15625 224.890625 C 127.210938 224.6875 127.394531 224.546875 127.605469 224.546875 L 176.4375 224.546875 C 176.648438 224.546875 176.832031 224.6875 176.886719 224.890625 L 190.742188 275.4375 C 190.78125 275.578125 190.75 275.730469 190.660156 275.84375 C 190.574219 275.957031 190.4375 276.027344 190.292969 276.027344 " fill-opacity="1" fill-rule="nonzero"/><path fill="#ffffff" d="M 249.515625 92.414062 L 54.527344 92.414062 C 50.226562 92.414062 46.734375 95.902344 46.734375 100.203125 L 46.734375 233.84375 C 46.734375 238.144531 50.226562 241.632812 54.527344 241.632812 L 249.515625 241.632812 C 253.820312 241.632812 257.308594 238.144531 257.308594 233.84375 L 257.308594 100.203125 C 257.308594 95.902344 253.820312 92.414062 249.515625 92.414062 " fill-opacity="1" fill-rule="nonzero"/><path fill="#000000" d="M 54.527344 92.882812 C 50.488281 92.882812 47.203125 96.167969 47.203125 100.207031 L 47.203125 233.84375 C 47.203125 237.882812 50.488281 241.167969 54.527344 241.167969 L 249.511719 241.167969 C 253.554688 241.167969 256.839844 237.882812 256.839844 233.84375 L 256.839844 100.207031 C 256.839844 96.167969 253.554688 92.882812 249.511719 92.882812 Z M 249.511719 242.097656 L 54.527344 242.097656 C 49.976562 242.097656 46.269531 238.394531 46.269531 233.84375 L 46.269531 100.207031 C 46.269531 95.65625 49.976562 91.949219 54.527344 91.949219 L 249.511719 91.949219 C 254.066406 91.949219 257.773438 95.65625 257.773438 100.207031 L 257.773438 233.84375 C 257.773438 238.394531 254.066406 242.097656 249.511719 242.097656 " fill-opacity="1" fill-rule="nonzero"/><path fill="#ffffff" d="M 198.605469 270.367188 L 105.441406 270.367188 C 102.761719 270.367188 100.59375 272.539062 100.59375 275.214844 C 100.59375 277.890625 102.761719 280.0625 105.441406 280.0625 L 198.605469 280.0625 C 201.28125 280.0625 203.453125 277.890625 203.453125 275.214844 C 203.453125 272.539062 201.28125 270.367188 198.605469 270.367188 " fill-opacity="1" fill-rule="nonzero"/><path fill="#000000" d="M 105.441406 270.835938 C 103.023438 270.835938 101.054688 272.800781 101.054688 275.214844 C 101.054688 277.632812 103.023438 279.597656 105.441406 279.597656 L 198.601562 279.597656 C 201.019531 279.597656 202.988281 277.632812 202.988281 275.214844 C 202.988281 272.800781 201.019531 270.835938 198.601562 270.835938 Z M 198.601562 280.527344 L 105.441406 280.527344 C 102.507812 280.527344 100.125 278.144531 100.125 275.214844 C 100.125 272.285156 102.507812 269.902344 105.441406 269.902344 L 198.601562 269.902344 C 201.535156 269.902344 203.917969 272.285156 203.917969 275.214844 C 203.917969 278.144531 201.535156 280.527344 198.601562 280.527344 " fill-opacity="1" fill-rule="nonzero"/><path fill="#ffffff" d="M 53.664062 198.726562 L 53.664062 230.835938 C 53.664062 232.972656 55.398438 234.707031 57.539062 234.707031 L 246.507812 234.707031 C 248.648438 234.707031 250.382812 232.972656 250.382812 230.835938 L 250.382812 198.304688 L 53.664062 198.726562 " fill-opacity="1" fill-rule="nonzero"/><path fill="#000000" d="M 246.507812 235.175781 L 57.539062 235.175781 C 55.144531 235.175781 53.199219 233.226562 53.199219 230.835938 L 53.199219 198.726562 C 53.199219 198.46875 53.40625 198.261719 53.664062 198.261719 C 53.917969 198.261719 54.128906 198.46875 54.128906 198.726562 L 54.128906 230.835938 C 54.128906 232.714844 55.65625 234.242188 57.539062 234.242188 L 246.507812 234.242188 C 248.386719 234.242188 249.914062 232.714844 249.914062 230.835938 L 249.914062 198.304688 C 249.914062 198.046875 250.125 197.835938 250.378906 197.835938 C 250.636719 197.835938 250.847656 198.046875 250.847656 198.304688 L 250.847656 230.835938 C 250.847656 233.226562 248.898438 235.175781 246.507812 235.175781 " fill-opacity="1" fill-rule="nonzero"/><path fill="#000000" d="M 53.664062 118.414062 C 53.40625 118.414062 53.199219 118.207031 53.199219 117.949219 L 53.199219 109.734375 C 53.199219 109.476562 53.40625 109.265625 53.664062 109.265625 C 53.917969 109.265625 54.128906 109.476562 54.128906 109.734375 L 54.128906 117.949219 C 54.128906 118.207031 53.917969 118.414062 53.664062 118.414062 " fill-opacity="1" fill-rule="nonzero"/><path fill="#ffffff" d="M 68.777344 99.339844 L 57.539062 99.339844 C 55.398438 99.339844 53.664062 101.074219 53.664062 103.210938 L 68.777344 99.339844 " fill-opacity="1" fill-rule="nonzero"/><path fill="#000000" d="M 53.664062 103.679688 C 53.40625 103.679688 53.199219 103.46875 53.199219 103.210938 C 53.199219 100.820312 55.144531 98.875 57.539062 98.875 L 68.777344 98.875 C 69.03125 98.875 69.242188 99.082031 69.242188 99.339844 C 69.242188 99.597656 69.03125 99.804688 68.777344 99.804688 L 57.539062 99.804688 C 55.65625 99.804688 54.128906 101.332031 54.128906 103.210938 C 54.128906 103.46875 53.917969 103.679688 53.664062 103.679688 " fill-opacity="1" fill-rule="nonzero"/><path fill="#ffffff" d="M 250.382812 109.734375 L 250.382812 103.214844 C 250.382812 101.074219 248.648438 99.339844 246.507812 99.339844 L 234.949219 99.339844 L 250.382812 109.734375 " fill-opacity="1" fill-rule="nonzero"/><path fill="#000000" d="M 250.378906 110.199219 C 250.125 110.199219 249.914062 109.992188 249.914062 109.734375 L 249.914062 103.214844 C 249.914062 101.332031 248.386719 99.804688 246.507812 99.804688 L 234.949219 99.804688 C 234.691406 99.804688 234.484375 99.597656 234.484375 99.339844 C 234.484375 99.082031 234.691406 98.875 234.949219 98.875 L 246.507812 98.875 C 248.898438 98.875 250.847656 100.820312 250.847656 103.214844 L 250.847656 109.734375 C 250.847656 109.992188 250.636719 110.199219 250.378906 110.199219 " fill-opacity="1" fill-rule="nonzero"/><path fill="#000000" d="M 250.378906 128.398438 C 250.125 128.398438 249.914062 128.191406 249.914062 127.9375 L 249.914062 118.851562 C 249.914062 118.597656 250.125 118.386719 250.378906 118.386719 C 250.636719 118.386719 250.847656 118.597656 250.847656 118.851562 L 250.847656 127.9375 C 250.847656 128.191406 250.636719 128.398438 250.378906 128.398438 " fill-opacity="1" fill-rule="nonzero"/><path fill="#99b9ff" d="M 223.246094 234.203125 L 77.441406 234.203125 L 77.441406 67.355469 C 77.441406 61.277344 82.367188 56.351562 88.445312 56.351562 L 212.242188 56.351562 C 218.320312 56.351562 223.246094 61.277344 223.246094 67.355469 L 223.246094 234.203125 " fill-opacity="1" fill-rule="nonzero"/><path fill="#000000" d="M 223.246094 79.597656 C 222.988281 79.597656 222.78125 79.386719 222.78125 79.132812 L 222.78125 67.355469 C 222.78125 61.546875 218.050781 56.820312 212.242188 56.820312 L 199.234375 56.820312 C 198.976562 56.820312 198.769531 56.609375 198.769531 56.355469 C 198.769531 56.097656 198.976562 55.886719 199.234375 55.886719 L 212.242188 55.886719 C 218.566406 55.886719 223.710938 61.03125 223.710938 67.355469 L 223.710938 79.132812 C 223.710938 79.386719 223.503906 79.597656 223.246094 79.597656 " fill-opacity="1" fill-rule="nonzero"/><path fill="#000000" d="M 171.34375 56.820312 L 143.980469 56.820312 C 143.726562 56.820312 143.519531 56.609375 143.519531 56.355469 C 143.519531 56.097656 143.726562 55.886719 143.980469 55.886719 L 171.34375 55.886719 C 171.601562 55.886719 171.808594 56.097656 171.808594 56.355469 C 171.808594 56.609375 171.601562 56.820312 171.34375 56.820312 " fill-opacity="1" fill-rule="nonzero"/><path fill="#000000" d="M 77.441406 115.382812 C 77.183594 115.382812 76.972656 115.171875 76.972656 114.914062 L 76.972656 67.355469 C 76.972656 61.03125 82.121094 55.886719 88.445312 55.886719 L 132.1875 55.886719 C 132.445312 55.886719 132.652344 56.097656 132.652344 56.355469 C 132.652344 56.609375 132.445312 56.820312 132.1875 56.820312 L 88.445312 56.820312 C 82.632812 56.820312 77.90625 61.546875 77.90625 67.355469 L 77.90625 114.914062 C 77.90625 115.171875 77.695312 115.382812 77.441406 115.382812 " fill-opacity="1" fill-rule="nonzero"/><path fill="#caddff" d="M 157.078125 71.421875 L 86.691406 71.421875 L 86.691406 66.980469 L 157.078125 66.980469 L 157.078125 71.421875 " fill-opacity="1" fill-rule="nonzero"/><path fill="#ffffff" d="M 194.15625 79.132812 L 111.882812 79.132812 L 111.882812 74.511719 L 194.15625 74.511719 L 194.15625 79.132812 " fill-opacity="1" fill-rule="nonzero"/><path fill="#ffffff" d="M 212.480469 86.75 L 130.207031 86.75 L 130.207031 82.128906 L 212.480469 82.128906 L 212.480469 86.75 " fill-opacity="1" fill-rule="nonzero"/><path fill="#ffffff" d="M 202.558594 94.371094 L 160.035156 94.371094 L 160.035156 89.746094 L 202.558594 89.746094 L 202.558594 94.371094 " fill-opacity="1" fill-rule="nonzero"/><path fill="#caddff" d="M 157.078125 132.375 L 86.691406 132.375 L 86.691406 127.9375 L 157.078125 127.9375 L 157.078125 132.375 " fill-opacity="1" fill-rule="nonzero"/><path fill="#ffffff" d="M 194.15625 140.085938 L 111.882812 140.085938 L 111.882812 135.464844 L 194.15625 135.464844 L 194.15625 140.085938 " fill-opacity="1" fill-rule="nonzero"/><path fill="#ffffff" d="M 206.105469 147.703125 L 130.207031 147.703125 L 130.207031 143.082031 L 206.105469 143.082031 L 206.105469 147.703125 " fill-opacity="1" fill-rule="nonzero"/><path fill="#ffffff" d="M 212.480469 155.324219 L 160.035156 155.324219 L 160.035156 150.703125 L 212.480469 150.703125 L 212.480469 155.324219 " fill-opacity="1" fill-rule="nonzero"/><path fill="#ffffff" d="M 194.15625 101.988281 L 111.882812 101.988281 L 111.882812 97.367188 L 194.15625 97.367188 L 194.15625 101.988281 " fill-opacity="1" fill-rule="nonzero"/><path fill="#ffffff" d="M 212.480469 109.609375 L 130.207031 109.609375 L 130.207031 104.988281 L 212.480469 104.988281 L 212.480469 109.609375 " fill-opacity="1" fill-rule="nonzero"/><path fill="#ffffff" d="M 192.640625 124.847656 L 160.035156 124.847656 L 160.035156 120.226562 L 192.640625 120.226562 L 192.640625 124.847656 " fill-opacity="1" fill-rule="nonzero"/><path fill="#ffffff" d="M 212.480469 117.226562 L 160.035156 117.226562 L 160.035156 112.605469 L 212.480469 112.605469 L 212.480469 117.226562 " fill-opacity="1" fill-rule="nonzero"/><path fill="#caddff" d="M 157.078125 162.851562 L 86.691406 162.851562 L 86.691406 158.414062 L 157.078125 158.414062 L 157.078125 162.851562 " fill-opacity="1" fill-rule="nonzero"/><path fill="#ffffff" d="M 194.15625 170.5625 L 111.882812 170.5625 L 111.882812 165.941406 L 194.15625 165.941406 L 194.15625 170.5625 " fill-opacity="1" fill-rule="nonzero"/><path fill="#ffffff" d="M 209.835938 178.179688 L 130.207031 178.179688 L 130.207031 173.558594 L 209.835938 173.558594 L 209.835938 178.179688 " fill-opacity="1" fill-rule="nonzero"/><path fill="#caddff" d="M 210.964844 185.796875 L 158.519531 185.796875 L 158.519531 181.175781 L 210.964844 181.175781 L 210.964844 185.796875 " fill-opacity="1" fill-rule="nonzero"/><path fill="#caddff" d="M 174.664062 223.894531 L 130.207031 223.894531 L 130.207031 219.273438 L 174.664062 219.273438 L 174.664062 223.894531 " fill-opacity="1" fill-rule="nonzero"/><path fill="#ffffff" d="M 194.15625 193.417969 L 111.882812 193.417969 L 111.882812 188.796875 L 194.15625 188.796875 L 194.15625 193.417969 " fill-opacity="1" fill-rule="nonzero"/><path fill="#ffffff" d="M 212.480469 201.039062 L 130.207031 201.039062 L 130.207031 196.417969 L 212.480469 196.417969 L 212.480469 201.039062 " fill-opacity="1" fill-rule="nonzero"/><path fill="#ffffff" d="M 212.480469 216.277344 L 160.035156 216.277344 L 160.035156 211.65625 L 212.480469 211.65625 L 212.480469 216.277344 " fill-opacity="1" fill-rule="nonzero"/><path fill="#ffffff" d="M 190.058594 208.65625 L 160.035156 208.65625 L 160.035156 204.035156 L 190.058594 204.035156 L 190.058594 208.65625 " fill-opacity="1" fill-rule="nonzero"/><path fill="#ffffff" d="M 256.371094 182.984375 C 256.371094 182.640625 237.121094 179.601562 235.878906 176.082031 C 234.027344 170.835938 231.714844 164.523438 231.714844 164.523438 L 226.90625 167.558594 L 230 182.660156 L 256.371094 182.984375 " fill-opacity="1" fill-rule="nonzero"/><path fill="#000000" d="M 230.382812 182.199219 L 252.109375 182.46875 C 244.316406 180.78125 236.335938 178.78125 235.4375 176.238281 C 233.917969 171.9375 232.074219 166.867188 231.476562 165.226562 L 227.425781 167.78125 Z M 256.371094 183.449219 C 256.367188 183.449219 256.367188 183.449219 256.367188 183.449219 L 229.996094 183.125 C 229.777344 183.121094 229.589844 182.96875 229.546875 182.753906 L 226.449219 167.652344 C 226.410156 167.464844 226.496094 167.269531 226.65625 167.167969 L 231.464844 164.132812 C 231.585938 164.054688 231.730469 164.039062 231.863281 164.085938 C 231.996094 164.128906 232.101562 164.234375 232.148438 164.363281 C 232.171875 164.429688 234.484375 170.738281 236.316406 175.929688 C 237.167969 178.335938 249.058594 180.867188 253.535156 181.820312 C 256.839844 182.523438 256.839844 182.523438 256.835938 182.988281 C 256.835938 183.113281 256.785156 183.230469 256.699219 183.316406 C 256.609375 183.402344 256.492188 183.449219 256.371094 183.449219 " fill-opacity="1" fill-rule="nonzero"/><path fill="#5479f7" d="M 201.460938 148.300781 C 206.050781 146.800781 213.042969 145.726562 221.40625 148.390625 C 224.457031 149.363281 226.640625 152.042969 227.019531 155.21875 L 233.828125 194.421875 C 234.167969 197.273438 230.355469 200.042969 227.671875 201.0625 C 224.867188 202.125 220.628906 203.128906 214.625 203.128906 C 208.1875 203.128906 203.515625 203.503906 200.902344 202.359375 C 198.734375 201.410156 195.476562 199.117188 195.367188 196.753906 L 195.839844 156.457031 C 195.667969 152.785156 197.964844 149.441406 201.460938 148.300781 " fill-opacity="1" fill-rule="nonzero"/><path fill="#5479f7" d="M 233.625 165.144531 C 233.625 165.144531 228.183594 150.089844 222.089844 148.640625 L 225.191406 169.976562 L 233.625 165.144531 " fill-opacity="1" fill-rule="nonzero"/><path fill="#5479f7" d="M 188.78125 172.550781 C 188.78125 172.550781 189.375 162.476562 190.246094 158.585938 C 192.078125 150.398438 199.890625 149.160156 199.890625 149.160156 L 200.839844 171.152344 L 188.78125 172.550781 " fill-opacity="1" fill-rule="nonzero"/><path fill="#000000" d="M 207.535156 151.570312 C 203.859375 151.570312 200.96875 151.0625 200.757812 151.023438 C 200.503906 150.976562 200.335938 150.734375 200.382812 150.484375 C 200.425781 150.230469 200.671875 150.0625 200.921875 150.105469 C 201.011719 150.125 209.90625 151.6875 216.335938 149.308594 C 216.578125 149.21875 216.84375 149.339844 216.933594 149.582031 C 217.023438 149.824219 216.902344 150.089844 216.660156 150.179688 C 213.738281 151.261719 210.398438 151.570312 207.535156 151.570312 " fill-opacity="1" fill-rule="nonzero"/><path fill="#ffffff" d="M 190.304688 172.132812 C 190.304688 172.132812 189.71875 179.8125 192.761719 184.972656 C 196.398438 191.128906 214.738281 182.835938 214.738281 182.835938 L 216.871094 181.628906 C 218.3125 180.8125 220.035156 180.636719 221.613281 181.144531 L 225.054688 182.257812 C 225.054688 182.257812 222.210938 178.847656 219.792969 177.542969 C 218.65625 176.929688 217.1875 177.507812 215.941406 178.296875 C 213.804688 179.648438 211.289062 180.28125 208.761719 180.207031 L 201.464844 179.992188 C 200.242188 179.953125 199.238281 179.007812 199.128906 177.785156 L 198.574219 171.429688 L 190.304688 172.132812 " fill-opacity="1" fill-rule="nonzero"/><path fill="#000000" d="M 190.746094 172.5625 C 190.679688 174.179688 190.613281 180.421875 193.160156 184.734375 C 194.054688 186.25 195.953125 186.808594 198.269531 186.808594 C 204.601562 186.808594 214.035156 182.640625 214.523438 182.421875 L 216.640625 181.222656 C 218.191406 180.34375 220.054688 180.15625 221.753906 180.703125 L 223.550781 181.28125 C 222.519531 180.199219 220.957031 178.699219 219.570312 177.953125 C 218.582031 177.421875 217.1875 178.058594 216.191406 178.6875 C 214.011719 180.066406 211.449219 180.753906 208.746094 180.675781 L 201.449219 180.457031 C 199.988281 180.414062 198.792969 179.285156 198.664062 177.828125 L 198.152344 171.933594 Z M 198.320312 187.699219 C 195.667969 187.699219 193.441406 187.039062 192.355469 185.210938 C 189.273438 179.984375 189.8125 172.417969 189.839844 172.097656 C 189.855469 171.871094 190.035156 171.6875 190.261719 171.667969 L 198.535156 170.96875 C 198.792969 170.945312 199.015625 171.136719 199.039062 171.394531 L 199.59375 177.746094 C 199.679688 178.730469 200.488281 179.496094 201.476562 179.527344 L 208.773438 179.742188 C 211.277344 179.816406 213.671875 179.179688 215.691406 177.902344 C 217.445312 176.792969 218.898438 176.535156 220.011719 177.132812 C 222.480469 178.464844 225.296875 181.816406 225.414062 181.960938 C 225.546875 182.117188 225.558594 182.347656 225.441406 182.519531 C 225.328125 182.6875 225.109375 182.765625 224.910156 182.699219 L 221.46875 181.589844 C 220.015625 181.121094 218.425781 181.28125 217.101562 182.03125 L 214.964844 183.242188 C 214.953125 183.246094 214.941406 183.253906 214.925781 183.261719 C 214.378906 183.507812 205.003906 187.699219 198.320312 187.699219 " fill-opacity="1" fill-rule="nonzero"/><path fill="#ffffff" d="M 218.449219 256.617188 L 214.472656 268.476562 C 214.472656 268.476562 218.804688 268.105469 219.21875 268.1875 C 219.632812 268.269531 224.699219 257.371094 224.699219 257.371094 L 218.449219 256.617188 " fill-opacity="1" fill-rule="nonzero"/><path fill="#000000" d="M 219.273438 267.726562 C 219.285156 267.726562 219.296875 267.730469 219.308594 267.730469 C 219.296875 267.730469 219.285156 267.726562 219.273438 267.726562 Z M 218.769531 257.125 L 215.140625 267.953125 C 216.425781 267.847656 218.300781 267.703125 219.042969 267.714844 C 219.644531 266.875 221.941406 262.179688 224.003906 257.757812 Z M 214.472656 268.941406 C 214.332031 268.941406 214.195312 268.875 214.109375 268.765625 C 214.011719 268.640625 213.980469 268.476562 214.03125 268.328125 L 218.007812 256.46875 C 218.078125 256.257812 218.285156 256.128906 218.507812 256.15625 L 224.753906 256.910156 C 224.902344 256.929688 225.03125 257.015625 225.105469 257.144531 C 225.175781 257.277344 225.183594 257.433594 225.121094 257.566406 C 225.109375 257.597656 223.835938 260.328125 222.53125 263.015625 C 219.738281 268.769531 219.570312 268.730469 219.128906 268.644531 C 218.84375 268.609375 216.554688 268.765625 214.511719 268.941406 C 214.5 268.941406 214.488281 268.941406 214.472656 268.941406 " fill-opacity="1" fill-rule="nonzero"/><path fill="#99b9ff" d="M 215.382812 265.871094 C 215.382812 265.871094 221.363281 263.417969 222.46875 266.496094 C 223.875 270.40625 226.074219 276.375 226.074219 276.375 C 226.445312 277.414062 225.730469 278.523438 224.628906 278.613281 C 222.445312 278.789062 219.183594 278.929688 217.664062 278.394531 C 215.269531 277.554688 211.292969 269.972656 211.292969 269.972656 L 212.519531 263.519531 C 212.519531 263.519531 214.6875 263.210938 215.382812 265.871094 " fill-opacity="1" fill-rule="nonzero"/><path fill="#000000" d="M 211.78125 269.898438 C 212.929688 272.0625 216.039062 277.332031 217.820312 277.957031 C 218.917969 278.34375 221.328125 278.410156 224.59375 278.148438 C 224.972656 278.117188 225.308594 277.917969 225.515625 277.597656 C 225.71875 277.277344 225.765625 276.890625 225.636719 276.53125 C 225.617188 276.476562 223.421875 270.519531 222.03125 266.652344 C 221.867188 266.195312 221.5625 265.871094 221.105469 265.667969 C 219.53125 264.96875 216.566406 265.886719 215.558594 266.300781 C 215.4375 266.351562 215.296875 266.347656 215.175781 266.289062 C 215.054688 266.226562 214.96875 266.117188 214.933594 265.988281 C 214.496094 264.320312 213.441406 264.019531 212.90625 263.972656 Z M 221.113281 279.234375 C 219.691406 279.234375 218.363281 279.132812 217.511719 278.835938 C 215.015625 277.960938 211.296875 270.980469 210.878906 270.1875 C 210.832031 270.09375 210.816406 269.988281 210.835938 269.882812 L 212.058594 263.429688 C 212.097656 263.234375 212.257812 263.085938 212.453125 263.054688 C 213.277344 262.941406 214.9375 263.277344 215.679688 265.261719 C 216.804688 264.863281 219.664062 264.007812 221.480469 264.816406 C 222.175781 265.125 222.652344 265.636719 222.90625 266.335938 C 224.296875 270.203125 226.492188 276.15625 226.511719 276.214844 C 226.738281 276.851562 226.660156 277.535156 226.296875 278.101562 C 225.933594 278.667969 225.339844 279.019531 224.667969 279.074219 C 223.570312 279.164062 222.308594 279.234375 221.113281 279.234375 " fill-opacity="1" fill-rule="nonzero"/><path fill="#000000" d="M 224.542969 276.492188 L 218.402344 276.492188 C 218.144531 276.492188 217.9375 276.285156 217.9375 276.027344 C 217.9375 275.769531 218.144531 275.5625 218.402344 275.5625 L 224.542969 275.5625 C 224.800781 275.5625 225.007812 275.769531 225.007812 276.027344 C 225.007812 276.285156 224.800781 276.492188 224.542969 276.492188 " fill-opacity="1" fill-rule="nonzero"/><path fill="#ffffff" d="M 207.171875 259.53125 L 208.523438 271.460938 L 213.960938 269.972656 L 213.542969 259.222656 L 207.171875 259.53125 " fill-opacity="1" fill-rule="nonzero"/><path fill="#000000" d="M 207.691406 259.972656 L 208.925781 270.867188 L 213.480469 269.621094 L 213.09375 259.710938 Z M 208.523438 271.925781 C 208.433594 271.925781 208.339844 271.898438 208.265625 271.847656 C 208.152344 271.769531 208.078125 271.648438 208.0625 271.511719 L 206.710938 259.582031 C 206.695312 259.457031 206.734375 259.328125 206.820312 259.230469 C 206.902344 259.132812 207.023438 259.074219 207.152344 259.066406 L 213.519531 258.757812 C 213.644531 258.75 213.765625 258.792969 213.855469 258.878906 C 213.945312 258.960938 214.003906 259.078125 214.007812 259.203125 L 214.425781 269.953125 C 214.433594 270.167969 214.289062 270.363281 214.082031 270.421875 L 208.648438 271.910156 C 208.609375 271.921875 208.566406 271.925781 208.523438 271.925781 " fill-opacity="1" fill-rule="nonzero"/><path fill="#99b9ff" d="M 208.011719 280.25 L 216.613281 280.25 C 217.777344 280.25 218.667969 279.21875 218.5 278.070312 C 218.210938 276.125 217.277344 272.90625 214.472656 268.476562 C 214.167969 267.992188 213.632812 267.699219 213.058594 267.699219 L 210.445312 267.699219 C 209.992188 267.699219 209.617188 268.039062 209.570312 268.488281 L 209.371094 270.375 L 208.234375 268.871094 C 208.234375 268.871094 206.199219 273.148438 206.105469 278.308594 C 206.085938 279.375 206.949219 280.25 208.011719 280.25 " fill-opacity="1" fill-rule="nonzero"/><path fill="#000000" d="M 208.347656 269.792969 C 207.785156 271.210938 206.640625 274.542969 206.570312 278.316406 C 206.5625 278.707031 206.707031 279.074219 206.984375 279.351562 C 207.257812 279.632812 207.625 279.785156 208.011719 279.785156 L 216.613281 279.785156 C 217.035156 279.785156 217.429688 279.601562 217.707031 279.285156 C 217.980469 278.96875 218.097656 278.550781 218.039062 278.136719 C 217.761719 276.257812 216.847656 273.101562 214.078125 268.726562 C 213.859375 268.378906 213.46875 268.164062 213.058594 268.164062 L 210.441406 268.164062 C 210.230469 268.164062 210.054688 268.324219 210.03125 268.535156 L 209.832031 270.421875 C 209.8125 270.613281 209.679688 270.769531 209.496094 270.824219 C 209.3125 270.875 209.113281 270.808594 209 270.65625 Z M 216.613281 280.714844 L 208.011719 280.714844 C 207.371094 280.714844 206.769531 280.464844 206.320312 280.003906 C 205.871094 279.546875 205.628906 278.941406 205.636719 278.300781 C 205.734375 273.101562 207.726562 268.851562 207.8125 268.671875 C 207.882812 268.523438 208.023438 268.425781 208.183594 268.410156 C 208.347656 268.390625 208.503906 268.460938 208.601562 268.589844 L 209.03125 269.15625 L 209.105469 268.4375 C 209.175781 267.75 209.75 267.234375 210.441406 267.234375 L 213.058594 267.234375 C 213.796875 267.234375 214.472656 267.605469 214.867188 268.226562 C 217.722656 272.738281 218.667969 276.03125 218.960938 278 C 219.0625 278.683594 218.859375 279.371094 218.410156 279.894531 C 217.957031 280.414062 217.304688 280.714844 216.613281 280.714844 " fill-opacity="1" fill-rule="nonzero"/><path fill="#000000" d="M 217.667969 278.660156 L 207.371094 278.660156 C 207.117188 278.660156 206.90625 278.453125 206.90625 278.195312 C 206.90625 277.9375 207.117188 277.730469 207.371094 277.730469 L 217.667969 277.730469 C 217.921875 277.730469 218.132812 277.9375 218.132812 278.195312 C 218.132812 278.453125 217.921875 278.660156 217.667969 278.660156 " fill-opacity="1" fill-rule="nonzero"/><path fill="#000000" d="M 227.585938 187.886719 C 227.359375 187.335938 226.90625 186.914062 226.335938 186.734375 C 223.191406 185.75 212.230469 183.152344 200.945312 190.386719 C 200.410156 190.726562 200.070312 191.300781 200.027344 191.929688 C 199.617188 197.664062 198.097656 227.636719 207.578125 263.121094 L 213.96875 262.664062 L 215.269531 201.992188 C 215.269531 201.992188 224.734375 224.234375 217.039062 259.632812 L 223.683594 260.859375 C 223.683594 260.859375 233.410156 248.078125 235.148438 228.546875 C 236.691406 211.269531 229.308594 192.082031 227.585938 187.886719 " fill-opacity="1" fill-rule="nonzero"/><path fill="#ffffff" d="M 209.207031 235.132812 C 209.203125 235.132812 209.195312 235.132812 209.1875 235.132812 C 203.09375 234.871094 202.410156 226.636719 202.40625 226.554688 C 202.386719 226.296875 202.574219 226.074219 202.832031 226.054688 C 203.085938 226.035156 203.3125 226.226562 203.332031 226.484375 C 203.335938 226.558594 203.960938 233.976562 209.226562 234.203125 C 209.484375 234.214844 209.683594 234.433594 209.671875 234.6875 C 209.664062 234.941406 209.453125 235.132812 209.207031 235.132812 " fill-opacity="1" fill-rule="nonzero"/><path fill="#ffffff" d="M 215.828125 208.019531 C 215.578125 208.019531 215.371094 207.820312 215.363281 207.566406 L 215.136719 199.976562 C 215.132812 199.820312 215.207031 199.671875 215.335938 199.582031 L 219.316406 196.785156 C 219.527344 196.636719 219.820312 196.6875 219.96875 196.898438 C 220.117188 197.105469 220.0625 197.398438 219.855469 197.546875 L 216.078125 200.199219 L 216.292969 207.539062 C 216.300781 207.796875 216.097656 208.011719 215.839844 208.019531 C 215.835938 208.019531 215.835938 208.019531 215.828125 208.019531 " fill-opacity="1" fill-rule="nonzero"/><path fill="#000000" d="M 207.214844 133.90625 C 204.785156 131.816406 204.234375 131.53125 203.523438 130.335938 C 202.949219 129.359375 201.660156 127.179688 202.53125 124.875 C 203.285156 122.882812 205.367188 121.679688 207.28125 121.578125 C 208.996094 121.484375 210.253906 122.296875 210.914062 122.726562 C 211.207031 122.914062 213.761719 124.621094 214.269531 127.40625 C 214.40625 128.160156 214.300781 128.507812 214.648438 128.984375 C 215.425781 130.050781 216.832031 129.503906 217.800781 130.390625 C 219.027344 131.503906 218.457031 133.871094 218.414062 134.054688 C 217.773438 136.582031 215.042969 138.253906 212.816406 138.023438 C 211.535156 137.890625 211.671875 137.734375 207.214844 133.90625 " fill-opacity="1" fill-rule="nonzero"/><path fill="#ffffff" d="M 213.910156 146.402344 C 212.738281 145.621094 212.054688 144.292969 212.085938 142.886719 L 212.21875 137.042969 C 212.257812 137.007812 212.296875 136.972656 212.335938 136.933594 C 212.335938 136.933594 214.675781 137.089844 215.019531 135.898438 C 215.359375 134.707031 213.703125 134.480469 213.703125 134.480469 C 213.703125 134.480469 215.265625 131.191406 211.222656 131.230469 C 210.136719 131.238281 209.75 129.441406 207.96875 129.039062 C 207.96875 129.039062 207.085938 128.960938 206.195312 131.269531 L 204.238281 134.164062 L 205.214844 134.703125 C 204.972656 135.800781 204.871094 137.015625 205.019531 138.300781 C 205.0625 138.671875 205.316406 138.984375 205.671875 139.097656 C 205.964844 139.195312 206.359375 139.292969 206.828125 139.347656 L 206.511719 143.257812 C 206.375 144.96875 205.476562 146.527344 204.070312 147.511719 C 202.714844 148.464844 201.460938 149.136719 201.460938 149.136719 C 201.460938 149.136719 208.667969 150.125 216.957031 148.234375 C 216.957031 148.234375 215.355469 147.359375 213.910156 146.402344 " fill-opacity="1" fill-rule="nonzero"/><path fill="#000000" d="M 202.945312 148.8125 C 205.269531 148.976562 210.171875 149.121094 215.664062 148.03125 C 215.085938 147.695312 214.351562 147.25 213.65625 146.789062 C 212.34375 145.921875 211.582031 144.457031 211.617188 142.875 L 211.753906 137.035156 C 211.753906 136.910156 211.808594 136.789062 211.902344 136.703125 L 212.015625 136.597656 C 212.109375 136.507812 212.234375 136.460938 212.367188 136.472656 C 213.011719 136.511719 214.394531 136.394531 214.570312 135.769531 C 214.632812 135.558594 214.582031 135.449219 214.539062 135.382812 C 214.355469 135.101562 213.8125 134.964844 213.636719 134.941406 C 213.492188 134.917969 213.363281 134.828125 213.296875 134.699219 C 213.226562 134.570312 213.21875 134.414062 213.285156 134.28125 C 213.289062 134.269531 213.808594 133.132812 213.34375 132.40625 C 212.953125 131.804688 211.980469 131.6875 211.230469 131.695312 C 211.222656 131.695312 211.21875 131.695312 211.214844 131.695312 C 210.503906 131.695312 210.042969 131.1875 209.597656 130.695312 C 209.15625 130.210938 208.699219 129.707031 207.941406 129.507812 C 207.808594 129.554688 207.25 129.832031 206.628906 131.441406 C 206.617188 131.472656 206.601562 131.503906 206.578125 131.53125 L 204.910156 134.003906 L 205.4375 134.292969 C 205.617188 134.390625 205.714844 134.597656 205.667969 134.800781 C 205.414062 135.964844 205.351562 137.125 205.480469 138.25 C 205.503906 138.4375 205.632812 138.597656 205.816406 138.65625 C 206.15625 138.765625 206.515625 138.84375 206.882812 138.886719 C 207.128906 138.914062 207.3125 139.136719 207.292969 139.386719 L 206.976562 143.296875 C 206.828125 145.148438 205.867188 146.820312 204.339844 147.894531 C 203.839844 148.246094 203.359375 148.554688 202.945312 148.8125 Z M 206.269531 149.855469 C 203.332031 149.855469 201.433594 149.605469 201.394531 149.601562 C 201.199219 149.574219 201.039062 149.417969 201 149.222656 C 200.964844 149.023438 201.0625 148.824219 201.238281 148.730469 C 201.253906 148.722656 202.484375 148.058594 203.804688 147.132812 C 205.101562 146.222656 205.921875 144.796875 206.050781 143.222656 L 206.328125 139.742188 C 206.058594 139.691406 205.789062 139.625 205.527344 139.542969 C 205 139.371094 204.617188 138.902344 204.554688 138.355469 C 204.429688 137.238281 204.472656 136.09375 204.691406 134.945312 L 204.015625 134.574219 C 203.898438 134.511719 203.816406 134.402344 203.785156 134.273438 C 203.753906 134.148438 203.777344 134.011719 203.851562 133.90625 L 205.777344 131.054688 C 206.742188 128.59375 207.804688 128.554688 208.007812 128.574219 C 208.027344 128.574219 208.050781 128.578125 208.070312 128.582031 C 209.164062 128.828125 209.785156 129.515625 210.289062 130.070312 C 210.675781 130.5 210.929688 130.761719 211.214844 130.761719 C 211.234375 130.761719 211.265625 130.761719 211.292969 130.761719 C 212.6875 130.761719 213.644531 131.148438 214.128906 131.90625 C 214.613281 132.667969 214.476562 133.589844 214.316406 134.15625 C 214.65625 134.277344 215.070312 134.492188 215.316406 134.875 C 215.535156 135.207031 215.585938 135.605469 215.464844 136.027344 C 215.117188 137.246094 213.449219 137.402344 212.675781 137.40625 L 212.550781 142.894531 C 212.519531 144.15625 213.125 145.324219 214.167969 146.011719 C 215.582031 146.949219 217.167969 147.816406 217.183594 147.824219 C 217.351562 147.917969 217.445312 148.105469 217.417969 148.296875 C 217.390625 148.488281 217.25 148.644531 217.0625 148.6875 C 212.980469 149.617188 209.132812 149.855469 206.269531 149.855469 " fill-opacity="1" fill-rule="nonzero"/><path fill="#ffffff" d="M 206.828125 139.351562 C 206.828125 139.351562 209.390625 139.4375 210.410156 138.042969 L 206.828125 139.351562 " fill-opacity="1" fill-rule="nonzero"/><path fill="#000000" d="M 206.929688 139.816406 C 206.867188 139.816406 206.824219 139.816406 206.8125 139.8125 C 206.554688 139.804688 206.355469 139.589844 206.363281 139.332031 C 206.371094 139.074219 206.59375 138.875 206.84375 138.882812 C 206.867188 138.882812 209.175781 138.945312 210.035156 137.769531 C 210.1875 137.5625 210.480469 137.515625 210.6875 137.667969 C 210.894531 137.816406 210.941406 138.109375 210.789062 138.316406 C 209.757812 139.726562 207.484375 139.816406 206.929688 139.816406 " fill-opacity="1" fill-rule="nonzero"/><path fill="#000000" d="M 259.402344 181.464844 L 234.859375 181.464844 L 253.054688 153.488281 C 253.621094 152.617188 254.613281 152.085938 255.675781 152.085938 L 275.597656 152.085938 C 276.863281 152.085938 277.628906 153.4375 276.957031 154.476562 L 259.402344 181.464844 " fill-opacity="1" fill-rule="nonzero"/><path fill="#5479f7" d="M 264.640625 161.894531 C 263.84375 163.121094 262.128906 164.113281 260.808594 164.113281 C 259.492188 164.113281 259.066406 163.121094 259.867188 161.894531 C 260.664062 160.667969 262.378906 159.675781 263.695312 159.675781 C 265.015625 159.675781 265.4375 160.667969 264.640625 161.894531 " fill-opacity="1" fill-rule="nonzero"/><path fill="#000000" d="M 256.953125 183.796875 L 216.089844 183.796875 C 214.691406 183.796875 213.554688 182.664062 213.554688 181.261719 L 259.492188 181.261719 C 259.492188 182.664062 258.355469 183.796875 256.953125 183.796875 " fill-opacity="1" fill-rule="nonzero"/><path fill="#ffffff" d="M 258.125 181.953125 L 237.046875 181.953125 C 236.789062 181.953125 236.582031 181.746094 236.582031 181.492188 C 236.582031 181.230469 236.789062 181.023438 237.046875 181.023438 L 258.125 181.023438 C 258.382812 181.023438 258.589844 181.230469 258.589844 181.492188 C 258.589844 181.746094 258.382812 181.953125 258.125 181.953125 " fill-opacity="1" fill-rule="nonzero"/><path fill="#ffffff" d="M 179.457031 110.382812 C 179.898438 123.882812 169.304688 135.183594 155.800781 135.621094 C 142.296875 136.058594 130.992188 125.472656 130.554688 111.96875 C 130.117188 98.472656 140.707031 87.171875 154.210938 86.734375 C 167.71875 86.296875 179.019531 96.882812 179.457031 110.382812 " fill-opacity="1" fill-rule="nonzero"/><path fill="#caddff" d="M 154.988281 132.429688 C 152.367188 132.429688 149.808594 131.957031 147.371094 131.019531 C 147.132812 130.925781 147.011719 130.65625 147.105469 130.414062 C 147.199219 130.175781 147.46875 130.058594 147.707031 130.148438 C 150.246094 131.125 152.921875 131.574219 155.667969 131.488281 C 157.992188 131.414062 160.257812 130.949219 162.40625 130.109375 C 162.648438 130.015625 162.914062 130.132812 163.007812 130.375 C 163.101562 130.613281 162.984375 130.882812 162.746094 130.976562 C 160.5 131.855469 158.128906 132.339844 155.695312 132.417969 C 155.460938 132.425781 155.222656 132.429688 154.988281 132.429688 " fill-opacity="1" fill-rule="nonzero"/><path fill="#caddff" d="M 133.617188 110.222656 C 133.601562 110.222656 133.589844 110.222656 133.578125 110.222656 C 133.320312 110.203125 133.128906 109.976562 133.152344 109.71875 C 133.34375 107.320312 133.945312 104.976562 134.9375 102.753906 C 135.230469 102.097656 135.558594 101.449219 135.914062 100.832031 C 136.042969 100.605469 136.328125 100.53125 136.550781 100.65625 C 136.773438 100.785156 136.851562 101.070312 136.722656 101.292969 C 136.382812 101.886719 136.066406 102.503906 135.785156 103.132812 C 134.835938 105.257812 134.265625 107.5 134.078125 109.796875 C 134.058594 110.039062 133.855469 110.222656 133.617188 110.222656 " fill-opacity="1" fill-rule="nonzero"/><path fill="#caddff" d="M 176.320312 108.347656 C 176.097656 108.347656 175.898438 108.1875 175.859375 107.964844 C 174.128906 98.035156 167.066406 94.09375 164.746094 92.796875 C 162.710938 91.664062 160.53125 90.890625 158.257812 90.503906 C 158.003906 90.460938 157.835938 90.21875 157.878906 89.964844 C 157.921875 89.710938 158.160156 89.542969 158.417969 89.585938 C 160.792969 89.992188 163.074219 90.800781 165.199219 91.984375 C 167.613281 93.335938 174.96875 97.441406 176.777344 107.800781 C 176.820312 108.054688 176.652344 108.296875 176.402344 108.339844 C 176.371094 108.347656 176.34375 108.347656 176.320312 108.347656 " fill-opacity="1" fill-rule="nonzero"/><path fill="#000000" d="M 131.277344 111.179688 C 131.277344 97.84375 141.988281 87.03125 155.207031 87.03125 C 168.421875 87.03125 179.136719 97.84375 179.136719 111.179688 C 179.136719 124.515625 168.421875 135.328125 155.207031 135.328125 C 141.988281 135.328125 131.277344 124.515625 131.277344 111.179688 Z M 127.640625 111.179688 C 127.640625 126.539062 139.984375 138.992188 155.207031 138.992188 C 170.429688 138.992188 182.769531 126.539062 182.769531 111.179688 C 182.769531 95.816406 170.429688 83.363281 155.207031 83.363281 C 139.984375 83.363281 127.640625 95.816406 127.640625 111.179688 " fill-opacity="1" fill-rule="nonzero"/><path fill="#000000" d="M 129.835938 146.085938 C 130.605469 146.65625 131.6875 146.488281 132.253906 145.710938 L 140.304688 134.625 L 137.511719 132.558594 L 129.460938 143.644531 C 128.898438 144.421875 129.0625 145.515625 129.835938 146.085938 " fill-opacity="1" fill-rule="nonzero"/><path fill="#5479f7" d="M 41.300781 257.742188 L 34.835938 262.867188 L 30.023438 257.039062 L 36.640625 252.101562 L 41.300781 257.742188 " fill-opacity="1" fill-rule="nonzero"/><path fill="#5479f7" d="M 77.882812 264.824219 L 77.644531 269.320312 L 70.128906 269.320312 L 70.605469 264.824219 L 77.882812 264.824219 " fill-opacity="1" fill-rule="nonzero"/><path fill="#ffffff" d="M 77.351562 269.160156 L 70.371094 269.160156 C 69.875 269.160156 69.429688 269.460938 69.242188 269.921875 C 68.625 271.441406 67.363281 274.992188 67.53125 278.359375 C 67.578125 279.277344 68.335938 279.996094 69.25 279.996094 L 89.730469 279.996094 C 90.671875 279.996094 91.386719 279.132812 91.199219 278.199219 C 90.972656 277.085938 90.191406 275.617188 87.949219 274.300781 C 84.3125 272.164062 79.742188 270.03125 78.300781 269.371094 C 78.003906 269.230469 77.679688 269.160156 77.351562 269.160156 " fill-opacity="1" fill-rule="nonzero"/><path fill="#000000" d="M 70.371094 269.625 C 70.0625 269.625 69.789062 269.8125 69.671875 270.097656 C 69.113281 271.472656 67.832031 275.023438 67.996094 278.335938 C 68.03125 279.007812 68.582031 279.535156 69.25 279.535156 L 89.730469 279.535156 C 90.039062 279.535156 90.332031 279.394531 90.527344 279.152344 C 90.726562 278.910156 90.804688 278.597656 90.742188 278.292969 C 90.46875 276.945312 89.421875 275.703125 87.710938 274.699219 C 84.074219 272.5625 79.441406 270.402344 78.109375 269.792969 C 77.867188 269.683594 77.613281 269.625 77.351562 269.625 Z M 89.730469 280.464844 L 69.25 280.464844 C 68.085938 280.464844 67.125 279.546875 67.066406 278.382812 C 66.890625 274.882812 68.226562 271.179688 68.8125 269.746094 C 69.070312 269.109375 69.683594 268.695312 70.371094 268.695312 L 77.351562 268.695312 C 77.75 268.695312 78.132812 268.78125 78.496094 268.945312 C 79.839844 269.5625 84.507812 271.738281 88.183594 273.898438 C 90.640625 275.339844 91.425781 276.984375 91.652344 278.105469 C 91.773438 278.6875 91.625 279.285156 91.25 279.742188 C 90.871094 280.203125 90.320312 280.464844 89.730469 280.464844 " fill-opacity="1" fill-rule="nonzero"/><path fill="#000000" d="M 78.957031 275.726562 C 78.871094 275.726562 78.78125 275.703125 78.703125 275.648438 C 78.488281 275.507812 78.429688 275.21875 78.570312 275.007812 L 81.355469 270.789062 C 81.496094 270.574219 81.785156 270.515625 82 270.660156 C 82.214844 270.800781 82.273438 271.089844 82.132812 271.304688 L 79.347656 275.519531 C 79.257812 275.65625 79.109375 275.726562 78.957031 275.726562 " fill-opacity="1" fill-rule="nonzero"/><path fill="#000000" d="M 81.652344 277.332031 C 81.5625 277.332031 81.476562 277.308594 81.398438 277.257812 C 81.183594 277.113281 81.121094 276.824219 81.265625 276.609375 L 84.050781 272.398438 C 84.191406 272.183594 84.480469 272.125 84.695312 272.265625 C 84.910156 272.40625 84.96875 272.695312 84.828125 272.910156 L 82.042969 277.125 C 81.953125 277.257812 81.804688 277.332031 81.652344 277.332031 " fill-opacity="1" fill-rule="nonzero"/><path fill="#ffffff" d="M 34.726562 263 L 30.402344 257.46875 C 30.097656 257.078125 29.585938 256.910156 29.113281 257.046875 C 27.546875 257.496094 24.003906 258.695312 21.488281 260.914062 C 20.800781 261.519531 20.710938 262.566406 21.277344 263.292969 L 33.960938 279.519531 C 34.542969 280.265625 35.660156 280.292969 36.269531 279.566406 C 36.996094 278.699219 37.65625 277.171875 37.289062 274.578125 C 36.699219 270.375 35.53125 265.429688 35.152344 263.882812 C 35.074219 263.558594 34.929688 263.257812 34.726562 263 " fill-opacity="1" fill-rule="nonzero"/><path fill="#000000" d="M 29.445312 257.464844 C 29.378906 257.464844 29.308594 257.472656 29.242188 257.496094 C 27.828125 257.902344 24.269531 259.082031 21.796875 261.265625 C 21.292969 261.707031 21.226562 262.472656 21.644531 263.007812 L 34.328125 279.230469 C 34.519531 279.480469 34.808594 279.625 35.121094 279.628906 C 35.417969 279.632812 35.714844 279.503906 35.914062 279.269531 C 36.789062 278.21875 37.109375 276.621094 36.828125 274.640625 C 36.238281 270.433594 35.050781 265.425781 34.699219 263.992188 C 34.636719 263.734375 34.523438 263.496094 34.359375 263.285156 L 30.035156 257.757812 C 29.890625 257.570312 29.671875 257.464844 29.445312 257.464844 Z M 35.140625 280.5625 C 35.128906 280.5625 35.117188 280.5625 35.105469 280.558594 C 34.511719 280.550781 33.960938 280.277344 33.59375 279.804688 L 20.910156 263.578125 C 20.191406 262.65625 20.308594 261.335938 21.179688 260.566406 C 23.796875 258.257812 27.507812 257.023438 28.984375 256.597656 C 29.644531 256.410156 30.34375 256.636719 30.769531 257.183594 L 35.09375 262.710938 C 35.335938 263.027344 35.511719 263.382812 35.605469 263.769531 C 35.957031 265.21875 37.15625 270.261719 37.75 274.511719 C 38.152344 277.347656 37.359375 278.988281 36.625 279.867188 C 36.253906 280.308594 35.714844 280.5625 35.140625 280.5625 " fill-opacity="1" fill-rule="nonzero"/><path fill="#000000" d="M 30.972656 268.515625 C 30.734375 268.515625 30.53125 268.332031 30.511719 268.089844 C 30.488281 267.832031 30.679688 267.609375 30.9375 267.585938 L 35.941406 267.183594 C 36.191406 267.164062 36.421875 267.351562 36.441406 267.609375 C 36.460938 267.867188 36.273438 268.089844 36.015625 268.109375 L 31.011719 268.515625 C 31 268.515625 30.988281 268.515625 30.972656 268.515625 " fill-opacity="1" fill-rule="nonzero"/><path fill="#000000" d="M 31.394531 271.644531 C 31.152344 271.644531 30.949219 271.460938 30.929688 271.21875 C 30.910156 270.960938 31.101562 270.738281 31.355469 270.714844 L 36.359375 270.3125 C 36.613281 270.292969 36.839844 270.484375 36.863281 270.738281 C 36.882812 270.996094 36.691406 271.21875 36.433594 271.242188 L 31.433594 271.644531 C 31.417969 271.644531 31.40625 271.644531 31.394531 271.644531 " fill-opacity="1" fill-rule="nonzero"/><path fill="#000000" d="M 61.3125 191.273438 C 61.3125 191.273438 58.910156 199.082031 58.117188 210.480469 C 57.320312 221.878906 40.339844 234.761719 34.453125 252.101562 L 40.707031 259.667969 C 40.707031 259.667969 59.585938 245.085938 63.207031 239.058594 C 67.035156 232.691406 71.640625 219.46875 71.640625 219.46875 L 68.347656 195.050781 L 67.769531 194.914062 C 66.273438 194.558594 64.863281 193.996094 63.488281 193.328125 C 62.570312 192.882812 61.8125 192.164062 61.3125 191.273438 " fill-opacity="1" fill-rule="nonzero"/><path fill="#000000" d="M 63.195312 193.335938 C 63.195312 193.335938 61.535156 203.65625 66.789062 212.085938 C 72.039062 220.515625 71.558594 229.183594 70.605469 233.519531 C 69.652344 237.855469 67.265625 250.859375 70.605469 264.824219 C 70.605469 264.824219 73.945312 266.273438 77.882812 264.824219 C 77.882812 264.824219 88.027344 241.707031 88.503906 227.496094 C 88.980469 213.289062 83.015625 194.023438 83.015625 194.023438 C 83.015625 194.023438 71.0625 197.597656 63.195312 193.335938 " fill-opacity="1" fill-rule="nonzero"/><path fill="#ffffff" d="M 127.109375 147.972656 C 126.777344 147.753906 126.554688 147.402344 126.496094 147.007812 C 126.292969 145.679688 126.015625 142.570312 127.476562 140.761719 C 129.367188 138.414062 132.613281 137.488281 132.992188 138.140625 C 133.371094 138.796875 128.558594 143 130.179688 145.460938 C 130.179688 145.460938 131.667969 145.925781 133.78125 144.171875 C 134.078125 143.925781 134.539062 144.089844 134.605469 144.46875 C 134.699219 144.996094 134.652344 145.796875 134.078125 146.878906 C 133.339844 148.261719 131.992188 149.214844 131.140625 149.710938 C 130.683594 149.976562 130.125 149.960938 129.683594 149.671875 L 127.109375 147.972656 " fill-opacity="1" fill-rule="nonzero"/><path fill="#000000" d="M 132.414062 138.390625 C 131.605469 138.390625 129.320312 139.214844 127.835938 141.054688 C 126.484375 142.730469 126.769531 145.730469 126.953125 146.9375 C 126.996094 147.203125 127.144531 147.4375 127.363281 147.582031 L 129.941406 149.285156 C 130.234375 149.476562 130.601562 149.488281 130.90625 149.308594 C 131.636719 148.882812 132.964844 147.972656 133.664062 146.660156 C 134.199219 145.660156 134.222656 144.960938 134.148438 144.550781 C 134.148438 144.542969 134.144531 144.53125 134.121094 144.523438 C 134.09375 144.515625 134.082031 144.523438 134.078125 144.527344 C 131.796875 146.425781 130.109375 145.925781 130.042969 145.902344 L 129.882812 145.851562 L 129.792969 145.714844 C 128.53125 143.804688 130.433594 141.222656 131.695312 139.511719 C 131.980469 139.125 132.316406 138.667969 132.46875 138.394531 C 132.453125 138.394531 132.433594 138.390625 132.414062 138.390625 Z M 130.445312 150.367188 C 130.089844 150.367188 129.738281 150.265625 129.425781 150.0625 L 126.851562 148.359375 C 126.410156 148.070312 126.113281 147.605469 126.035156 147.078125 C 125.78125 145.425781 125.585938 142.363281 127.113281 140.46875 C 128.78125 138.398438 131.398438 137.386719 132.582031 137.476562 C 133.070312 137.515625 133.296875 137.734375 133.398438 137.910156 C 133.675781 138.390625 133.265625 138.949219 132.445312 140.0625 C 131.382812 141.507812 129.792969 143.664062 130.476562 145.039062 C 130.871094 145.085938 131.980469 145.0625 133.484375 143.8125 C 133.75 143.589844 134.109375 143.527344 134.441406 143.648438 C 134.769531 143.769531 135.003906 144.046875 135.066406 144.386719 C 135.210938 145.195312 135.015625 146.109375 134.488281 147.097656 C 133.71875 148.535156 132.371094 149.53125 131.375 150.113281 C 131.085938 150.285156 130.761719 150.367188 130.445312 150.367188 " fill-opacity="1" fill-rule="nonzero"/><path fill="#ffffff" d="M 51.597656 184.910156 C 51.597656 184.910156 43.363281 184.148438 41.304688 185.324219 C 39.246094 186.5 39.453125 187.953125 40.34375 188.578125 C 41.039062 189.0625 45.367188 188.753906 47.273438 188.589844 C 47.421875 188.578125 47.476562 188.785156 47.335938 188.847656 C 46.242188 189.328125 44.476562 190.230469 44.667969 191 C 44.941406 192.109375 51.871094 189.894531 51.871094 189.894531 L 51.597656 184.910156 " fill-opacity="1" fill-rule="nonzero"/><path fill="#000000" d="M 45.132812 190.820312 C 45.820312 191.027344 48.773438 190.371094 51.386719 189.558594 L 51.152344 185.335938 C 48.648438 185.128906 43.035156 184.871094 41.535156 185.726562 C 40.679688 186.21875 40.191406 186.792969 40.167969 187.34375 C 40.152344 187.679688 40.3125 187.988281 40.613281 188.195312 C 40.871094 188.355469 42.558594 188.523438 47.230469 188.125 C 47.523438 188.101562 47.792969 188.289062 47.863281 188.574219 C 47.9375 188.863281 47.792969 189.15625 47.523438 189.273438 C 45.730469 190.058594 45.222656 190.613281 45.132812 190.820312 Z M 45.535156 191.765625 C 45.132812 191.765625 44.808594 191.714844 44.601562 191.597656 C 44.347656 191.457031 44.25 191.253906 44.214844 191.113281 C 44.0625 190.488281 44.53125 189.851562 45.644531 189.179688 C 40.859375 189.503906 40.28125 189.101562 40.078125 188.957031 C 39.523438 188.570312 39.207031 187.953125 39.238281 187.304688 C 39.261719 186.792969 39.527344 185.800781 41.074219 184.917969 C 43.199219 183.703125 50.78125 184.367188 51.640625 184.445312 L 52.039062 184.480469 L 52.355469 190.226562 L 52.011719 190.335938 C 50.828125 190.714844 47.378906 191.765625 45.535156 191.765625 " fill-opacity="1" fill-rule="nonzero"/><path fill="#5479f7" d="M 69.414062 177.726562 C 72.117188 168.09375 76.414062 155.25 83.890625 153.324219 L 83.769531 147.484375 C 83.769531 147.484375 97.121094 149.960938 98.175781 157.546875 C 104.046875 159.097656 110.367188 158.601562 116.015625 155.859375 C 119.386719 154.222656 122.859375 150.527344 126.210938 146.820312 L 131.761719 150.433594 C 131.761719 150.433594 120.164062 178.851562 94.074219 170.984375 C 94.074219 170.984375 86.078125 176.984375 87.191406 191.917969 C 87.191406 191.917969 76.632812 200.523438 62.132812 192.699219 C 62.132812 192.699219 66.707031 187.359375 69.414062 177.726562 " fill-opacity="1" fill-rule="nonzero"/><path fill="#5479f7" d="M 50.320312 183.789062 L 50.917969 191.132812 C 50.917969 191.132812 71.320312 203.253906 86.914062 166.808594 L 73.550781 165.445312 C 73.550781 165.445312 68.933594 179.734375 50.320312 183.789062 " fill-opacity="1" fill-rule="nonzero"/><path fill="#000000" d="M 62.347656 193.628906 C 62.136719 193.628906 61.945312 193.484375 61.894531 193.269531 C 61.835938 193.023438 61.992188 192.769531 62.242188 192.710938 C 73.980469 189.921875 78.609375 183.664062 82.324219 178.632812 C 82.476562 178.425781 82.769531 178.382812 82.976562 178.535156 C 83.179688 178.6875 83.226562 178.980469 83.074219 179.1875 C 79.265625 184.339844 74.527344 190.75 62.457031 193.617188 C 62.421875 193.625 62.382812 193.628906 62.347656 193.628906 " fill-opacity="1" fill-rule="nonzero"/><path fill="#000000" d="M 89.550781 162.464844 C 89.542969 162.464844 89.539062 162.464844 89.53125 162.464844 C 89.273438 162.453125 89.074219 162.238281 89.085938 161.980469 C 89.355469 155.3125 86.246094 150.621094 86.214844 150.574219 C 86.070312 150.359375 86.128906 150.070312 86.339844 149.925781 C 86.554688 149.78125 86.84375 149.839844 86.984375 150.050781 C 87.121094 150.25 90.296875 155.03125 90.015625 162.019531 C 90.003906 162.269531 89.800781 162.464844 89.550781 162.464844 " fill-opacity="1" fill-rule="nonzero"/><path fill="#000000" d="M 94.472656 170.96875 C 94.34375 170.96875 94.214844 170.914062 94.125 170.8125 C 93.953125 170.621094 93.96875 170.328125 94.160156 170.15625 C 97.476562 167.1875 97.386719 163.972656 97.386719 163.941406 C 97.375 163.683594 97.574219 163.464844 97.832031 163.457031 C 98.070312 163.445312 98.304688 163.640625 98.316406 163.898438 C 98.324219 164.046875 98.445312 167.566406 94.78125 170.847656 C 94.691406 170.929688 94.582031 170.96875 94.472656 170.96875 " fill-opacity="1" fill-rule="nonzero"/><path fill="#ffffff" d="M 100.285156 141.210938 C 100.285156 141.210938 103.917969 140.460938 103.5625 142.789062 C 103.203125 145.113281 103.074219 150.59375 101.214844 151.261719 C 99.351562 151.933594 97.3125 149.296875 96.03125 150.46875 C 94.75 151.640625 93.863281 153.398438 93.230469 155.566406 C 92.847656 155.703125 92.039062 155.929688 91.085938 155.699219 C 89.167969 155.230469 88.421875 153.332031 88.351562 153.140625 C 88.824219 152.640625 89.316406 152.035156 89.808594 151.332031 C 90.578125 150.230469 91.421875 148.746094 91.730469 147.195312 L 100.285156 141.210938 " fill-opacity="1" fill-rule="nonzero"/><path fill="#000000" d="M 88.898438 153.234375 C 89.152344 153.765625 89.847656 154.917969 91.195312 155.246094 C 91.84375 155.402344 92.425781 155.324219 92.855469 155.199219 C 93.550781 152.910156 94.488281 151.25 95.71875 150.125 C 96.609375 149.308594 97.71875 149.835938 98.695312 150.300781 C 99.503906 150.6875 100.339844 151.085938 101.054688 150.824219 C 102.265625 150.386719 102.660156 146.675781 102.894531 144.457031 C 102.960938 143.808594 103.027344 143.195312 103.101562 142.714844 C 103.175781 142.238281 103.027344 142.039062 102.910156 141.925781 C 102.390625 141.429688 101.027344 141.550781 100.46875 141.648438 L 92.148438 147.472656 C 91.855469 148.769531 91.199219 150.15625 90.191406 151.597656 C 89.765625 152.207031 89.332031 152.753906 88.898438 153.234375 Z M 91.925781 156.265625 C 91.628906 156.265625 91.308594 156.230469 90.976562 156.152344 C 88.835938 155.628906 88.003906 153.539062 87.914062 153.300781 L 87.8125 153.027344 L 88.011719 152.816406 C 88.484375 152.324219 88.957031 151.734375 89.429688 151.0625 C 90.105469 150.097656 90.972656 148.628906 91.273438 147.105469 L 91.308594 146.921875 L 100.097656 140.773438 L 100.191406 140.753906 C 100.429688 140.703125 102.554688 140.300781 103.550781 141.253906 C 103.835938 141.523438 104.148438 142.019531 104.019531 142.859375 C 103.949219 143.3125 103.886719 143.917969 103.820312 144.554688 C 103.515625 147.457031 103.132812 151.066406 101.371094 151.699219 C 100.289062 152.09375 99.230469 151.585938 98.296875 151.140625 C 97.355469 150.691406 96.753906 150.4375 96.347656 150.8125 C 95.203125 151.855469 94.332031 153.453125 93.679688 155.699219 L 93.613281 155.925781 L 93.390625 156.007812 C 93.019531 156.136719 92.511719 156.265625 91.925781 156.265625 " fill-opacity="1" fill-rule="nonzero"/><path fill="#000000" d="M 100 147.449219 C 99.945312 147.449219 99.894531 147.4375 99.839844 147.417969 C 98.5 146.929688 98.039062 145.28125 98.179688 143.859375 C 98.308594 142.570312 98.886719 141.660156 99.652344 141.542969 C 101.027344 141.332031 101.753906 142.960938 101.964844 143.953125 C 102.019531 144.207031 101.859375 144.453125 101.609375 144.507812 C 101.355469 144.558594 101.109375 144.398438 101.054688 144.148438 C 101.050781 144.125 100.625 142.339844 99.792969 142.464844 C 99.527344 142.503906 99.191406 143.085938 99.105469 143.949219 C 99.007812 144.980469 99.292969 146.230469 100.160156 146.542969 C 100.398438 146.632812 100.523438 146.898438 100.4375 147.140625 C 100.367188 147.328125 100.191406 147.449219 100 147.449219 " fill-opacity="1" fill-rule="nonzero"/><path fill="#000000" d="M 101.152344 143.046875 C 101.152344 143.046875 104.882812 143.742188 104.761719 140.046875 C 104.644531 136.355469 102.027344 132.730469 95.027344 134.175781 C 95.027344 134.175781 93.4375 129.320312 89.378906 130.722656 C 85.324219 132.128906 86.636719 138.511719 90.691406 139.074219 C 90.691406 139.074219 87.300781 145.3125 91.613281 147.59375 C 92.703125 148.167969 93.972656 148.269531 95.175781 148.007812 C 96.449219 147.730469 98.101562 147.09375 98.765625 145.65625 C 98.765625 145.65625 98.183594 142.6875 99.320312 142.082031 C 100.453125 141.480469 101.152344 143.046875 101.152344 143.046875 " fill-opacity="1" fill-rule="nonzero"/><path fill="#000000" d="M 162.898438 107.859375 C 164.089844 107.550781 165.289062 107.578125 166.515625 108.230469 C 167.488281 109.113281 167.140625 110.085938 166.367188 110.015625 C 165.144531 109.128906 163.953125 109.046875 162.785156 109.527344 L 162.898438 107.859375 " fill-opacity="1" fill-rule="nonzero"/><path fill="#000000" d="M 162.75 116.539062 C 163.941406 116.230469 165.144531 116.257812 166.367188 116.910156 C 167.34375 117.792969 166.992188 118.769531 166.21875 118.699219 C 164.996094 117.8125 163.804688 117.726562 162.640625 118.207031 L 162.75 116.539062 " fill-opacity="1" fill-rule="nonzero"/><path fill="#000000" d="M 149.882812 105.28125 C 148.941406 104.492188 147.84375 104 146.460938 104.0625 C 145.199219 104.4375 145.09375 105.46875 145.824219 105.738281 C 147.308594 105.464844 148.417969 105.898438 149.265625 106.832031 L 149.882812 105.28125 " fill-opacity="1" fill-rule="nonzero"/><path fill="#000000" d="M 146.28125 113.183594 C 145.339844 112.390625 144.242188 111.898438 142.855469 111.960938 C 141.59375 112.339844 141.492188 113.371094 142.222656 113.636719 C 143.707031 113.363281 144.816406 113.800781 145.664062 114.734375 L 146.28125 113.183594 " fill-opacity="1" fill-rule="nonzero"/><path fill="#5479f7" d="M 163.191406 114.464844 C 161.402344 122.382812 156.328125 127.980469 151.863281 126.972656 C 147.394531 125.964844 145.226562 118.726562 147.015625 110.808594 C 148.808594 102.890625 153.675781 99.96875 158.140625 100.976562 C 162.605469 101.988281 164.980469 106.546875 163.191406 114.464844 " fill-opacity="1" fill-rule="nonzero"/><path fill="#000000" d="M 163.191406 114.464844 C 161.402344 122.382812 156.328125 127.980469 151.863281 126.972656 C 147.394531 125.964844 145.226562 118.726562 147.015625 110.808594 C 148.808594 102.890625 153.675781 99.96875 158.140625 100.976562 C 162.605469 101.988281 164.980469 106.546875 163.191406 114.464844 " fill-opacity="1" fill-rule="nonzero"/><path fill="#99b9ff" d="M 150.011719 104.449219 C 152.738281 103.464844 155.492188 103.296875 158.285156 104.207031 C 155.292969 112.101562 153.679688 122.863281 148.527344 126.261719 C 148.1875 126.488281 147.722656 126.308594 147.640625 125.902344 C 146.140625 118.320312 146.300781 111.050781 150.011719 104.449219 " fill-opacity="1" fill-rule="nonzero"/><path fill="#99b9ff" d="M 162.640625 106.964844 C 160.519531 104.996094 158.046875 103.765625 155.121094 103.511719 C 154.789062 111.945312 152.070312 122.484375 155.480469 127.621094 C 155.707031 127.964844 156.207031 127.980469 156.4375 127.640625 C 160.78125 121.246094 163.480469 114.492188 162.640625 106.964844 " fill-opacity="1" fill-rule="nonzero"/><path fill="#5479f7" d="M 150.164062 103.929688 C 153.023438 103.464844 155.761719 103.808594 158.335938 105.21875 C 153.941406 112.425781 150.371094 122.703125 144.683594 125.09375 C 144.304688 125.253906 143.882812 124.992188 143.878906 124.582031 C 143.800781 116.851562 145.296875 109.734375 150.164062 103.929688 " fill-opacity="1" fill-rule="nonzero"/><path fill="#5479f7" d="M 163.433594 106.894531 C 160.976562 105.359375 158.320312 104.613281 155.398438 104.910156 C 156.652344 113.257812 155.949219 124.117188 160.265625 128.527344 C 160.550781 128.820312 161.042969 128.742188 161.207031 128.367188 C 164.277344 121.273438 165.664062 114.132812 163.433594 106.894531 " fill-opacity="1" fill-rule="nonzero"/><path fill="#000000" d="M 163.65625 107.597656 C 163.136719 103.871094 161.097656 101.644531 158.140625 100.976562 C 155.117188 100.292969 151.914062 101.414062 149.601562 104.660156 C 153.808594 103.234375 160.730469 105.609375 163.65625 107.597656 " fill-opacity="1" fill-rule="nonzero"/><path fill="#000000" d="M 156.78125 101.367188 C 156.714844 101.367188 156.644531 101.351562 156.582031 101.324219 C 156.347656 101.210938 156.25 100.933594 156.359375 100.703125 C 156.925781 99.503906 157.222656 97.597656 156.605469 96.046875 C 156.257812 95.179688 155.679688 94.585938 154.886719 94.273438 C 154.003906 93.929688 152.929688 94.160156 152.386719 94.804688 C 152.132812 95.109375 152.03125 95.5625 152.140625 95.910156 C 152.214844 96.144531 152.378906 96.296875 152.628906 96.363281 C 152.875 96.429688 153.023438 96.6875 152.957031 96.933594 C 152.890625 97.179688 152.636719 97.328125 152.386719 97.261719 C 151.828125 97.113281 151.425781 96.730469 151.253906 96.1875 C 151.046875 95.539062 151.210938 94.761719 151.671875 94.210938 C 152.472656 93.253906 153.964844 92.914062 155.226562 93.40625 C 156.257812 93.808594 157.03125 94.605469 157.46875 95.703125 C 158.191406 97.511719 157.851562 99.714844 157.199219 101.101562 C 157.121094 101.269531 156.953125 101.367188 156.78125 101.367188 " fill-opacity="1" fill-rule="nonzero"/><path fill="#000000" d="M 159.257812 103.550781 C 159.222656 103.550781 159.1875 103.546875 159.152344 103.539062 C 158.902344 103.480469 158.746094 103.230469 158.804688 102.980469 C 159.175781 101.363281 159.667969 99.96875 160.359375 98.59375 C 160.832031 97.644531 162.277344 94.761719 165.074219 95.472656 C 166.023438 95.710938 166.660156 96.3125 166.867188 97.167969 C 167.09375 98.070312 166.773438 99.097656 166.070312 99.726562 C 165.4375 100.296875 164.59375 100.449219 163.757812 100.144531 C 163.515625 100.058594 163.390625 99.792969 163.476562 99.550781 C 163.566406 99.308594 163.835938 99.183594 164.074219 99.269531 C 164.730469 99.507812 165.183594 99.273438 165.449219 99.035156 C 165.894531 98.636719 166.105469 97.960938 165.964844 97.390625 C 165.839844 96.878906 165.449219 96.527344 164.84375 96.375 C 163.433594 96.015625 162.273438 96.851562 161.191406 99.011719 C 160.527344 100.335938 160.070312 101.625 159.710938 103.1875 C 159.664062 103.402344 159.46875 103.550781 159.257812 103.550781 " fill-opacity="1" fill-rule="nonzero"/><path fill="#ffffff" d="M 265.367188 133.476562 C 265.390625 141.75 258.699219 148.476562 250.425781 148.5 C 242.148438 148.523438 235.421875 141.839844 235.398438 133.566406 C 235.375 125.292969 242.0625 118.566406 250.339844 118.542969 C 258.613281 118.519531 265.34375 125.207031 265.367188 133.476562 " fill-opacity="1" fill-rule="nonzero"/><path fill="#000000" d="M 250.382812 119.007812 C 250.367188 119.007812 250.351562 119.007812 250.339844 119.007812 C 246.460938 119.023438 242.816406 120.539062 240.085938 123.289062 C 237.351562 126.039062 235.851562 129.6875 235.859375 133.566406 C 235.871094 137.441406 237.394531 141.082031 240.144531 143.8125 C 242.882812 146.535156 246.515625 148.035156 250.378906 148.035156 C 250.394531 148.035156 250.40625 148.035156 250.421875 148.035156 C 258.425781 148.011719 264.921875 141.484375 264.898438 133.480469 C 264.886719 129.605469 263.367188 125.964844 260.617188 123.230469 C 257.875 120.507812 254.242188 119.007812 250.382812 119.007812 Z M 250.378906 148.96875 C 246.269531 148.96875 242.402344 147.371094 239.488281 144.476562 C 236.5625 141.566406 234.941406 137.691406 234.929688 133.566406 C 234.917969 129.441406 236.511719 125.558594 239.421875 122.632812 C 242.332031 119.707031 246.210938 118.089844 250.335938 118.078125 C 250.351562 118.078125 250.367188 118.078125 250.382812 118.078125 C 254.492188 118.078125 258.355469 119.671875 261.273438 122.570312 C 264.199219 125.476562 265.816406 129.351562 265.828125 133.476562 C 265.855469 141.992188 258.945312 148.941406 250.421875 148.96875 C 250.410156 148.96875 250.394531 148.96875 250.378906 148.96875 " fill-opacity="1" fill-rule="nonzero"/><path fill="#5479f7" d="M 241.910156 133.488281 L 246.449219 135.199219 L 246.457031 137.066406 L 240.007812 134.21875 L 240.003906 132.734375 L 246.433594 129.851562 L 246.441406 131.722656 L 241.910156 133.488281 " fill-opacity="1" fill-rule="nonzero"/><path fill="#5479f7" d="M 249.03125 139.28125 L 247.5625 139.289062 L 251.933594 127.117188 L 253.402344 127.113281 L 249.03125 139.28125 " fill-opacity="1" fill-rule="nonzero"/><path fill="#5479f7" d="M 259.5 133.398438 L 254.738281 131.667969 L 254.738281 129.828125 L 261.390625 132.671875 L 261.394531 134.15625 L 254.757812 137.035156 L 254.753906 135.195312 L 259.5 133.398438 " fill-opacity="1" fill-rule="nonzero"/><path fill="#000000" d="M 143.261719 198.019531 C 143.492188 196.917969 144.003906 195.945312 145.03125 195.207031 C 146.152344 194.761719 146.808594 195.445312 146.4375 196.050781 C 145.214844 196.691406 144.664062 197.632812 144.585938 198.785156 L 143.261719 198.019531 " fill-opacity="1" fill-rule="nonzero"/><path fill="#000000" d="M 150.324219 201.65625 C 150.554688 200.554688 151.0625 199.582031 152.09375 198.84375 C 153.210938 198.398438 153.867188 199.082031 153.5 199.6875 C 152.277344 200.328125 151.722656 201.273438 151.644531 202.421875 L 150.324219 201.65625 " fill-opacity="1" fill-rule="nonzero"/><path fill="#000000" d="M 135.878906 207.640625 C 134.847656 208.09375 134 208.792969 133.492188 209.953125 C 133.289062 211.140625 134.09375 211.640625 134.609375 211.152344 C 134.984375 209.824219 135.792969 209.089844 136.902344 208.773438 L 135.878906 207.640625 " fill-opacity="1" fill-rule="nonzero"/><path fill="#000000" d="M 140.898438 213.792969 C 139.871094 214.242188 139.019531 214.945312 138.511719 216.105469 C 138.308594 217.292969 139.113281 217.792969 139.628906 217.304688 C 140.003906 215.976562 140.8125 215.242188 141.921875 214.925781 L 140.898438 213.792969 " fill-opacity="1" fill-rule="nonzero"/><path fill="#5479f7" d="M 148.796875 200.453125 C 154.566406 205.128906 157.105469 211.554688 154.46875 214.804688 C 151.832031 218.054688 145.019531 216.902344 139.25 212.230469 C 133.480469 207.554688 133.054688 202.382812 135.691406 199.132812 C 138.328125 195.878906 143.03125 195.78125 148.796875 200.453125 " fill-opacity="1" fill-rule="nonzero"/><path fill="#000000" d="M 148.796875 200.453125 C 154.566406 205.128906 157.105469 211.554688 154.46875 214.804688 C 151.832031 218.054688 145.019531 216.902344 139.25 212.230469 C 133.480469 207.554688 133.054688 202.382812 135.691406 199.132812 C 138.328125 195.878906 143.03125 195.78125 148.796875 200.453125 " fill-opacity="1" fill-rule="nonzero"/><path fill="#ffffff" d="M 135.246094 207.199219 C 135.546875 204.566406 136.523438 202.242188 138.402344 200.320312 C 143.664062 205.96875 151.835938 211.652344 152.535156 217.246094 C 152.582031 217.621094 152.246094 217.925781 151.882812 217.832031 C 145.058594 215.988281 139.160156 212.914062 135.246094 207.199219 " fill-opacity="1" fill-rule="nonzero"/><path fill="#ffffff" d="M 142.425781 197.867188 C 139.949219 198.808594 137.941406 200.335938 136.550781 202.632812 C 143.332031 206.320312 150.871094 212.816406 156.46875 212.101562 C 156.839844 212.054688 157.054688 211.652344 156.871094 211.328125 C 153.386719 205.175781 148.941406 200.230469 142.425781 197.867188 " fill-opacity="1" fill-rule="nonzero"/><path fill="#5479f7" d="M 134.882812 206.863281 C 135.660156 204.332031 137.050781 202.226562 139.25 200.6875 C 143.382812 207.207031 150.363281 214.296875 150.019531 219.925781 C 150 220.300781 149.609375 220.542969 149.273438 220.378906 C 142.902344 217.3125 137.671875 213.203125 134.882812 206.863281 " fill-opacity="1" fill-rule="nonzero"/><path fill="#5479f7" d="M 142.691406 197.191406 C 140.433594 198.582031 138.746094 200.457031 137.808594 202.96875 C 145.164062 205.328125 153.785156 210.296875 159.148438 208.550781 C 159.503906 208.433594 159.640625 208 159.398438 207.710938 C 154.824219 202.320312 149.53125 198.292969 142.691406 197.191406 " fill-opacity="1" fill-rule="nonzero"/><path fill="#000000" d="M 143.359375 197.289062 C 140.089844 196.207031 137.4375 196.976562 135.691406 199.132812 C 133.910156 201.332031 133.53125 204.410156 135.257812 207.621094 C 135.789062 203.59375 140.542969 198.882812 143.359375 197.289062 " fill-opacity="1" fill-rule="nonzero"/><path fill="#000000" d="M 129.214844 202.890625 C 129.132812 202.890625 129.054688 202.886719 128.96875 202.875 C 128.339844 202.777344 127.757812 202.320312 127.488281 201.707031 C 127.019531 200.648438 127.351562 199.265625 128.277344 198.421875 C 129.03125 197.734375 130.007812 197.417969 131.097656 197.503906 C 132.886719 197.648438 134.570312 198.824219 135.445312 199.925781 C 135.605469 200.125 135.570312 200.417969 135.371094 200.578125 C 135.167969 200.738281 134.875 200.703125 134.714844 200.503906 C 133.828125 199.386719 132.308594 198.535156 131.023438 198.433594 C 130.1875 198.367188 129.472656 198.59375 128.902344 199.113281 C 128.273438 199.683594 128.03125 200.640625 128.335938 201.332031 C 128.480469 201.648438 128.796875 201.90625 129.113281 201.953125 C 129.324219 201.984375 129.496094 201.921875 129.644531 201.75 C 129.816406 201.558594 130.109375 201.539062 130.304688 201.710938 C 130.496094 201.878906 130.515625 202.171875 130.34375 202.367188 C 130.042969 202.710938 129.648438 202.890625 129.214844 202.890625 " fill-opacity="1" fill-rule="nonzero"/><path fill="#000000" d="M 137.875 199.535156 C 137.769531 199.535156 137.667969 199.5 137.578125 199.429688 C 136.398438 198.46875 135.453125 197.496094 134.605469 196.371094 C 133.023438 194.28125 132.804688 192.539062 133.957031 191.191406 C 134.539062 190.511719 135.324219 190.222656 136.113281 190.394531 C 136.957031 190.582031 137.683594 191.273438 137.917969 192.113281 C 138.132812 192.878906 137.914062 193.644531 137.3125 194.21875 C 137.128906 194.398438 136.832031 194.390625 136.65625 194.207031 C 136.480469 194.019531 136.484375 193.726562 136.667969 193.546875 C 137.117188 193.121094 137.105469 192.667969 137.019531 192.367188 C 136.878906 191.851562 136.421875 191.417969 135.914062 191.304688 C 135.457031 191.203125 135.023438 191.375 134.664062 191.796875 C 133.8125 192.792969 134.027344 194.066406 135.347656 195.808594 C 136.164062 196.890625 137.03125 197.78125 138.167969 198.707031 C 138.367188 198.871094 138.398438 199.164062 138.234375 199.363281 C 138.144531 199.476562 138.007812 199.535156 137.875 199.535156 " fill-opacity="1" fill-rule="nonzero"/><path fill="#000000" d="M 32.742188 153.789062 C 32.492188 153.789062 32.242188 153.835938 32.003906 153.933594 C 31.507812 154.128906 31.113281 154.507812 30.902344 155 C 30.6875 155.492188 30.679688 156.039062 30.875 156.535156 C 31.070312 157.035156 31.449219 157.425781 31.941406 157.640625 C 32.433594 157.851562 32.980469 157.859375 33.476562 157.664062 C 33.976562 157.46875 34.367188 157.085938 34.582031 156.597656 C 34.792969 156.105469 34.804688 155.558594 34.605469 155.0625 C 34.410156 154.5625 34.03125 154.167969 33.539062 153.957031 C 33.285156 153.847656 33.015625 153.789062 32.742188 153.789062 Z M 32.738281 158.738281 C 32.34375 158.738281 31.945312 158.65625 31.570312 158.492188 C 30.851562 158.183594 30.296875 157.609375 30.007812 156.878906 C 29.722656 156.148438 29.734375 155.347656 30.046875 154.628906 C 30.359375 153.910156 30.933594 153.355469 31.664062 153.066406 C 32.390625 152.777344 33.191406 152.789062 33.910156 153.105469 C 34.628906 153.414062 35.183594 153.988281 35.472656 154.71875 C 35.761719 155.449219 35.75 156.246094 35.4375 156.964844 C 35.125 157.6875 34.550781 158.242188 33.820312 158.53125 C 33.46875 158.667969 33.105469 158.738281 32.738281 158.738281 " fill-opacity="1" fill-rule="nonzero"/><path fill="#000000" d="M 266.875 186.625 C 266.730469 186.625 266.589844 186.558594 266.496094 186.433594 C 266.347656 186.222656 266.394531 185.933594 266.601562 185.78125 L 267.8125 184.914062 C 268.019531 184.761719 268.308594 184.8125 268.460938 185.019531 C 268.609375 185.226562 268.5625 185.519531 268.355469 185.667969 L 267.148438 186.539062 C 267.0625 186.597656 266.96875 186.625 266.875 186.625 " fill-opacity="1" fill-rule="nonzero"/><path fill="#000000" d="M 262.644531 189.667969 C 262.5 189.667969 262.359375 189.601562 262.269531 189.476562 C 262.117188 189.265625 262.167969 188.976562 262.375 188.824219 L 263.582031 187.957031 C 263.792969 187.808594 264.082031 187.851562 264.234375 188.0625 C 264.382812 188.269531 264.335938 188.5625 264.125 188.710938 L 262.917969 189.582031 C 262.835938 189.640625 262.742188 189.667969 262.644531 189.667969 " fill-opacity="1" fill-rule="nonzero"/><path fill="#000000" d="M 264.277344 186.203125 C 264.132812 186.203125 263.992188 186.132812 263.902344 186.007812 L 263.03125 184.800781 C 262.878906 184.589844 262.929688 184.300781 263.136719 184.148438 C 263.347656 184 263.636719 184.046875 263.789062 184.257812 L 264.65625 185.464844 C 264.808594 185.671875 264.757812 185.964844 264.550781 186.113281 C 264.46875 186.171875 264.375 186.203125 264.277344 186.203125 " fill-opacity="1" fill-rule="nonzero"/><path fill="#000000" d="M 267.320312 190.429688 C 267.175781 190.429688 267.035156 190.363281 266.941406 190.238281 L 266.074219 189.03125 C 265.921875 188.820312 265.972656 188.53125 266.179688 188.378906 C 266.390625 188.230469 266.679688 188.277344 266.832031 188.488281 L 267.699219 189.695312 C 267.847656 189.902344 267.800781 190.195312 267.59375 190.34375 C 267.511719 190.402344 267.414062 190.429688 267.320312 190.429688 " fill-opacity="1" fill-rule="nonzero"/><path fill="#000000" d="M 194.261719 48.492188 C 194.164062 48.492188 194.066406 48.460938 193.980469 48.398438 C 193.855469 48.304688 181.410156 39.109375 158.300781 37.792969 C 158.046875 37.78125 157.847656 37.558594 157.863281 37.300781 C 157.878906 37.046875 158.101562 36.851562 158.355469 36.863281 C 181.765625 38.195312 194.417969 47.5625 194.542969 47.65625 C 194.75 47.8125 194.789062 48.101562 194.632812 48.308594 C 194.542969 48.429688 194.402344 48.492188 194.261719 48.492188 " fill-opacity="1" fill-rule="nonzero"/><path fill="#000000" d="M 202.574219 46.753906 C 202.464844 46.753906 202.351562 46.714844 202.261719 46.632812 C 202.21875 46.589844 197.699219 42.511719 188.695312 38.71875 C 180.378906 35.21875 166.425781 31.257812 147.171875 32.25 C 146.90625 32.265625 146.695312 32.066406 146.679688 31.808594 C 146.667969 31.550781 146.867188 31.335938 147.125 31.320312 C 166.578125 30.316406 180.691406 34.332031 189.105469 37.882812 C 198.242188 41.738281 202.707031 45.773438 202.890625 45.945312 C 203.082031 46.117188 203.09375 46.414062 202.921875 46.601562 C 202.828125 46.703125 202.703125 46.753906 202.574219 46.753906 " fill-opacity="1" fill-rule="nonzero"/><path fill="#000000" d="M 142.429688 34.6875 C 142.324219 34.6875 142.21875 34.648438 142.128906 34.574219 L 141.035156 33.644531 C 140.839844 33.480469 140.816406 33.183594 140.984375 32.988281 C 141.148438 32.792969 141.445312 32.769531 141.640625 32.9375 L 142.734375 33.867188 C 142.929688 34.03125 142.953125 34.328125 142.785156 34.523438 C 142.695312 34.628906 142.5625 34.6875 142.429688 34.6875 " fill-opacity="1" fill-rule="nonzero"/><path fill="#000000" d="M 138.601562 31.429688 C 138.496094 31.429688 138.386719 31.394531 138.300781 31.320312 L 137.207031 30.390625 C 137.011719 30.222656 136.988281 29.933594 137.152344 29.734375 C 137.320312 29.539062 137.613281 29.515625 137.808594 29.683594 L 138.902344 30.613281 C 139.101562 30.777344 139.125 31.070312 138.957031 31.265625 C 138.867188 31.375 138.734375 31.429688 138.601562 31.429688 " fill-opacity="1" fill-rule="nonzero"/><path fill="#000000" d="M 141.132812 31.230469 C 141.027344 31.230469 140.917969 31.191406 140.832031 31.121094 C 140.636719 30.949219 140.613281 30.660156 140.777344 30.460938 L 141.710938 29.371094 C 141.875 29.171875 142.171875 29.148438 142.367188 29.316406 C 142.5625 29.484375 142.585938 29.777344 142.417969 29.972656 L 141.488281 31.066406 C 141.394531 31.175781 141.265625 31.230469 141.132812 31.230469 " fill-opacity="1" fill-rule="nonzero"/><path fill="#000000" d="M 137.875 35.054688 C 137.769531 35.054688 137.660156 35.015625 137.574219 34.941406 C 137.378906 34.773438 137.355469 34.480469 137.523438 34.285156 L 138.453125 33.191406 C 138.621094 32.996094 138.914062 32.972656 139.109375 33.140625 C 139.304688 33.308594 139.328125 33.601562 139.160156 33.796875 L 138.230469 34.886719 C 138.140625 34.996094 138.007812 35.054688 137.875 35.054688 " fill-opacity="1" fill-rule="nonzero"/><path fill="#000000" d="M 31.53125 181.351562 C 31.386719 181.351562 31.246094 181.289062 31.15625 181.160156 C 31.003906 180.953125 31.050781 180.660156 31.261719 180.511719 L 32.46875 179.640625 C 32.679688 179.492188 32.96875 179.539062 33.121094 179.746094 C 33.269531 179.957031 33.222656 180.246094 33.011719 180.398438 L 31.804688 181.265625 C 31.722656 181.324219 31.628906 181.351562 31.53125 181.351562 " fill-opacity="1" fill-rule="nonzero"/><path fill="#000000" d="M 27.304688 184.398438 C 27.160156 184.398438 27.015625 184.332031 26.925781 184.203125 C 26.773438 183.996094 26.824219 183.703125 27.03125 183.554688 L 28.238281 182.683594 C 28.449219 182.535156 28.738281 182.582031 28.890625 182.789062 C 29.039062 183 28.992188 183.289062 28.785156 183.441406 L 27.574219 184.308594 C 27.492188 184.367188 27.398438 184.398438 27.304688 184.398438 " fill-opacity="1" fill-rule="nonzero"/><path fill="#000000" d="M 28.9375 180.929688 C 28.792969 180.929688 28.648438 180.863281 28.558594 180.738281 L 27.691406 179.527344 C 27.539062 179.320312 27.585938 179.027344 27.796875 178.878906 C 28.003906 178.730469 28.296875 178.773438 28.445312 178.984375 L 29.3125 180.191406 C 29.464844 180.402344 29.417969 180.691406 29.207031 180.84375 C 29.125 180.902344 29.03125 180.929688 28.9375 180.929688 " fill-opacity="1" fill-rule="nonzero"/><path fill="#000000" d="M 31.976562 185.160156 C 31.832031 185.160156 31.691406 185.09375 31.597656 184.96875 L 30.730469 183.757812 C 30.582031 183.550781 30.628906 183.257812 30.835938 183.109375 C 31.046875 182.957031 31.335938 183.007812 31.488281 183.214844 L 32.355469 184.421875 C 32.503906 184.632812 32.457031 184.921875 32.25 185.074219 C 32.167969 185.132812 32.070312 185.160156 31.976562 185.160156 " fill-opacity="1" fill-rule="nonzero"/><path fill="#000000" d="M 100.957031 253.078125 C 99.617188 253.078125 98.4375 254.050781 98.21875 255.414062 C 98.101562 256.144531 98.277344 256.875 98.710938 257.476562 C 99.144531 258.078125 99.785156 258.472656 100.519531 258.589844 C 101.25 258.707031 101.984375 258.535156 102.582031 258.097656 C 103.183594 257.664062 103.578125 257.023438 103.695312 256.292969 C 103.8125 255.5625 103.640625 254.828125 103.207031 254.226562 C 102.769531 253.628906 102.128906 253.230469 101.398438 253.113281 C 101.25 253.089844 101.101562 253.078125 100.957031 253.078125 Z M 100.964844 259.554688 C 100.769531 259.554688 100.570312 259.539062 100.371094 259.507812 C 99.394531 259.351562 98.535156 258.824219 97.957031 258.023438 C 97.375 257.222656 97.140625 256.242188 97.300781 255.265625 C 97.625 253.25 99.527344 251.871094 101.542969 252.195312 C 102.523438 252.351562 103.378906 252.878906 103.960938 253.683594 C 104.539062 254.484375 104.773438 255.460938 104.617188 256.4375 C 104.457031 257.417969 103.929688 258.273438 103.128906 258.851562 C 102.492188 259.316406 101.738281 259.554688 100.964844 259.554688 " fill-opacity="1" fill-rule="nonzero"/></svg>