<svg xmlns="http://www.w3.org/2000/svg" xmlns:xlink="http://www.w3.org/1999/xlink" width="410" zoomAndPan="magnify" viewBox="0 0 307.5 299.999988" height="400" preserveAspectRatio="xMidYMid meet" version="1.0"><defs><clipPath id="768c05c40e"><path d="M 0 0.242188 L 307 0.242188 L 307 299.753906 L 0 299.753906 Z M 0 0.242188 " clip-rule="nonzero"/></clipPath><clipPath id="9a907483b7"><path d="M 98 204 L 175 204 L 175 287.46875 L 98 287.46875 Z M 98 204 " clip-rule="nonzero"/></clipPath><clipPath id="fdc6ca6da3"><path d="M 27.152344 81 L 256 81 L 256 237 L 27.152344 237 Z M 27.152344 81 " clip-rule="nonzero"/></clipPath><clipPath id="314b6adc4f"><path d="M 107 204 L 184 204 L 184 287.46875 L 107 287.46875 Z M 107 204 " clip-rule="nonzero"/></clipPath><clipPath id="dc56f6e0b5"><path d="M 123 275 L 214 275 L 214 287.46875 L 123 287.46875 Z M 123 275 " clip-rule="nonzero"/></clipPath><clipPath id="d9c8ac8719"><path d="M 193 12.664062 L 207 12.664062 L 207 26 L 193 26 Z M 193 12.664062 " clip-rule="nonzero"/></clipPath><clipPath id="a9796371e6"><path d="M 258 48 L 279.492188 48 L 279.492188 64 L 258 64 Z M 258 48 " clip-rule="nonzero"/></clipPath></defs><g clip-path="url(#768c05c40e)"><path fill="#ffffff" d="M 0 0.242188 L 307 0.242188 L 307 299.757812 L 0 299.757812 Z M 0 0.242188 " fill-opacity="1" fill-rule="nonzero"/><path fill="#ffffff" d="M 0 0.242188 L 307 0.242188 L 307 299.757812 L 0 299.757812 Z M 0 0.242188 " fill-opacity="1" fill-rule="nonzero"/></g><g clip-path="url(#9a907483b7)"><path fill="#1b136a" d="M 161.375 287.335938 L 115.480469 287.335938 C 105.152344 287.335938 97.292969 278.054688 98.976562 267.847656 L 109.5 204.09375 L 174.1875 204.09375 Z M 161.375 287.335938 " fill-opacity="1" fill-rule="nonzero"/></g><g clip-path="url(#fdc6ca6da3)"><path fill="#1b136a" d="M 36.046875 81.144531 L 246.992188 81.144531 C 247.574219 81.144531 248.152344 81.203125 248.726562 81.316406 C 249.300781 81.429688 249.855469 81.597656 250.398438 81.824219 C 250.9375 82.046875 251.449219 82.320312 251.9375 82.648438 C 252.421875 82.972656 252.871094 83.34375 253.285156 83.757812 C 253.699219 84.171875 254.066406 84.621094 254.390625 85.105469 C 254.714844 85.59375 254.988281 86.109375 255.214844 86.648438 C 255.4375 87.191406 255.605469 87.746094 255.71875 88.320312 C 255.835938 88.894531 255.890625 89.476562 255.890625 90.0625 L 255.890625 227.269531 C 255.890625 227.855469 255.835938 228.4375 255.71875 229.011719 C 255.605469 229.585938 255.4375 230.144531 255.214844 230.683594 C 254.988281 231.226562 254.714844 231.738281 254.390625 232.226562 C 254.066406 232.710938 253.699219 233.164062 253.285156 233.578125 C 252.871094 233.992188 252.421875 234.359375 251.9375 234.6875 C 251.449219 235.011719 250.9375 235.285156 250.398438 235.507812 C 249.855469 235.734375 249.300781 235.902344 248.726562 236.015625 C 248.152344 236.132812 247.574219 236.1875 246.992188 236.1875 L 36.046875 236.1875 C 35.464844 236.1875 34.886719 236.132812 34.3125 236.015625 C 33.738281 235.902344 33.183594 235.734375 32.640625 235.507812 C 32.101562 235.285156 31.589844 235.011719 31.105469 234.6875 C 30.617188 234.359375 30.167969 233.992188 29.753906 233.578125 C 29.34375 233.164062 28.972656 232.710938 28.648438 232.226562 C 28.324219 231.738281 28.050781 231.226562 27.824219 230.683594 C 27.601562 230.144531 27.433594 229.585938 27.320312 229.011719 C 27.207031 228.4375 27.148438 227.855469 27.148438 227.269531 L 27.148438 90.0625 C 27.148438 89.476562 27.207031 88.894531 27.320312 88.320312 C 27.433594 87.746094 27.601562 87.191406 27.824219 86.648438 C 28.050781 86.109375 28.324219 85.59375 28.648438 85.105469 C 28.972656 84.621094 29.34375 84.171875 29.753906 83.757812 C 30.167969 83.34375 30.617188 82.972656 31.105469 82.648438 C 31.589844 82.320312 32.101562 82.046875 32.640625 81.824219 C 33.183594 81.597656 33.738281 81.429688 34.3125 81.316406 C 34.886719 81.203125 35.464844 81.144531 36.046875 81.144531 Z M 36.046875 81.144531 " fill-opacity="1" fill-rule="nonzero"/></g><path fill="#1b136a" d="M 29.421875 207.984375 L 258.164062 207.984375 L 258.164062 229.871094 C 258.164062 233.359375 255.339844 236.1875 251.859375 236.1875 L 37.191406 236.1875 C 32.902344 236.1875 29.421875 232.699219 29.421875 228.40625 Z M 29.421875 207.984375 " fill-opacity="1" fill-rule="nonzero"/><g clip-path="url(#314b6adc4f)"><path fill="#4a53e2" d="M 170.507812 287.335938 L 124.613281 287.335938 C 114.289062 287.335938 106.429688 278.054688 108.113281 267.847656 L 118.632812 204.09375 L 183.320312 204.09375 Z M 170.507812 287.335938 " fill-opacity="1" fill-rule="nonzero"/></g><path fill="#4a53e2" d="M 44.554688 81.144531 L 255.5 81.144531 C 256.082031 81.144531 256.660156 81.203125 257.234375 81.316406 C 257.808594 81.429688 258.363281 81.597656 258.90625 81.824219 C 259.445312 82.046875 259.957031 82.320312 260.441406 82.648438 C 260.929688 82.972656 261.378906 83.34375 261.792969 83.757812 C 262.203125 84.171875 262.574219 84.621094 262.898438 85.105469 C 263.222656 85.59375 263.496094 86.109375 263.722656 86.648438 C 263.945312 87.191406 264.113281 87.746094 264.226562 88.320312 C 264.339844 88.894531 264.398438 89.476562 264.398438 90.0625 L 264.398438 227.269531 C 264.398438 227.855469 264.339844 228.4375 264.226562 229.011719 C 264.113281 229.585938 263.945312 230.144531 263.722656 230.683594 C 263.496094 231.226562 263.222656 231.738281 262.898438 232.226562 C 262.574219 232.710938 262.203125 233.164062 261.792969 233.578125 C 261.378906 233.992188 260.929688 234.359375 260.441406 234.6875 C 259.957031 235.011719 259.445312 235.285156 258.90625 235.507812 C 258.363281 235.734375 257.808594 235.902344 257.234375 236.015625 C 256.660156 236.132812 256.082031 236.1875 255.5 236.1875 L 44.554688 236.1875 C 43.972656 236.1875 43.394531 236.132812 42.820312 236.015625 C 42.246094 235.902344 41.691406 235.734375 41.148438 235.507812 C 40.609375 235.285156 40.097656 235.011719 39.609375 234.6875 C 39.125 234.359375 38.675781 233.992188 38.261719 233.578125 C 37.847656 233.164062 37.480469 232.710938 37.15625 232.226562 C 36.832031 231.738281 36.558594 231.226562 36.332031 230.683594 C 36.109375 230.144531 35.941406 229.585938 35.828125 229.011719 C 35.710938 228.4375 35.65625 227.855469 35.65625 227.269531 L 35.65625 90.0625 C 35.65625 89.476562 35.710938 88.894531 35.828125 88.320312 C 35.941406 87.746094 36.109375 87.191406 36.332031 86.648438 C 36.558594 86.109375 36.832031 85.59375 37.15625 85.105469 C 37.480469 84.621094 37.847656 84.171875 38.261719 83.757812 C 38.675781 83.34375 39.125 82.972656 39.609375 82.648438 C 40.097656 82.320312 40.609375 82.046875 41.148438 81.824219 C 41.691406 81.597656 42.246094 81.429688 42.820312 81.316406 C 43.394531 81.203125 43.972656 81.144531 44.554688 81.144531 Z M 44.554688 81.144531 " fill-opacity="1" fill-rule="nonzero"/><g clip-path="url(#dc56f6e0b5)"><path fill="#4a53e2" d="M 128.605469 275.863281 L 208.144531 275.863281 C 208.476562 275.863281 208.804688 275.894531 209.132812 275.960938 C 209.460938 276.027344 209.777344 276.121094 210.085938 276.25 C 210.390625 276.378906 210.683594 276.535156 210.960938 276.71875 C 211.238281 276.90625 211.496094 277.117188 211.730469 277.351562 C 211.964844 277.585938 212.175781 277.84375 212.359375 278.121094 C 212.546875 278.398438 212.703125 278.691406 212.828125 279 C 212.957031 279.308594 213.054688 279.625 213.117188 279.953125 C 213.183594 280.28125 213.214844 280.609375 213.214844 280.945312 L 213.214844 282.253906 C 213.214844 282.589844 213.183594 282.917969 213.117188 283.246094 C 213.054688 283.574219 212.957031 283.890625 212.828125 284.199219 C 212.703125 284.507812 212.546875 284.800781 212.359375 285.078125 C 212.175781 285.355469 211.964844 285.613281 211.730469 285.847656 C 211.496094 286.085938 211.238281 286.296875 210.960938 286.480469 C 210.683594 286.667969 210.390625 286.824219 210.085938 286.949219 C 209.777344 287.078125 209.460938 287.175781 209.132812 287.238281 C 208.804688 287.304688 208.476562 287.335938 208.144531 287.335938 L 128.605469 287.335938 C 128.269531 287.335938 127.941406 287.304688 127.613281 287.238281 C 127.289062 287.175781 126.972656 287.078125 126.664062 286.949219 C 126.355469 286.824219 126.0625 286.667969 125.785156 286.480469 C 125.507812 286.296875 125.253906 286.085938 125.015625 285.847656 C 124.78125 285.613281 124.570312 285.355469 124.386719 285.078125 C 124.203125 284.800781 124.046875 284.507812 123.917969 284.199219 C 123.789062 283.890625 123.695312 283.574219 123.628906 283.246094 C 123.5625 282.917969 123.53125 282.589844 123.53125 282.253906 L 123.53125 280.945312 C 123.53125 280.609375 123.5625 280.28125 123.628906 279.953125 C 123.695312 279.625 123.789062 279.308594 123.917969 279 C 124.046875 278.691406 124.203125 278.398438 124.386719 278.121094 C 124.570312 277.84375 124.78125 277.585938 125.015625 277.351562 C 125.253906 277.117188 125.507812 276.90625 125.785156 276.71875 C 126.0625 276.535156 126.355469 276.378906 126.664062 276.25 C 126.972656 276.121094 127.289062 276.027344 127.613281 275.960938 C 127.941406 275.894531 128.269531 275.863281 128.605469 275.863281 Z M 128.605469 275.863281 " fill-opacity="1" fill-rule="nonzero"/></g><path fill="#e5e5ff" d="M 46.390625 84.160156 L 253.664062 84.160156 C 254.078125 84.160156 254.488281 84.199219 254.890625 84.28125 C 255.296875 84.363281 255.6875 84.480469 256.070312 84.640625 C 256.453125 84.796875 256.8125 84.992188 257.15625 85.222656 C 257.5 85.449219 257.816406 85.710938 258.109375 86.003906 C 258.402344 86.296875 258.660156 86.613281 258.890625 86.957031 C 259.121094 87.300781 259.3125 87.664062 259.472656 88.046875 C 259.628906 88.429688 259.75 88.824219 259.828125 89.226562 C 259.910156 89.632812 259.949219 90.042969 259.949219 90.457031 L 259.949219 226.875 C 259.949219 227.289062 259.910156 227.699219 259.828125 228.105469 C 259.75 228.511719 259.628906 228.902344 259.472656 229.285156 C 259.3125 229.667969 259.121094 230.03125 258.890625 230.375 C 258.660156 230.71875 258.402344 231.035156 258.109375 231.328125 C 257.816406 231.621094 257.5 231.882812 257.15625 232.113281 C 256.8125 232.339844 256.453125 232.535156 256.070312 232.695312 C 255.6875 232.851562 255.296875 232.972656 254.890625 233.050781 C 254.488281 233.132812 254.078125 233.171875 253.664062 233.171875 L 46.390625 233.171875 C 45.976562 233.171875 45.566406 233.132812 45.164062 233.050781 C 44.757812 232.972656 44.367188 232.851562 43.984375 232.695312 C 43.601562 232.535156 43.242188 232.339844 42.898438 232.113281 C 42.554688 231.882812 42.238281 231.621094 41.945312 231.328125 C 41.652344 231.035156 41.394531 230.71875 41.164062 230.375 C 40.933594 230.03125 40.742188 229.667969 40.582031 229.285156 C 40.425781 228.902344 40.304688 228.511719 40.226562 228.105469 C 40.144531 227.699219 40.105469 227.289062 40.105469 226.875 L 40.105469 90.457031 C 40.105469 90.042969 40.144531 89.632812 40.226562 89.226562 C 40.304688 88.824219 40.425781 88.429688 40.582031 88.046875 C 40.742188 87.664062 40.933594 87.300781 41.164062 86.957031 C 41.394531 86.613281 41.652344 86.296875 41.945312 86.003906 C 42.238281 85.710938 42.554688 85.449219 42.898438 85.222656 C 43.242188 84.992188 43.601562 84.796875 43.984375 84.640625 C 44.367188 84.480469 44.757812 84.363281 45.164062 84.28125 C 45.566406 84.199219 45.976562 84.160156 46.390625 84.160156 Z M 46.390625 84.160156 " fill-opacity="1" fill-rule="nonzero"/><path fill="#4a53e2" d="M 35.65625 207.984375 L 264.398438 207.984375 L 264.398438 229.871094 C 264.398438 233.359375 261.574219 236.1875 258.09375 236.1875 L 43.425781 236.1875 C 39.136719 236.1875 35.65625 232.699219 35.65625 228.40625 Z M 35.65625 207.984375 " fill-opacity="1" fill-rule="nonzero"/><path fill="#e5e5ff" d="M 162.289062 222.085938 C 162.289062 222.769531 162.222656 223.445312 162.089844 224.117188 C 161.957031 224.785156 161.761719 225.4375 161.5 226.066406 C 161.238281 226.699219 160.917969 227.300781 160.539062 227.867188 C 160.160156 228.433594 159.730469 228.960938 159.25 229.445312 C 158.765625 229.925781 158.242188 230.359375 157.675781 230.738281 C 157.109375 231.117188 156.507812 231.4375 155.878906 231.699219 C 155.25 231.960938 154.601562 232.160156 153.929688 232.292969 C 153.261719 232.425781 152.585938 232.492188 151.90625 232.492188 C 151.222656 232.492188 150.546875 232.425781 149.878906 232.292969 C 149.210938 232.160156 148.5625 231.960938 147.929688 231.699219 C 147.300781 231.4375 146.703125 231.117188 146.136719 230.738281 C 145.570312 230.359375 145.042969 229.925781 144.5625 229.445312 C 144.078125 228.960938 143.648438 228.433594 143.269531 227.867188 C 142.890625 227.300781 142.570312 226.699219 142.308594 226.066406 C 142.050781 225.4375 141.851562 224.785156 141.71875 224.117188 C 141.585938 223.445312 141.519531 222.769531 141.519531 222.085938 C 141.519531 221.402344 141.585938 220.726562 141.71875 220.054688 C 141.851562 219.386719 142.050781 218.734375 142.308594 218.105469 C 142.570312 217.472656 142.890625 216.875 143.269531 216.304688 C 143.648438 215.738281 144.078125 215.210938 144.5625 214.726562 C 145.042969 214.246094 145.570312 213.8125 146.136719 213.433594 C 146.703125 213.054688 147.300781 212.734375 147.929688 212.472656 C 148.5625 212.210938 149.210938 212.015625 149.878906 211.878906 C 150.546875 211.746094 151.222656 211.679688 151.90625 211.679688 C 152.585938 211.679688 153.261719 211.746094 153.929688 211.878906 C 154.601562 212.015625 155.25 212.210938 155.878906 212.472656 C 156.507812 212.734375 157.109375 213.054688 157.675781 213.433594 C 158.242188 213.8125 158.765625 214.246094 159.25 214.726562 C 159.730469 215.210938 160.160156 215.738281 160.539062 216.304688 C 160.917969 216.875 161.238281 217.472656 161.5 218.105469 C 161.761719 218.734375 161.957031 219.386719 162.089844 220.054688 C 162.222656 220.726562 162.289062 221.402344 162.289062 222.085938 Z M 162.289062 222.085938 " fill-opacity="1" fill-rule="nonzero"/><path fill="#1b136a" d="M 173.882812 236.84375 C 173.050781 236.660156 173.847656 236.710938 153.4375 236.894531 C 146.675781 236.957031 127.300781 237.113281 121.097656 237.269531 C 120.535156 237.285156 120.53125 238.140625 121.097656 238.144531 C 133.199219 238.230469 171.058594 237.785156 170.996094 237.785156 C 171.957031 237.777344 172.945312 237.851562 173.882812 237.625 C 174.265625 237.535156 174.273438 236.933594 173.882812 236.84375 Z M 173.882812 236.84375 " fill-opacity="1" fill-rule="nonzero"/><path fill="#1b136a" d="M 170.648438 274.542969 C 169.089844 274.367188 168.828125 274.445312 160.242188 274.398438 L 117.589844 274.3125 C 116.703125 274.3125 116.652344 275.691406 117.542969 275.691406 C 120.832031 275.691406 168.367188 275.726562 170.738281 275.460938 C 171.289062 275.398438 171.128906 274.601562 170.648438 274.542969 Z M 170.648438 274.542969 " fill-opacity="1" fill-rule="nonzero"/><path fill="#ffaa00" d="M 46.355469 105.15625 L 135.734375 105.15625 L 135.734375 162.835938 L 46.355469 162.835938 Z M 46.355469 105.15625 " fill-opacity="1" fill-rule="nonzero"/><path fill="#ffaa00" d="M 134.355469 176.832031 L 47.734375 176.832031 C 46.972656 176.832031 46.355469 176.214844 46.355469 175.449219 C 46.355469 174.5625 47.019531 174.007812 47.734375 174.007812 L 134.355469 174.007812 C 135.117188 174.007812 135.734375 174.625 135.734375 175.390625 C 135.734375 176.277344 135.070312 176.832031 134.355469 176.832031 Z M 134.355469 176.832031 " fill-opacity="1" fill-rule="nonzero"/><path fill="#ffaa00" d="M 134.355469 186.332031 L 47.734375 186.332031 C 46.972656 186.332031 46.355469 185.710938 46.355469 184.949219 C 46.355469 184.0625 47.019531 183.507812 47.734375 183.507812 L 134.355469 183.507812 C 135.117188 183.507812 135.734375 184.125 135.734375 184.890625 C 135.734375 185.777344 135.070312 186.332031 134.355469 186.332031 Z M 134.355469 186.332031 " fill-opacity="1" fill-rule="nonzero"/><path fill="#ffaa00" d="M 134.355469 195.832031 L 47.734375 195.832031 C 46.972656 195.832031 46.355469 195.210938 46.355469 194.449219 C 46.355469 193.558594 47.019531 193.003906 47.734375 193.003906 L 134.355469 193.003906 C 135.117188 193.003906 135.734375 193.625 135.734375 194.386719 C 135.734375 195.277344 135.070312 195.832031 134.355469 195.832031 Z M 134.355469 195.832031 " fill-opacity="1" fill-rule="nonzero"/><path fill="#ff6a00" d="M 167.003906 135.339844 L 153.847656 135.339844 C 153.054688 135.339844 152.410156 134.691406 152.410156 133.894531 C 152.410156 133.101562 153.054688 132.453125 153.847656 132.453125 L 167.003906 132.453125 C 169.386719 132.453125 171.324219 130.515625 171.324219 128.128906 L 171.324219 100.816406 C 171.324219 100.019531 171.964844 99.375 172.761719 99.375 C 173.554688 99.375 174.199219 100.019531 174.199219 100.816406 L 174.199219 128.128906 C 174.199219 132.105469 170.972656 135.339844 167.003906 135.339844 Z M 167.003906 135.339844 " fill-opacity="1" fill-rule="nonzero"/><path fill="#ff6a00" d="M 248.601562 135.339844 L 235.445312 135.339844 C 231.480469 135.339844 228.25 132.105469 228.25 128.128906 L 228.25 100.816406 C 228.25 100.019531 228.894531 99.375 229.691406 99.375 C 230.484375 99.375 231.128906 100.019531 231.128906 100.816406 L 231.128906 128.128906 C 231.128906 130.515625 233.066406 132.453125 235.445312 132.453125 L 248.601562 132.453125 C 249.394531 132.453125 250.039062 133.101562 250.039062 133.894531 C 250.039062 134.691406 249.394531 135.339844 248.601562 135.339844 Z M 248.601562 135.339844 " fill-opacity="1" fill-rule="nonzero"/><path fill="#ff6a00" d="M 200.898438 158.386719 C 200.105469 158.386719 199.460938 157.742188 199.460938 156.945312 L 199.460938 105.566406 C 199.460938 104.773438 200.105469 104.125 200.898438 104.125 C 201.695312 104.125 202.339844 104.773438 202.339844 105.566406 L 202.339844 156.945312 C 202.339844 157.742188 201.695312 158.386719 200.898438 158.386719 Z M 200.898438 158.386719 " fill-opacity="1" fill-rule="nonzero"/><path fill="#ff6a00" d="M 158.34375 133.894531 C 158.34375 134.308594 158.300781 134.71875 158.222656 135.121094 C 158.140625 135.527344 158.023438 135.921875 157.863281 136.300781 C 157.707031 136.683594 157.511719 137.046875 157.285156 137.386719 C 157.054688 137.730469 156.796875 138.050781 156.503906 138.339844 C 156.210938 138.632812 155.894531 138.894531 155.554688 139.121094 C 155.210938 139.351562 154.847656 139.546875 154.46875 139.703125 C 154.089844 139.863281 153.695312 139.980469 153.292969 140.0625 C 152.886719 140.140625 152.480469 140.183594 152.066406 140.183594 C 151.65625 140.183594 151.246094 140.140625 150.84375 140.0625 C 150.4375 139.980469 150.046875 139.863281 149.667969 139.703125 C 149.285156 139.546875 148.925781 139.351562 148.582031 139.121094 C 148.238281 138.894531 147.921875 138.632812 147.632812 138.339844 C 147.339844 138.050781 147.078125 137.730469 146.851562 137.386719 C 146.621094 137.046875 146.429688 136.683594 146.269531 136.300781 C 146.113281 135.921875 145.992188 135.527344 145.914062 135.121094 C 145.832031 134.71875 145.792969 134.308594 145.792969 133.894531 C 145.792969 133.484375 145.832031 133.074219 145.914062 132.667969 C 145.992188 132.265625 146.113281 131.871094 146.269531 131.492188 C 146.429688 131.109375 146.621094 130.746094 146.851562 130.402344 C 147.078125 130.058594 147.339844 129.742188 147.632812 129.449219 C 147.921875 129.160156 148.238281 128.898438 148.582031 128.667969 C 148.925781 128.441406 149.285156 128.246094 149.667969 128.089844 C 150.046875 127.929688 150.4375 127.8125 150.84375 127.730469 C 151.246094 127.648438 151.65625 127.609375 152.066406 127.609375 C 152.480469 127.609375 152.886719 127.648438 153.292969 127.730469 C 153.695312 127.8125 154.089844 127.929688 154.46875 128.089844 C 154.847656 128.246094 155.210938 128.441406 155.554688 128.667969 C 155.894531 128.898438 156.210938 129.160156 156.503906 129.449219 C 156.796875 129.742188 157.054688 130.058594 157.285156 130.402344 C 157.511719 130.746094 157.707031 131.109375 157.863281 131.492188 C 158.023438 131.871094 158.140625 132.265625 158.222656 132.667969 C 158.300781 133.074219 158.34375 133.484375 158.34375 133.894531 Z M 158.34375 133.894531 " fill-opacity="1" fill-rule="nonzero"/><path fill="#ff6a00" d="M 254.875 133.894531 C 254.875 134.308594 254.835938 134.71875 254.753906 135.121094 C 254.675781 135.527344 254.554688 135.921875 254.398438 136.300781 C 254.242188 136.683594 254.046875 137.046875 253.820312 137.386719 C 253.589844 137.730469 253.328125 138.050781 253.039062 138.339844 C 252.746094 138.632812 252.429688 138.894531 252.085938 139.121094 C 251.746094 139.351562 251.382812 139.546875 251.003906 139.703125 C 250.621094 139.863281 250.230469 139.980469 249.824219 140.0625 C 249.421875 140.140625 249.015625 140.183594 248.601562 140.183594 C 248.191406 140.183594 247.78125 140.140625 247.378906 140.0625 C 246.972656 139.980469 246.582031 139.863281 246.199219 139.703125 C 245.820312 139.546875 245.457031 139.351562 245.117188 139.121094 C 244.773438 138.894531 244.457031 138.632812 244.164062 138.339844 C 243.875 138.050781 243.613281 137.730469 243.386719 137.386719 C 243.15625 137.046875 242.960938 136.683594 242.804688 136.300781 C 242.648438 135.921875 242.527344 135.527344 242.449219 135.121094 C 242.367188 134.71875 242.328125 134.308594 242.328125 133.894531 C 242.328125 133.484375 242.367188 133.074219 242.449219 132.667969 C 242.527344 132.265625 242.648438 131.871094 242.804688 131.492188 C 242.960938 131.109375 243.15625 130.746094 243.386719 130.402344 C 243.613281 130.058594 243.875 129.742188 244.164062 129.449219 C 244.457031 129.160156 244.773438 128.898438 245.117188 128.667969 C 245.457031 128.441406 245.820312 128.246094 246.199219 128.089844 C 246.582031 127.929688 246.972656 127.8125 247.378906 127.730469 C 247.78125 127.648438 248.191406 127.609375 248.601562 127.609375 C 249.015625 127.609375 249.421875 127.648438 249.824219 127.730469 C 250.230469 127.8125 250.621094 127.929688 251.003906 128.089844 C 251.382812 128.246094 251.746094 128.441406 252.085938 128.667969 C 252.429688 128.898438 252.746094 129.160156 253.039062 129.449219 C 253.328125 129.742188 253.589844 130.058594 253.820312 130.402344 C 254.046875 130.746094 254.242188 131.109375 254.398438 131.492188 C 254.554688 131.871094 254.675781 132.265625 254.753906 132.667969 C 254.835938 133.074219 254.875 133.484375 254.875 133.894531 Z M 254.875 133.894531 " fill-opacity="1" fill-rule="nonzero"/><path fill="#ff6a00" d="M 207.175781 159.457031 C 207.175781 159.871094 207.132812 160.277344 207.054688 160.683594 C 206.972656 161.089844 206.855469 161.480469 206.695312 161.863281 C 206.539062 162.242188 206.34375 162.605469 206.117188 162.949219 C 205.886719 163.292969 205.628906 163.609375 205.335938 163.902344 C 205.046875 164.195312 204.726562 164.453125 204.386719 164.683594 C 204.042969 164.914062 203.679688 165.105469 203.300781 165.265625 C 202.921875 165.421875 202.527344 165.542969 202.125 165.621094 C 201.71875 165.703125 201.3125 165.742188 200.898438 165.742188 C 200.488281 165.742188 200.078125 165.703125 199.675781 165.621094 C 199.273438 165.542969 198.878906 165.421875 198.5 165.265625 C 198.117188 165.105469 197.757812 164.914062 197.414062 164.683594 C 197.070312 164.453125 196.753906 164.195312 196.464844 163.902344 C 196.171875 163.609375 195.910156 163.292969 195.683594 162.949219 C 195.453125 162.605469 195.261719 162.242188 195.101562 161.863281 C 194.945312 161.480469 194.828125 161.089844 194.746094 160.683594 C 194.664062 160.277344 194.625 159.871094 194.625 159.457031 C 194.625 159.042969 194.664062 158.636719 194.746094 158.230469 C 194.828125 157.824219 194.945312 157.433594 195.101562 157.050781 C 195.261719 156.671875 195.453125 156.308594 195.683594 155.964844 C 195.910156 155.621094 196.171875 155.304688 196.464844 155.011719 C 196.753906 154.71875 197.070312 154.460938 197.414062 154.230469 C 197.757812 154 198.117188 153.808594 198.5 153.648438 C 198.878906 153.492188 199.273438 153.371094 199.675781 153.292969 C 200.078125 153.210938 200.488281 153.171875 200.898438 153.171875 C 201.3125 153.171875 201.71875 153.210938 202.125 153.292969 C 202.527344 153.371094 202.921875 153.492188 203.300781 153.648438 C 203.679688 153.808594 204.042969 154 204.386719 154.230469 C 204.726562 154.460938 205.046875 154.71875 205.335938 155.011719 C 205.628906 155.304688 205.886719 155.621094 206.117188 155.964844 C 206.34375 156.308594 206.539062 156.671875 206.695312 157.050781 C 206.855469 157.433594 206.972656 157.824219 207.054688 158.230469 C 207.132812 158.636719 207.175781 159.042969 207.175781 159.457031 Z M 207.175781 159.457031 " fill-opacity="1" fill-rule="nonzero"/><path fill="#ff6a00" d="M 227.90625 79.148438 C 227.113281 79.148438 226.46875 78.503906 226.46875 77.707031 L 226.46875 50.394531 C 226.46875 46.421875 229.695312 43.1875 233.664062 43.1875 L 246.820312 43.1875 C 247.613281 43.1875 248.257812 43.832031 248.257812 44.628906 C 248.257812 45.425781 247.613281 46.070312 246.820312 46.070312 L 233.664062 46.070312 C 231.285156 46.070312 229.347656 48.011719 229.347656 50.394531 L 229.347656 77.707031 C 229.347656 78.503906 228.703125 79.148438 227.90625 79.148438 Z M 227.90625 79.148438 " fill-opacity="1" fill-rule="nonzero"/><path fill="#ff6a00" d="M 170.980469 79.148438 C 170.183594 79.148438 169.539062 78.503906 169.539062 77.707031 L 169.539062 50.394531 C 169.539062 48.011719 167.601562 46.070312 165.222656 46.070312 L 152.066406 46.070312 C 151.273438 46.070312 150.628906 45.425781 150.628906 44.628906 C 150.628906 43.832031 151.273438 43.1875 152.066406 43.1875 L 165.222656 43.1875 C 169.191406 43.1875 172.417969 46.421875 172.417969 50.394531 L 172.417969 77.707031 C 172.417969 78.503906 171.773438 79.148438 170.980469 79.148438 Z M 170.980469 79.148438 " fill-opacity="1" fill-rule="nonzero"/><path fill="#ff6a00" d="M 199.769531 74.398438 C 198.976562 74.398438 198.332031 73.753906 198.332031 72.957031 L 198.332031 21.578125 C 198.332031 20.78125 198.976562 20.136719 199.769531 20.136719 C 200.5625 20.136719 201.207031 20.78125 201.207031 21.578125 L 201.207031 72.957031 C 201.207031 73.753906 200.5625 74.398438 199.769531 74.398438 Z M 199.769531 74.398438 " fill-opacity="1" fill-rule="nonzero"/><path fill="#ff6a00" d="M 254.875 44.628906 C 254.875 45.042969 254.835938 45.449219 254.753906 45.855469 C 254.675781 46.257812 254.554688 46.652344 254.398438 47.035156 C 254.242188 47.414062 254.046875 47.777344 253.820312 48.121094 C 253.589844 48.464844 253.328125 48.78125 253.039062 49.074219 C 252.746094 49.367188 252.429688 49.625 252.085938 49.855469 C 251.746094 50.085938 251.382812 50.277344 251.003906 50.4375 C 250.621094 50.59375 250.230469 50.714844 249.824219 50.792969 C 249.421875 50.875 249.015625 50.914062 248.601562 50.914062 C 248.191406 50.914062 247.78125 50.875 247.378906 50.792969 C 246.972656 50.714844 246.582031 50.59375 246.199219 50.4375 C 245.820312 50.277344 245.457031 50.085938 245.117188 49.855469 C 244.773438 49.625 244.457031 49.367188 244.164062 49.074219 C 243.875 48.78125 243.613281 48.464844 243.386719 48.121094 C 243.15625 47.777344 242.960938 47.414062 242.804688 47.035156 C 242.648438 46.652344 242.527344 46.257812 242.449219 45.855469 C 242.367188 45.449219 242.328125 45.042969 242.328125 44.628906 C 242.328125 44.214844 242.367188 43.808594 242.449219 43.402344 C 242.527344 42.996094 242.648438 42.605469 242.804688 42.222656 C 242.960938 41.839844 243.15625 41.480469 243.386719 41.136719 C 243.613281 40.792969 243.875 40.476562 244.164062 40.183594 C 244.457031 39.890625 244.773438 39.632812 245.117188 39.402344 C 245.457031 39.171875 245.820312 38.980469 246.199219 38.820312 C 246.582031 38.664062 246.972656 38.542969 247.378906 38.464844 C 247.78125 38.382812 248.191406 38.34375 248.601562 38.34375 C 249.015625 38.34375 249.421875 38.382812 249.824219 38.464844 C 250.230469 38.542969 250.621094 38.664062 251.003906 38.820312 C 251.382812 38.980469 251.746094 39.171875 252.085938 39.402344 C 252.429688 39.632812 252.746094 39.890625 253.039062 40.183594 C 253.328125 40.476562 253.589844 40.792969 253.820312 41.136719 C 254.046875 41.480469 254.242188 41.839844 254.398438 42.222656 C 254.554688 42.605469 254.675781 42.996094 254.753906 43.402344 C 254.835938 43.808594 254.875 44.214844 254.875 44.628906 Z M 254.875 44.628906 " fill-opacity="1" fill-rule="nonzero"/><path fill="#ff6a00" d="M 158.34375 44.628906 C 158.34375 45.042969 158.300781 45.449219 158.222656 45.855469 C 158.140625 46.257812 158.023438 46.652344 157.863281 47.035156 C 157.707031 47.414062 157.511719 47.777344 157.285156 48.121094 C 157.054688 48.464844 156.796875 48.78125 156.503906 49.074219 C 156.210938 49.367188 155.894531 49.625 155.554688 49.855469 C 155.210938 50.085938 154.847656 50.277344 154.46875 50.4375 C 154.089844 50.59375 153.695312 50.714844 153.292969 50.792969 C 152.886719 50.875 152.480469 50.914062 152.066406 50.914062 C 151.65625 50.914062 151.246094 50.875 150.84375 50.792969 C 150.4375 50.714844 150.046875 50.59375 149.667969 50.4375 C 149.285156 50.277344 148.925781 50.085938 148.582031 49.855469 C 148.238281 49.625 147.921875 49.367188 147.632812 49.074219 C 147.339844 48.78125 147.078125 48.464844 146.851562 48.121094 C 146.621094 47.777344 146.429688 47.414062 146.269531 47.035156 C 146.113281 46.652344 145.992188 46.257812 145.914062 45.855469 C 145.832031 45.449219 145.792969 45.042969 145.792969 44.628906 C 145.792969 44.214844 145.832031 43.808594 145.914062 43.402344 C 145.992188 42.996094 146.113281 42.605469 146.269531 42.222656 C 146.429688 41.839844 146.621094 41.480469 146.851562 41.136719 C 147.078125 40.792969 147.339844 40.476562 147.632812 40.183594 C 147.921875 39.890625 148.238281 39.632812 148.582031 39.402344 C 148.925781 39.171875 149.285156 38.980469 149.667969 38.820312 C 150.046875 38.664062 150.4375 38.542969 150.84375 38.464844 C 151.246094 38.382812 151.65625 38.34375 152.066406 38.34375 C 152.480469 38.34375 152.886719 38.382812 153.292969 38.464844 C 153.695312 38.542969 154.089844 38.664062 154.46875 38.820312 C 154.847656 38.980469 155.210938 39.171875 155.554688 39.402344 C 155.894531 39.632812 156.210938 39.890625 156.503906 40.183594 C 156.796875 40.476562 157.054688 40.792969 157.285156 41.136719 C 157.511719 41.480469 157.707031 41.839844 157.863281 42.222656 C 158.023438 42.605469 158.140625 42.996094 158.222656 43.402344 C 158.300781 43.808594 158.34375 44.214844 158.34375 44.628906 Z M 158.34375 44.628906 " fill-opacity="1" fill-rule="nonzero"/><g clip-path="url(#d9c8ac8719)"><path fill="#ff6a00" d="M 206.042969 19.066406 C 206.042969 19.480469 206.003906 19.890625 205.921875 20.292969 C 205.84375 20.699219 205.722656 21.09375 205.566406 21.472656 C 205.410156 21.855469 205.214844 22.21875 204.984375 22.558594 C 204.757812 22.902344 204.496094 23.222656 204.207031 23.511719 C 203.914062 23.804688 203.597656 24.066406 203.253906 24.292969 C 202.914062 24.523438 202.550781 24.71875 202.171875 24.875 C 201.789062 25.035156 201.398438 25.152344 200.992188 25.234375 C 200.589844 25.3125 200.179688 25.355469 199.769531 25.355469 C 199.355469 25.355469 198.949219 25.3125 198.546875 25.234375 C 198.140625 25.152344 197.75 25.035156 197.367188 24.875 C 196.988281 24.71875 196.625 24.523438 196.285156 24.292969 C 195.941406 24.066406 195.625 23.804688 195.332031 23.511719 C 195.042969 23.222656 194.78125 22.902344 194.550781 22.558594 C 194.324219 22.21875 194.128906 21.855469 193.972656 21.472656 C 193.816406 21.09375 193.695312 20.699219 193.617188 20.292969 C 193.535156 19.890625 193.496094 19.480469 193.496094 19.066406 C 193.496094 18.65625 193.535156 18.246094 193.617188 17.839844 C 193.695312 17.4375 193.816406 17.042969 193.972656 16.660156 C 194.128906 16.28125 194.324219 15.917969 194.550781 15.574219 C 194.78125 15.230469 195.042969 14.914062 195.332031 14.621094 C 195.625 14.332031 195.941406 14.070312 196.285156 13.839844 C 196.625 13.613281 196.988281 13.417969 197.367188 13.261719 C 197.75 13.101562 198.140625 12.984375 198.546875 12.902344 C 198.949219 12.820312 199.355469 12.78125 199.769531 12.78125 C 200.179688 12.78125 200.589844 12.820312 200.992188 12.902344 C 201.398438 12.984375 201.789062 13.101562 202.171875 13.261719 C 202.550781 13.417969 202.914062 13.613281 203.253906 13.839844 C 203.597656 14.070312 203.914062 14.332031 204.207031 14.621094 C 204.496094 14.914062 204.757812 15.230469 204.984375 15.574219 C 205.214844 15.917969 205.410156 16.28125 205.566406 16.660156 C 205.722656 17.042969 205.84375 17.4375 205.921875 17.839844 C 206.003906 18.246094 206.042969 18.65625 206.042969 19.066406 Z M 206.042969 19.066406 " fill-opacity="1" fill-rule="nonzero"/></g><path fill="#b4b2fa" d="M 264.121094 84.160156 C 263.070312 85.730469 241.800781 116.226562 200.898438 116.226562 C 160 116.226562 138.730469 85.730469 137.679688 84.160156 C 138.730469 82.589844 160 52.09375 200.898438 52.09375 C 241.800781 52.09375 263.070312 82.589844 264.121094 84.160156 Z M 264.121094 84.160156 " fill-opacity="1" fill-rule="nonzero"/><path fill="#1b136a" d="M 232.246094 84.160156 C 232.246094 85.1875 232.195312 86.214844 232.097656 87.238281 C 231.996094 88.261719 231.84375 89.277344 231.644531 90.285156 C 231.445312 91.296875 231.195312 92.292969 230.898438 93.277344 C 230.597656 94.261719 230.253906 95.226562 229.859375 96.179688 C 229.46875 97.128906 229.03125 98.058594 228.546875 98.964844 C 228.0625 99.871094 227.535156 100.753906 226.964844 101.609375 C 226.394531 102.464844 225.78125 103.289062 225.132812 104.085938 C 224.480469 104.878906 223.792969 105.640625 223.066406 106.367188 C 222.339844 107.09375 221.582031 107.785156 220.785156 108.4375 C 219.992188 109.089844 219.167969 109.703125 218.316406 110.273438 C 217.460938 110.84375 216.582031 111.375 215.675781 111.859375 C 214.773438 112.34375 213.84375 112.78125 212.894531 113.175781 C 211.949219 113.570312 210.980469 113.914062 210 114.214844 C 209.015625 114.511719 208.023438 114.761719 207.015625 114.964844 C 206.007812 115.164062 204.996094 115.316406 203.972656 115.414062 C 202.949219 115.515625 201.925781 115.566406 200.898438 115.566406 C 199.875 115.566406 198.847656 115.515625 197.828125 115.414062 C 196.804688 115.316406 195.792969 115.164062 194.785156 114.964844 C 193.777344 114.761719 192.78125 114.511719 191.800781 114.214844 C 190.816406 113.914062 189.851562 113.570312 188.902344 113.175781 C 187.957031 112.78125 187.027344 112.34375 186.121094 111.859375 C 185.21875 111.375 184.335938 110.84375 183.484375 110.273438 C 182.628906 109.703125 181.808594 109.089844 181.011719 108.4375 C 180.21875 107.785156 179.460938 107.09375 178.734375 106.367188 C 178.007812 105.640625 177.320312 104.878906 176.667969 104.085938 C 176.015625 103.289062 175.40625 102.464844 174.835938 101.609375 C 174.265625 100.753906 173.738281 99.871094 173.253906 98.964844 C 172.769531 98.058594 172.332031 97.128906 171.9375 96.179688 C 171.546875 95.226562 171.199219 94.261719 170.902344 93.277344 C 170.605469 92.292969 170.355469 91.296875 170.15625 90.285156 C 169.953125 89.277344 169.804688 88.261719 169.703125 87.238281 C 169.601562 86.214844 169.550781 85.1875 169.550781 84.160156 C 169.550781 83.132812 169.601562 82.105469 169.703125 81.082031 C 169.804688 80.058594 169.953125 79.042969 170.15625 78.03125 C 170.355469 77.023438 170.605469 76.027344 170.902344 75.042969 C 171.199219 74.058594 171.546875 73.089844 171.9375 72.140625 C 172.332031 71.191406 172.769531 70.261719 173.253906 69.355469 C 173.738281 68.449219 174.265625 67.566406 174.835938 66.710938 C 175.40625 65.855469 176.015625 65.03125 176.667969 64.234375 C 177.320312 63.441406 178.007812 62.679688 178.734375 61.953125 C 179.460938 61.222656 180.21875 60.535156 181.011719 59.882812 C 181.808594 59.230469 182.628906 58.617188 183.484375 58.046875 C 184.335938 57.472656 185.21875 56.945312 186.121094 56.460938 C 187.027344 55.976562 187.957031 55.535156 188.902344 55.144531 C 189.851562 54.75 190.816406 54.402344 191.800781 54.105469 C 192.78125 53.804688 193.777344 53.558594 194.785156 53.355469 C 195.792969 53.15625 196.804688 53.003906 197.828125 52.902344 C 198.847656 52.804688 199.875 52.753906 200.898438 52.753906 C 201.925781 52.753906 202.949219 52.804688 203.972656 52.902344 C 204.996094 53.003906 206.007812 53.15625 207.015625 53.355469 C 208.023438 53.558594 209.015625 53.804688 210 54.105469 C 210.980469 54.402344 211.949219 54.75 212.894531 55.144531 C 213.84375 55.535156 214.773438 55.976562 215.675781 56.460938 C 216.582031 56.945312 217.460938 57.472656 218.316406 58.046875 C 219.167969 58.617188 219.992188 59.230469 220.785156 59.882812 C 221.582031 60.535156 222.339844 61.222656 223.066406 61.953125 C 223.792969 62.679688 224.480469 63.441406 225.132812 64.234375 C 225.78125 65.03125 226.394531 65.855469 226.964844 66.710938 C 227.535156 67.566406 228.0625 68.449219 228.546875 69.355469 C 229.03125 70.261719 229.46875 71.191406 229.859375 72.140625 C 230.253906 73.089844 230.597656 74.058594 230.898438 75.042969 C 231.195312 76.027344 231.445312 77.023438 231.644531 78.03125 C 231.84375 79.042969 231.996094 80.058594 232.097656 81.082031 C 232.195312 82.105469 232.246094 83.132812 232.246094 84.160156 Z M 232.246094 84.160156 " fill-opacity="1" fill-rule="nonzero"/><path fill="#ffaa00" d="M 210.480469 84.160156 C 210.480469 84.789062 210.421875 85.414062 210.296875 86.03125 C 210.175781 86.652344 209.992188 87.25 209.753906 87.832031 C 209.511719 88.414062 209.214844 88.96875 208.867188 89.492188 C 208.515625 90.015625 208.121094 90.503906 207.675781 90.949219 C 207.230469 91.394531 206.746094 91.792969 206.222656 92.140625 C 205.699219 92.492188 205.148438 92.789062 204.566406 93.027344 C 203.984375 93.269531 203.386719 93.453125 202.769531 93.574219 C 202.152344 93.699219 201.527344 93.761719 200.898438 93.761719 C 200.269531 93.761719 199.648438 93.699219 199.03125 93.574219 C 198.414062 93.453125 197.8125 93.269531 197.234375 93.027344 C 196.652344 92.789062 196.097656 92.492188 195.578125 92.140625 C 195.054688 91.792969 194.570312 91.394531 194.125 90.949219 C 193.679688 90.503906 193.28125 90.015625 192.933594 89.492188 C 192.582031 88.96875 192.289062 88.414062 192.046875 87.832031 C 191.804688 87.25 191.625 86.652344 191.5 86.03125 C 191.378906 85.414062 191.316406 84.789062 191.316406 84.160156 C 191.316406 83.53125 191.378906 82.90625 191.5 82.285156 C 191.625 81.667969 191.804688 81.066406 192.046875 80.484375 C 192.289062 79.902344 192.582031 79.351562 192.933594 78.824219 C 193.28125 78.300781 193.679688 77.816406 194.125 77.371094 C 194.570312 76.925781 195.054688 76.527344 195.578125 76.175781 C 196.097656 75.828125 196.652344 75.53125 197.234375 75.289062 C 197.8125 75.050781 198.414062 74.867188 199.03125 74.742188 C 199.648438 74.621094 200.269531 74.558594 200.898438 74.558594 C 201.527344 74.558594 202.152344 74.621094 202.769531 74.742188 C 203.386719 74.867188 203.984375 75.050781 204.566406 75.289062 C 205.148438 75.53125 205.699219 75.828125 206.222656 76.175781 C 206.746094 76.527344 207.230469 76.925781 207.675781 77.371094 C 208.121094 77.816406 208.515625 78.300781 208.867188 78.824219 C 209.214844 79.351562 209.511719 79.902344 209.753906 80.484375 C 209.992188 81.066406 210.175781 81.667969 210.296875 82.285156 C 210.421875 82.90625 210.480469 83.53125 210.480469 84.160156 Z M 210.480469 84.160156 " fill-opacity="1" fill-rule="nonzero"/><path fill="#ffaa00" d="M 78.417969 97.828125 L 49.0625 97.828125 C 47.566406 97.828125 46.355469 96.613281 46.355469 95.113281 C 46.355469 93.378906 47.648438 92.285156 49.0625 92.285156 L 78.417969 92.285156 C 79.914062 92.285156 81.125 93.5 81.125 94.996094 C 81.125 96.730469 79.832031 97.828125 78.417969 97.828125 Z M 78.417969 97.828125 " fill-opacity="1" fill-rule="nonzero"/><path fill="#ffaa00" d="M 147.421875 174.007812 L 177.886719 174.007812 L 177.886719 195.832031 L 147.421875 195.832031 Z M 147.421875 174.007812 " fill-opacity="1" fill-rule="nonzero"/><path fill="#ffaa00" d="M 185.917969 174.007812 L 216.382812 174.007812 L 216.382812 195.832031 L 185.917969 195.832031 Z M 185.917969 174.007812 " fill-opacity="1" fill-rule="nonzero"/><path fill="#ffaa00" d="M 224.410156 174.007812 L 254.875 174.007812 L 254.875 195.832031 L 224.410156 195.832031 Z M 224.410156 174.007812 " fill-opacity="1" fill-rule="nonzero"/><path fill="#ffaa00" d="M 128.152344 54.375 C 127.046875 41.503906 122.414062 35.1875 109.980469 34.015625 C 103.15625 33.375 91.523438 33.757812 84.078125 34.355469 C 76.726562 34.941406 68.375 35.40625 62.417969 40.304688 C 57.898438 44.023438 55.746094 50.230469 56.550781 55.984375 C 56.105469 59.445312 55.789062 64.539062 56.707031 70.558594 C 57.667969 76.832031 58.175781 80.144531 60.464844 82.917969 C 64.605469 87.945312 73.117188 87.761719 90.144531 87.398438 C 92.351562 87.351562 94.765625 87.140625 97.960938 86.757812 C 98.886719 88.121094 100.070312 89.476562 101.585938 90.683594 C 107.800781 95.617188 116.578125 95.640625 117.082031 94.207031 C 117.542969 92.894531 111.8125 91.914062 109.605469 85.195312 C 113.183594 84.6875 116.046875 84.003906 119.414062 82.214844 C 126.148438 78.644531 128.234375 72.460938 128.496094 64.847656 C 128.613281 61.367188 128.453125 57.84375 128.152344 54.375 Z M 128.152344 54.375 " fill-opacity="1" fill-rule="nonzero"/><path fill="#4a53e2" d="M 115.722656 59.640625 L 115.722656 49.988281 L 109.246094 49.988281 C 108.804688 48.515625 108.1875 47.125 107.414062 45.832031 L 112.074219 41.164062 L 105.261719 34.339844 L 100.480469 39.128906 C 99.222656 38.433594 97.871094 37.882812 96.457031 37.5 L 96.457031 30.683594 L 86.824219 30.683594 L 86.824219 37.5 C 85.40625 37.882812 84.054688 38.433594 82.796875 39.128906 L 78.015625 34.339844 L 71.203125 41.164062 L 75.863281 45.832031 C 75.089844 47.125 74.472656 48.515625 74.03125 49.988281 L 67.558594 49.988281 L 67.558594 59.640625 L 73.785156 59.640625 C 74.171875 61.226562 74.765625 62.730469 75.53125 64.125 L 71.203125 68.460938 L 78.015625 75.285156 L 82.222656 71.074219 C 83.640625 71.925781 85.1875 72.589844 86.824219 73.035156 L 86.824219 78.941406 L 96.457031 78.941406 L 96.457031 73.035156 C 98.089844 72.589844 99.636719 71.925781 101.058594 71.074219 L 105.261719 75.285156 L 112.074219 68.460938 L 107.746094 64.125 C 108.515625 62.730469 109.105469 61.226562 109.492188 59.640625 Z M 91.640625 65.785156 C 85.851562 65.785156 81.140625 61.066406 81.140625 55.269531 C 81.140625 49.46875 85.851562 44.75 91.640625 44.75 C 97.429688 44.75 102.136719 49.46875 102.136719 55.269531 C 102.136719 61.066406 97.429688 65.785156 91.640625 65.785156 Z M 91.640625 65.785156 " fill-opacity="1" fill-rule="nonzero"/><path fill="#ff6a00" d="M 135.734375 162.835938 L 135.734375 129.988281 C 132.941406 126.800781 129.789062 124.464844 126.910156 125.273438 C 119.402344 127.386719 103.730469 140.320312 100.566406 135.304688 C 97.40625 130.289062 99.515625 120.390625 86.871094 122.636719 C 77.21875 124.347656 55.90625 132.671875 46.355469 136.515625 L 46.355469 162.835938 Z M 135.734375 162.835938 " fill-opacity="1" fill-rule="nonzero"/><path fill="#ff6a00" d="M 113.339844 120.066406 C 113.339844 120.433594 113.300781 120.796875 113.230469 121.160156 C 113.160156 121.519531 113.054688 121.871094 112.910156 122.210938 C 112.769531 122.550781 112.597656 122.875 112.394531 123.183594 C 112.191406 123.488281 111.957031 123.773438 111.699219 124.03125 C 111.4375 124.292969 111.15625 124.527344 110.847656 124.730469 C 110.542969 124.933594 110.222656 125.109375 109.882812 125.25 C 109.542969 125.390625 109.191406 125.496094 108.832031 125.566406 C 108.46875 125.640625 108.105469 125.675781 107.738281 125.675781 C 107.371094 125.675781 107.007812 125.640625 106.644531 125.566406 C 106.285156 125.496094 105.933594 125.390625 105.59375 125.25 C 105.253906 125.109375 104.933594 124.933594 104.625 124.730469 C 104.320312 124.527344 104.039062 124.292969 103.777344 124.03125 C 103.519531 123.773438 103.285156 123.488281 103.082031 123.183594 C 102.875 122.875 102.703125 122.550781 102.5625 122.210938 C 102.421875 121.871094 102.316406 121.519531 102.246094 121.160156 C 102.171875 120.796875 102.136719 120.433594 102.136719 120.066406 C 102.136719 119.695312 102.171875 119.332031 102.246094 118.96875 C 102.316406 118.609375 102.421875 118.257812 102.5625 117.917969 C 102.703125 117.578125 102.875 117.253906 103.082031 116.949219 C 103.285156 116.640625 103.519531 116.359375 103.777344 116.097656 C 104.039062 115.835938 104.320312 115.605469 104.625 115.398438 C 104.933594 115.195312 105.253906 115.023438 105.59375 114.878906 C 105.933594 114.738281 106.285156 114.632812 106.644531 114.5625 C 107.007812 114.488281 107.371094 114.453125 107.738281 114.453125 C 108.105469 114.453125 108.46875 114.488281 108.832031 114.5625 C 109.191406 114.632812 109.542969 114.738281 109.882812 114.878906 C 110.222656 115.023438 110.542969 115.195312 110.847656 115.398438 C 111.15625 115.605469 111.4375 115.835938 111.699219 116.097656 C 111.957031 116.359375 112.191406 116.640625 112.394531 116.949219 C 112.597656 117.253906 112.769531 117.578125 112.910156 117.917969 C 113.054688 118.257812 113.160156 118.609375 113.230469 118.96875 C 113.300781 119.332031 113.339844 119.695312 113.339844 120.066406 Z M 113.339844 120.066406 " fill-opacity="1" fill-rule="nonzero"/><path fill="#1b136a" d="M 265.121094 203.828125 C 264.113281 121.324219 264.042969 120.617188 263.878906 117.878906 C 263.851562 117.429688 263.195312 117.425781 263.179688 117.878906 C 263.003906 122.734375 263.925781 208.667969 264.289062 213.246094 C 264.332031 213.742188 265.035156 213.75 265.0625 213.246094 C 265.234375 210.109375 265.160156 206.96875 265.121094 203.828125 Z M 265.121094 203.828125 " fill-opacity="1" fill-rule="nonzero"/><path fill="#1b136a" d="M 264.710938 223.929688 C 264.554688 223.4375 263.871094 223.550781 263.835938 224.046875 C 263.722656 225.589844 264.011719 227.117188 263.941406 228.664062 C 263.730469 233.320312 261.277344 235.601562 256.902344 235.90625 C 253.652344 236.132812 247.980469 235.769531 239.546875 235.917969 C 239.136719 235.925781 239.140625 236.53125 239.546875 236.554688 C 244.648438 236.816406 249.769531 236.949219 254.882812 237.03125 C 256.878906 237.0625 258.960938 236.996094 260.8125 236.164062 C 265.070312 234.253906 266.085938 228.332031 264.710938 223.929688 Z M 264.710938 223.929688 " fill-opacity="1" fill-rule="nonzero"/><path fill="#1b136a" d="M 35.664062 215.121094 L 35.4375 160.816406 C 35.433594 160.359375 34.734375 160.359375 34.730469 160.816406 C 34.714844 163.890625 34.433594 218.0625 34.703125 220.992188 C 34.753906 221.546875 35.515625 221.550781 35.566406 220.992188 C 35.742188 219.042969 35.667969 217.074219 35.664062 215.121094 Z M 35.664062 215.121094 " fill-opacity="1" fill-rule="nonzero"/><path fill="#1b136a" d="M 35.613281 135.476562 C 35.609375 135.304688 35.507812 135.199219 35.386719 135.152344 C 35.398438 135 35.308594 134.832031 35.105469 134.832031 C 34.8125 134.832031 34.75 135.1875 34.914062 135.34375 C 34.875 135.457031 34.886719 135.34375 34.984375 140.679688 C 35.015625 142.367188 34.921875 144.109375 35.167969 145.78125 C 35.234375 146.21875 35.855469 146.0625 35.890625 145.683594 C 36.03125 144.1875 35.917969 144.242188 35.613281 135.476562 Z M 35.613281 135.476562 " fill-opacity="1" fill-rule="nonzero"/><path fill="#1b136a" d="M 111.214844 243.144531 C 111.285156 242.605469 110.425781 242.519531 110.285156 243.019531 C 109.613281 245.449219 109.84375 244.839844 106.710938 260.164062 C 106.160156 262.867188 105.601562 265.640625 105.84375 268.414062 C 106.035156 270.605469 106.679688 273.339844 108.464844 274.796875 C 108.832031 275.097656 109.410156 274.726562 109.152344 274.265625 C 108.539062 273.1875 107.886719 272.1875 107.511719 270.988281 C 106.3125 267.199219 107.269531 263.195312 108.042969 259.335938 C 110.800781 245.589844 110.898438 245.574219 111.214844 243.144531 Z M 111.214844 243.144531 " fill-opacity="1" fill-rule="nonzero"/><path fill="#1b136a" d="M 114.253906 280.945312 C 114.011719 280.777344 113.617188 280.890625 113.480469 281.148438 C 113.332031 281.4375 113.425781 281.742188 113.683594 281.921875 C 115.117188 282.914062 115.742188 283.398438 116.496094 283.691406 C 116.671875 283.757812 116.910156 283.648438 116.996094 283.488281 C 117.28125 282.945312 116.507812 282.503906 114.253906 280.945312 Z M 114.253906 280.945312 " fill-opacity="1" fill-rule="nonzero"/><path fill="#1b136a" d="M 62.644531 79.972656 C 61.414062 78.839844 60.128906 78 59.261719 75.117188 C 58.429688 72.34375 58.582031 70.402344 57.8125 60.015625 C 57.378906 54.203125 57.390625 53.601562 57.085938 52.441406 C 56.980469 52.039062 56.453125 52.167969 56.410156 52.53125 C 56.316406 53.292969 56.617188 58.769531 57.304688 68.960938 C 57.472656 71.425781 57.578125 73.988281 58.492188 76.3125 C 59.167969 78.035156 60.382812 80.050781 62.226562 80.6875 C 62.632812 80.828125 62.949219 80.257812 62.644531 79.972656 Z M 62.644531 79.972656 " fill-opacity="1" fill-rule="nonzero"/><path fill="#1b136a" d="M 128.546875 67.777344 C 128.480469 67.292969 128.308594 66.914062 128.144531 66.464844 C 128.03125 66.144531 127.460938 66.160156 127.507812 66.550781 C 127.550781 66.960938 127.523438 67.363281 127.566406 67.777344 C 127.609375 68.191406 127.640625 68.605469 127.640625 69.019531 C 127.667969 72.558594 126.167969 74.714844 125.640625 75.847656 C 125.457031 76.25 125.929688 76.679688 126.277344 76.339844 C 128.210938 74.429688 128.917969 70.597656 128.546875 67.777344 Z M 128.546875 67.777344 " fill-opacity="1" fill-rule="nonzero"/><path fill="#1b136a" d="M 264.242188 84.433594 C 262.5625 81.972656 257.4375 76.601562 255.324219 74.503906 C 249.464844 68.6875 243.710938 64.136719 239.035156 61.113281 C 238.6875 60.886719 238.398438 61.425781 238.71875 61.664062 C 255.890625 74.546875 261.46875 82.820312 263.527344 84.988281 C 263.875 85.355469 264.539062 84.867188 264.242188 84.433594 Z M 264.242188 84.433594 " fill-opacity="1" fill-rule="nonzero"/><path fill="#1b136a" d="M 254.925781 94.117188 C 254.484375 94.246094 254.316406 94.425781 252.628906 95.703125 C 250.265625 97.488281 250.324219 97.4375 250.289062 97.65625 C 249.988281 97.9375 250.363281 98.382812 250.683594 98.195312 C 250.699219 98.1875 250.832031 98.21875 250.957031 98.136719 C 251.726562 97.632812 252.207031 97.261719 254.292969 95.730469 C 254.683594 95.445312 255.148438 95.164062 255.410156 94.753906 C 255.617188 94.433594 255.277344 94.019531 254.925781 94.117188 Z M 254.925781 94.117188 " fill-opacity="1" fill-rule="nonzero"/><path fill="#1b136a" d="M 159.265625 101.933594 C 158.410156 101.144531 158 101.28125 154.457031 99.003906 C 148.121094 94.929688 145.773438 92.042969 141.425781 87.894531 C 141.183594 87.660156 140.734375 87.96875 140.941406 88.265625 C 145.71875 95.117188 156.992188 102.265625 158.828125 102.683594 C 159.246094 102.78125 159.617188 102.25 159.265625 101.933594 Z M 159.265625 101.933594 " fill-opacity="1" fill-rule="nonzero"/><path fill="#1b136a" d="M 150.320312 47.925781 C 149.761719 47.601562 149.039062 46.992188 148.632812 46.335938 C 148.21875 45.664062 148.042969 44.890625 147.949219 44.109375 C 147.886719 43.621094 147.308594 43.660156 147.226562 44.011719 C 146.996094 44.980469 147.292969 45.988281 147.796875 46.824219 C 148.457031 47.917969 149.214844 48.394531 150.019531 48.648438 C 150.449219 48.785156 150.707031 48.148438 150.320312 47.925781 Z M 150.320312 47.925781 " fill-opacity="1" fill-rule="nonzero"/><path fill="#1b136a" d="M 196.609375 16.34375 C 196.300781 16.71875 196.246094 16.726562 195.476562 17.957031 C 195.265625 18.292969 195 18.761719 195.316406 19.007812 C 195.425781 19.09375 195.617188 19.125 195.738281 19.035156 C 195.945312 18.882812 196.09375 18.6875 196.226562 18.46875 C 196.738281 17.625 196.847656 17.457031 197.148438 16.761719 C 197.339844 16.335938 196.820312 16.089844 196.609375 16.34375 Z M 196.609375 16.34375 " fill-opacity="1" fill-rule="nonzero"/><path fill="#1b136a" d="M 204.292969 157.148438 C 203.066406 158.917969 203.335938 158.496094 202.519531 159.9375 C 202.167969 160.5625 202.175781 160.710938 202.195312 161.035156 C 202.214844 161.285156 202.449219 161.421875 202.671875 161.3125 C 203.109375 161.089844 203.1875 160.996094 204 159.527344 C 204.355469 158.882812 204.644531 158.203125 204.949219 157.535156 C 205.15625 157.089844 204.574219 156.742188 204.292969 157.148438 Z M 204.292969 157.148438 " fill-opacity="1" fill-rule="nonzero"/><path fill="#1b136a" d="M 227.042969 264.109375 C 220.453125 257.800781 213.425781 251.9375 206.621094 245.863281 C 206.238281 245.523438 205.671875 246.085938 206.054688 246.429688 C 212.84375 252.519531 219.449219 258.855469 226.445312 264.707031 C 226.855469 265.050781 227.441406 264.488281 227.042969 264.109375 Z M 227.042969 264.109375 " fill-opacity="1" fill-rule="nonzero"/><path fill="#1b136a" d="M 232.503906 250.417969 C 231.476562 249.664062 231.117188 249.457031 225.496094 245.816406 C 225.074219 245.539062 224.683594 246.214844 225.101562 246.492188 C 230.703125 250.15625 231.039062 250.402344 232.144531 251.039062 C 232.550781 251.273438 232.871094 250.683594 232.503906 250.417969 Z M 232.503906 250.417969 " fill-opacity="1" fill-rule="nonzero"/><path fill="#1b136a" d="M 200.023438 260.015625 C 199.40625 258.796875 198.671875 257.636719 197.972656 256.464844 C 197.835938 256.238281 197.535156 256.15625 197.304688 256.289062 C 197.082031 256.421875 196.996094 256.730469 197.132812 256.957031 C 197.835938 258.128906 198.511719 259.320312 199.292969 260.441406 C 199.605469 260.886719 200.273438 260.507812 200.023438 260.015625 Z M 200.023438 260.015625 " fill-opacity="1" fill-rule="nonzero"/><path fill="#1b136a" d="M 92.59375 244.988281 C 88.023438 250.671875 83.769531 256.625 79.371094 262.445312 C 79.089844 262.820312 79.71875 263.179688 80 262.8125 C 84.402344 257.035156 88.972656 251.363281 93.203125 245.457031 C 93.453125 245.101562 92.871094 244.644531 92.59375 244.988281 Z M 92.59375 244.988281 " fill-opacity="1" fill-rule="nonzero"/><path fill="#1b136a" d="M 79.632812 243.609375 C 77.78125 245.925781 76.011719 248.304688 74.230469 250.675781 C 73.882812 251.140625 74.664062 251.589844 75.007812 251.128906 C 76.757812 248.785156 78.519531 246.445312 80.203125 244.046875 C 80.4375 243.714844 79.890625 243.285156 79.632812 243.609375 Z M 79.632812 243.609375 " fill-opacity="1" fill-rule="nonzero"/><path fill="#1b136a" d="M 67.015625 243.117188 C 64.964844 244.046875 62.988281 245.152344 60.996094 246.203125 C 60.425781 246.503906 60.933594 247.371094 61.503906 247.070312 C 63.488281 246.011719 65.511719 245.007812 67.433594 243.832031 C 67.894531 243.550781 67.492188 242.902344 67.015625 243.117188 Z M 67.015625 243.117188 " fill-opacity="1" fill-rule="nonzero"/><g clip-path="url(#a9796371e6)"><path fill="#1b136a" d="M 278.664062 48.21875 C 276.640625 49.484375 262.015625 60.171875 258.847656 62.578125 C 258.460938 62.871094 258.820312 63.53125 259.234375 63.246094 C 262.382812 61.070312 277.261719 50.40625 279.140625 48.839844 C 279.488281 48.550781 279.039062 47.984375 278.664062 48.21875 Z M 278.664062 48.21875 " fill-opacity="1" fill-rule="nonzero"/></g><path fill="#1b136a" d="M 262.691406 49.222656 C 261.480469 50.527344 256.347656 56.0625 255.15625 57.523438 C 254.835938 57.914062 255.347656 58.460938 255.71875 58.089844 C 257.058594 56.753906 262.15625 50.996094 263.234375 49.769531 C 263.5625 49.402344 263.03125 48.859375 262.691406 49.222656 Z M 262.691406 49.222656 " fill-opacity="1" fill-rule="nonzero"/><path fill="#1b136a" d="M 274.164062 65.34375 C 270.875 66.675781 267.699219 68.304688 264.511719 69.851562 C 263.863281 70.167969 264.429688 71.132812 265.078125 70.824219 C 268.234375 69.3125 271.449219 67.867188 274.5 66.144531 C 274.917969 65.910156 274.632812 65.15625 274.164062 65.34375 Z M 274.164062 65.34375 " fill-opacity="1" fill-rule="nonzero"/></svg>