<svg width="70" height="56" viewBox="0 0 70 56" fill="none" xmlns="http://www.w3.org/2000/svg">
<path d="M3.16432 28.0098C1.41648 28.0098 0 26.5925 0 24.8455V20.5935H6.32948V24.8455C6.32948 26.5925 4.91217 28.0098 3.16432 28.0098ZM12.659 8.70501C12.659 6.95716 11.2425 5.54069 9.49463 5.54069C7.74678 5.54069 6.33032 6.958 6.33032 8.70501V20.6286H12.6598V8.70501H12.659ZM37.976 3.16432C37.976 1.41647 36.5587 0 34.8117 0C33.0639 0 31.6474 1.41731 31.6474 3.16432V20.6286H37.9769V3.16432H37.976ZM50.635 11.5822C50.635 9.83435 49.2177 8.41787 47.4707 8.41787C45.7228 8.41787 44.3063 9.83518 44.3063 11.5822V20.6286H50.6358V11.5822H50.635ZM63.2939 16.4409C63.2939 14.6931 61.8774 13.2766 60.1296 13.2766C58.3818 13.2766 56.9653 14.6939 56.9653 16.4409V20.6286H63.2948V16.4409H63.2939ZM69.6234 26.4573V20.5927H63.2939V26.4573C63.2939 28.2051 64.7112 29.6216 66.4582 29.6216C68.2069 29.6224 69.6234 28.2051 69.6234 26.4573ZM25.3179 17.9117C25.3179 16.1638 23.9006 14.7474 22.1536 14.7474C20.4057 14.7474 18.9893 16.1647 18.9893 17.9117V20.6286H25.3187V17.9117H25.3179ZM18.9884 35.5571V20.5935H12.659V35.5579C12.659 37.3058 14.0763 38.7222 15.8233 38.7222C17.5711 38.7222 18.9884 37.3049 18.9884 35.5571ZM31.6474 28.0348V20.5935H25.3179V28.0348C25.3179 29.7827 26.7344 31.1991 28.4822 31.1991C30.2301 31.1991 31.6474 29.7827 31.6474 28.0348ZM44.3055 30.7743V20.5935H37.976V30.7743C37.976 32.5221 39.3925 33.9386 41.1403 33.9386C42.889 33.9386 44.3055 32.5221 44.3055 30.7743ZM56.9645 22.7312V20.5927H50.635V22.7312C50.635 24.479 52.0523 25.8955 53.7993 25.8955C55.548 25.8963 56.9645 24.479 56.9645 22.7312ZM22.1527 1.98156C20.3757 1.98156 18.935 3.42224 18.935 5.1993C18.935 6.97636 20.3757 8.41704 22.1527 8.41704C23.9298 8.41704 25.3705 6.97636 25.3705 5.1993C25.3705 3.42224 23.9298 1.98156 22.1527 1.98156ZM54.205 32.5297C52.4279 32.5297 50.9872 33.9703 50.9872 35.7474C50.9872 37.5244 52.4279 38.9651 54.205 38.9651C55.982 38.9651 57.4227 37.5244 57.4227 35.7474C57.4227 33.9703 55.982 32.5297 54.205 32.5297Z" fill="#9867C5"/>
<path d="M13.6578 46.2424L10.1797 55.0893C10.1204 55.2487 10.0161 55.3288 9.86499 55.3288H8.8066C8.64718 55.3288 8.53783 55.2487 8.47856 55.0893L5.0004 46.2307C4.95866 46.138 4.95616 46.0713 4.99372 46.0287C5.03128 45.9869 5.08805 45.9661 5.164 45.9661H6.60051C6.75159 45.9661 6.85676 46.0462 6.91519 46.2056L9.32244 52.7329L11.7297 46.2056C11.7798 46.0462 11.8808 45.9661 12.0318 45.9661H13.4934C13.5694 45.9661 13.6261 45.9894 13.6637 46.0354C13.7021 46.0813 13.7004 46.1505 13.6578 46.2424Z" fill="#9867C5"/>
<path d="M17.8917 55.0641V46.2305C17.8917 46.0544 17.9751 45.9659 18.1437 45.9659H19.5051C19.6645 45.9659 19.7447 46.0544 19.7447 46.2305V55.0641C19.7447 55.2319 19.6645 55.3162 19.5051 55.3162H18.1437C17.9751 55.3153 17.8917 55.2319 17.8917 55.0641Z" fill="#9867C5"/>
<path d="M24.8099 55.0641V46.2055C24.8099 46.0461 24.89 45.9659 25.0494 45.9659H29.1194C29.4808 45.9659 29.8164 46.0335 30.1277 46.1679C30.4382 46.3023 30.707 46.4876 30.934 46.7222C31.1611 46.9575 31.3388 47.2322 31.4699 47.5477C31.6001 47.8623 31.6652 48.2054 31.6652 48.5743C31.6652 48.9358 31.6059 49.263 31.4891 49.5576C31.3714 49.8514 31.1911 50.1035 30.9474 50.3138C31.3088 50.5576 31.5918 50.8831 31.7979 51.2904C32.0033 51.6978 32.1068 52.1368 32.1068 52.6076C32.1068 52.969 32.0391 53.3129 31.9048 53.6409C31.7704 53.9681 31.5876 54.2561 31.3564 54.504C31.1252 54.7519 30.8522 54.9497 30.5375 55.0966C30.2229 55.2435 29.889 55.317 29.5359 55.317H25.0494C24.89 55.3153 24.8099 55.2319 24.8099 55.0641ZM28.6411 47.4776H26.6504V49.7588H28.6286C28.9984 49.7588 29.2922 49.6561 29.5109 49.4499C29.7295 49.2446 29.8381 48.965 29.8381 48.6119C29.8381 48.2672 29.7287 47.9926 29.5109 47.7864C29.2913 47.5802 29.0017 47.4776 28.6411 47.4776ZM29.0059 51.2078H26.6495V53.7786H29.0309C29.2237 53.7786 29.3965 53.7428 29.5476 53.6718C29.6987 53.6009 29.8247 53.504 29.9257 53.3822C30.0267 53.2603 30.1018 53.1259 30.1527 52.979C30.2028 52.8321 30.2287 52.6827 30.2287 52.5316C30.2287 52.3472 30.1953 52.1744 30.1277 52.0149C30.0601 51.8555 29.9699 51.7145 29.8564 51.5926C29.7429 51.4707 29.6127 51.3764 29.4658 51.3088C29.3189 51.2412 29.1653 51.2078 29.0059 51.2078Z" fill="#9867C5"/>
<path d="M36.3779 55.0641V46.218C36.3779 46.0502 36.4581 45.9659 36.6175 45.9659H42.78C42.9478 45.9659 43.0321 46.0502 43.0321 46.218V47.44C43.0321 47.6078 42.9478 47.6921 42.78 47.6921H38.2184V49.5952H41.6966C41.8811 49.5952 41.9737 49.6795 41.9737 49.8472V51.0442C41.9737 51.212 41.8811 51.2963 41.6966 51.2963H38.2184V53.6025H42.8935C43.0697 53.6025 43.1581 53.6868 43.1581 53.8546V55.0641C43.1581 55.2319 43.0697 55.3162 42.8935 55.3162H36.6183C36.4581 55.3153 36.3779 55.2319 36.3779 55.0641Z" fill="#9867C5"/>
<path d="M46.6611 55.0508L50.2144 46.2047C50.2904 46.0453 50.3947 45.9651 50.5291 45.9651H51.5875C51.7386 45.9651 51.8437 46.0453 51.9022 46.2047L55.4555 55.0508C55.4972 55.1351 55.4997 55.2002 55.4621 55.2461C55.4246 55.292 55.3636 55.3154 55.2793 55.3154H53.9054C53.7543 55.3154 53.6492 55.2394 53.5907 55.0883L52.9856 53.5759H49.1168L48.5242 55.0883C48.4649 55.2394 48.3606 55.3154 48.2095 55.3154H46.8231C46.6394 55.3154 46.5852 55.2277 46.6611 55.0508ZM51.0591 48.3849L49.7111 51.9515H52.3829L51.0591 48.3849Z" fill="#9867C5"/>
<path d="M57.549 47.4016V46.2047C57.549 46.0453 57.6291 45.9651 57.7885 45.9651H64.4043C64.5721 45.9651 64.6564 46.0453 64.6564 46.2047V47.4016C64.6564 47.5694 64.5721 47.6537 64.4043 47.6537H61.9845V55.0633C61.9845 55.2311 61.9044 55.3154 61.745 55.3154H60.3844C60.225 55.3154 60.1448 55.2319 60.1448 55.0633V47.6537H57.7885C57.6282 47.6537 57.549 47.5702 57.549 47.4016Z" fill="#9867C5"/>
</svg>
