<?xml version="1.0" encoding="UTF-8"?>
<svg xmlns="http://www.w3.org/2000/svg" version="1.1" viewBox="0 0 319.3 145">
  <defs>
    <style>
      .cls-1 {
        fill: #231f20;
      }

      .cls-2 {
        fill: #ea0029;
      }
    </style>
  </defs>
  <!-- Generator: Adobe Illustrator 28.6.0, SVG Export Plug-In . SVG Version: 1.2.0 Build 709)  -->
  <g>
    <g id="Layer_1">
      <g>
        <g>
          <g>
            <g>
              <polygon class="cls-2" points="57.6 44.3 49.2 44.3 37.8 85.9 58.4 85.9 60.5 78.4 48.2 78.4 57.6 44.3"/>
              <path class="cls-2" d="M93.5,55.3l-.9,3.4c-1.1-1.4-2.4-2.4-3.9-3.1s-3.3-1.1-5.2-1.1c-4.3,0-8.3,1.5-12.1,4.5-3.8,3-6.4,6.9-7.7,11.7-1.3,4.6-.8,8.4,1.5,11.5,2.2,3.1,5.5,4.6,9.7,4.7,1.9,0,3.7-.3,5.5-.9,1.8-.6,3.7-1.7,5.7-3.1l-.9,3.2h8.2s8.5-30.7,8.5-30.7h-8.2ZM89.7,70.6c-.8,2.7-2.2,4.9-4.4,6.6-2.2,1.7-4.5,2.5-7.1,2.5-2.5,0-4.4-.9-5.6-2.6-1.2-1.7-1.5-3.9-.8-6.6.7-2.6,2.2-4.8,4.3-6.5,2.1-1.7,4.5-2.5,7-2.5,2.6,0,4.5.8,5.7,2.5,1.2,1.7,1.5,3.8.8,6.5Z"/>
              <path class="cls-2" d="M116,67.4l-2.6-1.4c-1.1-.6-1.8-1.1-2.1-1.4-.2-.3-.3-.7-.2-1.1.2-.5.5-1,1.2-1.4.6-.4,1.4-.5,2.3-.5,1.7,0,3.3,1,4.8,2.9l6.4-4.8c-.9-1.6-2.1-2.9-3.7-3.8-1.6-.9-3.5-1.3-5.6-1.3-3.1,0-5.9.8-8.4,2.6-2.5,1.7-4,3.8-4.7,6.2-1,3.8.7,6.9,5.3,9.4l2.4,1.3c2.1,1.1,2.9,2.3,2.6,3.5-.2.6-.7,1.2-1.5,1.7-.8.5-1.7.7-2.8.7-1,0-2.1-.3-3.2-1-1.1-.7-2-1.5-2.7-2.6l-6.5,5.2c1.9,3.5,5.2,5.3,10,5.3,3.6,0,6.7-.9,9.3-2.7,2.6-1.8,4.3-4.1,5.1-6.8.6-2.1.5-3.8-.3-5.4-.8-1.5-2.5-3-5.3-4.5Z"/>
              <path class="cls-2" d="M276.9,48.8c-6.9,0-13.5.2-19.4.5,1-1.4,1.9-2.9,2.8-4.2,1.3-2.1,2.4-4,3-5.4.8-1.8,1-3.2.4-3.8h0c-.1-.1-.2-.2-.4-.3,0,0,0,0,0,0-.4-.2-.9-.1-1.4,0-1.9.9-6.4,6.6-11.5,14-2.5.2-4.7.3-6.8.6-8.5.8-13.6,2.2-13.6,4.2,0,.6.5,1.1,1,1.1.6,0,1-.4,1-1,0-.7,4.5-1.4,11.9-2.2,1.5-.2,3.2-.3,5-.4-1.6,2.4-3.3,5-5,7.6-1.3,2-2.6,4.1-3.9,6.2-7.8,1.6-9.7.6-10.1-1-.1-.6-.1-1.3-.1-1.9,0-.3,0-.7,0-1.1,0-1.2-.3-2-.6-2.6-.4-.7-.9-1-1.5-1.1-.5,0-1.1,0-1.6.3-.9.4-1.8,1.3-2.5,2.3-.7,1.1-1.5,2.4-2.3,3.9,0,0,0,0,0,0,0,0-.1,0-.2,0,.4-2,.5-3.8.5-5.4,0-.6-.5-1.1-1-1.1-.6,0-1,.4-1,1,0,1.7-.2,3.6-.7,5.9,0,.1,0,.3,0,.4-3.7,1.4-7.3,2.8-10.8,4.1.3-4.7.1-8.7-.5-12.1.6-3.5,1.2-6.7,1.7-9.3.5-2.8.9-4.8,1-5.5.7-4.4.7-7.2.3-8.7-.3-1.1-.8-1.8-1.6-2-.7-.2-1.4,0-2.2.5-1.4,1-3.3,3.3-5.2,6.5l-2.6,4.2c-1.7-1.1-3.6-2-5.6-2.5-5.7-1.6-12.6-1.1-19.7.9-7,1.9-14.3,5.2-21,9.2-2.1,1.3-4.2,2.6-6.2,4-4.6.1-8.9,1.6-12.8,4.6-4.1,3.1-6.7,7-8,11.7-1.3,4.6-.7,8.4,1.7,11.4,2.1,2.6,5.2,4.1,9.3,4.5,5.1.9,12.7.7,23.1-1.2,4.5-.8,9.4-1.9,14.9-3.3l-7.5,12.1c-.3.5-.2,1.1.3,1.5.5.3,1.1.2,1.4-.3l8.7-14.1c7.5-2,15.9-4.6,25.2-7.9-.6,3.6-1.1,6.9-1.4,9.8-.5,3.7-.6,6.6-.4,8,.1,1.1.5,1.7,1.2,1.8.6.1,1.2-.3,1.7-1.3.7-1.4,1.6-4.9,2.8-11,.7-3.3,1.1-6.4,1.4-9.3,3.3-1.2,6.8-2.5,10.4-3.9-.5,1.6-1,3.3-1.8,5.2-.2.5,0,1.2.6,1.4.5.2,1,0,1.2-.4,1.1-1.7,2.3-3.9,3.5-6.1,1.2-2.3,2.5-4.6,3.6-6.2.5-.8,1.2-1.4,1.7-1.7.2,0,.3-.1.4-.1,0,0,0,0,0,0,.2.3.3.8.3,1.5,0,.3,0,.6,0,1,0,.8,0,1.6.2,2.5.6,2.5,2.7,4.3,10.5,3-5.4,9-10,17.5-11.6,22-.6,1.7-.8,3-.4,3.8.3.5.9.8,1.4.5.5-.2.7-.9.4-1.4,0-.2.1-.9.5-2.1,1.6-4.7,6.7-14,12.6-23.6,0,0,.1-.2.2-.3,0-.1.2-.2.2-.4.2,0,.3,0,.4-.2,4.5-3.4,9.6-9.3,13.8-15,6.3-.3,13.5-.5,21.1-.5.6,0,1-.5.9-1.1,0-.6-.5-1.1-1.1-1.1ZM202,91.3c-.2,0,0,0,0,0h0ZM138.9,62.9c2.1-1.2,4.2-1.8,6.5-1.8,2.1,0,3.8.5,5.1,1.6,1.3,1.1,2,2.5,2.1,4.2h-17.8c1.4-1.9,2.8-3.3,4.1-4ZM175.9,79.7c-3.4.9-6.6,1.7-9.6,2.4l2.4-8.3.4-1.5c1.2-4.3,2.4-7.2,3.7-8.6,1.3-1.5,2.5-2.2,3.8-2.2.6,0,1.3.2,2.2.7l4.4-6.6c-1-.5-2.1-.8-3.1-.8-1.5,0-3,.4-4.5,1.2-1.5.8-2.8,1.9-4,3.5l1.1-3.9h-7s-8,28.3-8,28.3c-3.6.6-6.9,1.1-9.8,1.3,2.5-1.1,4.9-2.7,7.1-4.9l-6.1-3.1c-2.8,2-5.7,3-8.7,3-2.6,0-4.5-.7-5.8-2-1.3-1.3-1.8-3-1.6-5.2h26.3c0,0,.4-1.4.4-1.4,1.4-5.1.9-9.2-1.5-12.3-2.1-2.7-5.3-4.3-9.5-4.6,1.5-1,3-2,4.5-2.9,6.5-3.9,14.1-6.5,20.9-8.4,6.8-1.9,13.3-2.4,18.7-.9,1.8.5,3.5,1.2,5,2.2l-21.6,34.9ZM178.9,78.9l20.3-32.8c2.8,2.5,4.9,6.2,6,11.3-.8,4.4-1.7,9.3-2.4,14-8.8,3.1-16.7,5.6-23.9,7.6ZM204.2,80.6c-.6,3.1-1.2,5.5-1.6,7.2,0-1.1.2-2.5.4-3.9.4-3.2,1-7,1.6-11l.9-.3c-.3,2.5-.7,5.1-1.3,8ZM205.7,70.2l-.8.3c.3-1.9.6-3.8,1-5.7,0,1.7,0,3.5-.2,5.4ZM206,52.8c-1.3-3.6-3.3-6.4-5.7-8.5l2.6-4.3c1.8-2.9,3.5-5.1,4.7-5.9.3-.2.5-.3.6-.3,0,0,0,.2.1.4.3,1.3.3,3.8-.4,7.8-.1.7-.5,2.7-1,5.5-.3,1.5-.6,3.3-1,5.2ZM245.5,60.7c2-3.1,4-6.2,5.9-9,.6,0,1.2,0,1.8-.1-2.4,3.2-5.1,6.4-7.7,9.1ZM254.9,49.4c-.7,0-1.3,0-2,.1,3.7-5.3,6.8-9.4,8.7-11.1,0,.1-.1.2-.2.4-.6,1.4-1.6,3.1-2.9,5.2-1.1,1.7-2.3,3.6-3.7,5.5Z"/>
            </g>
            <g>
              <path class="cls-2" d="M273.7,38.1c1.9,0,3.5,1.6,3.5,3.6s-1.6,3.6-3.5,3.6-3.5-1.6-3.5-3.6,1.6-3.6,3.5-3.6h0ZM273.7,37.3c-2.4,0-4.3,2-4.3,4.4s1.9,4.4,4.3,4.4,4.3-2,4.3-4.4-1.9-4.4-4.3-4.4h0ZM273.7,37.3"/>
              <path class="cls-2" d="M274.7,42.9c-.3.2-.6.4-1,.4-.9,0-1.6-.7-1.6-1.6s.7-1.6,1.6-1.6.9.2,1.1.5l.6-.6c-.4-.4-1.1-.7-1.7-.7-1.3,0-2.4,1.1-2.4,2.5s1.1,2.5,2.4,2.5,1.1-.2,1.5-.5l-.5-.7ZM274.7,42.9"/>
            </g>
          </g>
          <g>
            <path d="M256.6,53.7h1.8l1.8,7.1,3.6-7.1h1.7v10.2c.1,0-1.7,0-1.7,0v-6.1c0,0-3.2,6.1-3.2,6.1h-1.5l-1.6-6.4-1.7,6.4h-1.9l2.7-10.2Z"/>
            <path d="M267.6,53.7h6.4l-.2,1.8h-2.2l-1.2,8.4h-1.9l1.2-8.4h-2.3l.2-1.8Z"/>
            <path d="M275,53.7h2l-1.2,8.4h3.2l-.2,1.8h-5.2l1.4-10.2Z"/>
          </g>
        </g>
        <g>
          <path class="cls-1" d="M45.8,100.6c-.5,0-.9.1-1.4.4-.4.2-.7.5-1,.9-.1-.4-.3-.6-.6-.8-.4-.3-.8-.5-1.4-.5s-.8,0-1.2.3c-.3.1-.5.3-.7.5v-.6c0,0-1,0-1,0l-.9,6.6h1.1l.4-3.1c0-.3.1-.6.2-1,0-.4.2-.6.4-.9.2-.2.4-.4.7-.6.3-.1.6-.2.9-.2s.6.1.9.3c.2.2.3.5.3.9s0,.5,0,.9l-.5,3.6h1.1l.4-3.2c0-.5.2-1,.3-1.3.1-.3.4-.6.7-.9.3-.2.7-.4,1.1-.4s.7.1.9.3c.2.2.3.5.3.8s0,.8-.1,1.4l-.4,3.2h1.1l.5-3.6c0-.4,0-.7,0-1,0-.6-.2-1.2-.6-1.6s-.9-.6-1.5-.6Z"/>
          <path class="cls-1" d="M55.3,101.8c-.2-.3-.5-.6-.9-.8-.4-.2-.9-.3-1.5-.3-1,0-1.9.4-2.6,1.1-.7.7-1.1,1.7-1.1,2.7s.3,1.7.9,2.2c.6.6,1.3.9,2.2.9s1.7-.3,2.4-.9v.8c0,0,1,0,1,0l.9-6.6h-1.1v1ZM54.7,105.2c-.2.4-.6.8-1,1s-.9.4-1.4.4-1.1-.2-1.5-.6c-.4-.4-.6-.9-.6-1.5s.3-1.5.8-2c.5-.5,1.2-.8,1.9-.8s1.1.2,1.5.6c.4.4.6.9.6,1.5s-.1,1-.4,1.5Z"/>
          <path class="cls-1" d="M61.1,100.8c-.6-.3-1.2-.2-1.8,0-.2.1-.4.2-.5.4v-.5c0,0-1,0-1,0l-.9,6.6h1.1l.4-2.8c.1-.9.3-1.5.4-1.8.2-.4.4-.6.6-.8.3-.2.5-.3.8-.3s.3,0,.5.1h.1s.5-.9.5-.9h-.1Z"/>
          <polygon class="cls-1" points="67.1 100.8 65.4 100.8 62.5 103 63.1 98.3 62.1 98.3 60.8 107.4 61.9 107.4 62.3 104.4 65.1 107.4 66.5 107.4 63.2 103.8 67.1 100.8"/>
          <path class="cls-1" d="M67.8,98.4c-.2.2-.2.3-.2.6s0,.4.2.6c.2.2.3.2.6.2s.4,0,.6-.2.2-.3.2-.6,0-.4-.2-.6c-.3-.3-.8-.3-1.1,0Z"/>
          <polygon class="cls-1" points="66.7 107.4 67.8 107.4 68.6 100.8 67.6 100.8 66.7 107.4"/>
          <path class="cls-1" d="M73.2,100.6c-.8,0-1.5.3-2.1.9v-.7c0,0-.9,0-.9,0l-.9,6.6h1.1l.4-2.9c.1-.8.3-1.4.5-1.8.2-.4.5-.6.8-.9.3-.2.7-.3,1.1-.3s.7.1,1,.4c.2.3.4.6.4,1s0,.7-.1,1.4l-.4,3.1h1.1l.4-3c0-.7.1-1.1.1-1.4,0-.7-.2-1.3-.6-1.7-.4-.4-1-.6-1.7-.6Z"/>
          <path class="cls-1" d="M82.8,101.8c-.3-.4-.6-.6-.9-.8-.4-.2-.9-.3-1.4-.3s-1.2.2-1.8.5c-.6.3-1.1.8-1.4,1.4-.3.6-.5,1.2-.5,1.8s.3,1.6.8,2.2c.6.6,1.3.8,2.2.8s1.7-.3,2.3-.9c-.1.6-.2,1.1-.3,1.2-.2.3-.4.6-.8.8-.4.2-.9.3-1.4.3-1,0-1.7-.4-2.1-1.1h0c0,0-1,.3-1,.3h0c.3.7.7,1.1,1.2,1.5.5.3,1.2.5,1.9.5s1.4-.2,2-.5c.6-.3,1-.7,1.2-1.2.2-.4.3-1,.4-1.9l.7-5.5h-1.1v1ZM79.9,106.4c-.6,0-1.1-.2-1.5-.5-.4-.4-.6-.8-.6-1.4s.1-1,.4-1.4c.2-.4.6-.7,1-1,.4-.2.9-.4,1.4-.4s.9.2,1.4.5c.4.3.6.9.6,1.5s-.3,1.4-.8,1.9c-.5.5-1.2.8-1.9.8Z"/>
          <polygon class="cls-1" points="87.8 104.5 91.2 104.5 91.4 103.6 87.9 103.6 87.8 104.5"/>
          <path class="cls-1" d="M97.9,102c.4-.2.9-.4,1.5-.4.9,0,1.6.4,2.1,1.1h0c0,.1.9-.4.9-.4h0c-.3-.6-.7-1-1.2-1.3-.5-.3-1.1-.4-1.8-.4-1.1,0-2,.4-2.8,1.1-.8.7-1.1,1.6-1.1,2.7s.3,1.7.9,2.3c.6.6,1.4.9,2.4.9s1.3-.1,1.8-.3c.5-.2,1-.6,1.4-1h0c0-.1-.9-.7-.9-.7h0c-.2.4-.6.6-1,.8-.4.2-.9.3-1.4.3s-.9,0-1.2-.3c-.3-.2-.6-.4-.8-.8-.2-.3-.3-.7-.3-1.1s.1-.9.4-1.4c.2-.4.6-.8,1-1Z"/>
          <path class="cls-1" d="M108.2,104.1h0c0,.7-.2,1.1-.2,1.3-.1.4-.3.6-.6.9-.3.2-.6.3-1,.3s-.8-.1-1.1-.4c-.3-.3-.4-.6-.4-1.1s0-.7.2-1.5l.4-2.8h-1.1l-.4,2.5v.8c-.1.4-.2.7-.2,1,0,.7.2,1.3.7,1.8.5.5,1.1.7,1.8.7s1.2-.2,1.6-.5c.4-.3.8-.7.9-1.3.2-.5.3-1.3.5-2.5l.3-2.6h-1.1l-.4,3.3Z"/>
          <polygon class="cls-1" points="113.3 98.4 112.3 98.4 111.9 100.8 110.8 100.8 110.7 101.7 111.8 101.7 111 107.4 112.1 107.4 112.9 101.7 114.2 101.7 114.3 100.8 113 100.8 113.3 98.4"/>
          <polygon class="cls-1" points="117.1 100.8 117.4 98.4 116.3 98.4 116 100.8 114.9 100.8 114.8 101.7 115.9 101.7 115.1 107.4 116.2 107.4 116.9 101.7 118.2 101.7 118.3 100.8 117.1 100.8"/>
          <polygon class="cls-1" points="118.3 107.4 119.4 107.4 120.3 100.8 119.2 100.8 118.3 107.4"/>
          <path class="cls-1" d="M119.4,98.4c-.2.2-.2.3-.2.6s0,.4.2.6c.2.2.3.2.6.2s.4,0,.6-.2.2-.3.2-.6,0-.4-.2-.6c-.3-.3-.8-.3-1.1,0Z"/>
          <path class="cls-1" d="M124.8,100.6c-.8,0-1.5.3-2.1.9v-.7c0,0-.9,0-.9,0l-.9,6.6h1.1l.4-2.9c.1-.8.3-1.4.5-1.8.2-.4.5-.6.8-.9.3-.2.7-.3,1.1-.3s.7.1,1,.4c.2.3.4.6.4,1s0,.8-.1,1.4l-.4,3.1h1.1l.4-3c0-.6.1-1.1.1-1.4,0-.7-.2-1.3-.6-1.7-.4-.4-1-.6-1.7-.6Z"/>
          <path class="cls-1" d="M134.4,101.8c-.3-.4-.6-.6-.9-.8-.4-.2-.9-.3-1.4-.3s-1.2.2-1.8.5c-.6.3-1.1.8-1.4,1.4-.3.6-.5,1.2-.5,1.8s.3,1.6.8,2.2c.6.6,1.3.8,2.2.8s1.7-.3,2.3-.9c-.1.6-.2,1.1-.3,1.2-.2.3-.4.6-.8.8-.4.2-.9.3-1.4.3-1,0-1.7-.4-2.1-1.1h0c0,0-1,.3-1,.3h0c.3.7.7,1.1,1.2,1.5.5.3,1.2.5,1.9.5s1.4-.2,2-.5c.6-.3,1-.7,1.2-1.2.2-.4.3-1,.4-1.9l.7-5.5h-1.1v1ZM131.5,106.4c-.6,0-1.1-.2-1.5-.5-.4-.4-.6-.8-.6-1.4s.1-1,.4-1.4c.2-.4.6-.7,1-1,.4-.2.9-.4,1.4-.4s.9.2,1.4.5c.4.3.6.9.6,1.5s-.3,1.4-.8,1.9c-.5.5-1.2.8-1.9.8Z"/>
          <polygon class="cls-1" points="139.4 104.5 142.9 104.5 143 103.6 139.5 103.6 139.4 104.5"/>
          <path class="cls-1" d="M150.9,100.6c-.7,0-1.3.2-1.9.5s-1.1.8-1.4,1.4-.5,1.2-.5,1.9.3,1.5.8,2.2c.5.6,1.3,1,2.3,1s1.2-.1,1.7-.4c.5-.2.9-.6,1.3-1h0c0,0-.8-.8-.8-.8h0c-.2.4-.5.7-.9.8-.4.2-.8.3-1.2.3-.6,0-1.2-.2-1.5-.6-.4-.4-.5-.9-.6-1.6h5.7c0-.3,0-.5,0-.7,0-.9-.3-1.6-.8-2.2-.6-.6-1.3-.9-2.1-.9ZM148.3,103.4c.2-.5.5-.9.9-1.3.5-.3,1-.5,1.6-.5s1,.2,1.4.5c.3.3.5.7.6,1.2h-4.5Z"/>
          <path class="cls-1" d="M158.6,100.6c-.8,0-1.5.3-2.1.9v-.7c0,0-.9,0-.9,0l-.9,6.5h0c0,.1,1.1.1,1.1.1l.4-2.9c.1-.8.3-1.4.5-1.8.2-.4.5-.6.8-.9.3-.2.7-.3,1.1-.3s.7.1,1,.4c.2.3.4.6.4,1s0,.8-.1,1.4l-.4,3.1h1.1l.4-3c0-.6.1-1.1.1-1.4,0-.7-.2-1.3-.6-1.7-.4-.4-1-.6-1.7-.6Z"/>
          <path class="cls-1" d="M168.2,101.8c-.3-.4-.6-.6-.9-.8-.4-.2-.9-.3-1.4-.3s-1.2.2-1.8.5c-.6.3-1.1.8-1.4,1.4-.3.6-.5,1.2-.5,1.8s.3,1.6.8,2.2c.6.6,1.3.8,2.2.8s1.7-.3,2.3-.9c-.1.6-.2,1.1-.3,1.2-.2.3-.4.6-.8.8-.4.2-.9.3-1.4.3-1,0-1.7-.4-2.1-1.1h0c0,0-1,.3-1,.3h0c.3.7.7,1.1,1.2,1.5.5.3,1.2.5,1.9.5s1.4-.2,2-.5c.6-.3,1-.7,1.2-1.2.2-.4.3-1,.4-1.9l.7-5.4h0c0-.1-1.1-.1-1.1-.1v1ZM165.3,106.4c-.6,0-1.1-.2-1.5-.5s-.6-.8-.6-1.4.1-1,.4-1.4c.2-.4.6-.7,1-1,.4-.2.9-.4,1.4-.4s.9.2,1.4.5c.4.3.6.9.6,1.5s-.3,1.4-.8,1.9c-.5.5-1.2.8-1.9.8Z"/>
          <path class="cls-1" d="M174,100.8c-.6-.3-1.2-.2-1.8,0-.2.1-.4.2-.5.4v-.5c0,0-1,0-1,0l-.9,6.5h0c0,.1,1.1.1,1.1.1l.4-2.8c.1-.9.3-1.5.4-1.8.2-.4.4-.6.6-.8.3-.2.5-.3.8-.3s.3,0,.5.1h.1s.5-.9.5-.9h-.1Z"/>
          <path class="cls-1" d="M179.9,101.8c-.2-.3-.5-.6-.9-.8-.4-.2-.9-.3-1.5-.3-1,0-1.9.4-2.6,1.1-.7.7-1.1,1.7-1.1,2.7s.3,1.7.9,2.2c.6.6,1.3.9,2.2.9s1.7-.3,2.4-.9v.8c0,0,1,0,1,0l.9-6.5h0c0-.1-1.1-.1-1.1-.1v1ZM179.4,105.2c-.2.4-.6.8-1,1-.4.2-.9.4-1.4.4s-1.1-.2-1.5-.6c-.4-.4-.6-.9-.6-1.5s.3-1.5.8-2,1.2-.8,1.9-.8,1.1.2,1.5.6c.4.4.6.9.6,1.5s-.1,1-.4,1.5Z"/>
          <polygon class="cls-1" points="184.6 105.3 183.1 100.8 182 100.8 184.2 107.3 184.2 107.4 184.6 107.4 188.4 100.8 187.2 100.8 184.6 105.3"/>
          <polygon class="cls-1" points="188.4 107.3 188.4 107.4 189.5 107.4 190.3 100.8 189.3 100.8 188.4 107.3"/>
          <path class="cls-1" d="M189.5,98.4c-.2.2-.2.3-.2.6s0,.4.2.6c.2.2.3.2.6.2s.4,0,.6-.2c.2-.2.2-.3.2-.6s0-.4-.2-.6c-.3-.3-.8-.3-1.1,0Z"/>
          <path class="cls-1" d="M194.9,100.6c-.8,0-1.5.3-2.1.9v-.7c0,0-.9,0-.9,0l-.9,6.5h0c0,.1,1.1.1,1.1.1l.4-2.9c.1-.8.3-1.4.5-1.8.2-.4.5-.6.8-.9.3-.2.7-.3,1.1-.3s.7.1,1,.4c.2.3.4.6.4,1s0,.8-.1,1.4l-.4,3.1h1.1l.4-3c0-.6.1-1.1.1-1.4,0-.7-.2-1.3-.6-1.7-.4-.4-1-.6-1.7-.6Z"/>
          <path class="cls-1" d="M204.5,101.8c-.3-.4-.6-.6-.9-.8-.4-.2-.9-.3-1.4-.3s-1.2.2-1.8.5c-.6.3-1.1.8-1.4,1.4-.3.6-.5,1.2-.5,1.8s.3,1.6.8,2.2c.6.6,1.3.8,2.2.8s1.7-.3,2.3-.9c-.1.6-.2,1.1-.3,1.2-.2.3-.4.6-.8.8-.4.2-.9.3-1.4.3-1,0-1.7-.4-2.1-1.1h0c0,0-1,.3-1,.3h0c.3.7.7,1.1,1.2,1.5.5.3,1.2.5,1.9.5s1.4-.2,2-.5c.6-.3,1-.7,1.2-1.2.2-.4.3-1,.4-1.9l.7-5.4h0c0-.1-1.1-.1-1.1-.1v1ZM201.5,106.4c-.6,0-1.1-.2-1.5-.5s-.6-.8-.6-1.4.1-1,.4-1.4c.2-.4.6-.7,1-1,.4-.2.9-.4,1.4-.4s.9.2,1.4.5c.4.3.6.9.6,1.5s-.3,1.4-.8,1.9c-.5.5-1.2.8-1.9.8Z"/>
          <polygon class="cls-1" points="209.5 104.5 212.9 104.5 213.1 103.6 209.6 103.6 209.5 104.5"/>
          <path class="cls-1" d="M221.3,100.6c-.9,0-1.7.3-2.4.9v-.8c0,0-1,0-1,0l-1.2,8.8h0c0,.1,1.1.1,1.1.1l.4-3.3c.3.3.5.6.9.8.4.2.9.4,1.5.4,1,0,1.9-.4,2.6-1.1.7-.7,1.1-1.7,1.1-2.7s-.3-1.7-.9-2.2c-.6-.6-1.3-.9-2.2-.9ZM218.9,103c.2-.4.6-.8,1-1,.4-.2.9-.4,1.4-.4s1.2.2,1.5.6c.4.4.6.9.6,1.5s-.3,1.5-.8,2c-.5.5-1.2.8-1.9.8s-1.1-.2-1.5-.6-.6-.9-.6-1.5.1-1,.4-1.5Z"/>
          <path class="cls-1" d="M229.2,100.8h-.1c-.6-.3-1.2-.3-1.8,0-.2.1-.4.2-.5.4v-.5c0,0-1,0-1,0l-.9,6.5h0c0,.1,1.1.1,1.1.1l.4-2.8c.1-.9.3-1.5.4-1.8.2-.4.4-.6.6-.8.3-.2.5-.3.8-.3s.3,0,.5.1h.1s.5-.9.5-.9Z"/>
          <polygon class="cls-1" points="228.6 107.3 228.6 107.4 229.7 107.4 230.5 100.8 229.5 100.8 228.6 107.3"/>
          <path class="cls-1" d="M229.7,98.4c-.2.2-.2.3-.2.6s0,.4.2.6c.2.2.3.2.6.2s.4,0,.6-.2c.2-.2.2-.3.2-.6s0-.4-.2-.6c-.3-.3-.8-.3-1.1,0Z"/>
          <path class="cls-1" d="M235.1,100.6c-.8,0-1.5.3-2.1.9v-.7c0,0-.9,0-.9,0l-.9,6.5h0c0,.1,1.1.1,1.1.1l.4-2.9c.1-.8.3-1.4.5-1.8.2-.4.5-.6.8-.9.3-.2.7-.3,1.1-.3s.7.1,1,.4c.2.3.4.6.4,1s0,.8-.1,1.4l-.4,3.1h1.1l.4-3c0-.6.1-1.1.1-1.4,0-.7-.2-1.3-.6-1.7-.4-.4-1-.6-1.7-.6Z"/>
          <polygon class="cls-1" points="241.1 100.8 241.5 98.4 240.4 98.4 240.1 100.8 239 100.8 238.9 101.7 239.9 101.7 239.2 107.3 239.2 107.4 240.3 107.4 241 101.7 242.3 101.7 242.4 100.8 241.1 100.8"/>
          <polygon class="cls-1" points="242.4 107.3 242.4 107.4 243.5 107.4 244.3 100.8 243.3 100.8 242.4 107.3"/>
          <path class="cls-1" d="M243.5,98.4c-.2.2-.2.3-.2.6s0,.4.2.6c.2.2.3.2.6.2s.4,0,.6-.2c.2-.2.2-.3.2-.6s0-.4-.2-.6c-.3-.3-.8-.3-1.1,0Z"/>
          <path class="cls-1" d="M248.9,100.6c-.8,0-1.5.3-2.1.9v-.7c0,0-.9,0-.9,0l-.9,6.5h0c0,.1,1.1.1,1.1.1l.4-2.9c.1-.8.3-1.4.5-1.8.2-.4.5-.6.8-.9.3-.2.7-.3,1.1-.3s.7.1,1,.4c.2.3.4.6.4,1s0,.8-.1,1.4l-.4,3.1h1.1l.4-3c0-.6.1-1.1.1-1.4,0-.7-.2-1.3-.6-1.7-.4-.4-1-.6-1.7-.6Z"/>
          <path class="cls-1" d="M258.6,100.8v1c-.4-.4-.7-.6-1.1-.8-.4-.2-.9-.3-1.4-.3s-1.2.2-1.8.5c-.6.3-1.1.8-1.4,1.4-.3.6-.5,1.2-.5,1.8s.3,1.6.8,2.2c.6.6,1.3.8,2.2.8s1.7-.3,2.3-.9c-.1.6-.2,1.1-.3,1.2-.2.3-.4.6-.8.8-.4.2-.9.3-1.4.3-1,0-1.7-.4-2.1-1.1h0c0,0-1,.3-1,.3h0c.3.7.7,1.1,1.2,1.5.5.3,1.2.5,1.9.5s1.4-.2,2-.5c.6-.3,1-.7,1.2-1.2.2-.4.3-1,.4-1.9l.7-5.4h0c0-.1-1.1-.1-1.1-.1ZM255.5,106.4c-.6,0-1.1-.2-1.5-.5s-.6-.8-.6-1.4.1-1,.4-1.4c.2-.4.6-.7,1-1,.4-.2.9-.4,1.4-.4s.9.2,1.4.5c.4.3.6.9.6,1.5s-.3,1.4-.8,1.9c-.5.5-1.2.8-1.9.8Z"/>
        </g>
      </g>
    </g>
  </g>
</svg>