<?xml version="1.0" standalone="no"?>
<!DOCTYPE svg PUBLIC "-//W3C//DTD SVG 20010904//EN"
 "http://www.w3.org/TR/2001/REC-SVG-20010904/DTD/svg10.dtd">
<svg version="1.0" xmlns="http://www.w3.org/2000/svg"
 width="3493.000000pt" height="1728.000000pt" viewBox="0 0 3493.000000 1728.000000"
 preserveAspectRatio="xMidYMid meet">

<g transform="translate(0.000000,1728.000000) scale(0.100000,-0.100000)"
fill="#000000" stroke="none">
<path d="M8735 13683 c-267 -56 -472 -250 -557 -523 l-23 -75 -3 -2940 c-2
-1959 1 -2972 7 -3036 28 -261 175 -472 406 -584 218 -106 467 -99 682 20 103
57 227 188 281 295 76 153 82 193 82 589 l0 346 237 237 c131 131 242 238 248
237 5 0 314 -349 685 -776 371 -426 703 -801 737 -833 295 -278 790 -244 1049
71 107 131 165 295 165 469 1 160 -39 289 -127 413 -19 26 -359 419 -756 873
l-721 826 538 532 c296 292 567 565 603 606 72 84 134 202 156 300 22 93 21
259 -3 352 -62 243 -240 434 -476 514 -105 35 -273 44 -385 20 -80 -17 -191
-65 -267 -117 -27 -17 -413 -396 -858 -840 -446 -445 -814 -809 -818 -809 -3
0 -8 735 -9 1633 l-3 1632 -27 80 c-39 113 -91 198 -178 286 -176 179 -423
254 -665 202z"/>
<path d="M19890 13684 c-222 -47 -406 -188 -504 -385 -83 -165 -77 34 -73
-2399 l3 -2165 26 -140 c105 -557 368 -1047 764 -1425 397 -379 863 -607 1429
-697 158 -25 563 -25 730 1 281 43 548 128 800 255 254 129 442 264 649 469
418 414 669 915 753 1507 22 150 22 520 0 670 -108 763 -515 1409 -1151 1832
-131 88 -386 216 -541 271 -132 48 -361 106 -505 127 -149 23 -449 30 -606 16
-255 -24 -547 -97 -781 -197 -56 -24 -107 -44 -113 -44 -6 0 -10 308 -12 868
l-3 867 -27 80 c-121 354 -484 566 -838 489z m2202 -3529 c239 -41 450 -156
622 -335 421 -441 421 -1119 0 -1560 -221 -231 -499 -350 -819 -350 -374 0
-708 175 -926 484 -136 191 -203 405 -203 646 0 134 15 231 55 352 126 389
471 690 872 763 99 18 297 18 399 0z"/>
<path d="M25928 13690 c-113 -20 -225 -70 -325 -143 -182 -135 -294 -380 -280
-617 18 -316 226 -575 532 -662 102 -29 277 -31 375 -4 349 94 590 445 541
792 -25 178 -87 301 -215 429 -141 140 -283 202 -481 210 -55 2 -121 0 -147
-5z"/>
<path d="M13077 11865 c-10 -25 -8 -129 4 -246 38 -376 174 -662 402 -844 113
-91 228 -144 437 -203 543 -154 1012 -430 1439 -847 281 -274 449 -491 678
-875 93 -156 353 -626 353 -638 0 -4 -24 -22 -52 -39 -300 -182 -678 -187
-980 -14 -170 97 -321 259 -409 436 -68 138 -90 229 -96 398 -10 254 41 436
174 627 l45 64 -143 141 c-218 212 -458 387 -765 557 -179 99 -407 203 -427
195 -24 -9 -159 -219 -230 -357 -123 -237 -211 -507 -252 -775 -26 -165 -32
-533 -11 -708 69 -598 307 -1087 741 -1522 512 -513 1123 -765 1856 -765 614
0 1153 185 1619 556 108 86 345 323 434 434 370 463 549 984 549 1600 0 429
-75 768 -249 1128 l-55 113 -57 -32 c-146 -82 -425 -289 -570 -423 -34 -33
-65 -57 -67 -54 -7 7 197 227 277 299 40 36 125 107 188 158 63 50 139 119
168 153 169 193 293 462 359 777 24 113 27 148 27 341 1 118 -3 232 -7 253 -8
38 -9 39 -45 32 -69 -13 -267 -76 -396 -127 -226 -89 -500 -236 -686 -370
l-80 -57 -120 68 c-283 162 -581 262 -935 313 -58 8 -190 13 -370 12 -240 0
-299 -3 -415 -22 -138 -23 -357 -76 -446 -109 l-49 -19 -150 64 c-473 201
-977 312 -1531 338 -137 6 -152 5 -157 -11z m4029 -3740 c53 -36 56 -193 9
-346 -52 -165 -204 -429 -357 -621 l-53 -66 -6 191 c-7 199 -29 386 -59 494
l-17 63 81 78 c193 185 332 257 402 207z"/>
<path d="M25915 11556 c-236 -47 -427 -196 -527 -411 -73 -158 -69 -19 -66
-2175 l3 -1935 31 -88 c18 -48 47 -113 65 -144 44 -74 178 -208 252 -252 365
-214 844 -73 1027 304 81 168 74 -31 78 2100 2 1371 0 1922 -8 1979 -42 292
-257 538 -535 611 -86 22 -236 27 -320 11z"/>
<path d="M16160 4953 c-182 -13 -340 -115 -410 -265 -88 -189 -47 -415 99
-551 99 -91 196 -127 348 -127 135 0 255 43 325 117 l28 29 -46 38 -45 38 -32
-25 c-80 -61 -115 -72 -227 -72 -93 0 -112 3 -161 26 -72 34 -134 96 -168 168
-22 48 -26 69 -26 151 0 82 4 103 26 151 34 72 96 134 168 168 49 23 68 26
161 26 112 0 146 -11 229 -72 l33 -26 41 41 41 41 -24 27 c-71 75 -228 126
-360 117z"/>
<path d="M22070 4949 c-160 -17 -306 -113 -374 -248 -140 -274 -3 -588 293
-675 72 -21 220 -21 292 0 236 69 379 290 340 527 -43 263 -267 424 -551 396z
m228 -152 c70 -37 128 -96 161 -166 22 -48 26 -69 26 -151 0 -82 -4 -103 -26
-151 -34 -72 -96 -134 -168 -168 -49 -23 -68 -26 -161 -26 -95 0 -110 3 -157
28 -75 39 -115 78 -154 149 -33 60 -34 68 -34 168 0 95 3 110 27 156 37 70 72
110 125 141 79 46 111 53 213 50 80 -3 103 -8 148 -30z"/>
<path d="M10580 4480 l0 -460 340 0 341 0 -3 58 -3 57 -267 3 -268 2 0 145 0
145 230 0 230 0 0 60 0 60 -230 0 -230 0 0 135 0 135 258 2 257 3 3 58 3 57
-331 0 -330 0 0 -460z"/>
<path d="M12190 4479 l0 -460 268 3 c246 4 272 6 327 26 189 70 296 227 296
432 0 214 -114 372 -313 435 -75 24 -91 25 -329 25 l-249 0 0 -461z m562 314
c66 -30 133 -96 165 -162 25 -50 28 -66 27 -151 -1 -74 -6 -106 -22 -142 -29
-66 -94 -133 -161 -165 -54 -27 -62 -28 -243 -31 l-188 -4 0 342 0 342 188 -4
c166 -3 192 -5 234 -25z"/>
<path d="M14002 4618 c4 -290 6 -328 24 -375 42 -113 120 -187 233 -219 78
-23 249 -15 315 15 93 41 153 109 188 211 20 60 22 89 26 378 l4 312 -71 0
-70 0 -3 -322 c-3 -310 -4 -325 -25 -364 -46 -86 -115 -124 -228 -124 -113 0
-182 38 -228 124 -21 39 -22 54 -25 364 l-3 322 -70 0 -70 0 3 -322z"/>
<path d="M17510 4493 c-111 -246 -205 -453 -207 -460 -4 -10 12 -13 64 -13
l69 0 50 113 50 112 244 0 245 0 50 -112 49 -113 72 0 72 0 -208 458 -208 457
-70 3 -69 3 -203 -448z m368 88 c51 -115 92 -212 92 -215 0 -3 -86 -6 -191 -6
-152 0 -190 3 -186 13 28 73 182 417 187 417 4 0 48 -94 98 -209z"/>
<path d="M18950 4880 l0 -60 155 0 155 0 0 -400 0 -400 70 0 70 0 0 400 0 399
158 3 157 3 3 58 3 57 -386 0 -385 0 0 -60z"/>
<path d="M20580 4480 l0 -460 70 0 70 0 0 460 0 460 -70 0 -70 0 0 -460z"/>
<path d="M23550 4480 l0 -460 70 0 70 0 2 336 3 335 270 -335 269 -336 58 0
58 0 0 460 0 460 -70 0 -70 0 -2 -336 -3 -335 -270 335 -270 336 -57 0 -58 0
0 -460z"/>
</g>
</svg>
