<?xml version="1.0" standalone="no"?>
<!DOCTYPE svg PUBLIC "-//W3C//DTD SVG 20010904//EN"
 "http://www.w3.org/TR/2001/REC-SVG-20010904/DTD/svg10.dtd">
<svg version="1.0" xmlns="http://www.w3.org/2000/svg"
 width="1066.000000pt" height="439.000000pt" viewBox="0 0 1066.000000 439.000000"
 preserveAspectRatio="xMidYMid meet">

<g transform="translate(0.000000,439.000000) scale(0.100000,-0.100000)"
fill="#000000" stroke="none">
<path d="M5715 4358 c-2 -7 -5 -104 -7 -215 -3 -198 -3 -202 -27 -227 -20 -21
-34 -26 -76 -26 -42 0 -56 5 -74 24 -25 26 -29 51 -17 106 6 29 4 37 -14 48
-30 19 -46 2 -61 -63 -11 -50 -10 -57 12 -102 31 -61 71 -85 147 -86 87 0 155
45 169 115 4 23 8 26 24 18 10 -6 59 -10 109 -10 l91 0 -3 118 -3 117 -27 3
-28 3 0 -85 0 -86 -64 0 c-43 0 -67 5 -75 14 -8 10 -13 70 -14 178 l-2 163
-28 3 c-16 2 -29 -2 -32 -10z"/>
<path d="M6090 4150 l0 -210 125 0 125 0 0 115 0 115 -35 0 -35 0 0 -80 0 -80
-60 0 -60 0 0 175 0 175 -30 0 -30 0 0 -210z"/>
<path d="M4107 4304 c-15 -16 -7 -53 14 -59 30 -10 58 19 43 43 -12 18 -45 28
-57 16z"/>
<path d="M4056 4179 c-41 -32 -59 -76 -52 -126 l6 -43 -49 0 c-73 0 -90 19
-93 105 l-3 70 -30 0 -30 0 -3 -75 c-2 -41 -8 -80 -14 -87 -15 -18 -89 -16
-116 3 -19 13 -22 24 -22 90 l0 75 -32 -3 -33 -3 -3 -80 c-3 -82 -10 -96 -43
-88 -30 8 -49 43 -49 90 0 34 -4 43 -21 48 -30 10 -38 -3 -41 -70 -3 -59 -4
-60 -34 -63 -37 -4 -50 10 -58 63 -3 22 -5 41 -6 43 0 1 -13 2 -30 2 l-30 0 0
-80 c0 -43 -5 -91 -12 -105 -23 -50 -92 -69 -147 -40 -38 19 -52 61 -39 115 9
34 8 44 -3 51 -42 26 -69 -10 -69 -92 0 -86 45 -138 133 -154 80 -15 177 38
192 103 6 28 8 29 55 24 36 -3 57 0 76 13 23 15 27 15 43 1 22 -20 90 -21 117
-1 19 12 24 12 40 0 26 -20 147 -20 178 0 21 14 24 14 36 0 10 -12 43 -15 191
-15 l179 0 0 94 c0 90 -1 95 -29 125 -25 27 -36 31 -79 31 -35 0 -57 -6 -76
-21z m109 -63 c10 -15 15 -40 13 -63 -3 -37 -4 -38 -42 -37 -45 2 -66 23 -66
65 0 30 31 59 62 59 10 0 25 -11 33 -24z"/>
<path d="M6516 4189 c-78 -22 -119 -116 -81 -189 18 -35 56 -57 110 -62 52 -5
58 -31 14 -53 -22 -12 -44 -15 -71 -11 -38 6 -38 6 -38 -28 0 -28 4 -34 25
-38 35 -7 99 6 131 27 14 9 34 34 43 56 15 36 19 39 56 39 22 0 53 8 70 18 27
17 32 17 60 3 97 -49 198 25 181 132 -12 71 -52 107 -119 107 -67 0 -103 -39
-123 -135 -9 -40 -9 -40 -61 -43 l-53 -3 0 56 c0 49 -4 59 -32 89 -37 38 -69
48 -112 35z m73 -107 c18 -58 10 -72 -38 -72 -30 0 -43 5 -51 19 -25 48 3 104
49 99 21 -2 29 -12 40 -46z m343 31 c36 -33 15 -113 -31 -113 -49 0 -72 70
-36 110 22 24 42 25 67 3z"/>
<path d="M7283 4157 c-31 -29 -37 -41 -41 -90 -4 -54 -3 -58 30 -91 27 -27 46
-36 86 -42 57 -7 62 -14 32 -44 -15 -15 -33 -20 -75 -20 -54 0 -55 0 -55 -29
0 -25 5 -31 30 -36 43 -9 124 12 149 39 12 13 25 36 30 52 l7 29 160 5 159 5
3 27 c2 15 -4 37 -12 50 -8 13 -20 48 -27 77 -16 74 -46 101 -114 101 -62 0
-87 -15 -78 -49 5 -20 10 -23 44 -18 44 6 79 -14 79 -44 0 -11 7 -33 15 -49
l16 -30 -121 0 -120 0 0 48 c0 90 -45 142 -123 142 -28 0 -46 -8 -74 -33z
m107 -47 c14 -14 20 -33 20 -65 0 -43 -2 -45 -28 -45 -43 0 -72 26 -72 65 0
24 7 39 22 49 29 20 34 20 58 -4z"/>
<path d="M4377 4174 c-4 -4 -7 -65 -7 -135 0 -141 -5 -153 -63 -142 -25 5 -27
3 -27 -31 0 -35 1 -36 40 -36 74 0 120 43 120 112 0 15 5 17 28 11 44 -13 143
-6 161 11 15 14 19 14 34 -1 24 -25 163 -31 209 -9 31 15 37 15 64 1 16 -8 39
-15 51 -15 27 0 73 20 73 32 0 5 12 0 26 -11 21 -16 41 -21 90 -21 l64 0 0
120 0 120 -35 0 -35 0 0 -85 0 -85 -29 0 c-38 0 -55 22 -61 84 -5 49 -6 51
-37 54 l-32 3 -3 -68 c-3 -65 -4 -68 -30 -71 -32 -4 -58 29 -58 75 0 23 -5 33
-20 38 -30 10 -40 -2 -40 -49 0 -23 -5 -47 -12 -54 -7 -7 -41 -12 -83 -12 -93
0 -105 12 -105 103 l0 67 -35 0 -34 0 -3 -82 -3 -83 -50 -3 c-75 -4 -89 10
-90 94 l0 69 -30 3 c-17 2 -34 0 -38 -4z"/>
<path d="M3754 3886 c-11 -28 4 -48 33 -44 22 2 28 8 28 28 0 20 -6 26 -28 28
-18 2 -29 -2 -33 -12z"/>
<path d="M3846 3884 c-9 -22 12 -46 38 -42 15 2 21 10 21 28 0 20 -6 26 -26
28 -18 2 -29 -3 -33 -14z"/>
<path d="M4551 3887 c-18 -23 -2 -49 28 -45 20 2 26 8 26 28 0 29 -34 40 -54
17z"/>
<path d="M4647 3893 c-4 -3 -7 -17 -7 -30 0 -19 5 -23 29 -23 32 0 48 24 30
46 -12 15 -41 19 -52 7z"/>
<path d="M5860 3886 c-27 -33 18 -72 48 -42 13 13 14 20 6 34 -15 23 -38 26
-54 8z"/>
<path d="M5949 3884 c-17 -21 0 -49 32 -49 27 0 37 28 19 50 -16 19 -34 19
-51 -1z"/>
<path d="M6272 3888 c-20 -20 -14 -47 12 -54 14 -3 30 -3 35 1 24 14 4 65 -24
65 -6 0 -16 -5 -23 -12z"/>
<path d="M7647 3883 c-14 -13 -7 -43 12 -53 15 -7 23 -6 35 6 19 19 20 26 4
42 -13 13 -41 16 -51 5z"/>
<path d="M4580 3490 c-226 -36 -432 -142 -600 -308 -371 -368 -432 -947 -145
-1383 62 -95 219 -252 314 -314 89 -58 215 -114 331 -146 75 -21 106 -24 265
-24 166 0 188 2 280 28 119 33 275 108 366 176 88 67 203 190 264 281 99 151
155 312 177 510 26 240 -50 518 -200 730 -148 209 -366 360 -617 428 -71 19
-121 25 -235 27 -80 2 -170 0 -200 -5z m-340 -383 c14 -26 14 -27 -56 -94 -90
-86 -144 -159 -188 -254 -109 -236 -102 -519 18 -745 l43 -81 -27 -17 c-16 -9
-33 -16 -38 -16 -16 0 -107 196 -127 270 -11 39 -19 120 -22 203 -5 119 -2
151 17 234 27 118 72 218 141 318 56 81 193 219 212 212 7 -2 19 -15 27 -30z
m1129 -43 c187 -178 281 -397 282 -656 0 -178 -46 -348 -132 -485 -17 -28 -20
-28 -52 -2 l-27 20 35 70 c50 97 71 161 89 260 20 105 20 151 1 256 -36 205
-126 371 -269 498 -58 52 -59 54 -46 84 7 17 19 31 26 31 8 0 50 -34 93 -76z
m-422 -84 c184 -64 338 -236 388 -435 55 -218 -30 -463 -215 -618 -101 -85
-224 -127 -374 -127 -177 0 -297 50 -422 174 -128 128 -177 244 -178 426 0
124 14 191 61 285 81 159 247 284 423 319 62 12 256 -3 317 -24z"/>
<path d="M4655 2900 c-55 -11 -142 -47 -179 -72 -96 -66 -180 -177 -210 -277
-18 -62 -21 -212 -5 -280 36 -158 169 -296 338 -351 61 -19 86 -22 169 -18 84
4 107 9 172 40 198 93 305 255 304 463 -1 216 -125 394 -330 471 -74 27 -193
39 -259 24z m62 -76 c3 -9 2 -68 -3 -132 -8 -107 -11 -117 -29 -120 -16 -2
-37 20 -93 98 -40 56 -70 105 -67 111 8 11 60 39 95 50 45 13 90 10 97 -7z
m189 -8 c28 -13 54 -28 58 -34 6 -9 -7 -30 -93 -151 -33 -46 -50 -61 -65 -59
-20 3 -21 10 -24 136 l-3 132 38 0 c21 0 61 -11 89 -24z m-362 -185 c36 -51
66 -98 66 -105 0 -28 -21 -34 -68 -21 -72 20 -191 61 -198 68 -9 9 40 89 81
133 21 22 39 34 44 28 4 -5 38 -51 75 -103z m523 77 c30 -33 71 -100 75 -121
2 -15 -17 -25 -116 -58 -90 -30 -122 -36 -132 -28 -25 21 -27 18 88 177 21 28
44 52 52 52 7 0 22 -10 33 -22z m-230 -222 c27 -29 33 -44 33 -81 0 -37 -6
-52 -33 -81 -28 -31 -42 -37 -84 -41 -47 -5 -54 -3 -88 29 -32 29 -38 42 -42
84 -5 44 -2 54 23 83 35 42 58 52 114 47 35 -3 51 -11 77 -40z m-421 -7 c49
-16 104 -35 122 -40 25 -8 32 -15 32 -34 0 -14 -1 -25 -3 -25 -2 0 -56 -18
-121 -40 -65 -22 -122 -38 -127 -34 -10 6 -13 187 -2 197 8 9 -4 12 99 -24z
m765 -25 c7 -54 0 -142 -11 -149 -4 -3 -61 13 -126 35 -117 38 -142 56 -116
82 12 12 224 88 237 84 6 -1 13 -25 16 -52z m-571 -170 c0 -15 -136 -207 -150
-212 -12 -4 -97 105 -109 140 l-10 27 122 40 c122 40 147 41 147 5z m460 -18
c39 -14 66 -30 68 -40 4 -19 -46 -101 -83 -136 l-24 -23 -20 24 c-11 13 -45
61 -76 106 -48 68 -55 84 -46 101 10 19 13 19 63 6 29 -8 82 -25 118 -38z
m-367 -40 c11 -12 13 -40 9 -138 -2 -68 -5 -124 -6 -125 -5 -6 -98 20 -138 39
-46 20 -59 40 -38 53 6 3 29 34 51 68 44 66 88 117 100 117 4 0 14 -6 22 -14z
m123 6 c13 -8 144 -191 144 -201 0 -10 -80 -47 -120 -55 -19 -4 -43 -10 -52
-12 -17 -5 -18 6 -18 129 0 99 3 137 13 140 17 8 21 8 33 -1z"/>
<path d="M2395 3483 c-321 -27 -521 -152 -596 -372 -34 -100 -41 -252 -37
-804 4 -449 7 -530 21 -580 30 -104 67 -169 136 -237 73 -72 148 -114 271
-151 74 -22 87 -23 702 -26 l628 -4 25 25 25 25 0 520 0 520 -24 28 -24 28
-281 3 c-239 2 -285 1 -311 -13 -16 -8 -31 -17 -32 -18 -1 -1 -5 -123 -8 -272
l-5 -270 -170 -3 c-189 -3 -216 3 -243 52 -15 28 -17 74 -17 451 0 385 1 423
18 448 41 62 34 62 458 67 363 5 388 6 408 24 36 33 43 80 39 293 -3 186 -5
204 -24 230 -11 15 -32 31 -45 34 -24 7 -838 9 -914 2z m705 -283 c0 -6 -99
-10 -278 -10 -497 0 -607 -32 -674 -197 l-23 -58 0 -530 c0 -525 0 -531 23
-596 36 -106 100 -153 247 -184 54 -11 154 -15 443 -15 l372 0 0 290 c0 251 2
290 15 290 13 0 15 -41 15 -306 l0 -306 -417 5 c-445 4 -480 8 -574 56 -92 48
-129 106 -148 234 -17 119 -15 938 3 1048 28 170 90 238 252 273 83 17 744 23
744 6z"/>
<path d="M4395 1108 c-46 -9 -182 -56 -360 -123 -116 -44 -185 -44 -350 1
-123 34 -154 38 -255 39 -101 0 -120 -3 -157 -23 -100 -53 -93 -177 12 -242
60 -37 225 -70 400 -80 150 -9 168 -12 288 -53 117 -39 146 -57 93 -57 -12 0
-66 16 -121 36 -90 33 -113 36 -232 41 -89 4 -133 2 -133 -5 0 -6 -16 -16 -36
-22 -69 -23 -465 10 -549 45 -92 38 -168 79 -245 131 -106 70 -140 84 -209 84
-47 0 -61 -4 -79 -23 -12 -13 -22 -32 -22 -43 0 -24 72 -95 182 -180 42 -32
108 -83 145 -112 37 -28 88 -71 113 -94 24 -22 67 -51 95 -64 50 -22 73 -27
275 -60 58 -9 163 -36 235 -61 72 -24 148 -49 170 -55 54 -13 140 -3 195 23
25 12 81 39 125 60 145 69 455 159 667 194 139 22 383 45 489 45 l126 0 7 77
c3 42 6 174 6 295 l0 218 -292 0 c-161 -1 -322 4 -358 9 -77 13 -156 12 -225
-1z m-946 -135 c22 -14 23 -20 19 -82 -3 -36 -13 -81 -22 -100 -17 -31 -20
-33 -57 -27 -58 9 -87 26 -110 63 -25 40 -22 102 7 134 35 39 111 45 163 12z"/>
<path d="M5431 1106 c-8 -9 -11 -99 -9 -307 l3 -294 84 -3 c61 -2 87 1 92 10
5 7 9 78 9 158 1 116 4 141 13 126 53 -82 51 -81 99 -84 l47 -3 30 58 30 58 1
-147 c0 -80 3 -153 6 -162 5 -13 23 -16 95 -16 l89 0 0 304 c0 268 -2 305 -16
310 -9 3 -47 6 -85 6 -61 0 -73 -3 -94 -25 -14 -13 -25 -28 -25 -34 0 -15 -71
-131 -81 -131 -5 0 -17 17 -27 38 -35 72 -74 133 -92 142 -29 15 -155 13 -169
-4z m147 -96 c7 -11 11 -20 9 -20 -2 0 -12 9 -22 20 -10 11 -14 20 -9 20 5 0
15 -9 22 -20z m350 -216 l-3 -219 -5 227 c-3 125 -2 224 3 219 4 -4 6 -106 5
-227z m-78 187 c-5 -11 -15 -23 -21 -27 -6 -3 -3 5 6 20 20 30 30 35 15 7z
m-235 -27 c9 -15 12 -23 6 -20 -11 7 -35 46 -28 46 3 0 12 -12 22 -26z m60
-90 c9 -15 12 -23 6 -20 -11 7 -35 46 -28 46 3 0 12 -12 22 -26z m70 -34 c-3
-5 -16 -10 -28 -9 -20 1 -20 2 3 9 14 4 26 8 28 9 2 1 0 -3 -3 -9z"/>
<path d="M6219 1104 c-56 -17 -98 -59 -110 -110 -12 -53 -11 -330 1 -375 5
-19 22 -47 37 -60 49 -45 87 -54 228 -53 146 0 184 11 229 65 l27 32 -3 213
c-3 209 -3 213 -27 238 -42 45 -118 66 -234 65 -56 -1 -123 -7 -148 -15z m210
-148 c8 -9 11 -57 9 -147 l-3 -133 -32 -7 c-18 -3 -48 -3 -65 0 l-33 7 -3 133
c-2 90 1 138 9 147 7 8 31 14 59 14 28 0 52 -6 59 -14z m-222 -298 c-3 -8 -6
-5 -6 6 -1 11 2 17 5 13 3 -3 4 -12 1 -19z m304 -41 l-24 -22 19 27 c10 14 21
24 23 22 3 -3 -6 -15 -18 -27z m-248 -26 c-2 -3 -16 8 -31 24 l-27 28 31 -24
c17 -13 30 -26 27 -28z m50 -8 c-7 -2 -19 -2 -25 0 -7 3 -2 5 12 5 14 0 19 -2
13 -5z m140 0 c-7 -2 -19 -2 -25 0 -7 3 -2 5 12 5 14 0 19 -2 13 -5z"/>
<path d="M6719 1108 c-11 -12 -15 -69 -17 -291 -2 -152 -1 -285 3 -296 6 -20
13 -21 212 -21 166 0 211 3 238 16 51 24 68 58 73 144 5 100 -11 148 -59 175
l-37 20 19 24 c24 29 26 128 4 170 -27 53 -72 65 -256 69 -133 3 -168 1 -180
-10z m360 -137 c-2 -6 -10 2 -17 17 -11 25 -11 25 4 10 9 -9 15 -21 13 -27z
m-91 -10 c8 -5 12 -22 10 -42 -3 -33 -5 -34 -49 -37 -46 -3 -47 -2 -51 30 -3
18 -3 39 -1 46 6 14 71 16 91 3z m89 -103 c-3 -8 -6 -5 -6 6 -1 11 2 17 5 13
3 -3 4 -12 1 -19z m-32 -38 c-3 -6 4 -10 16 -10 12 0 20 -3 17 -6 -3 -3 -23
-2 -44 2 -36 7 -37 8 -14 15 14 4 26 7 28 8 2 1 0 -3 -3 -9z m75 -35 c19 -22
8 -25 -12 -3 -10 10 -14 18 -9 18 5 0 14 -7 21 -15z m-92 -47 c7 -7 12 -26 12
-43 0 -44 -16 -55 -81 -55 l-57 0 -4 45 c-2 24 -2 49 0 55 5 14 115 13 130 -2z
m109 -80 c-2 -18 -4 -4 -4 32 0 36 2 50 4 33 2 -18 2 -48 0 -65z m-7 -42 c0
-2 -8 -10 -17 -17 -16 -13 -17 -12 -4 4 13 16 21 21 21 13z m-43 -32 c-3 -3
-12 -4 -19 -1 -8 3 -5 6 6 6 11 1 17 -2 13 -5z"/>
<path d="M7643 1113 c-10 -4 -13 -75 -13 -309 l0 -304 243 2 242 3 0 160 0
160 -85 0 -85 0 -3 -82 -3 -83 -59 0 -60 0 0 214 c0 254 3 246 -98 245 -37 0
-73 -3 -79 -6z m84 -420 c-1 -65 -3 -14 -3 112 0 127 2 180 3 118 2 -62 2
-165 0 -230z m300 -76 c-2 -23 -3 -1 -3 48 0 50 1 68 3 42 2 -26 2 -67 0 -90z"/>
<path d="M8202 1108 c-9 -9 -12 -92 -12 -310 l0 -298 220 0 c207 0 220 1 230
19 14 27 13 114 -2 129 -8 8 -53 12 -135 12 l-123 0 0 35 0 35 81 0 c107 0
119 7 119 71 0 84 -6 89 -110 89 l-90 0 0 30 0 30 125 0 c113 0 125 2 135 19
15 29 12 104 -6 129 -15 21 -20 22 -218 22 -144 0 -205 -3 -214 -12z m85 -415
c-1 -65 -3 -14 -3 112 0 127 2 180 3 118 2 -62 2 -165 0 -230z"/>
<path d="M7330 1056 c0 -25 6 -38 25 -50 15 -10 25 -26 25 -40 0 -14 -9 -28
-25 -36 -25 -13 -25 -15 -25 -145 0 -132 0 -132 26 -143 33 -16 31 -62 -4 -77
-35 -15 -26 -50 13 -50 22 0 29 4 27 17 -1 9 2 19 8 23 5 3 10 -2 10 -12 1
-11 9 -2 22 22 11 22 31 51 43 65 13 14 35 43 49 64 25 37 26 45 25 170 0 72
-3 149 -7 171 -7 40 -8 40 -57 43 -27 2 -60 -2 -73 -10 -20 -11 -25 -10 -33 5
-6 9 -19 17 -29 17 -16 0 -20 -7 -20 -34z m170 -347 c0 -32 -19 -59 -40 -59
-17 0 -20 7 -20 40 0 38 2 40 30 40 24 0 30 -4 30 -21z"/>
<path d="M7311 986 c-9 -11 -10 -20 -1 -36 13 -24 38 -23 53 1 23 37 -25 68
-52 35z m45 -7 c9 -15 -11 -33 -30 -26 -9 4 -13 13 -10 22 7 17 30 20 40 4z"/>
<path d="M7330 970 c0 -5 5 -10 11 -10 5 0 7 5 4 10 -3 6 -8 10 -11 10 -2 0
-4 -4 -4 -10z"/>
<path d="M2443 935 c-13 -9 -23 -27 -23 -41 0 -29 7 -30 33 -6 21 18 129 24
177 9 14 -4 3 4 -23 18 -63 34 -134 42 -164 20z"/>
<path d="M2870 837 c11 -12 209 -106 255 -121 70 -22 242 -56 287 -56 20 0 39
4 42 9 6 10 -74 26 -206 41 -71 8 -99 18 -190 65 -59 30 -127 58 -150 61 -24
4 -41 4 -38 1z"/>
<path d="M2815 785 c44 -37 328 -152 290 -117 -5 5 -32 17 -60 27 -27 9 -88
36 -135 58 -118 57 -131 62 -95 32z"/>
<path d="M7310 620 c-9 -16 -8 -25 1 -36 27 -33 75 -2 52 35 -15 24 -40 25
-53 1z m48 -17 c5 -18 -28 -29 -38 -12 -5 7 -6 17 -3 22 7 12 35 5 41 -10z"/>
<path d="M7330 600 c0 -5 5 -10 10 -10 6 0 10 5 10 10 0 6 -4 10 -10 10 -5 0
-10 -4 -10 -10z"/>
<path d="M5766 429 c-53 -42 -13 -109 65 -109 28 0 39 -4 39 -15 0 -18 -60
-21 -92 -4 -31 17 -47 -5 -23 -31 16 -18 29 -20 79 -18 56 3 62 5 75 32 12 25
11 31 -6 55 -17 21 -29 27 -72 29 -35 2 -51 7 -48 15 3 8 27 11 71 10 36 0 66
3 66 7 0 5 -12 18 -26 29 -35 27 -93 27 -128 0z"/>
<path d="M5950 425 c0 -25 1 -25 85 -25 84 0 85 0 85 25 0 25 -1 25 -85 25
-84 0 -85 0 -85 -25z"/>
<path d="M6150 425 c0 -24 3 -25 55 -25 56 0 73 -13 33 -24 -13 -3 -38 -6 -55
-6 l-33 0 0 -60 c0 -57 1 -60 25 -60 23 0 25 4 25 40 0 35 3 40 23 40 15 0 29
-12 45 -40 17 -30 29 -40 48 -40 l25 0 -27 46 c-26 45 -26 45 -9 84 28 61 19
70 -75 70 -79 0 -80 0 -80 -25z"/>
<path d="M6350 444 c0 -14 62 -114 70 -114 20 0 20 41 0 79 -16 31 -26 41 -45
41 -14 0 -25 -3 -25 -6z"/>
<path d="M6480 373 c-28 -53 -39 -84 -35 -100 3 -13 10 -23 15 -23 5 0 29 37
54 83 63 115 63 117 33 117 -21 0 -32 -12 -67 -77z"/>
<path d="M6610 351 c0 -95 1 -101 20 -101 20 0 21 5 18 97 -3 84 -6 98 -20
101 -16 3 -18 -7 -18 -97z"/>
<path d="M6733 435 c-37 -16 -55 -45 -56 -93 -1 -48 47 -92 101 -92 41 1 63
13 81 48 11 20 9 22 -12 22 -14 0 -30 -7 -37 -15 -27 -32 -90 -5 -90 39 0 55
56 75 100 36 26 -22 36 -25 45 -10 10 16 -24 58 -57 69 -38 13 -36 13 -75 -4z"/>
<path d="M6900 425 c0 -25 1 -25 85 -25 84 0 85 0 85 25 0 25 -1 25 -85 25
-84 0 -85 0 -85 -25z"/>
<path d="M7122 438 c-25 -12 -37 -46 -28 -76 8 -24 47 -42 91 -42 25 0 35 -4
35 -16 0 -13 -9 -15 -47 -12 -27 2 -54 6 -62 9 -20 6 -24 -16 -6 -35 20 -20
113 -22 139 -3 23 17 24 63 2 85 -9 9 -36 19 -61 22 -65 7 -51 25 18 23 42 -1
57 2 57 12 0 37 -86 58 -138 33z"/>
<path d="M7482 435 c-38 -17 -66 -71 -56 -110 9 -35 60 -75 94 -75 41 0 76 18
89 46 9 22 8 24 -13 24 -13 0 -29 -7 -36 -15 -17 -20 -53 -19 -73 3 -20 22
-22 63 -5 80 17 17 64 15 82 -3 15 -16 56 -21 56 -7 0 15 -55 61 -80 66 -14 3
-40 -1 -58 -9z"/>
<path d="M7644 435 c-11 -28 7 -35 92 -35 83 0 84 0 84 25 0 25 -1 25 -85 25
-66 0 -87 -3 -91 -15z"/>
<path d="M7970 400 c0 -27 -4 -50 -8 -50 -4 0 -28 20 -52 45 -50 51 -60 55
-60 23 0 -15 26 -49 72 -95 40 -40 76 -73 80 -73 5 0 8 45 8 100 0 93 -1 100
-20 100 -17 0 -20 -7 -20 -50z"/>
<path d="M8047 443 c-4 -3 -7 -15 -7 -25 0 -16 9 -18 90 -18 89 0 90 0 90 25
0 25 -1 25 -83 25 -46 0 -87 -3 -90 -7z"/>
<path d="M8250 425 c0 -25 0 -25 91 -25 88 0 90 1 87 23 -3 21 -8 22 -90 25
l-88 3 0 -26z"/>
<path d="M8460 425 c0 -24 3 -25 58 -25 52 -1 55 -2 38 -15 -11 -8 -36 -15
-57 -15 -43 0 -49 -10 -42 -74 4 -36 9 -46 22 -44 11 2 17 16 19 41 3 31 7 37
26 37 16 0 29 -12 45 -40 14 -25 29 -40 42 -40 25 0 24 14 -2 57 -21 33 -21
35 -4 73 27 61 18 70 -70 70 -73 0 -75 -1 -75 -25z"/>
<path d="M5950 310 l0 -60 85 0 c78 0 85 2 85 20 0 18 -7 20 -65 20 -58 0 -65
2 -65 20 0 16 8 19 58 22 43 2 57 7 57 18 0 12 -17 16 -77 18 l-78 3 0 -61z"/>
<path d="M6900 310 l0 -60 85 0 c78 0 85 2 85 20 0 18 -7 20 -65 20 -58 0 -65
2 -65 20 0 16 8 19 57 22 46 2 59 7 61 21 3 15 -6 17 -77 17 l-81 0 0 -60z"/>
<path d="M7649 368 c-1 -6 -1 -93 0 -105 1 -9 25 -13 86 -13 78 0 85 2 85 20
0 18 -7 20 -65 20 -58 0 -65 2 -65 20 0 16 8 19 58 22 43 2 57 7 57 18 0 12
-17 16 -77 18 -43 2 -78 2 -79 0z"/>
<path d="M8110 310 c0 -53 2 -60 20 -60 18 0 20 7 20 60 0 53 -2 60 -20 60
-18 0 -20 -7 -20 -60z"/>
<path d="M8250 310 l0 -61 88 3 c69 2 87 6 87 18 0 12 -15 16 -67 18 -59 3
-68 5 -68 22 0 16 9 19 57 22 46 2 59 7 61 21 3 15 -6 17 -77 17 l-81 0 0 -60z"/>
<path d="M7850 294 c0 -41 2 -45 22 -42 29 4 34 32 14 63 -24 37 -36 30 -36
-21z"/>
</g>
</svg>
