<?xml version="1.0" encoding="utf-8"?>
<!-- Generator: Adobe Illustrator 25.0.0, SVG Export Plug-In . SVG Version: 6.00 Build 0)  -->
<svg version="1.1" id="Layer_1" xmlns="http://www.w3.org/2000/svg" xmlns:xlink="http://www.w3.org/1999/xlink" x="0px" y="0px"
	 viewBox="0 0 150 150" style="enable-background:new 0 0 150 150;" xml:space="preserve">
<style type="text/css">
	.st0{fill:#FFFFFF;}
	.st1{fill:#C90019;}
</style>
<g>
	<g>
		<path class="st0" d="M77.6,20.8C89.5,22,98.7,32.1,98.7,44.3c0,13-10.6,23.6-23.6,23.6c-13,0-23.6-10.6-23.6-23.6
			c0-13,10.6-23.6,23.6-23.6C75.9,20.7,76.8,20.7,77.6,20.8z M78.8,66.2c12.1-2,20.3-13.5,18.3-25.7c-1.7-10.1-9.9-17.5-19.6-18.5
			c-2-0.2-4-0.2-6,0.2c-2.4,0.4-4.7,1.2-6.7,2.3c10.7,3.6,16.4,9.1,16.8,14.8c0.2,3.5-1.4,6-3.6,8.1l15.1-1.1c0.4,0,0.6,0.5,0,0.6
			L57.1,57.3c3.7,5.1,9.4,8.4,15.7,9.1C74.7,66.6,76.8,66.6,78.8,66.2z M68.9,44.8c2-7.4-0.3-15.2-5.7-19.3
			C55.9,30.1,51.6,38.8,53.1,48c0.5,3,1.6,5.8,3.1,8.2C62,54.6,67.1,51.5,68.9,44.8z"/>
		<path class="st1" d="M97.1,40.6c2,12.1-6.1,23.6-18.3,25.7c-2,0.3-4.1,0.4-6,0.2c-6.3-0.7-12-4-15.7-9.1L93.1,47
			c0.5-0.1,0.4-0.6,0-0.6L78,47.4c2.1-2.1,3.8-4.6,3.6-8.1c-0.4-5.6-6.1-11.2-16.8-14.8c2.1-1.1,4.3-1.9,6.7-2.3
			c2-0.3,4.1-0.4,6-0.2C87.1,23.1,95.4,30.5,97.1,40.6z M53.1,48c0.5,3,1.6,5.8,3.1,8.2c5.7-1.6,10.8-4.6,12.6-11.4
			c2-7.4-0.3-15.2-5.7-19.3C55.9,30.1,51.6,38.8,53.1,48z"/>
	</g>
	<g>
		<g>
			<polygon points="127.7,99.2 127.7,91.4 119.9,91.4 119.9,99.2 115.6,99.2 115.6,80.7 119.9,80.7 119.9,88.1 127.7,88.1 
				127.7,80.7 132,80.7 132,99.2 			"/>
			<path d="M35.6,80.7v11.6c0,1.3,0.2,2.4,0.6,3.3c0.4,0.9,0.9,1.6,1.6,2.2c0.7,0.6,1.5,1,2.5,1.3c1,0.3,2.1,0.4,3.3,0.4
				c1.2,0,2.3-0.1,3.2-0.4c0.9-0.3,1.7-0.7,2.4-1.3c0.6-0.6,1.1-1.3,1.5-2.2c0.4-0.9,0.5-2,0.5-3.3V80.7h-4v11.5
				c0,1.2-0.3,2.1-0.9,2.8c-0.6,0.7-1.5,1.1-2.8,1.1c-1.2,0-2.1-0.4-2.7-1.1c-0.6-0.7-0.9-1.6-0.9-2.8V80.7H35.6z"/>
			<path d="M23.3,99.2v-15h-5v-3.5h14.4v1.7c0,1-0.8,1.8-1.8,1.8h-3.3v15H23.3z"/>
			<rect x="91.9" y="80.7" width="4.3" height="18.5"/>
			<path d="M77.7,90.6l0.1,0.2l5.5,7c0.7,0.9,1.7,1.4,2.9,1.4h3.4l-7.8-9.9l-0.1-0.1l0.1-0.1l6.4-8.3h-4.4l-5.9,8l-0.1,0.2l0-0.3
				v-7.8h-4.3v18.5h4.3v-8.3L77.7,90.6z"/>
			<path d="M67.9,99.2c-1.3,0-2.5-0.7-3.1-1.8L61.4,92h-2.1v7.2H55V80.7h7.6c2,0,3.5,0.5,4.6,1.5c1.1,1,1.6,2.4,1.6,4.1
				c0,0.9-0.2,1.7-0.7,2.6c-0.4,0.9-1.2,1.5-2.4,2.1l-0.2,0.1l5.2,8.1H67.9z M59.3,89.2h2.5c0.9,0,1.6-0.2,2-0.7
				c0.4-0.5,0.7-1.1,0.7-1.9c0-0.8-0.2-1.4-0.7-1.9c-0.4-0.5-1.1-0.7-2-0.7h-2.5V89.2z"/>
			<path d="M99.7,98.4v-3.5c1.4,0.6,3.1,1.3,4.9,1.3c2.1,0,3.1-0.7,3.1-2.1c0-1.6-1.4-1.8-4.3-3c-1.9-0.9-3.8-2.2-3.8-5.3
				c0-3.6,2.8-5.3,6.6-5.3c2,0,3.7,0.5,4.7,0.8v3.5c-1-0.4-2.7-1-4.4-1c-1.9,0-2.8,0.7-2.8,1.9c0,1.3,1.1,1.6,3,2.4
				c2.4,1.2,5.3,1.8,5.3,5.9c0,3.6-2.9,5.6-6.7,5.6C103.1,99.5,101.2,99.1,99.7,98.4z"/>
		</g>
		<g>
			<path d="M106.4,123.3v-18.5H118v1.7c0,1-0.8,1.8-1.8,1.8h-5.5v4h6.2v3.1h-6.2v4.5h7.3v3.5H106.4z"/>
			<path d="M64.2,123.3v-18.5h2.1c1.2,0,2.2,1,2.2,2.2v13h6.8v3.3H64.2z"/>
			<rect x="37.7" y="104.9" width="4.3" height="18.5"/>
			<path d="M58.7,123.3c-1.3,0-2.5-0.7-3.1-1.8l-3.3-5.5h-2.1v7.2h-4.3v-18.5h7.6c2,0,3.5,0.5,4.6,1.5c1.1,1,1.6,2.4,1.6,4.1
				c0,0.9-0.2,1.7-0.7,2.6c-0.4,0.9-1.2,1.5-2.4,2.1l-0.2,0.1l5.2,8.1H58.7z M50.2,113.3h2.5c0.9,0,1.6-0.2,2-0.7
				c0.4-0.5,0.7-1.1,0.7-1.9c0-0.8-0.2-1.4-0.7-1.9c-0.4-0.5-1.1-0.7-2-0.7h-2.5V113.3z"/>
			<path d="M28.3,104.9h-4.9l-7,18.5h3.1c0.8,0,1.5-0.5,1.7-1.2l0.7-2.2h7.5l1.1,3.4h4.6L28.3,104.9z M23,116.6l1.7-4.7
				c0.4-1.1,0.7-2.2,1-3h0.1c0.2,0.8,0.6,1.9,1,3l1.6,4.7H23z"/>
			<path d="M121.4,122.6V119c1.4,0.6,3.1,1.3,4.9,1.3c2.1,0,3.1-0.7,3.1-2.1c0-1.6-1.4-1.8-4.3-3c-1.9-0.9-3.8-2.2-3.8-5.3
				c0-3.6,2.8-5.3,6.6-5.3c2,0,3.7,0.5,4.7,0.8v3.5c-1-0.4-2.7-1-4.4-1c-1.9,0-2.8,0.7-2.8,1.9c0,1.3,1.1,1.6,3,2.4
				c2.4,1.2,5.3,1.8,5.3,5.9c0,3.6-2.9,5.6-6.7,5.6C124.7,123.6,122.9,123.2,121.4,122.6z"/>
			<path d="M86.2,104.9h2.6c1.3,0,2.4,0.6,3.1,1.7l5.2,8.3c0.6,0.9,1.3,2.1,1.7,3h0.1c-0.1-0.8-0.1-2-0.1-2.8v-10.2h3.7v18.5h-4.7
				l-6.3-10c-0.6-0.9-1.2-2-1.6-2.8h-0.1c0,0.8,0.1,1.8,0.1,2.6v10.2h-3.7V104.9z"/>
			<rect x="78" y="104.9" width="4.3" height="18.5"/>
		</g>
	</g>
</g>
</svg>
