<?xml version="1.0" encoding="utf-8"?>
<!-- Generator: Adobe Illustrator 26.0.3, SVG Export Plug-In . SVG Version: 6.00 Build 0)  -->
<svg version="1.0" id="Layer_1" xmlns="http://www.w3.org/2000/svg" xmlns:xlink="http://www.w3.org/1999/xlink" x="0px" y="0px"
	 viewBox="0 0 321.8 228.4" style="enable-background:new 0 0 321.8 228.4;" xml:space="preserve">
<style type="text/css">
	.st0{fill:#1D1D1B;}
	.st1{fill:#E20613;}
</style>
<g>
	<g>
		<path class="st0" d="M207.2,103.8c-0.5,0.4-1.5,0.8-2.8,1.1c-1.2,0.3-2.2,0.4-3,0.4c-1.3,0-2.4-0.3-3.2-0.8
			c-1-0.7-1.5-1.7-1.5-3.1c0-2,0.9-4.1,2.9-6.2c0.7-0.8,1.2-1.2,1.4-1.2c-0.8,1-1.3,1.8-1.7,2.4c-0.5,1-0.8,1.9-0.8,2.9
			c0,0.9,0.4,1.7,1.3,2.2c0.8,0.5,1.6,0.8,2.4,0.8c1.2,0,2.3-0.1,3.3-0.4c0.6-0.2,1.2-0.3,1.8-0.5c-0.6-0.9-1.4-1.4-2.6-1.4
			l-2.1-0.2c0.1-0.4,0.6-1.4,1.7-3.2h6.5v3.4h-1.4c-0.4,1-0.8,1.7-1,2.1C208.1,102.9,207.6,103.4,207.2,103.8z"/>
		<path class="st0" d="M229.4,100h-18.8l0-3.4h5.1c0-0.6,0.1-1,0.2-1.2c0.1-0.1,0.3-0.5,0.7-1.1c0.6-0.8,1.4-1.6,2.3-2.3
			c1.1-0.8,2-1.3,2.8-1.3c0.5,0,0.9,0.4,1.2,1.1c0.2,0.6,0.4,1.2,0.4,1.9c0,0.5-0.1,0.9-0.2,1.2l-0.9,1.7h7.2L229.4,100L229.4,100z
			 M215.5,86.5c0-0.2,0.4-0.6,1.1-1.4c0.7-0.7,1.1-1.1,1.3-1.1c0.1,0,0.5,0.4,1.3,1.2c0.8,0.8,1.2,1.2,1.2,1.3
			c0,0.2-0.4,0.6-1.1,1.2c-0.7,0.6-1.2,0.9-1.4,0.9c-0.1,0-0.6-0.3-1.3-1C215.9,87,215.5,86.6,215.5,86.5z M219.6,96.5
			c0.6,0,1.1-0.2,1.4-0.6c0-0.5-0.1-0.9-0.3-1.3c-0.2-0.4-0.6-0.6-1-0.6c-0.3,0-0.6,0.1-1.2,0.4c-0.6,0.3-0.9,0.6-0.9,0.8
			c0,0.3,0.3,0.6,0.8,0.9C218.8,96.4,219.2,96.5,219.6,96.5z"/>
		<path class="st0" d="M231.1,99.4c-0.2,0.4-0.5,0.6-0.9,0.6H229v-3.4h1.9c0.3,0,0.5-0.4,0.5-1.2c0.5-0.9,0.8-1.5,0.9-1.6
			c0.4-0.8,0.8-1.2,1-1.3c0,0.7-0.3,2.1-0.9,4.1h3.2c0.3,0,0.5-0.3,0.4-0.8c0-0.1,0-0.2,0-0.3c0-0.1,0-0.1,0-0.2
			c0.9-1.6,1.5-2.5,2-2.8c0,0.2,0,0.5,0,1s0,0.8,0,1c0,0.5-0.1,1.2-0.3,2.2h1.9c0.1,0,0.2-0.2,0.2-0.7c0-0.1,0-0.2,0-0.3
			c0-0.1,0-0.2,0-0.3c0.8-1.6,1.4-2.4,1.7-2.4l0.2,2.5c0,0.3,0.1,0.6,0.3,0.8c0.2,0.3,0.4,0.4,0.6,0.4h0.9v3.4h-2.2
			c-0.1-0.2-0.2-0.5-0.4-0.9l-0.6,0.9h-3.6c-0.2-0.4-0.4-0.6-0.6-0.6c0,0-0.1,0.1-0.3,0.3s-0.3,0.3-0.4,0.3h-3.8
			C231.4,99.6,231.2,99.4,231.1,99.4z M236.4,88.6c0.1,0,0.4-0.2,0.7-0.7c0.4-0.5,0.7-0.8,0.8-0.8l2.5,1.6c-0.9,1.4-1.6,2.2-1.8,2.2
			c0,0-0.4-0.2-1.2-0.7c-0.8-0.5-1.2-0.7-1.3-0.8l-0.9,0.9c-0.2,0.3-0.4,0.4-0.4,0.5c-0.3-0.1-0.7-0.3-1.3-0.7
			c-0.6-0.4-1-0.6-1.2-0.8c0.7-0.9,1.3-1.6,1.9-2.1c0.2,0.2,0.5,0.5,1.1,0.8C235.9,88.4,236.3,88.6,236.4,88.6z M234.5,86.1
			c0-0.1,0.2-0.4,0.8-1s0.8-0.8,0.9-0.8c0.1,0,0.4,0.3,0.9,0.8c0.6,0.5,0.8,0.8,0.8,0.9c0,0.1-0.3,0.4-0.8,0.9
			c-0.5,0.5-0.8,0.7-1,0.7c-0.1,0-0.4-0.2-0.9-0.7C234.7,86.4,234.5,86.1,234.5,86.1z"/>
		<path class="st0" d="M241.1,96.5h5.1c0.1-0.2,0.2-1.1,0.2-2.8c0,0,0.3-0.5,0.9-1.3c0.6-0.8,0.9-1.2,1-1.3v0.2c0,0.1,0,0.1,0,0.2
			c0,0.1,0,0.2,0,0.2c0,0.9-0.1,1.9-0.2,3.2c-0.1,0.4,0.1,0.8,0.4,1.1c0.3,0.3,0.6,0.4,1,0.4h1v3.4h-1.9c-0.6,0-1.1-0.2-1.4-0.6
			c-0.3-0.3-0.5-0.8-0.7-1.5l-1.1,2.1h-4.4L241.1,96.5L241.1,96.5z M245.6,86.3c0.1,0,0.3-0.2,0.7-0.6c0.4-0.5,0.7-0.7,0.8-0.8
			l2.5,1.5c-1,1.4-1.6,2.1-1.8,2.1c-0.1,0-0.4-0.2-1.2-0.6c-0.7-0.4-1.1-0.7-1.3-0.8c-0.4,0.4-0.8,0.9-1.2,1.4
			c-0.3-0.1-0.7-0.3-1.3-0.6c-0.6-0.3-1-0.6-1.2-0.8c0.7-0.9,1.3-1.5,1.8-2c0.2,0.2,0.5,0.5,1.1,0.8
			C245.1,86.1,245.5,86.3,245.6,86.3z"/>
		<path class="st0" d="M251.4,99.4c-0.2,0.4-0.5,0.6-0.9,0.6h-1.2v-3.4h1.9c0.3,0,0.5-0.4,0.5-1.2c0.5-0.9,0.8-1.5,0.9-1.6
			c0.4-0.8,0.8-1.2,1-1.3c0,0.7-0.3,2.1-0.9,4.1h3.2c0.3,0,0.5-0.3,0.5-0.8c0-0.1,0-0.2,0-0.3c0-0.1,0-0.1,0-0.2
			c0.9-1.6,1.5-2.5,2-2.8c0,0.2,0,0.5,0,1c0,0.4,0,0.8,0,1c0,0.5-0.1,1.2-0.3,2.2h1.9c0.1,0,0.2-0.2,0.2-0.7c0-0.1,0-0.2,0-0.3
			c0-0.1,0-0.2,0-0.3c0.8-1.6,1.4-2.4,1.7-2.4l0.2,2.5c0,0.3,0.1,0.6,0.3,0.8c0.2,0.3,0.4,0.4,0.6,0.4h0.2v3.4h-1.4
			c-0.1-0.2-0.2-0.5-0.4-0.9l-0.6,0.9H257c-0.2-0.4-0.4-0.6-0.6-0.6c0,0-0.1,0.1-0.3,0.3c-0.2,0.2-0.3,0.3-0.4,0.3H252
			C251.7,99.6,251.6,99.4,251.4,99.4z"/>
		<path class="st0" d="M268.2,91.2c0.4-0.2,0.7-0.2,1-0.2c0.3,0,0.5,0.1,0.6,0.3c0.2,0.9,0.6,2.2,1,3.9c0.1,0.4,0.2,0.9,0.2,1.4
			c0,0.2-0.3,0.7-0.8,1.6c-0.5,0.9-0.8,1.4-0.9,1.4l-4.5-1.9c-0.1,0-0.3,0.4-0.7,1.1s-0.6,1.1-1,1.1H262v-3.4h1.8
			c0.3-0.7,0.6-1.4,0.8-2.1C265.4,93.1,266.6,92,268.2,91.2z M267.4,93.9c-0.4,0-0.9,0.2-1.4,0.6l2.1,1
			C267.9,94.5,267.7,93.9,267.4,93.9z"/>
		<path class="st0" d="M204.9,129.6L204,129c-0.2,0.2-0.4,0.5-0.8,0.9c-0.5,0.1-0.9,0.1-1.3,0.1c-0.5-0.3-0.9-0.6-1.3-1.1
			c-0.2,0.2-0.5,0.5-0.8,0.9c-2.1-0.5-3.2-1.8-3.2-3.8c0-2.1,1-4.2,2.9-6.4c0.7-0.8,1.2-1.2,1.4-1.2c-0.8,1-1.4,1.8-1.7,2.5
			c-0.5,1-0.8,2-0.8,3c0,0.9,0.4,1.7,1.3,2.3c0.8,0.5,1.6,0.8,2.5,0.8c1.2,0,2.3-0.1,3.4-0.4c0.6-0.2,1.2-0.3,1.8-0.5
			c-0.5-0.9-1.4-1.4-2.6-1.4l-2.1-0.2c0.1-0.4,0.6-1.3,1.7-2.9h5.8v3.4h-0.5c-0.5,0.9-0.8,1.6-1,2c-0.5,0.8-0.9,1.3-1.4,1.7
			C206.6,129,205.8,129.3,204.9,129.6z M202.7,131c0.1,0,0.3-0.2,0.7-0.6c0.4-0.4,0.6-0.7,0.7-0.7l2.2,1.4c-0.1,0.2-0.4,0.6-0.8,1
			c-0.4,0.6-0.7,0.9-0.8,0.9c0,0-0.7-0.4-2.2-1.3c-0.8,0.8-1.2,1.2-1.2,1.2c-0.3-0.1-0.7-0.3-1.2-0.6c-0.6-0.3-0.9-0.6-1-0.7
			c0-0.1,0.6-0.7,1.6-1.9c0.1,0.2,0.5,0.4,1,0.8S202.5,131,202.7,131z"/>
		<path class="st0" d="M209,125v-3.4h5.4c-0.5-1.5-1.1-2.7-1.8-3.6c0.4-0.7,1-1.7,1.6-3.1c1.1,1.8,1.8,3,1.9,3.9
			c0.1,0.5,0.1,1,0.1,1.5c0,0.7-0.2,2.3-0.6,4.8L209,125z M209.7,112.7c1.2-1.6,1.9-2.4,2.1-2.4c1.5,1,2.3,1.5,2.5,1.5
			c0,0.1-0.3,0.6-0.9,1.3s-0.9,1.1-0.9,1.1C210.8,113.2,209.8,112.7,209.7,112.7z"/>
		<path class="st0" d="M218.6,112.7c0.4-0.7,1-1.6,1.8-2.7c0.1,1,0.2,2.3,0.3,3.9l0.4,4.9c0.1,0.7,0.1,1.4,0.2,2.2
			c0.1,0.4,0.2,0.6,0.5,0.6h1.8v3.4h-4.1c0,0-0.1-1.2-0.3-3.4L218.6,112.7z"/>
		<path class="st0" d="M233,124.9h-11.5v-3.4h2v-0.9c0-0.7,0.3-1.3,0.8-1.9c0.3-0.7,1-1.5,2.1-2.3s2-1.2,2.7-1.2
			c0.9,0,1.8,0.5,2.8,1.6c0.9,1.1,1.4,2.1,1.3,3c-0.7-0.7-1.3-1.1-2-1.3c-0.5-0.2-1.3-0.3-2.4-0.3c-0.5,0-1,0.1-1.6,0.1
			c-0.9,0.1-1.3,0.3-1.3,0.5c0,0.2,0.3,0.5,1,1.2c0.6,0.6,1,0.9,1.2,1.1c0.4,0.3,0.8,0.4,1.3,0.4c3.4-0.1,5.2-0.1,5.5-0.1L233,124.9
			z"/>
		<path class="st0" d="M244,112.5c0.3,1.1,0.8,3,1.4,5.8c0.2,1.1,0.4,1.8,0.4,1.8c0.3,1,0.6,1.4,0.9,1.4h1.4v3.4H245
			c-0.2,0-0.4-0.3-0.6-0.8c-0.1-0.4-0.3-0.8-0.4-1.2c-0.1,0.1-0.3,0.4-0.6,1s-0.6,0.9-0.8,0.9h-5.7c-0.2,0-0.4-0.1-0.5-0.2
			s-0.2-0.4-0.2-0.6c0.1-1.5,0.2-2.7,0.5-3.7c0.1-0.4,0.2-0.8,0.3-1c0.2-0.4,0.4-0.7,0.6-0.8c0,0.2,0,0.5,0,0.9s0,0.7,0,0.9
			c0,0.8,0.2,1.2,0.7,1.2h5.4c0-0.3-0.1-1-0.3-2.1l-0.8-3.4c0-0.1,0.2-0.6,0.7-1.7C243.7,113.3,243.9,112.7,244,112.5z"/>
		<path class="st0" d="M261.1,121.5v3.4h-7c-0.1-0.6-0.1-1.1-0.1-1.7c0-0.3,0-0.7,0-1.3c-0.3,0-0.7,0.2-1.2,0.7
			c-0.1,0.1-0.4,0.5-1,1.1c-0.4,0.5-0.7,0.8-0.7,0.8c-0.3,0.2-0.6,0.4-0.9,0.4h-4.1v-3.4h4.9c0.3,0,0.7-0.1,1.1-0.4s0.8-0.6,1-0.8
			c-0.2-0.1-0.7-0.3-1.7-0.7c-1-0.3-1.6-0.5-1.8-0.5c-0.5,0-0.9,0.1-1.4,0.3c-0.6,0.3-0.9,0.6-1.1,1c0.4-1.6,0.7-2.7,1-3.2
			c0.5-1,1.4-1.5,2.4-1.5c0.7,0,1.6,0.2,2.9,0.7c1.7,0.6,2.7,1,2.9,1.1c0.6,0.2,1.5,0.2,2.9,0.2h0.7c-0.1,0.4-0.5,1.3-1.2,2.7
			c-0.9,0-1.7,0.2-2.6,0.6c-0.3,0.1-0.5,0.2-0.8,0.4L261.1,121.5L261.1,121.5z M252.1,126.3c1.7,1.3,2.5,2.1,2.5,2.2
			c0,0.1-0.3,0.4-1,1.1c-0.7,0.7-1,1-1.1,1c-0.2,0-0.7-0.3-1.3-0.9c-0.7-0.6-1-1-1-1.2C251.3,127,251.9,126.3,252.1,126.3z"/>
		<path class="st0" d="M259.8,113.4c1.1-2.4,1.8-3.6,2.1-3.6c0,0.5,0,0.8,0.1,1c0.1,0.3,0.3,0.5,0.6,0.8c1.5,1.2,2.4,1.8,2.7,1.8
			l-2.2,3c0,0.5,0.1,2,0.3,4.3c0,0.4-0.1,0.9-0.2,1.7l-0.4,1.8c-0.2,0.7-0.5,1-1.1,0.9h-3.2v-3.4h3c0.1,0,0.1-0.1,0.1-0.4
			c0-0.8-0.1-1.9-0.4-3.4c-0.2-1.1-0.4-2.3-0.6-3.4C260.5,114,260.2,113.7,259.8,113.4z"/>
		<path class="st0" d="M267.4,115c0-0.2,0.3-0.9,0.9-2c0.5-1.1,0.9-1.8,1.1-2.1c0.1,0,0.3,1.7,0.6,5.1c0.1,1.3,0.2,2.6,0.2,3.8
			c0,2.1-0.5,3.9-1.6,5.4L267.4,115z"/>
	</g>
	<path class="st0" d="M142,82.2v58c0,1.1-0.4,2.3-1.2,3.1c-0.6,0.5-1.1,0.8-1.8,0.8c-0.6,0-1.2-0.3-1.8-0.8
		c-0.8-0.8-1.2-1.9-1.2-3.1v-11.8h-10.2v11.8c0,7.6,4.4,13.9,10.2,15.5c1,0.3,2,0.4,3,0.4s2-0.1,3-0.4c5.9-1.6,10.2-7.9,10.2-15.5
		v-58H142z"/>
	<polygon class="st0" points="174.4,82.2 174.4,109.9 167.8,109.9 167.8,82.2 157.6,82.2 157.6,156.1 167.8,156.1 167.8,123.3 
		174.4,123.3 174.4,156.1 184.6,156.1 184.6,82.2 	"/>
	<polygon class="st0" points="135.6,117.1 135.6,122.2 126.3,122.2 126.3,98.9 130.9,98.9 130.9,117.1 	"/>
	<path class="st0" d="M124.8,122.2l-3.8-23.2h-5.5l-4,23.2h4.8v-4.3h3.7v4.3C120,122.1,124.8,122.1,124.8,122.2z M119.3,113.9h-2.2
		l1.1-8.4L119.3,113.9z"/>
	<path class="st1" d="M155.7,178.2c13.7,0,26.4-3.8,37.1-10.4C178,185.1,156.1,196,131.7,196c-44.7,0-80.9-36.6-80.9-81.8
		S87,32.4,131.7,32.4c24.4,0,46.3,10.9,61.1,28.2c-10.7-6.6-23.4-10.4-37.1-10.4c-37.5,0-68,28.6-68,64S118.2,178.2,155.7,178.2z"/>
</g>
</svg>
