<?xml version="1.0" encoding="UTF-8"?>
<svg id="katman_1" data-name="katman 1" xmlns="http://www.w3.org/2000/svg" version="1.1" viewBox="0 0 1867.6 1596">
  <defs>
    <style>
      .cls-1 {
        fill: #4eb6ee;
      }

      .cls-1, .cls-2, .cls-3, .cls-4 {
        stroke-width: 0px;
      }

      .cls-2 {
        fill: #265c73;
      }

      .cls-3 {
        fill: #255d72;
      }

      .cls-4 {
        fill: #828282;
      }
    </style>
  </defs>
  <path class="cls-2" d="M0,1347.8v-221.2c0-28.8,10.8-39.6,39.6-39.6h181.2v48.6H91.9c-7.2,0-10.8,3.6-10.8,10.8v55.1h132.2v45.4H81.1v100.9H0Z"/>
  <path class="cls-2" d="M254.8,1347.8v-134c0-28.8,8.3-47.9,24.5-57.7,16.2-9.7,46.1-14.4,89.7-14.4h34.6v41.4h-31.7c-29.2,0-38.2,7.2-38.2,29.9v134.8h-78.9Z"/>
  <path class="cls-2" d="M452.9,1347.8c-15.5,0-23.4-7.9-23.4-23.8v-182.3h77.8v206.1h-54.4ZM435.3,1090.1c0-16.9,11.2-25.6,33.5-25.6s33.9,8.6,33.9,25.6-11.2,25.9-33.9,25.9-33.5-8.6-33.5-25.9"/>
  <path class="cls-2" d="M572.6,1376.9c67,5.8,103.1,5,123.6-2.2,20.2-8.3,23.8-22.3,23.8-47.9v-17.3c-15.1,19.5-37.8,29.2-68.1,29.2-65.9,0-104.9-36.4-104.9-99.5s34.6-101.3,112.8-101.3,39.6,2.5,69.2,7.6c29.9,5,52.6,7.6,68.8,7.6v165c0,16.2-.7,29.2-2.5,38.9-3.2,20.2-13.7,40.4-33.5,49.4-31.7,14.8-86.5,18.4-189.2,10.4v-40ZM721.4,1239.7v-41.1c0-6.1-3.2-9.7-9.7-10.8-13-3.2-25.2-5-36.4-5-33.9,0-50.8,18.7-50.8,56.6s16.2,56.6,49,56.6,47.9-19.8,47.9-56.2"/>
  <path class="cls-2" d="M837.1,1245.4c0-71,42.2-106.3,126.5-106.3s126.1,34.6,126.1,106.3-41.1,107.4-126.5,107.4-126.1-35.3-126.1-107.4M1012.2,1245.1c0-40.7-15.9-59.5-49-59.5s-48.6,18.7-48.6,59.5,15.5,60.5,49,60.5,48.6-18.7,48.6-60.5"/>
  <path class="cls-1" d="M1128.9,1293.3c111.7,15.1,167.6,9.4,167.6-16.9-.4-23.8-42.9-25.6-86.5-35.3-14.8-4-28.8-8.3-41.4-13-25.6-10.1-44.7-32.8-44.7-64.9,0-60.9,37.5-94.8,235.7-71.7v45.8c-134.4-13.7-157.1-2.2-157.1,17.7s4.3,13,13,17.7c17.3,8.6,44.3,9.7,74.6,16.9,15.5,3.6,29.5,7.9,42.5,13,25.9,10.1,45.4,34.2,45.4,68.8s-4.3,40.4-25.6,56.6c-10.4,7.9-24.5,13.7-42.2,17.7-35,7.2-97.3,7.9-181.2-2.5v-49.7Z"/>
  <path class="cls-1" d="M1478.8,1414.4l28.5-64.9c-14.8-.4-26.3-4.7-35-12.6-8.3-7.9-16.6-21.3-24.1-39.6l-66.7-155.7h83.2l49.4,127.9c4.7,11.2,7.9,14.4,13.7,14.4s9-2.5,13.7-14.1l49.7-128.3h59.1l-112.4,272.8h-59.1Z"/>
  <path class="cls-1" d="M1663,1296.9c38.6,7.2,69.5,10.1,87.2,9,28.1-2.2,36.8-9.4,36.8-17.7s-20.2-15.5-45-20.2c-12.6-2.5-25.2-5.4-37.8-9.4-24.9-7.6-45-27.4-45-56.6s5.4-30.3,23.1-43.6c9-6.8,20.5-11.9,34.6-15.5,28.5-7.2,77.5-7.6,139.1,2.9v40c-78.2-12.6-117.1-8.6-117.1,11.2s32.4,15.5,64.5,24.5c32.1,7.2,64.5,23.4,64.5,64.9s-10.8,42.2-41.8,54.1c-10.4,4-23.1,6.8-37.8,9-28.8,4.3-73.1,1.8-125-7.2v-45.4Z"/>
  <path class="cls-4" d="M233.8,1567.9l-30.5-56.3v62.1h-7.7v-77.7h7.5c4.6,0,6.8,1.5,8.8,5.9l33.8,61.5,33.8-61.5c1.8-4,4.9-5.9,9.6-5.9h7.1v77.7h-13.1v-62.1l-30.5,56.3c-2,4.3-5.2,6.4-9.6,6.4s-7.3-2.1-9.2-6.4"/>
  <path class="cls-4" d="M306.7,1555.8c0-13.8,9.8-19.3,32.1-19.3h21.8v-2.8c0-6.1-1-9.6-4.7-12.2-1.8-1.4-4.7-2.4-8.5-2.8-7.4-1-18-1.1-35.6.2v-6.5c26.9-1.9,42.3-1,51,2.4,8.6,3.9,10.7,10,10.6,20v35.5c-3,0-8.6.8-16.9,2.4-8.3,1.5-15.5,2.3-21.6,2.3-18.5,0-28.2-6.4-28.2-19M357.5,1565.4c2.3-1,3-2.1,3-4.8v-17.7h-20.7c-14.9,0-20.3,3.3-20.3,12.8s5.5,12.8,18.5,12.8,14.5-1,19.5-3"/>
  <path class="cls-4" d="M382,1565.4c15,2.6,27,3,33.6,2.1,10.6-1.6,13.5-5.8,13.5-9.6,0-7.9-11.9-8.8-23.9-11.1-4.2-.9-8.1-1.8-11.6-2.8-7-2.1-12.3-7.3-12.3-15s3.3-11.5,12-15c8.9-3.8,23.1-3.9,45-.8v6.1c-34.8-5.2-44.1.5-44.1,7.9s12,8.9,24,11.2c4.2.9,8.1,1.8,11.6,2.9,7.2,2,12.4,7.3,12.4,15.1.1,12.1-14.5,23.4-60.2,15.5v-6.7Z"/>
  <path class="cls-4" d="M476.3,1573.7c-8.5,0-14.7-1.4-18.5-4.2-3.8-2.8-5.7-7.7-5.7-14.9v-54.3h12.9v12h21.8v6.2h-21.8v36.2c0,5.4,1,8.9,2.9,10.5,2,1.6,5.6,2.5,10.8,2.5h8v6h-10.5Z"/>
  <path class="cls-4" d="M557.7,1573c-49.2,6.8-67.8-3-67.8-29.9s11.8-31.8,35.5-31.8,35.3,11.1,35.3,29.2-1,4.1-3.5,4.1l-54.5.2c0,10.8,4.1,17.9,12.2,21.1,8.3,3.2,22.5,3.5,42.8.9v6.2ZM548.2,1538.3c0-13.8-7.2-20.7-22.8-20.7s-21.5,6.4-22.6,20.7h45.4Z"/>
  <path class="cls-4" d="M571.5,1573.7v-42.7c0-14.1,7.2-18.7,25.1-18.7h9.6v6h-8.1c-5.3,0-8.9.8-10.8,2.4-1.9,1.6-2.9,5-2.9,10.3v42.7h-12.9Z"/>
  <path class="cls-4" d="M713.9,1572.9c-44.6,6.2-69.3-2.9-69.3-37.9s5.7-28.3,17.2-34.2c11.5-5.9,28.8-7.3,52.1-4.2v6.9c-21.5-2.5-35.5-2.4-44.2,3.1-8.6,5.5-11.8,14-11.8,28.4,0,28,13.4,36.8,56.1,31.1v6.8Z"/>
  <path class="cls-4" d="M716.5,1543.2c0-20.7,12.9-31.9,36.8-31.9s37,11.2,37,31.9-12.9,32-36.8,32-37-11.3-37-32M777.4,1543c0-16.9-8.1-25.2-24.1-25.2s-23.9,8.2-23.9,25.2,7.7,25.4,24.1,25.4,23.9-8.3,23.9-25.4"/>
  <path class="cls-4" d="M804.9,1573.7c-2.7,0-4.1-1.4-4.1-4.2v-77.2h12.8v81.4h-8.7Z"/>
  <path class="cls-4" d="M824.1,1543.2c0-20.9,12.1-31.9,35.3-31.9s10.9,1.1,15.7,3.3c4.7,2.3,8,5,9.9,8.5v-30.7h12.9v77.9l-6.2,1.1-5.8,1.1c-1.1.1-2.7.4-4.9.8-2.3.3-3.9.6-4.9.8-2,.3-6.1.9-8.4,1-2.1.1-5,.3-7.6.3-23.2,0-35.8-11.4-35.8-32.1M882,1565.9c2.5-.8,3.1-1.4,3.1-3.2v-19.6c0-17.1-7.7-25.2-24.1-25.2s-23.9,8.1-23.9,25.2,7.9,25.4,24.3,25.4,13.7-.9,20.7-2.6"/>
  <path class="cls-4" d="M953.8,1573.7c-5.2,0-7.7-2.6-7.7-7.7v-62.3c0-5.2,2.6-7.7,7.7-7.7h55.7v6.8h-47.1c-2.1,0-3.2,1.1-3.2,3.2v22.2h48.1v6.5h-48.1v29c0,2.1,1.1,3.2,3.2,3.2h47.1v6.8h-55.7Z"/>
  <path class="cls-4" d="M1020.2,1573.7v-57.9c3.3,0,8.9-.8,17-2.3,8.1-1.6,15-2.4,20.9-2.4,10.7,0,18.2,1.9,22.4,5.8,4.2,3.9,6.3,10.8,6.3,20.9v35.7h-8.8c-2.7,0-4.1-1.4-4.1-4.1v-29.7c0-8.9-1.2-14.7-3.6-17.6-2.5-2.9-7.4-4.4-15-4.4s-12.9,1-19.2,2.9c-2.6.8-3.1,1.4-3.1,3.2v49.7h-12.8Z"/>
  <path class="cls-4" d="M1104.8,1588.6c7.6.4,14,.6,19,.8,10,.3,18.7-.8,23.1-2.6,7.5-2.8,9.6-8.8,9.6-19v-9.3c-4.3,8.6-11.9,12.8-25.3,12.8-23.7,0-35.5-10.1-35.5-30.2s12.6-29.8,36.1-29.8,10.9.8,19.6,2.4c8.7,1.6,14.7,2.4,18,2.4v51.3c0,3.4-.2,6.3-.5,8.8-.8,4.8-2.8,10-6.8,12.9-8.2,6.3-24,8.7-57.3,6.1v-6.4ZM1156.5,1541v-17.6c0-1.8-.6-2.5-3.2-3-6.8-1.9-13.6-2.9-20.6-2.9-16.4,0-24.3,7.6-24.3,23.5s7.5,23.6,24.1,23.6,23.9-7,23.9-23.6"/>
  <path class="cls-4" d="M1181.8,1497.6c0-3.5,2.3-5.3,6.9-5.3s7,1.7,7,5.3-2.4,5.3-7,5.3-6.9-1.7-6.9-5.3M1186.4,1573.7c-2.7,0-4.1-1.4-4.1-4.1v-57.3h12.8v61.4h-8.7Z"/>
  <path class="cls-4" d="M1208.2,1573.7v-57.9c3.3,0,8.9-.8,17-2.3,8.1-1.6,15-2.4,20.9-2.4,10.7,0,18.2,1.9,22.4,5.8,4.2,3.9,6.3,10.8,6.3,20.9v35.7h-8.8c-2.7,0-4.1-1.4-4.1-4.1v-29.7c0-8.9-1.2-14.7-3.6-17.6-2.5-2.9-7.4-4.4-15-4.4s-12.9,1-19.2,2.9c-2.6.8-3.1,1.4-3.1,3.2v49.7h-12.8Z"/>
  <path class="cls-4" d="M1351.4,1573c-49.2,6.8-67.8-3-67.8-29.9s11.8-31.8,35.5-31.8,35.3,11.1,35.3,29.2-1,4.1-3.5,4.1l-54.5.2c0,10.8,4.1,17.9,12.2,21.1,8.3,3.2,22.5,3.5,42.8.9v6.2ZM1341.8,1538.3c0-13.8-7.2-20.7-22.8-20.7s-21.5,6.4-22.6,20.7h45.4Z"/>
  <path class="cls-4" d="M1430.4,1573c-49.2,6.8-67.8-3-67.8-29.9s11.8-31.8,35.5-31.8,35.3,11.1,35.3,29.2-1,4.1-3.5,4.1l-54.5.2c0,10.8,4.1,17.9,12.2,21.1,8.3,3.2,22.5,3.5,42.8.9v6.2ZM1420.8,1538.3c0-13.8-7.2-20.7-22.8-20.7s-21.5,6.4-22.6,20.7h45.4Z"/>
  <path class="cls-4" d="M1444.1,1573.7v-42.7c0-14.1,7.2-18.7,25.1-18.7h9.6v6h-8.1c-5.3,0-8.9.8-10.8,2.4-1.9,1.6-2.9,5-2.9,10.3v42.7h-12.9Z"/>
  <path class="cls-4" d="M1484.5,1497.6c0-3.5,2.3-5.3,6.9-5.3s7,1.7,7,5.3-2.4,5.3-7,5.3-6.9-1.7-6.9-5.3M1489.1,1573.7c-2.7,0-4.1-1.4-4.1-4.1v-57.3h12.8v61.4h-8.7Z"/>
  <path class="cls-4" d="M1510.9,1573.7v-57.9c3.3,0,8.9-.8,17-2.3,8.1-1.6,15-2.4,20.9-2.4,10.7,0,18.2,1.9,22.4,5.8,4.2,3.9,6.3,10.8,6.3,20.9v35.7h-8.8c-2.7,0-4.1-1.4-4.1-4.1v-29.7c0-8.9-1.2-14.7-3.6-17.6-2.5-2.9-7.4-4.4-15-4.4s-12.9,1-19.2,2.9c-2.6.8-3.1,1.4-3.1,3.2v49.7h-12.8Z"/>
  <path class="cls-4" d="M1595.4,1588.6c7.6.4,14,.6,19,.8,10,.3,18.7-.8,23.1-2.6,7.5-2.8,9.6-8.8,9.6-19v-9.3c-4.3,8.6-11.9,12.8-25.3,12.8-23.7,0-35.5-10.1-35.5-30.2s12.6-29.8,36.1-29.8,10.9.8,19.6,2.4c8.7,1.6,14.7,2.4,18,2.4v51.3c0,3.4-.2,6.3-.5,8.8-.8,4.8-2.8,10-6.8,12.9-8.2,6.3-24,8.7-57.3,6.1v-6.4ZM1647.2,1541v-17.6c0-1.8-.6-2.5-3.2-3-6.8-1.9-13.6-2.9-20.6-2.9-16.4,0-24.3,7.6-24.3,23.5s7.5,23.6,24.1,23.6,23.9-7,23.9-23.6"/>
  <path class="cls-3" d="M1356.8,219.5L934.9,1c-2.4-1.3-5.4-1.3-7.8,0l-429.9,218.6c-6.2,3.2-6.2,12,0,15.2l215.1,111.7c-4.3-16.8-8.5-32.9-12.8-49.2,16.3-4.2,32.2-8.3,48.4-12.5,2,7.4,4,14.3,5.8,21.2,6.4,24,12.8,48.1,19.4,72.1l128.8,66.9c0-42.1,0-84.3,0-126.4,0-3-.8-5.1-2.9-7.2-24-23.8-47.9-47.7-71.5-71.4,11.7-11.7,23.3-23.4,35.9-36,11.9,12.9,24.2,26.2,36.5,39.4.6-.4,1.2-.8,1.8-1.2v-62.9h50.5v62.7c.5.3.9.6,1.4.9,12.2-13.3,24.5-26.6,36.4-39.5,13.2,13.2,24.8,24.8,36.6,36.6-17.3,17.3-35.1,35.1-52.8,52.8-6.5,6.5-13,12.9-19.3,19.5-1.2,1.2-2.1,3.2-2.2,4.8-.1,42.6,0,85.2,0,127.9l128.2-66.6c8.1-30.9,16.4-61.8,24.9-93.5,16.1,4.1,32.1,8.2,48.5,12.4-4.2,16.4-8.3,32.6-12.7,49.5l215.7-112.1c6.2-3.2,6.2-12,0-15.2"/>
  <path class="cls-3" d="M1363.4,325.8c0-5.8-6.2-9.5-11.3-6.9l-160.7,83.5c9.1,2.5,18.1,5,27.3,7.5-4.2,16.1-8.3,31.8-12.5,47.7-21.5-5.8-42.7-11.4-63.9-17.1-5.3-1.4-10.7-2.9-16-4.3l-140.8,73.1c2.9,1.7,5.8,3.4,8.7,5.1,35.4,20.5,70.8,41.1,106.3,61.5,1.8,1.1,4.7,1.5,6.8.9,32.8-8.6,65.6-17.4,99-26.2,4.2,16.1,8.3,32.1,12.6,48.4-17.7,4.7-35.1,9.2-53.8,14.1,19.2,11.2,37.5,21.9,56.1,32.8-8.4,14.4-16.5,28.5-25,43-18.5-10.8-37-21.5-56.3-32.8,5,18.8,9.8,36.7,14.8,55.4-16.2,4.2-32.2,8.3-48.5,12.5-4.3-16.1-8.4-31.8-12.6-47.4-4.7-17.7-9.4-35.5-14.2-53.2-.4-1.6-1.9-3.3-3.3-4.1-32.5-19-65-37.8-97.6-56.7-5.6-3.2-11.2-6.5-17-9.9v151c21.1,21,42.1,42,63.1,63.1.8.8,1.6,1.7,2.2,2.4-11.6,11.7-23.1,23.4-34.9,35.2-10.1-9.8-20.1-19.7-30.5-29.8v233.7c0,5.7,6,9.5,11.2,6.9l387.7-191.9c2.6-1.3,4.3-4,4.3-7l-1.1-491Z"/>
  <path class="cls-3" d="M863,806.1c-12.6-12.6-24.5-24.5-36.9-37,3.4-3.2,6.9-6.4,10.3-9.8,18.9-18.6,37.8-37.3,56.6-56v-150.7c-38.4,22.3-76.8,44.6-115.2,66.9-1.3.8-2.6,2.4-3,3.8-9.1,33.2-18.1,66.3-27.2,99.5,0,.3-.3.5-.8,1.2-15.4-4-31-8.1-47.3-12.4,4.9-18,9.7-35.9,14.7-54.7-19.2,10.9-37.5,21.3-56.2,31.9-8.3-14.3-16.6-28.6-25-43,18.4-10.9,36.5-21.6,55.4-32.8-18.4-4.8-35.9-9.4-53.9-14.1,4.2-16.2,8.4-32.3,12.5-48.4,15.9,4.2,31.6,8.3,47.2,12.4,17.7,4.7,35.4,9.5,53.2,14.1,1.6.4,3.8.1,5.3-.7,38.5-22.2,77-44.6,116-67.2l-140-72.7c-26.7,6.8-53.3,13.7-79.9,20.6-.4.1-.8.1-1.8.2-4.1-15.7-8.3-31.4-12.5-47.5,9.3-2.6,18.6-5.1,28.1-7.7l-160.3-83.3c-5.1-2.7-11.3,1.1-11.3,6.9l-1.1,491c0,2.9,1.7,5.6,4.3,7l387.7,191.9c5.1,2.5,11.2-1.2,11.2-6.9v-233c-10.2,10.3-20.1,20.4-29.9,30.4"/>
</svg>